<svg width="14" height="10" viewBox="0 0 14 10" fill="none" xmlns="http://www.w3.org/2000/svg">
<path fill-rule="evenodd" clip-rule="evenodd" d="M8.29697e-05 5.00002C8.29697e-05 4.86741 0.0527611 4.74024 0.146529 4.64647C0.240297 4.5527 0.367475 4.50002 0.500083 4.50002H12.2931L9.14608 1.35402C9.0996 1.30753 9.06272 1.25234 9.03756 1.1916C9.0124 1.13087 8.99945 1.06577 8.99945 1.00002C8.99945 0.934277 9.0124 0.869177 9.03756 0.808438C9.06272 0.747698 9.0996 0.692509 9.14608 0.646021C9.19257 0.599533 9.24776 0.562657 9.3085 0.537498C9.36924 0.512339 9.43434 0.49939 9.50008 0.49939C9.56583 0.49939 9.63093 0.512339 9.69167 0.537498C9.75241 0.562657 9.8076 0.599533 9.85408 0.646021L13.8541 4.64602C13.9006 4.69247 13.9376 4.74764 13.9628 4.80839C13.988 4.86913 14.001 4.93425 14.001 5.00002C14.001 5.06579 13.988 5.13091 13.9628 5.19165C13.9376 5.2524 13.9006 5.30758 13.8541 5.35402L9.85408 9.35402C9.8076 9.40051 9.75241 9.43739 9.69167 9.46254C9.63093 9.4877 9.56583 9.50065 9.50008 9.50065C9.43434 9.50065 9.36924 9.4877 9.3085 9.46254C9.24776 9.43739 9.19257 9.40051 9.14608 9.35402C9.0996 9.30753 9.06272 9.25234 9.03756 9.1916C9.0124 9.13087 8.99945 9.06576 8.99945 9.00002C8.99945 8.93428 9.0124 8.86918 9.03756 8.80844C9.06272 8.7477 9.0996 8.69251 9.14608 8.64602L12.2931 5.50002H0.500083C0.367475 5.50002 0.240297 5.44734 0.146529 5.35357C0.0527611 5.25981 8.29697e-05 5.13263 8.29697e-05 5.00002Z" fill="#247DFF"/>
</svg>
