<svg width="192" height="206" viewBox="0 0 192 206" fill="none" xmlns="http://www.w3.org/2000/svg">
<path opacity="0.5" d="M184.092 196.682L143.909 205.737C138.328 207.005 132.933 203.564 131.817 198.131L131.445 196.682C106.889 107.758 25.7787 110.475 -2.31212 114.822C-2.49815 114.822 -2.49815 114.822 -2.68418 114.822C-7.14896 115.546 -11.6137 113.373 -13.4741 109.388C-13.6601 108.845 -14.0321 108.302 -14.2182 107.758C-14.4042 107.396 -14.4042 107.034 -14.5902 106.853L-23.7058 68.2771C-23.7058 67.9149 -23.8919 67.5527 -23.8919 67.1905C-24.636 62.3006 -21.4734 57.5919 -16.4506 56.3241C-15.3344 55.9619 -14.2182 55.5997 -12.916 55.2375C13.6867 47.631 40.8474 26.0793 63.9154 0C58.7065 9.41754 48.6607 35.3158 46.6144 44.7333C42.5217 64.8361 47.3585 85.4823 60.1947 101.782C80.2862 127.137 114.33 149.232 170.326 138.184C175.907 137.098 181.302 140.358 182.418 145.791L191.72 184.729C193.022 189.981 189.673 195.414 184.092 196.682Z" fill="#F4FAFF"/>
</svg>
