<svg width="101" height="93" viewBox="0 0 101 93" fill="none" xmlns="http://www.w3.org/2000/svg">
<g clip-path="url(#clip0_467_52831)">
<path opacity="0.8" d="M4.17359 4.88534L25.3813 0.137894C28.3268 -0.526749 31.1741 1.27728 31.7632 4.12575L31.9596 4.88535C44.9198 51.5053 87.7279 50.0811 102.554 47.8023C102.652 47.8023 102.652 47.8023 102.75 47.8023C105.106 47.4225 107.463 48.5619 108.445 50.6508C108.543 50.9356 108.739 51.2205 108.837 51.5053C108.936 51.6952 108.936 51.8851 109.034 51.9801L113.845 72.2042C113.845 72.3941 113.943 72.584 113.943 72.7739C114.336 75.3375 112.667 77.8062 110.016 78.4709C109.426 78.6607 108.837 78.8507 108.15 79.0405C94.1098 83.0284 79.775 94.3273 67.6002 108C70.3494 103.063 75.6513 89.4849 76.7313 84.5476C78.8914 74.0082 76.3386 63.1841 69.5639 54.6386C58.9601 41.3458 40.9925 29.762 11.4392 35.5539C8.49367 36.1236 5.64634 34.4145 5.05723 31.566L0.148057 11.152C-0.539229 8.39847 1.22807 5.54999 4.17359 4.88534Z" fill="white" fill-opacity="0.07"/>
</g>
<defs>
<clipPath id="clip0_467_52831">
<rect width="101" height="93" fill="white"/>
</clipPath>
</defs>
</svg>
