<svg width="139" height="131" viewBox="0 0 139 131" fill="none" xmlns="http://www.w3.org/2000/svg">
<g clip-path="url(#clip0_467_52827)">
<path opacity="0.5" d="M132.996 123.943L102.487 130.801C98.2492 131.761 94.1531 129.155 93.3056 125.041L93.0231 123.943C74.3785 56.6034 12.795 58.6606 -8.53328 61.9522C-8.67452 61.9522 -8.67452 61.9522 -8.81577 61.9522C-12.2057 62.5008 -15.5956 60.855 -17.0081 57.8377C-17.1493 57.4263 -17.4318 57.0149 -17.5731 56.6034C-17.7143 56.3291 -17.7143 56.0548 -17.8556 55.9177L-24.7766 26.705C-24.7766 26.4307 -24.9179 26.1564 -24.9179 25.8821C-25.4829 22.1791 -23.0817 18.6133 -19.268 17.6532C-18.4205 17.3789 -17.5731 17.1046 -16.5843 16.8303C3.61394 11.0701 24.236 -5.2506 41.7506 -25C37.7956 -17.8683 30.1683 1.74398 28.6146 8.87571C25.5072 24.0992 29.1796 39.7341 38.9256 52.0775C54.1803 71.2783 80.0284 88.0104 122.544 79.6444C126.781 78.8215 130.877 81.2902 131.725 85.4046L138.787 114.892C139.776 118.869 137.233 122.983 132.996 123.943Z" fill="white" fill-opacity="0.07"/>
</g>
<defs>
<clipPath id="clip0_467_52827">
<rect width="139" height="131" fill="white"/>
</clipPath>
</defs>
</svg>
