<svg width="84" height="109" viewBox="0 0 84 109" fill="none" xmlns="http://www.w3.org/2000/svg">
<g opacity="0.05">
<path d="M42.7029 11.0444C42.5764 9.20888 43.8969 7.62606 45.7103 7.44238L59.1394 6.19364C61.0134 6.01801 62.6291 7.32369 62.8163 9.16725L64.1473 22.3781C64.3345 24.2216 62.9533 25.7964 61.1399 25.9801L60.6391 26.0348C49.9696 27.4074 46.696 26.9729 40.7867 31.5234C44.5505 25.4756 43.4936 21.8191 42.7029 11.0444Z" fill="white"/>
<path d="M68.2178 105.124L54.728 106.364C52.854 106.54 51.2462 105.175 51.1197 103.339L51.0617 102.846C46.9421 72.5333 20.3921 69.9187 11.0484 70.1335C10.9878 70.1254 10.9878 70.1254 10.9272 70.1174C9.44059 70.1626 8.08054 69.2546 7.64828 67.8635C7.61138 67.6767 7.51386 67.4819 7.47696 67.2951C7.43215 67.1679 7.44796 67.0488 7.39525 66.9812L6.10901 53.8976C6.12483 53.7784 6.08002 53.6512 6.09583 53.5321C6.06684 51.8914 7.30301 50.4792 8.99516 50.2795C9.37471 50.2086 9.75426 50.1377 10.1944 50.0749C19.1955 48.7234 28.9873 42.8088 37.6432 35.2279C35.5346 38.1004 31.1302 46.1851 30.0522 49.1944C27.8408 55.6302 28.5155 62.6308 31.9868 68.5477C37.427 77.7572 47.5562 86.4977 66.2858 85.2856C68.1519 85.1696 69.7677 86.4753 69.8942 88.3108L71.2252 101.522C71.4203 103.306 70.0918 104.948 68.2178 105.124Z" fill="white"/>
</g>
</svg>
