<svg width="22" height="22" viewBox="0 0 22 22" fill="none" xmlns="http://www.w3.org/2000/svg">
<path d="M13.5825 10.9969L21.4582 3.13947C21.8031 2.79458 21.9969 2.32681 21.9969 1.83906C21.9969 1.35131 21.8031 0.883538 21.4582 0.538648C21.1133 0.193757 20.6456 0 20.1578 0C19.6701 0 19.2023 0.193757 18.8574 0.538648L11 8.41437L3.14259 0.538648C2.7977 0.193757 2.32993 -3.63401e-09 1.84218 0C1.35443 3.63401e-09 0.886663 0.193757 0.541773 0.538648C0.196883 0.883538 0.00312575 1.35131 0.00312575 1.83906C0.00312574 2.32681 0.196883 2.79458 0.541773 3.13947L8.4175 10.9969L0.541773 18.8543C0.370104 19.0245 0.233846 19.2271 0.14086 19.4503C0.0478743 19.6735 0 19.9129 0 20.1547C0 20.3965 0.0478743 20.6359 0.14086 20.8591C0.233846 21.0823 0.370104 21.2848 0.541773 21.4551C0.712041 21.6268 0.914614 21.763 1.13781 21.856C1.361 21.949 1.6004 21.9969 1.84218 21.9969C2.08397 21.9969 2.32337 21.949 2.54656 21.856C2.76975 21.763 2.97233 21.6268 3.14259 21.4551L11 13.5794L18.8574 21.4551C19.0277 21.6268 19.2302 21.763 19.4534 21.856C19.6766 21.949 19.916 21.9969 20.1578 21.9969C20.3996 21.9969 20.639 21.949 20.8622 21.856C21.0854 21.763 21.288 21.6268 21.4582 21.4551C21.6299 21.2848 21.7662 21.0823 21.8591 20.8591C21.9521 20.6359 22 20.3965 22 20.1547C22 19.9129 21.9521 19.6735 21.8591 19.4503C21.7662 19.2271 21.6299 19.0245 21.4582 18.8543L13.5825 10.9969Z" fill="#041A45" fill-opacity="0.25"/>
</svg>
