<svg width="261" height="40" viewBox="0 0 261 40" fill="none" xmlns="http://www.w3.org/2000/svg">
<g clip-path="url(#clip0_893_53952)">
<path d="M45.8407 16.4C45.8407 16.84 45.5607 17.12 45.1207 17.12H31.2407C30.8007 17.12 30.5207 16.84 30.5207 16.4V14.8C30.5207 14.36 30.8007 14.08 31.2407 14.08H45.1207C45.5607 14.08 45.8407 14.36 45.8407 14.8V16.4ZM52.0007 20.88C52.0007 21.32 51.7207 21.6 51.2807 21.6H34.1607C33.7207 21.6 33.4407 21.32 33.4407 20.88V19.28C33.4407 18.84 33.7207 18.56 34.1607 18.56H51.1207C51.5607 18.56 51.8407 18.84 51.8407 19.28L52.0007 20.88ZM56.6807 25.56C56.6807 26 56.4007 26.28 55.9607 26.28H37.4007C36.9607 26.28 36.6807 26 36.6807 25.56V23.96C36.6807 23.52 36.9607 23.24 37.4007 23.24H55.9607C56.4007 23.24 56.6807 23.52 56.6807 23.96V25.56ZM56.6807 30.2C56.6807 30.64 56.4007 30.92 55.9607 30.92H37.4007C36.9607 30.92 36.6807 30.64 36.6807 30.2V28.6C36.6807 28.16 36.9607 27.88 37.4007 27.88H55.9607C56.4007 27.88 56.6807 28.16 56.6807 28.6V30.2ZM52.0007 34.68C52.0007 35.12 51.7207 35.4 51.2807 35.4H34.1607C33.7207 35.4 33.4407 35.12 33.4407 34.68V33.08C33.4407 32.64 33.7207 32.36 34.1607 32.36H51.1207C51.5607 32.36 51.8407 32.64 51.8407 33.08L52.0007 34.68ZM45.8407 39.32C45.8407 39.76 45.5607 40.04 45.1207 40.04H31.2407C30.8007 40.04 30.5207 39.76 30.5207 39.32V37.72C30.5207 37.28 30.8007 37 31.2407 37H45.1207C45.5607 37 45.8407 37.28 45.8407 37.72V39.32ZM19.5607 2.47996C19.5607 2.91996 19.8407 3.19996 20.2807 3.19996H34.1607C34.6007 3.19996 34.8807 2.91996 34.8807 2.47996V0.879959C34.8807 0.439959 34.6007 0.159958 34.1607 0.159958H20.2807C19.8407 0.159958 19.5607 0.439959 19.5607 0.879959V2.47996ZM13.4007 7.11996C13.4007 7.55996 13.6807 7.83996 14.1207 7.83996H31.0807C31.5207 7.83996 31.8007 7.55996 31.8007 7.11996V5.51996C31.8007 5.07996 31.5207 4.79996 31.0807 4.79996H14.1207C13.6807 4.79996 13.4007 5.07996 13.4007 5.51996V7.11996ZM8.7207 11.76C8.7207 12.2 9.0007 12.48 9.4407 12.48H28.0007C28.4407 12.48 28.7207 12.2 28.7207 11.76V10.16C28.7207 9.71996 28.4407 9.43996 28.0007 9.43996H9.4407C9.0007 9.43996 8.7207 9.71996 8.7207 10.16V11.76ZM8.7207 16.4C8.7207 16.84 9.0007 17.12 9.4407 17.12H28.0007C28.4407 17.12 28.7207 16.84 28.7207 16.4V14.8C28.7207 14.36 28.4407 14.08 28.0007 14.08H9.4407C9.0007 14.08 8.7207 14.36 8.7207 14.8V16.4ZM13.4007 20.88C13.4007 21.32 13.6807 21.6 14.1207 21.6H31.0807C31.5207 21.6 31.8007 21.32 31.8007 20.88V19.28C31.8007 18.84 31.5207 18.56 31.0807 18.56H14.1207C13.6807 18.56 13.4007 18.84 13.4007 19.28V20.88ZM19.5607 25.56C19.5607 26 19.8407 26.28 20.2807 26.28H34.1607C34.6007 26.28 34.8807 26 34.8807 25.56V23.96C34.8807 23.52 34.6007 23.24 34.1607 23.24H20.2807C19.8407 23.24 19.5607 23.52 19.5607 23.96V25.56Z" fill="#F0553D"/>
<path d="M74.7189 28.84C73.9989 29 73.2789 29 72.5589 29C70.6789 29 69.2389 28.72 68.1989 28.12C67.3189 27.56 66.5989 26.68 66.3189 25.4C66.0389 24.12 65.8789 22.24 65.8789 19.8C65.8789 17.36 66.0389 15.48 66.3189 14.2C66.5989 12.92 67.1989 12.04 68.1989 11.48C69.0789 10.92 70.5189 10.6 72.5589 10.6C73.2789 10.6 73.8789 10.6 74.5989 10.76C75.3189 10.92 75.9189 11.04 76.3589 11.04V14.2C74.9189 14.04 73.8789 13.92 73.4389 13.92C72.2789 13.92 71.3989 14.08 70.9589 14.2C70.5189 14.36 70.2389 14.92 70.0789 15.64C69.9189 16.36 69.9189 17.64 69.9189 19.68C69.9189 21.68 69.9189 23 70.0789 23.72C70.2389 24.44 70.5189 24.88 70.9589 25.16C71.3989 25.44 72.2789 25.44 73.4389 25.44C74.4389 25.44 75.4789 25.28 76.4789 25.16V28.32C76.1589 28.52 75.5989 28.68 74.7189 28.84ZM80.9589 28.08C80.0789 27.52 79.5189 26.8 79.1989 25.48C78.9189 24.32 78.9189 22.32 78.9189 19.72C78.9189 17 79.0789 15.12 79.1989 13.96C79.3589 12.8 79.9189 11.96 80.9589 11.36C81.8389 10.8 83.4389 10.64 85.5989 10.64C87.7589 10.64 89.3589 10.92 90.2389 11.36C91.1189 11.92 91.6789 12.64 91.9989 13.96C92.2789 15.12 92.2789 17 92.2789 19.72C92.2789 22.44 92.1189 24.32 91.9989 25.48C91.7189 26.64 91.2789 27.48 90.2389 28.08C89.2389 28.64 87.7589 28.8 85.5989 28.8C83.4389 28.96 81.8389 28.68 80.9589 28.08ZM87.4789 25.2C87.7589 25.04 88.0789 24.48 88.0789 23.92C88.2389 23.2 88.2389 21.76 88.2389 19.76C88.2389 17.76 88.2389 16.32 88.0789 15.6C87.9189 14.88 87.7989 14.44 87.4789 14.32C87.1989 14.16 86.4789 14.04 85.5989 14.04C84.7189 14.04 83.9989 14.2 83.7189 14.32C83.4389 14.48 83.1189 15.04 83.1189 15.6C82.9589 16.32 82.9589 17.76 82.9589 19.76C82.9589 21.76 82.9589 23.2 83.1189 23.92C83.2789 24.64 83.3989 25.08 83.7189 25.2C83.9989 25.36 84.7189 25.48 85.5989 25.48C86.4789 25.48 87.0389 25.52 87.4789 25.2ZM104.439 28.68L99.1989 18.44H99.0389V28.68H95.1189V10.8H99.1989L104.119 20.16H104.279V10.8H108.199V28.68H104.439ZM114.319 28.68V14.4H110.119V10.96H122.599V14.4H118.399V28.68H114.319ZM124.599 28.68V10.8H135.319V14.12H128.519V17.88H134.319V21.2H128.519V25.2H135.319V28.52H124.599V28.68ZM147.519 28.68L142.279 18.44H142.119V28.68H138.199V10.8H142.279L147.199 20.16H147.359V10.8H151.279V28.68H147.519ZM157.399 28.68V14.4H153.199V10.96H165.679V14.4H161.479V28.68H157.399ZM167.519 28.52V25.36C169.679 25.52 171.159 25.64 172.159 25.64C172.879 25.64 173.479 25.64 173.919 25.48C174.359 25.32 174.639 25.32 174.799 25.2C174.959 25.04 175.079 24.92 175.079 24.64C175.079 24.36 175.079 24.08 175.079 23.64C175.079 23.08 175.079 22.64 174.919 22.48C174.759 22.2 174.639 22.04 174.479 21.92C174.199 21.76 173.879 21.64 173.319 21.64L170.399 21.2C169.079 21.04 168.239 20.48 167.639 19.6C167.039 18.72 166.919 17.6 166.919 16C166.919 14.56 167.199 13.4 167.639 12.56C168.079 11.84 168.799 11.28 169.679 10.96C170.559 10.68 171.719 10.52 172.999 10.52C174.599 10.52 176.319 10.68 178.079 11.08V14.24C176.479 14.08 175.159 13.96 173.879 13.96C172.559 13.96 171.719 14.12 171.399 14.24C171.119 14.4 171.119 14.52 170.959 14.8C170.799 15.08 170.799 15.36 170.799 15.8C170.799 16.24 170.799 16.68 170.959 16.8C171.119 16.96 171.119 17.08 171.239 17.24C171.399 17.4 171.679 17.4 172.239 17.52L175.279 17.96C175.999 18.12 176.599 18.24 177.039 18.52C177.479 18.8 177.919 19.24 178.199 19.8C178.479 20.52 178.799 21.68 178.799 23.12C178.799 24.84 178.519 26 178.079 26.88C177.639 27.76 176.919 28.32 176.199 28.6C175.479 28.88 174.319 29.04 172.999 29.04C170.999 28.96 169.119 28.68 167.519 28.52ZM184.479 28.68V14.4H180.279V10.96H192.759V14.4H188.559V28.68H184.479ZM203.479 28.68L202.599 25.08H197.239L196.359 28.68H192.279L197.079 10.8H202.719L207.519 28.68H203.479ZM199.999 14.56H199.839L198.079 21.76H201.719L199.999 14.56ZM217.839 28.84C217.119 29 216.399 29 215.679 29C213.799 29 212.359 28.72 211.319 28.12C210.319 27.56 209.719 26.68 209.439 25.4C209.159 24.12 208.999 22.24 208.999 19.8C208.999 17.36 209.159 15.48 209.439 14.2C209.719 12.92 210.319 12.04 211.319 11.48C212.199 10.92 213.639 10.6 215.679 10.6C216.399 10.6 216.999 10.6 217.719 10.76C218.439 10.92 219.039 11.04 219.479 11.04V14.2C218.039 14.04 216.999 13.92 216.559 13.92C215.399 13.92 214.519 14.08 214.079 14.2C213.639 14.48 213.359 14.92 213.199 15.64C213.039 16.36 213.039 17.64 213.039 19.68C213.039 21.68 213.039 23 213.199 23.72C213.359 24.44 213.639 24.88 214.079 25.16C214.519 25.44 215.399 25.44 216.559 25.44C217.559 25.44 218.599 25.28 219.599 25.16V28.32C219.159 28.52 218.559 28.68 217.839 28.84ZM231.319 28.68L227.239 21.32H226.079V28.68H221.999V10.8H226.079V17.84H227.239L231.319 10.8H235.679L230.439 19.32L235.679 28.56L231.319 28.68ZM240.199 16.16V11.84H238.599V10.96H242.799V11.84H241.199V16.16H240.199ZM243.519 16.16V10.8H245.119L246.119 14.4L247.119 10.8H248.719V16.12H247.719V11.96L246.719 16.12H245.719L244.719 11.96V16.12H243.519V16.16Z" fill="#202025"/>
</g>
<defs>
<clipPath id="clip0_893_53952">
<rect width="260.8" height="40" fill="white"/>
</clipPath>
</defs>
</svg>
