<svg width="196" height="40" viewBox="0 0 196 40" fill="none" xmlns="http://www.w3.org/2000/svg">
<path d="M12.125 27.8752C9.99998 25.8752 8.75005 23.1253 8.75005 20.0001C8.75005 16.8751 9.99998 14.1249 12 12.1251C13.75 10.3751 13.75 7.62523 12 5.87496C10.25 4.12495 7.50012 4.12495 5.75011 5.87496C2.25009 9.5 0 14.5 0 20.0001C0 25.5001 2.25009 30.5001 5.87513 34.1252C7.62487 35.8752 10.375 35.8752 12.125 34.1252C13.75 32.3751 13.75 29.625 12.125 27.8752Z" fill="#FFD85F"/>
<path d="M12.1249 12.125C14.125 9.99997 16.8749 8.75004 19.9998 8.75004C23.1251 8.75004 25.875 9.99997 27.875 12C29.625 13.75 32.3749 13.75 34.1249 12C35.8749 10.25 35.8749 7.50011 34.1249 5.7501C30.4999 2.25008 25.4999 -8.58307e-06 19.9998 -8.58307e-06C14.5 -8.58307e-06 9.49978 2.25008 5.87501 5.87512C4.125 7.62513 4.125 10.375 5.87501 12.125C7.62476 13.75 10.3749 13.75 12.1249 12.125Z" fill="#3BB4E7"/>
<path d="M27.875 27.8751C25.875 30.0002 23.1251 31.2501 20.0001 31.2501C16.8749 31.2501 14.125 30.0002 12.1249 28.0002C10.3749 26.2499 7.62502 26.2499 5.87501 28.0002C4.125 29.7502 4.125 32.5001 5.87501 34.2501C9.50005 37.7501 14.5 39.9999 20.0001 39.9999C25.4999 39.9999 30.5002 37.7501 34.1249 34.1251C35.8749 32.375 35.8749 29.6249 34.1249 27.8751C32.3749 26.2499 29.625 26.2499 27.875 27.8751Z" fill="#ED5C68"/>
<path d="M9.00015 4.62489C11.4162 4.62489 13.375 6.5837 13.375 9.00005C13.375 11.4161 11.4162 13.3749 9.00015 13.3749C6.58381 13.3749 4.625 11.4161 4.625 9.00005C4.625 6.5837 6.58381 4.62489 9.00015 4.62489Z" fill="#308BC5"/>
<path d="M9.00015 26.6249C11.4162 26.6249 13.375 28.5837 13.375 31.0001C13.375 33.4164 11.4162 35.375 9.00015 35.375C6.58381 35.375 4.625 33.4164 4.625 31.0001C4.625 28.5837 6.58381 26.6249 9.00015 26.6249Z" fill="#D5465F"/>
<path d="M113.126 17.7501H122.501C122.126 15.3749 120.251 14.5001 118.001 14.5001C115.626 14.5001 113.752 15.625 113.126 17.7501ZM67.2511 14.7501C70.1263 14.7501 72.0011 17.25 72.0011 20.0001C72.0011 22.8751 70.2513 25.1249 67.2511 25.1249C64.2512 25.1249 62.5012 22.8751 62.5012 20.0001C62.5012 17.125 64.3762 14.7501 67.2511 14.7501ZM113.001 21.6249C113.376 24.125 115.876 25.2502 118.251 25.2502C119.376 25.2502 120.626 25.0001 121.626 24.5001C121.751 24.375 122.001 24.375 122.126 24.25C122.751 23.875 123.251 23.7502 123.751 24.25L124.626 25.1249L125.376 25.875C126.126 26.8749 125.626 27.1249 124.751 27.625C122.876 28.8752 120.501 29.5 118.251 29.5C112.251 29.5 108.251 25.875 108.251 19.8751C108.251 14.125 112.251 10.375 117.876 10.375C123.751 10.375 127.001 13.75 127.126 19.6251C127.126 21.2501 127.251 21.7502 125.627 21.7502H113.001V21.6249ZM67.2511 10.5C61.7511 10.5 57.876 14.5001 57.876 20.0001C57.876 25.5002 61.7511 29.5 67.2511 29.5C72.8762 29.5 76.7513 25.625 76.7513 20.0001C76.7513 14.5001 72.7512 10.5 67.2511 10.5ZM132.876 13.1251C134.501 11.5001 136.376 10.625 138.626 10.625C143.751 10.625 146.376 14.7501 146.376 19.5001V27.5C146.376 28.3749 145.751 29 144.876 29H143.251C142.376 29 141.751 28.3749 141.751 27.5V19.5001C141.751 16.8749 140.376 14.8749 137.502 14.8749C134.751 14.8749 133.001 17.125 133.001 19.7501V27.5C133.001 28.3749 132.376 29 131.501 29H129.876C129.001 29 128.376 28.3749 128.376 27.5V12.375C128.376 11.5001 129.001 10.875 129.876 10.875H131.251C132.126 10.875 132.626 11.6252 132.751 12.375L132.876 13.1251ZM82.6261 13.1251C84.2511 11.5001 86.1262 10.625 88.3763 10.625C93.5013 10.625 96.1261 14.7501 96.1261 19.5001V27.5C96.1261 28.3749 95.5013 29 94.6262 29H93.0012C92.1263 29 91.5012 28.3749 91.5012 27.5V19.5001C91.5012 16.8749 90.1263 14.8749 87.2511 14.8749C84.5012 14.8749 82.7512 17.125 82.7512 19.7501V27.5C82.7512 28.3749 82.1263 29 81.2512 29H79.6262C78.7511 29 78.1262 28.3749 78.1262 27.5V12.375C78.1262 11.5001 78.7511 10.875 79.6262 10.875H81.0012C81.8763 10.875 82.3764 11.6252 82.5011 12.375L82.6261 13.1251ZM103.001 11.0001H106.501C107.376 11.0001 108.001 11.6252 108.001 12.5V13.4999C108.001 14.3751 107.376 14.9999 106.501 14.9999H103.001V22.625C103.001 24.125 103.751 25.0001 105.251 25.0001H106.001C106.876 25.0001 107.501 25.625 107.501 26.5001V27.5C107.501 28.3749 106.876 29 106.001 29H105.001C100.876 29 98.5013 27.25 98.5013 22.625V7.87509C98.5013 6.99996 99.1261 6.37486 100.001 6.37486H101.626C102.501 6.37486 103.126 6.99996 103.126 7.87509V11.0001H103.001ZM153.126 11.0001H156.626C157.501 11.0001 158.126 11.6252 158.126 12.5V13.4999C158.126 14.3751 157.501 14.9999 156.626 14.9999H153.126V22.625C153.126 24.125 153.876 24.8749 155.376 24.8749H156.126C157.001 24.8749 157.626 25.5002 157.626 26.3748V27.5C157.626 28.3749 157.001 29 156.126 29H154.001C150.251 28.7502 148.626 26.3748 148.626 22.625V7.87509C148.626 6.99996 149.251 6.37486 150.126 6.37486H151.751C152.627 6.37486 153.251 6.99996 153.251 7.87509V11.0001H153.126ZM164.502 11.0001H167.626C168.501 11.0001 169.126 11.7499 169.126 12.5V13.4999C169.126 14.3751 168.501 14.9999 167.626 14.9999H164.502V27.5C164.502 28.3749 163.876 29 163.002 29H161.376C160.501 29 159.876 28.3749 159.876 27.5V10.375C159.876 6.6249 162.001 3.62496 165.876 3.2499H168.251C169.126 3.2499 169.751 4.00002 169.751 4.74987V5.75003C169.751 6.6249 169.126 7.25 168.251 7.25H167.001C165.126 7.25 164.376 8.62495 164.376 10.375V11.0001H164.502ZM184.001 26.7501C182.252 28.3749 180.502 29.25 178.001 29.25C172.877 29.25 170.501 25.0001 170.501 20.3749V12.375C170.501 11.5001 171.127 10.875 172.001 10.875H173.626C174.501 10.875 175.126 11.5001 175.126 12.375V20.3749C175.126 23.0001 176.501 25.0001 179.376 25.0001C182.126 25.0001 183.876 22.625 183.876 20.1252V12.375C183.876 11.5001 184.501 10.875 185.376 10.875H187.001C187.876 10.875 188.502 11.5001 188.502 12.375V27.5C188.502 28.3749 187.876 29 187.001 29H185.626C184.752 29 184.251 28.2501 184.126 27.5L184.001 26.7501ZM192.626 29C191.752 29 191.126 28.3749 191.126 27.5V7.87509C191.126 6.99996 191.752 6.37486 192.626 6.37486H194.251C195.127 6.37486 195.751 6.99996 195.751 7.87509V27.5C195.751 28.3749 195.127 29 194.251 29H192.626ZM53.7511 24.125C55.0011 23.1251 55.2511 23.7502 56.251 24.7501C56.7511 25.2502 58.251 26.2501 57.2511 27.0002C55.2511 28.6252 53.5011 29.3753 50.8762 29.3753C45.1261 29.3753 41.001 25.0001 41.251 19.375C41.376 16.7499 42.3762 14.3751 44.376 12.7501C46.251 11.2501 48.5011 10.5 50.8762 10.625C52.1261 10.625 53.126 10.875 54.2512 11.2501C55.0011 11.5001 55.7512 11.8749 56.376 12.375C57.6262 13.3749 57.0011 13.875 56.126 14.8749C55.8762 15.1249 55.7512 15.3749 55.5011 15.5C55.0011 16 54.626 16.3751 54.0012 15.875C52.7512 14.9999 51.0012 14.5001 49.5012 14.8749C44.501 16.1251 44.751 25.0001 50.8762 25.0001C51.8761 25.1249 53.001 24.7501 53.7511 24.125Z" fill="#2A3039"/>
</svg>
