<svg width="36" height="40" viewBox="0 0 36 40" fill="none" xmlns="http://www.w3.org/2000/svg">
<path d="M12.125 27.8752C9.99998 25.8752 8.75005 23.1253 8.75005 20.0001C8.75005 16.8751 9.99998 14.1249 12 12.1251C13.75 10.3751 13.75 7.62523 12 5.87496C10.25 4.12495 7.50012 4.12495 5.75011 5.87496C2.25009 9.5 0 14.5 0 20.0001C0 25.5001 2.25009 30.5001 5.87513 34.1252C7.62487 35.8752 10.375 35.8752 12.125 34.1252C13.75 32.3751 13.75 29.625 12.125 27.8752Z" fill="#FFD85F"/>
<path d="M12.1249 12.125C14.125 9.99997 16.8749 8.75004 19.9998 8.75004C23.1251 8.75004 25.875 9.99997 27.875 12C29.625 13.75 32.3749 13.75 34.1249 12C35.8749 10.25 35.8749 7.50011 34.1249 5.7501C30.4999 2.25008 25.4999 -8.80909e-06 19.9998 -8.80909e-06C14.5 -8.80909e-06 9.49978 2.25008 5.87501 5.87512C4.125 7.62513 4.125 10.375 5.87501 12.125C7.62476 13.75 10.3749 13.75 12.1249 12.125Z" fill="#3BB4E7"/>
<path d="M27.875 27.8751C25.875 30.0002 23.1251 31.2501 20.0001 31.2501C16.8749 31.2501 14.125 30.0002 12.1249 28.0002C10.3749 26.2499 7.62502 26.2499 5.87501 28.0002C4.125 29.7502 4.125 32.5001 5.87501 34.2501C9.50005 37.7501 14.5 39.9999 20.0001 39.9999C25.4999 39.9999 30.5002 37.7501 34.1249 34.1251C35.8749 32.375 35.8749 29.6249 34.1249 27.8751C32.3749 26.2499 29.625 26.2499 27.875 27.8751Z" fill="#ED5C68"/>
</svg>
