<svg width="49" height="40" viewBox="0 0 49 40" fill="none" xmlns="http://www.w3.org/2000/svg">
<path d="M37.8407 16.4C37.8407 16.84 37.5607 17.12 37.1207 17.12H23.2407C22.8007 17.12 22.5207 16.84 22.5207 16.4V14.8C22.5207 14.36 22.8007 14.08 23.2407 14.08H37.1207C37.5607 14.08 37.8407 14.36 37.8407 14.8V16.4V16.4ZM44.0007 20.88C44.0007 21.32 43.7207 21.6 43.2807 21.6H26.1607C25.7207 21.6 25.4407 21.32 25.4407 20.88V19.28C25.4407 18.84 25.7207 18.56 26.1607 18.56H43.1207C43.5607 18.56 43.8407 18.84 43.8407 19.28L44.0007 20.88ZM48.6807 25.56C48.6807 26 48.4007 26.28 47.9607 26.28H29.4007C28.9607 26.28 28.6807 26 28.6807 25.56V23.96C28.6807 23.52 28.9607 23.24 29.4007 23.24H47.9607C48.4007 23.24 48.6807 23.52 48.6807 23.96V25.56ZM48.6807 30.2C48.6807 30.64 48.4007 30.92 47.9607 30.92H29.4007C28.9607 30.92 28.6807 30.64 28.6807 30.2V28.6C28.6807 28.16 28.9607 27.88 29.4007 27.88H47.9607C48.4007 27.88 48.6807 28.16 48.6807 28.6V30.2ZM44.0007 34.68C44.0007 35.12 43.7207 35.4 43.2807 35.4H26.1607C25.7207 35.4 25.4407 35.12 25.4407 34.68V33.08C25.4407 32.64 25.7207 32.36 26.1607 32.36H43.1207C43.5607 32.36 43.8407 32.64 43.8407 33.08L44.0007 34.68ZM37.8407 39.32C37.8407 39.76 37.5607 40.04 37.1207 40.04H23.2407C22.8007 40.04 22.5207 39.76 22.5207 39.32V37.72C22.5207 37.28 22.8007 37 23.2407 37H37.1207C37.5607 37 37.8407 37.28 37.8407 37.72V39.32V39.32ZM11.5607 2.47996C11.5607 2.91996 11.8407 3.19996 12.2807 3.19996H26.1607C26.6007 3.19996 26.8807 2.91996 26.8807 2.47996V0.879959C26.8807 0.439959 26.6007 0.159958 26.1607 0.159958H12.2807C11.8407 0.159958 11.5607 0.439959 11.5607 0.879959V2.47996ZM5.4007 7.11996C5.4007 7.55996 5.6807 7.83996 6.1207 7.83996H23.0807C23.5207 7.83996 23.8007 7.55996 23.8007 7.11996V5.51996C23.8007 5.07996 23.5207 4.79996 23.0807 4.79996H6.1207C5.6807 4.79996 5.4007 5.07996 5.4007 5.51996V7.11996V7.11996ZM0.720703 11.76C0.720703 12.2 1.0007 12.48 1.4407 12.48H20.0007C20.4407 12.48 20.7207 12.2 20.7207 11.76V10.16C20.7207 9.71996 20.4407 9.43996 20.0007 9.43996H1.4407C1.0007 9.43996 0.720703 9.71996 0.720703 10.16V11.76ZM0.720703 16.4C0.720703 16.84 1.0007 17.12 1.4407 17.12H20.0007C20.4407 17.12 20.7207 16.84 20.7207 16.4V14.8C20.7207 14.36 20.4407 14.08 20.0007 14.08H1.4407C1.0007 14.08 0.720703 14.36 0.720703 14.8V16.4ZM5.4007 20.88C5.4007 21.32 5.6807 21.6 6.1207 21.6H23.0807C23.5207 21.6 23.8007 21.32 23.8007 20.88V19.28C23.8007 18.84 23.5207 18.56 23.0807 18.56H6.1207C5.6807 18.56 5.4007 18.84 5.4007 19.28V20.88V20.88ZM11.5607 25.56C11.5607 26 11.8407 26.28 12.2807 26.28H26.1607C26.6007 26.28 26.8807 26 26.8807 25.56V23.96C26.8807 23.52 26.6007 23.24 26.1607 23.24H12.2807C11.8407 23.24 11.5607 23.52 11.5607 23.96V25.56Z" fill="#F0553D"/>
</svg>
