<svg width="48" height="48" viewBox="0 0 48 48" fill="none" xmlns="http://www.w3.org/2000/svg">
<rect width="48" height="48" rx="24" fill="#247DFF" fill-opacity="0.1"/>
<path d="M19 23V19C19 17.6739 19.5268 16.4021 20.4645 15.4645C21.4021 14.5268 22.6739 14 24 14C25.3261 14 26.5979 14.5268 27.5355 15.4645C28.4732 16.4021 29 17.6739 29 19V23M17 23H31C32.1046 23 33 23.8954 33 25V32C33 33.1046 32.1046 34 31 34H17C15.8954 34 15 33.1046 15 32V25C15 23.8954 15.8954 23 17 23Z" stroke="#247DFF" stroke-width="2" stroke-linecap="round" stroke-linejoin="round"/>
</svg>
