<svg width="522" height="296" viewBox="0 0 522 296" fill="none" xmlns="http://www.w3.org/2000/svg">
<path d="M495.012 15.4202H120.344V295.245H495.012V15.4202Z" fill="white"/>
<path d="M480.386 6.71344H106.512V25.6851H480.386V6.71344Z" fill="#041A45"/>
<path d="M163.816 17.3833H102.166C101.803 17.3853 101.442 17.3154 101.106 17.1777C100.77 17.04 100.464 16.8372 100.206 16.581C99.9488 16.3248 99.7444 16.0201 99.6049 15.6846C99.4654 15.3491 99.3935 14.9893 99.3936 14.6259C99.3936 13.8907 99.6856 13.1855 100.206 12.6656C100.725 12.1457 101.431 11.8536 102.166 11.8536H163.816C164.552 11.8536 165.257 12.1457 165.777 12.6656C166.297 13.1855 166.589 13.8907 166.589 14.6259C166.589 14.9893 166.517 15.3491 166.377 15.6846C166.238 16.0201 166.033 16.3248 165.776 16.581C165.518 16.8372 165.212 17.04 164.876 17.1777C164.54 17.3154 164.18 17.3853 163.816 17.3833Z" fill="white"/>
<path d="M431.578 9.89046C434.309 9.89046 436.523 7.6764 436.523 4.94523C436.523 2.21406 434.309 0 431.578 0C428.847 0 426.633 2.21406 426.633 4.94523C426.633 7.6764 428.847 9.89046 431.578 9.89046Z" fill="#407BFF"/>
<path d="M431.578 9.89046C434.309 9.89046 436.523 7.6764 436.523 4.94523C436.523 2.21406 434.309 0 431.578 0C428.847 0 426.633 2.21406 426.633 4.94523C426.633 7.6764 428.847 9.89046 431.578 9.89046Z" fill="#FF244A"/>
<path d="M448.182 9.89046C450.913 9.89046 453.127 7.6764 453.127 4.94523C453.127 2.21406 450.913 0 448.182 0C445.45 0 443.236 2.21406 443.236 4.94523C443.236 7.6764 445.45 9.89046 448.182 9.89046Z" fill="#407BFF"/>
<path d="M448.182 9.89046C450.913 9.89046 453.127 7.6764 453.127 4.94523C453.127 2.21406 450.913 0 448.182 0C445.45 0 443.236 2.21406 443.236 4.94523C443.236 7.6764 445.45 9.89046 448.182 9.89046Z" fill="#FFCC00"/>
<path d="M464.785 9.89046C467.516 9.89046 469.73 7.6764 469.73 4.94523C469.73 2.21406 467.516 0 464.785 0C462.054 0 459.84 2.21406 459.84 4.94523C459.84 7.6764 462.054 9.89046 464.785 9.89046Z" fill="#407BFF"/>
<path d="M464.785 9.89046C467.516 9.89046 469.73 7.6764 469.73 4.94523C469.73 2.21406 467.516 0 464.785 0C462.054 0 459.84 2.21406 459.84 4.94523C459.84 7.6764 462.054 9.89046 464.785 9.89046Z" fill="#11BE30"/>
<path d="M450.609 135.694V53.843L318.377 53.843V135.694H450.609Z" fill="#407BFF"/>
<path d="M449.111 117.786V55.3416L319.876 55.3416V117.786H449.111Z" fill="white"/>
<path d="M380.882 130.749L389.379 126.733L380.882 122.747V130.749Z" fill="white"/>
<path d="M410.988 122.747V126.568L402.881 122.747V130.749L410.988 126.913V130.749H411.812V122.747H410.988Z" fill="white"/>
<path d="M357.999 122.747H357.175V130.749H357.999V126.913L366.121 130.749V122.747L357.999 126.568V122.747Z" fill="white"/>
<path d="M522.001 249.509V167.658H389.769V249.509H522.001Z" fill="#407BFF"/>
<path opacity="0.5" d="M522.001 249.509V167.658H389.769V249.509H522.001Z" fill="white"/>
<path d="M454.446 208.584L391.267 170.041V247.126L454.446 208.584Z" fill="white"/>
<path d="M519.063 169.157H392.705L455.884 207.699L519.063 169.157Z" fill="white"/>
<path d="M455.884 209.453L392.705 247.996H519.063L455.884 209.453Z" fill="white"/>
<path d="M457.323 208.584L520.502 247.126V170.041L457.323 208.584Z" fill="white"/>
<path d="M512.993 154.141H386.92C386.03 154.141 385.176 154.495 384.547 155.124C383.917 155.754 383.563 156.608 383.563 157.498C383.563 158.388 383.917 159.242 384.547 159.871C385.176 160.501 386.03 160.855 386.92 160.855H512.993C513.884 160.855 514.738 160.501 515.367 159.871C515.997 159.242 516.35 158.388 516.35 157.498C516.35 156.608 515.997 155.754 515.367 155.124C514.738 154.495 513.884 154.141 512.993 154.141Z" fill="#407BFF"/>
<path opacity="0.5" d="M512.993 154.141H386.92C386.03 154.141 385.176 154.495 384.547 155.124C383.917 155.754 383.563 156.608 383.563 157.498C383.563 158.388 383.917 159.242 384.547 159.871C385.176 160.501 386.03 160.855 386.92 160.855H512.993C513.884 160.855 514.738 160.501 515.367 159.871C515.997 159.242 516.35 158.388 516.35 157.498C516.35 156.608 515.997 155.754 515.367 155.124C514.738 154.495 513.884 154.141 512.993 154.141Z" fill="white"/>
<path d="M435.939 41.1053H309.851C307.997 41.1053 306.494 42.6082 306.494 44.4621C306.494 46.316 307.997 47.8189 309.851 47.8189H435.939C437.793 47.8189 439.296 46.316 439.296 44.4621C439.296 42.6082 437.793 41.1053 435.939 41.1053Z" fill="#407BFF"/>
<path opacity="0.5" d="M435.939 41.1053H309.851C307.997 41.1053 306.494 42.6082 306.494 44.4621C306.494 46.316 307.997 47.8189 309.851 47.8189H435.939C437.793 47.8189 439.296 46.316 439.296 44.4621C439.296 42.6082 437.793 41.1053 435.939 41.1053Z" fill="white"/>
<path d="M229.633 41.1053H103.544C101.69 41.1053 100.188 42.6082 100.188 44.4621C100.188 46.316 101.69 47.8189 103.544 47.8189H229.633C231.486 47.8189 232.989 46.316 232.989 44.4621C232.989 42.6082 231.486 41.1053 229.633 41.1053Z" fill="#407BFF"/>
<path opacity="0.5" d="M229.633 41.1053H103.544C101.69 41.1053 100.188 42.6082 100.188 44.4621C100.188 46.316 101.69 47.8189 103.544 47.8189H229.633C231.486 47.8189 232.989 46.316 232.989 44.4621C232.989 42.6082 231.486 41.1053 229.633 41.1053Z" fill="white"/>
<path d="M324.791 207.13H227.28C226.803 207.13 226.345 207.319 226.008 207.657C225.671 207.994 225.481 208.451 225.481 208.928C225.481 209.405 225.671 209.863 226.008 210.2C226.345 210.537 226.803 210.727 227.28 210.727H324.791C325.268 210.727 325.725 210.537 326.062 210.2C326.399 209.863 326.589 209.405 326.589 208.928C326.589 208.451 326.399 207.994 326.062 207.657C325.725 207.319 325.268 207.13 324.791 207.13Z" fill="#407BFF"/>
<path opacity="0.5" d="M324.791 207.13H227.28C226.803 207.13 226.345 207.319 226.008 207.657C225.671 207.994 225.481 208.451 225.481 208.928C225.481 209.405 225.671 209.863 226.008 210.2C226.345 210.537 226.803 210.727 227.28 210.727H324.791C325.268 210.727 325.725 210.537 326.062 210.2C326.399 209.863 326.589 209.405 326.589 208.928C326.589 208.451 326.399 207.994 326.062 207.657C325.725 207.319 325.268 207.13 324.791 207.13Z" fill="white"/>
<path d="M324.791 215.747H227.281C227.044 215.756 226.812 215.812 226.598 215.912C226.383 216.011 226.191 216.152 226.031 216.326C225.87 216.5 225.746 216.704 225.665 216.926C225.584 217.148 225.547 217.384 225.557 217.62C225.555 217.857 225.6 218.091 225.69 218.31C225.78 218.529 225.912 218.728 226.08 218.896C226.247 219.063 226.446 219.196 226.665 219.285C226.884 219.375 227.119 219.42 227.356 219.418H324.866C325.343 219.418 325.801 219.229 326.138 218.891C326.475 218.554 326.665 218.097 326.665 217.62C326.675 217.371 326.634 217.123 326.544 216.891C326.453 216.659 326.316 216.448 326.14 216.272C325.964 216.096 325.753 215.958 325.521 215.868C325.289 215.777 325.04 215.736 324.791 215.747Z" fill="#407BFF"/>
<path opacity="0.5" d="M324.791 215.747H227.281C227.044 215.756 226.812 215.812 226.598 215.912C226.383 216.011 226.191 216.152 226.031 216.326C225.87 216.5 225.746 216.704 225.665 216.926C225.584 217.148 225.547 217.384 225.557 217.62C225.555 217.857 225.6 218.091 225.69 218.31C225.78 218.529 225.912 218.728 226.08 218.896C226.247 219.063 226.446 219.196 226.665 219.285C226.884 219.375 227.119 219.42 227.356 219.418H324.866C325.343 219.418 325.801 219.229 326.138 218.891C326.475 218.554 326.665 218.097 326.665 217.62C326.675 217.371 326.634 217.123 326.544 216.891C326.453 216.659 326.316 216.448 326.14 216.272C325.964 216.096 325.753 215.958 325.521 215.868C325.289 215.777 325.04 215.736 324.791 215.747Z" fill="white"/>
<path d="M324.791 224.438H227.28C227.042 224.438 226.807 224.485 226.588 224.577C226.369 224.668 226.17 224.802 226.003 224.97C225.836 225.139 225.704 225.339 225.614 225.559C225.525 225.779 225.48 226.014 225.482 226.252C225.482 226.729 225.671 227.186 226.008 227.523C226.345 227.86 226.803 228.05 227.28 228.05H324.791C325.268 228.05 325.725 227.86 326.062 227.523C326.399 227.186 326.589 226.729 326.589 226.252C326.589 225.773 326.4 225.314 326.063 224.975C325.726 224.635 325.269 224.442 324.791 224.438Z" fill="#407BFF"/>
<path opacity="0.5" d="M324.791 224.438H227.28C227.042 224.438 226.807 224.485 226.588 224.577C226.369 224.668 226.17 224.802 226.003 224.97C225.836 225.139 225.704 225.339 225.614 225.559C225.525 225.779 225.48 226.014 225.482 226.252C225.482 226.729 225.671 227.186 226.008 227.523C226.345 227.86 226.803 228.05 227.28 228.05H324.791C325.268 228.05 325.725 227.86 326.062 227.523C326.399 227.186 326.589 226.729 326.589 226.252C326.589 225.773 326.4 225.314 326.063 224.975C325.726 224.635 325.269 224.442 324.791 224.438Z" fill="white"/>
<path d="M324.791 233.145H227.28C227.043 233.143 226.808 233.188 226.589 233.278C226.37 233.367 226.171 233.5 226.004 233.667C225.836 233.834 225.704 234.034 225.614 234.253C225.525 234.472 225.48 234.706 225.482 234.943C225.482 235.42 225.671 235.877 226.008 236.215C226.345 236.552 226.803 236.741 227.28 236.741H324.791C325.268 236.741 325.725 236.552 326.062 236.215C326.399 235.877 326.589 235.42 326.589 234.943C326.589 234.466 326.399 234.009 326.062 233.672C325.725 233.334 325.268 233.145 324.791 233.145Z" fill="#407BFF"/>
<path opacity="0.5" d="M324.791 233.145H227.28C227.043 233.143 226.808 233.188 226.589 233.278C226.37 233.367 226.171 233.5 226.004 233.667C225.836 233.834 225.704 234.034 225.614 234.253C225.525 234.472 225.48 234.706 225.482 234.943C225.482 235.42 225.671 235.877 226.008 236.215C226.345 236.552 226.803 236.741 227.28 236.741H324.791C325.268 236.741 325.725 236.552 326.062 236.215C326.399 235.877 326.589 235.42 326.589 234.943C326.589 234.466 326.399 234.009 326.062 233.672C325.725 233.334 325.268 233.145 324.791 233.145Z" fill="white"/>
<path d="M324.791 241.836H227.28C226.803 241.836 226.345 242.026 226.008 242.363C225.671 242.7 225.481 243.158 225.481 243.635C225.481 244.112 225.671 244.569 226.008 244.906C226.345 245.243 226.803 245.433 227.28 245.433H324.791C325.268 245.433 325.725 245.243 326.062 244.906C326.399 244.569 326.589 244.112 326.589 243.635C326.589 243.158 326.399 242.7 326.062 242.363C325.725 242.026 325.268 241.836 324.791 241.836Z" fill="#407BFF"/>
<path opacity="0.5" d="M324.791 241.836H227.28C226.803 241.836 226.345 242.026 226.008 242.363C225.671 242.7 225.481 243.158 225.481 243.635C225.481 244.112 225.671 244.569 226.008 244.906C226.345 245.243 226.803 245.433 227.28 245.433H324.791C325.268 245.433 325.725 245.243 326.062 244.906C326.399 244.569 326.589 244.112 326.589 243.635C326.589 243.158 326.399 242.7 326.062 242.363C325.725 242.026 325.268 241.836 324.791 241.836Z" fill="white"/>
<path d="M324.791 250.588H227.28C226.803 250.588 226.345 250.777 226.008 251.115C225.671 251.452 225.482 251.909 225.482 252.386C225.48 252.623 225.525 252.858 225.614 253.077C225.704 253.296 225.836 253.495 226.004 253.662C226.171 253.83 226.37 253.962 226.589 254.052C226.808 254.141 227.043 254.186 227.28 254.184H324.791C325.268 254.184 325.725 253.995 326.062 253.658C326.399 253.321 326.589 252.863 326.589 252.386C326.589 251.909 326.399 251.452 326.062 251.115C325.725 250.777 325.268 250.588 324.791 250.588Z" fill="#407BFF"/>
<path opacity="0.5" d="M324.791 250.588H227.28C226.803 250.588 226.345 250.777 226.008 251.115C225.671 251.452 225.482 251.909 225.482 252.386C225.48 252.623 225.525 252.858 225.614 253.077C225.704 253.296 225.836 253.495 226.004 253.662C226.171 253.83 226.37 253.962 226.589 254.052C226.808 254.141 227.043 254.186 227.28 254.184H324.791C325.268 254.184 325.725 253.995 326.062 253.658C326.399 253.321 326.589 252.863 326.589 252.386C326.589 251.909 326.399 251.452 326.062 251.115C325.725 250.777 325.268 250.588 324.791 250.588Z" fill="white"/>
<path d="M294.82 259.22H227.28C226.806 259.239 226.358 259.445 226.035 259.794C225.713 260.142 225.54 260.603 225.557 261.078C225.555 261.315 225.6 261.549 225.69 261.768C225.779 261.987 225.912 262.186 226.079 262.354C226.246 262.521 226.445 262.654 226.664 262.743C226.884 262.833 227.118 262.878 227.355 262.876H294.895C295.372 262.876 295.829 262.687 296.166 262.349C296.504 262.012 296.693 261.555 296.693 261.078C296.702 260.83 296.659 260.584 296.567 260.353C296.476 260.123 296.338 259.914 296.162 259.74C295.986 259.565 295.776 259.429 295.545 259.339C295.314 259.25 295.067 259.209 294.82 259.22Z" fill="#407BFF"/>
<path opacity="0.5" d="M294.82 259.22H227.28C226.806 259.239 226.358 259.445 226.035 259.794C225.713 260.142 225.54 260.603 225.557 261.078C225.555 261.315 225.6 261.549 225.69 261.768C225.779 261.987 225.912 262.186 226.079 262.354C226.246 262.521 226.445 262.654 226.664 262.743C226.884 262.833 227.118 262.878 227.355 262.876H294.895C295.372 262.876 295.829 262.687 296.166 262.349C296.504 262.012 296.693 261.555 296.693 261.078C296.702 260.83 296.659 260.584 296.567 260.353C296.476 260.123 296.338 259.914 296.162 259.74C295.986 259.565 295.776 259.429 295.545 259.339C295.314 259.25 295.067 259.209 294.82 259.22Z" fill="white"/>
<path d="M291.599 183.812V60.1968L159.366 60.1968V183.812H291.599Z" fill="#407BFF"/>
<path opacity="0.5" d="M291.599 183.812V60.1968L159.366 60.1968V183.812H291.599Z" fill="white"/>
<path d="M290.1 182.314V61.6954L160.864 61.6954V182.314H290.1Z" fill="white"/>
<path d="M292.871 58.9081H290.309V61.4706H292.871V58.9081Z" fill="#407BFF"/>
<path d="M292.871 182.539H290.309V185.101H292.871V182.539Z" fill="#407BFF"/>
<path d="M160.64 58.8632H158.077V61.4257H160.64V58.8632Z" fill="#407BFF"/>
<path d="M160.64 182.539H158.077V185.101H160.64V182.539Z" fill="#407BFF"/>
<path d="M49.6471 119.662H0.734375V70.7343H49.6471V119.662ZM2.23293 118.163H48.1486V72.2328H2.23293V118.163Z" fill="#407BFF"/>
<g opacity="0.5">
<path opacity="0.5" d="M49.6471 119.662H0.734375V70.7343H49.6471V119.662ZM2.23293 118.163H48.1486V72.2328H2.23293V118.163Z" fill="white"/>
</g>
<path d="M24.1269 88.1774H16.2295V85.3152H35.336V88.1774H27.3937V108.348H24.1269V88.1774Z" fill="white"/>
<path d="M50.3968 70H47.4297V72.9672H50.3968V70Z" fill="#407BFF"/>
<path d="M50.3968 117.429H47.4297V120.396H50.3968V117.429Z" fill="#407BFF"/>
<path d="M2.96714 117.429H0V120.396H2.96714V117.429Z" fill="#407BFF"/>
<path d="M2.96714 70H0V72.9672H2.96714V70Z" fill="#407BFF"/>
<path d="M98.6622 208.662H49.7344V159.734H98.6622V208.662ZM51.2329 207.164H97.1636V161.233H51.2329V207.164Z" fill="#407BFF"/>
<g opacity="0.5">
<path opacity="0.5" d="M98.6631 208.662H49.7354V159.734H98.6631V208.662ZM51.2339 207.163H97.1646V161.233H51.2339V207.163Z" fill="white"/>
</g>
<path d="M99.3968 159H96.4297V161.967H99.3968V159Z" fill="#407BFF"/>
<path d="M99.3968 206.429H96.4297V209.396H99.3968V206.429Z" fill="#407BFF"/>
<path d="M51.9672 206.429H49V209.396H51.9672V206.429Z" fill="#407BFF"/>
<path d="M51.9672 159H49V161.967H51.9672V159Z" fill="#407BFF"/>
<path d="M52.6113 191.024L62.3819 181.238L70.7888 189.645L85.01 175.409L95.7846 186.184V205.845H52.6113V191.024Z" fill="white"/>
<path d="M69.7993 170.764C69.7993 171.448 69.5963 172.118 69.2159 172.687C68.8355 173.256 68.2949 173.7 67.6624 173.962C67.0298 174.224 66.3338 174.292 65.6623 174.159C64.9908 174.025 64.374 173.695 63.8899 173.211C63.4058 172.727 63.0761 172.11 62.9425 171.439C62.8089 170.767 62.8775 170.071 63.1395 169.439C63.4015 168.806 63.8452 168.266 64.4145 167.885C64.9837 167.505 65.653 167.302 66.3376 167.302C67.2545 167.306 68.1327 167.672 68.781 168.32C69.4294 168.969 69.7954 169.847 69.7993 170.764Z" fill="white"/>
</svg>
