<svg width="459" height="283" viewBox="0 0 459 283" fill="none" xmlns="http://www.w3.org/2000/svg">
<path d="M69.0741 142.058C101.7 142.058 128.148 115.551 128.148 82.8522C128.148 50.1537 101.7 23.6464 69.0741 23.6464C36.4484 23.6464 10 50.1537 10 82.8522C10 115.551 36.4484 142.058 69.0741 142.058Z" fill="white"/>
<path d="M69.0741 147.058C104.472 147.058 133.148 118.302 133.148 82.8522C133.148 47.4028 104.472 18.6464 69.0741 18.6464C33.6764 18.6464 5 47.4028 5 82.8522C5 118.302 33.6764 147.058 69.0741 147.058Z" stroke="white" stroke-opacity="0.25" stroke-width="10"/>
<path d="M76.6094 83.1703C76.6094 80.5206 76.1552 77.9777 75.3216 75.6143H75.319C73.9004 71.5929 71.3823 68.0924 68.1264 65.4759C68.1208 65.4714 68.1152 65.4669 68.1096 65.4624C67.7919 65.2076 67.4672 64.9614 67.136 64.7238C67.122 64.7138 67.108 64.7039 67.094 64.6939C66.9346 64.5801 66.7738 64.4681 66.6112 64.3584C66.6077 64.3559 66.604 64.3534 66.6003 64.351C66.4348 64.2393 66.2673 64.1299 66.0986 64.0225C66.0785 64.0097 66.0583 63.9972 66.0382 63.9845C65.8876 63.8893 65.7359 63.796 65.583 63.7043C65.5622 63.6918 65.5415 63.6791 65.5206 63.6667C65.3541 63.5676 65.1863 63.4707 65.0172 63.3758C64.9935 63.3625 64.9695 63.3496 64.9456 63.3364C64.7985 63.2545 64.6504 63.1745 64.5012 63.0959C64.4684 63.0786 64.4357 63.0612 64.4028 63.0441C64.2343 62.9563 64.0647 62.8703 63.8937 62.7868C63.8704 62.7754 63.8468 62.7644 63.8234 62.7531C63.6741 62.6808 63.5239 62.6103 63.3729 62.5412C63.3318 62.5223 63.2907 62.5035 63.2495 62.4849C63.0777 62.4075 62.905 62.3318 62.731 62.2586C62.7142 62.2515 62.6974 62.2449 62.6805 62.2379C62.5219 62.1717 62.3621 62.1075 62.2015 62.0448C62.156 62.0271 62.1106 62.0094 62.065 61.9919C61.8882 61.9242 61.7108 61.8579 61.532 61.7945H61.5319C52.7474 64.9062 46.4531 73.3008 46.4531 83.1704C46.4531 85.8201 46.9083 88.3628 47.7419 90.7264C50.847 81.9227 59.2229 75.6145 69.0703 75.6145C73.2341 75.6143 76.6094 78.9973 76.6094 83.1703Z" fill="url(#paint0_linear_286_49123)"/>
<path d="M61.5417 83.5624C61.535 83.4324 61.5315 83.3016 61.5315 83.1701C61.5315 83.1661 61.5323 83.1624 61.5323 83.1584C61.5382 78.991 64.9103 75.6143 69.0695 75.6142C68.7543 75.6142 68.4405 75.6211 68.1284 75.6339H68.1283C67.5418 75.6579 66.9611 75.7048 66.387 75.7729C66.3827 75.7734 66.3783 75.7737 66.3736 75.7742C65.8151 75.8408 65.2632 75.9294 64.7178 76.036C64.6936 76.0408 64.669 76.0445 64.6448 76.0493C64.115 76.1547 63.5926 76.2805 63.077 76.4222C63.0393 76.4326 63.001 76.4417 62.9634 76.4522C62.4602 76.5935 61.9648 76.7535 61.4762 76.9279C61.4288 76.9449 61.3809 76.9608 61.3335 76.978C60.8547 77.1528 60.3841 77.3448 59.9211 77.5504C59.8682 77.574 59.8149 77.5964 59.7622 77.6203C59.307 77.8267 58.8603 78.0491 58.4215 78.2842C58.3652 78.3144 58.3088 78.3439 58.2528 78.3745C57.8206 78.6109 57.3975 78.8618 56.9831 79.1251C56.9257 79.1616 56.8681 79.1979 56.8109 79.2349C56.4015 79.5003 56.0013 79.7789 55.6105 80.0695C55.5546 80.1111 55.4988 80.1528 55.4433 80.1948C55.0561 80.4884 54.6788 80.7938 54.3116 81.1112C54.2584 81.1572 54.2058 81.2036 54.1528 81.2502C53.7885 81.5711 53.4341 81.9031 53.091 82.2465C53.0427 82.2949 52.9951 82.344 52.9473 82.3928C52.6054 82.7413 52.2738 83.1 51.9547 83.4701C51.9128 83.5187 51.8722 83.5681 51.8306 83.6171C51.5117 83.9934 51.2037 84.3791 50.9095 84.7759C50.8746 84.8229 50.841 84.8711 50.8065 84.9185C50.5117 85.3226 50.2283 85.7358 49.96 86.1596C49.9332 86.2019 49.9079 86.2453 49.8813 86.2879C49.6109 86.7216 49.3531 87.1638 49.1118 87.6164C49.0939 87.6498 49.0775 87.6843 49.0596 87.7179C48.8148 88.183 48.5838 88.6565 48.3708 89.1399C48.3618 89.1603 48.3539 89.1813 48.3449 89.2017C48.1268 89.7009 47.9246 90.2088 47.7422 90.7261C50.8472 99.5299 59.2232 105.838 69.0706 105.838C71.7144 105.838 75.6673 105.838 78.4944 105.838C69.8269 102.767 61.7543 93.295 61.5417 83.5624Z" fill="url(#paint1_linear_286_49123)"/>
<path d="M76.6094 83.1702C76.6094 87.282 73.3314 90.6245 69.252 90.7215C69.2654 90.7246 69.2227 90.7261 69.0702 90.7261H75.667C80.43 90.7261 84.6743 92.9418 87.4376 96.3984C90.1115 92.6755 91.6875 88.1075 91.6875 83.1702C91.6875 82.9884 91.6849 82.8072 91.6806 82.6265C91.6791 82.5653 91.6766 82.5043 91.6747 82.4431C91.6708 82.3242 91.6668 82.2053 91.6611 82.0867C91.6577 82.0132 91.6534 81.9397 91.6493 81.8664C91.6434 81.7614 91.6368 81.6564 91.6293 81.5518C91.6238 81.4723 91.6179 81.3931 91.6115 81.314C91.6037 81.2166 91.5947 81.1195 91.5857 81.0225C91.5779 80.9392 91.5702 80.8559 91.5616 80.7728C91.5521 80.6829 91.5413 80.5935 91.5308 80.5038C91.5205 80.4153 91.5108 80.3267 91.4995 80.2386C91.4982 80.2283 91.4965 80.2181 91.4951 80.2079C91.4603 79.94 91.4198 79.6737 91.3756 79.4088C91.3673 79.3595 91.3597 79.3099 91.3511 79.2609C91.3307 79.1424 91.3085 79.0245 91.2861 78.9067C91.2772 78.8593 91.2682 78.8117 91.259 78.7643C91.235 78.6424 91.2099 78.5209 91.184 78.3997C91.1757 78.3612 91.1674 78.3229 91.159 78.2845C91.1304 78.1543 91.101 78.0243 91.0702 77.8949C91.0663 77.8782 91.0622 77.8617 91.0581 77.8451C88.6679 67.8956 79.7312 60.5023 69.0702 60.5023C66.4265 60.5023 63.8894 60.9584 61.5312 61.7939C70.3152 64.9059 76.6094 73.3007 76.6094 83.1702Z" fill="url(#paint2_linear_286_49123)"/>
<path d="M75.6666 90.726H69.0699C65.0375 90.726 61.7447 87.5531 61.541 83.5624C61.7311 92.2598 68.1987 100.745 75.7577 104.644C75.9373 104.737 76.1175 104.827 76.2982 104.915C76.3704 104.95 76.443 104.983 76.5156 105.018C76.6808 105.096 76.8462 105.172 77.0121 105.246C77.1267 105.296 77.2415 105.344 77.3564 105.392C77.4847 105.447 77.6126 105.502 77.7412 105.553C77.9914 105.653 78.2424 105.749 78.4938 105.838H90.7447C90.7447 97.4918 83.994 90.726 75.6666 90.726Z" fill="url(#paint3_linear_286_49123)"/>
<path d="M383.437 249.174C420.681 249.174 450.873 218.914 450.873 181.587C450.873 144.26 420.681 114 383.437 114C346.192 114 316 144.26 316 181.587C316 218.914 346.192 249.174 383.437 249.174Z" fill="#F4FAFF"/>
<path d="M383.437 253.174C422.898 253.174 454.873 221.115 454.873 181.587C454.873 142.059 422.898 110 383.437 110C343.975 110 312 142.059 312 181.587C312 221.115 343.975 253.174 383.437 253.174Z" stroke="white" stroke-opacity="0.25" stroke-width="8"/>
<path d="M352 181.962C352.013 164.834 365.911 150.975 383.038 151C400.166 151.025 414.025 164.923 414 182.038C413.975 199.153 400.102 213 383 213C365.872 212.987 351.987 199.102 352 181.962ZM382.364 192.579C379.961 192.655 377.558 192.439 375.205 191.943C373.463 191.587 372.014 190.418 371.289 188.79C370.59 187.175 370.247 184.683 370.272 181.313C370.285 179.559 370.399 177.791 370.603 176.049C370.806 174.345 371.009 172.947 371.213 171.84L371.429 170.747C371.429 170.709 371.429 170.683 371.429 170.645C371.429 170.34 371.213 170.073 370.908 170.022L366.902 169.399H366.813C366.521 169.399 366.267 169.603 366.203 169.882C366.139 170.137 366.089 170.327 365.974 170.938C365.745 172.12 365.529 173.265 365.3 174.943C365.059 176.761 364.906 178.592 364.855 180.423C364.766 181.708 364.766 182.979 364.855 184.263C364.944 187.658 365.529 190.367 366.597 192.388C367.665 194.423 369.484 195.872 372.039 196.763C374.595 197.653 378.155 198.085 382.72 198.072H383.292C387.857 198.085 391.418 197.653 393.973 196.763C396.529 195.872 398.335 194.41 399.415 192.388C400.484 190.354 401.068 187.646 401.17 184.263C401.259 182.979 401.259 181.708 401.17 180.423C401.119 178.592 400.967 176.761 400.725 174.943C400.496 173.29 400.28 172.146 400.051 170.938C399.924 170.327 399.886 170.137 399.822 169.882C399.759 169.603 399.504 169.399 399.212 169.399H399.11L395.105 170.022C394.8 170.073 394.584 170.34 394.584 170.645C394.584 170.683 394.584 170.709 394.584 170.747L394.8 171.84C395.003 172.947 395.207 174.345 395.41 176.049C395.614 177.804 395.728 179.559 395.741 181.313C395.779 184.683 395.436 187.162 394.724 188.79C394.011 190.405 392.562 191.587 390.833 191.943C388.48 192.439 386.077 192.655 383.674 192.592L382.364 192.579Z" fill="#3544B1"/>
<path d="M277.955 202.338C330.95 202.338 373.91 159.282 373.91 106.169C373.91 53.0564 330.95 10 277.955 10C224.961 10 182 53.0564 182 106.169C182 159.282 224.961 202.338 277.955 202.338Z" fill="white"/>
<path d="M277.955 207.338C333.722 207.338 378.91 162.033 378.91 106.169C378.91 50.3055 333.722 5 277.955 5C222.189 5 177 50.3055 177 106.169C177 162.033 222.189 207.338 277.955 207.338Z" stroke="white" stroke-opacity="0.25" stroke-width="10"/>
<path d="M266.609 121.357C262.471 117.457 260.037 112.094 260.037 106C260.037 99.9065 262.471 94.5437 266.365 90.6441C269.773 87.2316 269.773 81.8693 266.365 78.4562C262.958 75.0437 257.603 75.0437 254.196 78.4562C247.381 85.5251 243 95.275 243 106C243 116.725 247.381 126.475 254.439 133.544C257.846 136.957 263.201 136.957 266.609 133.544C269.773 130.132 269.773 124.769 266.609 121.357Z" fill="#FFD85F"/>
<path d="M266.608 90.6439C270.502 86.5 275.856 84.0626 281.941 84.0626C288.026 84.0626 293.38 86.5 297.274 90.4001C300.682 93.8126 306.036 93.8126 309.444 90.4001C312.851 86.9876 312.851 81.6253 309.444 78.2127C302.385 71.3877 292.65 67 281.941 67C271.232 67 261.496 71.3877 254.438 78.4565C251.031 81.8691 251.031 87.2314 254.438 90.6439C257.845 93.8126 263.2 93.8126 266.608 90.6439Z" fill="#3BB4E7"/>
<path d="M297.274 121.357C293.38 125.501 288.026 127.938 281.941 127.938C275.856 127.938 270.502 125.501 266.608 121.6C263.2 118.187 257.846 118.187 254.438 121.6C251.031 125.013 251.031 130.375 254.438 133.788C261.497 140.613 271.232 145 281.941 145C292.65 145 302.386 140.613 309.444 133.544C312.851 130.131 312.851 124.769 309.444 121.357C306.036 118.187 300.682 118.187 297.274 121.357Z" fill="#ED5C68"/>
<path d="M143.554 271.475C189.147 271.475 226.107 234.433 226.107 188.738C226.107 143.043 189.147 106 143.554 106C97.9605 106 61 143.043 61 188.738C61 234.433 97.9605 271.475 143.554 271.475Z" fill="#F4FAFF"/>
<path d="M143.554 276.975C192.196 276.975 231.607 237.459 231.607 188.738C231.607 140.017 192.196 100.5 143.554 100.5C94.9114 100.5 55.5 140.017 55.5 188.738C55.5 237.459 94.9114 276.975 143.554 276.975Z" stroke="white" stroke-opacity="0.25" stroke-width="11"/>
<path d="M132.902 191.828V200.122C139.008 200.115 144.862 197.674 149.18 193.337C153.498 188.999 155.927 183.118 155.934 176.984H147.678C147.673 180.919 146.115 184.692 143.345 187.475C140.575 190.258 136.82 191.823 132.902 191.828Z" fill="#3BE081"/>
<path d="M132.901 214.674C129.012 214.674 125.282 213.122 122.532 210.36C119.782 207.597 118.237 203.85 118.237 199.943C118.237 196.036 119.782 192.289 122.532 189.526C125.282 186.764 129.012 185.211 132.901 185.211V176.978C129.898 176.974 126.923 177.564 124.147 178.715C121.371 179.865 118.848 181.554 116.721 183.684C114.595 185.814 112.906 188.345 111.753 191.13C110.6 193.916 110.004 196.903 110 199.919C109.996 202.936 110.583 205.925 111.728 208.714C112.874 211.503 114.554 214.038 116.675 216.174C118.795 218.31 121.314 220.006 124.087 221.165C126.86 222.323 129.832 222.922 132.836 222.926H132.901V214.674Z" fill="#0037FF"/>
<path d="M132.902 214.675V222.908C138.967 222.908 144.784 220.488 149.073 216.179C153.361 211.871 155.771 206.027 155.771 199.934H147.566C147.564 203.841 146.018 207.588 143.269 210.351C140.52 213.115 136.792 214.67 132.902 214.675Z" fill="#00CCFF"/>
<path d="M132.902 168.741V176.974C138.967 176.974 144.784 174.553 149.073 170.245C153.361 165.937 155.771 160.093 155.771 154H147.566C147.564 157.907 146.018 161.654 143.269 164.417C140.52 167.181 136.792 168.736 132.902 168.741Z" fill="#861DFF"/>
<path d="M155.906 168.741V176.974C161.971 176.974 167.788 174.553 172.076 170.245C176.365 165.937 178.774 160.093 178.774 154H170.575C170.572 157.908 169.026 161.655 166.276 164.419C163.526 167.183 159.796 168.737 155.906 168.741Z" fill="#FF8110"/>
<defs>
<linearGradient id="paint0_linear_286_49123" x1="67.7427" y1="64.0593" x2="56.8084" y2="94.0337" gradientUnits="userSpaceOnUse">
<stop stop-color="#EF3F3F"/>
<stop offset="1" stop-color="#F47623"/>
</linearGradient>
<linearGradient id="paint1_linear_286_49123" x1="56.7622" y1="78.6455" x2="68.069" y2="109.641" gradientUnits="userSpaceOnUse">
<stop stop-color="#EF3F3F"/>
<stop offset="1" stop-color="#F47623"/>
</linearGradient>
<linearGradient id="paint2_linear_286_49123" x1="76.6094" y1="96.3984" x2="76.6094" y2="60.5023" gradientUnits="userSpaceOnUse">
<stop stop-color="#EF3F3F"/>
<stop offset="1" stop-color="#F47623"/>
</linearGradient>
<linearGradient id="paint3_linear_286_49123" x1="61.541" y1="94.7001" x2="90.7447" y2="94.7001" gradientUnits="userSpaceOnUse">
<stop stop-color="#EF3F3F"/>
<stop offset="1" stop-color="#F47623"/>
</linearGradient>
</defs>
</svg>
