<svg width="525" height="321" viewBox="0 0 525 321" fill="none" xmlns="http://www.w3.org/2000/svg">
<rect width="525" height="321" rx="10" fill="#F4FAFF"/>
<path d="M260.155 245.742C307.201 245.742 345.368 207.347 345.368 159.874C345.368 112.401 307.201 74.1957 260.155 74.1957C213.108 74.1957 174.941 112.59 174.941 160.063C174.941 207.536 213.108 245.742 260.155 245.742Z" fill="#DFECFF" stroke="#D6DCE8" stroke-width="2" stroke-miterlimit="10"/>
<path d="M302.094 245.989C289.057 246.368 273.564 245.99 262.416 245.8C251.458 246.179 235.775 246.368 222.738 245.989C235.586 238.613 240.121 224.995 240.688 215.917H283.767C284.901 224.806 289.435 238.613 302.094 245.989Z" fill="#F1F3F9" stroke="#D6DCE8" stroke-width="2" stroke-miterlimit="10"/>
<path d="M343.85 101.49V214.404C343.85 217.241 341.583 219.321 339.126 219.321H186.649C184.004 219.321 181.926 217.052 181.926 214.404V101.49C181.926 98.8421 184.193 96.5725 186.649 96.5725H338.937C341.772 96.5725 343.85 98.8421 343.85 101.49Z" fill="white" stroke="#D6DCE8" stroke-width="2" stroke-miterlimit="10"/>
<path d="M343.85 101.49V198.706H181.926V101.49C181.926 98.8421 184.193 96.5725 186.649 96.5725H338.937C341.772 96.5725 343.85 98.8421 343.85 101.49Z" fill="white" stroke="#D6DCE8" stroke-width="2" stroke-miterlimit="10"/>
<path d="M262.609 212.585C264.876 212.585 266.576 210.883 266.576 208.614C266.576 206.344 264.876 204.642 262.609 204.642C260.341 204.642 258.641 206.344 258.641 208.614C258.641 210.883 260.341 212.585 262.609 212.585Z" fill="#DFECFF"/>
<path d="M328.922 119.458V130.995C328.922 132.698 327.599 134.021 325.899 134.021H198.929C197.229 134.021 195.906 132.698 195.906 130.995V119.458C195.906 117.756 197.229 116.432 198.929 116.432H325.71C327.599 116.243 328.922 117.756 328.922 119.458Z" fill="#D6DCE8"/>
<path d="M213.669 116.243V134.211H198.742C197.041 134.211 195.719 132.887 195.719 131.184V119.647C195.719 117.945 197.041 116.621 198.742 116.621L213.669 116.243Z" fill="#E3EAF2"/>
<path opacity="0.8" d="M328.922 143.667V155.204C328.922 156.907 327.599 158.231 325.899 158.231H198.929C197.229 158.231 195.906 156.907 195.906 155.204V143.667C195.906 141.965 197.229 140.641 198.929 140.641H325.71C327.599 140.452 328.922 141.965 328.922 143.667Z" fill="#D6DCE8"/>
<path d="M213.669 116.243V134.211H198.742C197.041 134.211 195.719 132.887 195.719 131.184V119.647C195.719 117.945 197.041 116.621 198.742 116.621L213.669 116.243Z" fill="#247DFF"/>
<path d="M204.224 129.104C203.846 129.104 203.468 128.915 203.279 128.725L200.445 125.888C199.878 125.321 199.878 124.565 200.445 123.997C201.012 123.43 201.767 123.43 202.334 123.997L204.035 125.699L208.192 121.538C208.758 120.971 209.514 120.971 210.081 121.538C210.648 122.106 210.648 122.862 210.081 123.43L204.979 128.536C204.79 128.915 204.413 129.104 204.224 129.104Z" fill="white"/>
<path opacity="0.5" d="M328.922 167.877V179.414C328.922 181.116 327.599 182.44 325.899 182.44H198.929C197.229 182.44 195.906 181.116 195.906 179.414V167.877C195.906 166.175 197.229 164.851 198.929 164.851H325.71C327.599 164.661 328.922 165.985 328.922 167.877Z" fill="#D6DCE8"/>
<path opacity="0.3" d="M328.924 191.801V197.273H195.719V191.801C195.719 190.099 197.041 188.775 198.742 188.775H325.712C327.601 188.775 328.924 190.099 328.924 191.801Z" fill="#D6DCE8"/>
<path d="M194.209 239.748C194.209 242.963 191.564 245.611 188.352 245.611H155.853C152.641 245.611 149.996 242.963 149.996 239.748V163.337C149.996 160.122 152.641 157.474 155.853 157.474H188.163C191.375 157.474 194.02 160.122 194.02 163.337L194.209 239.748Z" fill="white"/>
<path d="M188.352 157.285C191.564 157.285 194.209 159.933 194.209 163.148V239.559C194.209 242.774 191.564 245.422 188.352 245.422H155.853C152.641 245.422 149.996 242.774 149.996 239.559V163.337C149.996 160.122 152.641 157.474 155.853 157.474L188.352 157.285Z" fill="#F1F3F9" stroke="#D6DCE8" stroke-width="2" stroke-miterlimit="10"/>
<path d="M191.372 163.337V239.748C191.372 241.261 190.239 242.774 188.538 242.774H188.349H155.851H155.662C154.151 242.774 152.828 241.45 152.828 239.748V163.337C152.828 161.635 154.151 160.311 155.662 160.311H160.386C161.142 160.311 161.519 160.879 161.519 161.446C161.519 162.581 162.464 163.716 163.787 163.716H180.225C181.359 163.716 182.492 162.77 182.492 161.446C182.492 160.689 183.059 160.311 183.437 160.311H187.972C189.861 160.122 191.372 161.635 191.372 163.337Z" fill="white"/>
<path d="M174.934 161.446H170.588C170.21 161.446 169.832 161.068 169.832 160.689C169.832 160.311 170.21 159.933 170.588 159.933H174.934C175.312 159.933 175.689 160.311 175.689 160.689C175.501 161.068 175.123 161.446 174.934 161.446Z" fill="white"/>
<path d="M168.134 161.446H167.756C167.378 161.446 167 161.068 167 160.689C167 160.311 167.378 159.933 167.756 159.933H168.134C168.512 159.933 168.889 160.311 168.889 160.689C168.889 161.068 168.512 161.446 168.134 161.446Z" fill="white"/>
<path d="M186.838 188.682H157.363C156.418 188.682 155.852 187.925 155.852 187.169V172.227C155.852 171.281 156.607 170.714 157.363 170.714H187.027C187.972 170.714 188.539 171.47 188.539 172.227V187.169C188.35 187.925 187.783 188.682 186.838 188.682Z" fill="#247DFF"/>
<path d="M170.966 183.575C170.588 183.575 170.21 183.386 170.021 183.197L167.187 180.36C166.62 179.792 166.62 179.036 167.187 178.468C167.754 177.901 168.509 177.901 169.076 178.468L170.777 180.17L174.934 176.009C175.501 175.442 176.256 175.442 176.823 176.009C177.39 176.577 177.39 177.333 176.823 177.901L171.911 182.818C171.533 183.386 171.155 183.575 170.966 183.575Z" fill="white"/>
<path opacity="0.8" d="M186.838 210.999H157.363C156.418 210.999 155.852 210.243 155.852 209.486V194.545C155.852 193.599 156.607 193.032 157.363 193.032H187.027C187.972 193.032 188.539 193.788 188.539 194.545V209.486C188.35 210.243 187.783 210.999 186.838 210.999Z" fill="#D6DCE8"/>
<path opacity="0.5" d="M186.838 233.318H157.363C156.418 233.318 155.852 232.561 155.852 231.804V216.863C155.852 215.917 156.607 215.35 157.363 215.35H187.027C187.972 215.35 188.539 216.106 188.539 216.863V231.804C188.35 232.75 187.783 233.318 186.838 233.318Z" fill="#D6DCE8"/>
<path opacity="0.3" d="M188.347 239.559V242.585H188.158H155.849H155.66V239.559C155.66 238.613 156.416 238.046 157.172 238.046H186.836C187.78 238.046 188.347 238.802 188.347 239.559Z" fill="#D6DCE8"/>
<path d="M193.642 109.812C194.587 109.812 195.342 109.056 195.342 108.11C195.342 107.164 194.587 106.408 193.642 106.408C192.697 106.408 191.941 107.164 191.941 108.11C191.941 109.056 192.697 109.812 193.642 109.812Z" fill="#DFECFF"/>
<path d="M199.122 109.812C200.067 109.812 200.823 109.056 200.823 108.11C200.823 107.164 200.067 106.408 199.122 106.408C198.178 106.408 197.422 107.164 197.422 108.11C197.422 109.056 198.178 109.812 199.122 109.812Z" fill="#DFECFF"/>
<path d="M204.603 109.812C205.548 109.812 206.303 109.056 206.303 108.11C206.303 107.164 205.548 106.408 204.603 106.408C203.658 106.408 202.902 107.164 202.902 108.11C202.902 109.056 203.658 109.812 204.603 109.812Z" fill="#DFECFF"/>
<path d="M363.488 212.972C362.977 215.143 362.211 217.442 361.318 219.359C358.894 224.085 355.065 227.789 350.344 230.216C345.495 232.643 339.752 233.665 334.01 232.388C320.483 229.578 311.806 216.293 314.613 202.752C317.421 189.212 330.565 180.398 344.091 183.336C348.94 184.358 353.151 186.785 356.724 190.106C362.722 196.238 365.146 204.796 363.488 212.972Z" fill="#247DFF" stroke="#AAB2C5" stroke-width="2" stroke-miterlimit="10"/>
<path d="M346.904 205.69H341.161V199.942C341.161 198.793 340.268 197.771 338.992 197.771C337.843 197.771 336.822 198.665 336.822 199.942V205.69H331.08C329.931 205.69 328.91 206.585 328.91 207.862C328.91 209.139 329.803 210.034 331.08 210.034H336.822V215.782C336.822 216.931 337.715 217.953 338.992 217.953C340.14 217.953 341.161 217.059 341.161 215.782V210.034H346.904C348.052 210.034 349.073 209.139 349.073 207.862C349.201 206.585 348.18 205.69 346.904 205.69Z" fill="white"/>
<path d="M150.586 246.196L368.833 246.196" stroke="#D6DCE8" stroke-width="2" stroke-miterlimit="10" stroke-linecap="round" stroke-linejoin="round"/>
<path d="M164.727 149.737C167.855 149.737 170.391 147.199 170.391 144.067C170.391 140.936 167.855 138.398 164.727 138.398C161.598 138.398 159.062 140.936 159.062 144.067C159.062 147.199 161.598 149.737 164.727 149.737Z" fill="#DFECFF"/>
<path d="M159.067 131.345C161.204 131.345 162.936 129.612 162.936 127.473C162.936 125.335 161.204 123.601 159.067 123.601C156.931 123.601 155.199 125.335 155.199 127.473C155.199 129.612 156.931 131.345 159.067 131.345Z" fill="#DFECFF"/>
<path d="M320.728 85.9703C322.864 85.9703 324.596 84.2367 324.596 82.0983C324.596 79.9599 322.864 78.2263 320.728 78.2263C318.591 78.2263 316.859 79.9599 316.859 82.0983C316.859 84.2367 318.591 85.9703 320.728 85.9703Z" fill="#DFECFF"/>
<path d="M361.649 163.999C365.616 163.999 368.832 160.78 368.832 156.808C368.832 152.837 365.616 149.618 361.649 149.618C357.681 149.618 354.465 152.837 354.465 156.808C354.465 160.78 357.681 163.999 361.649 163.999Z" fill="#DFECFF"/>
</svg>
