<svg width="525" height="321" viewBox="0 0 525 321" fill="none" xmlns="http://www.w3.org/2000/svg">
<rect width="525" height="321" rx="10" fill="#F4FAFF"/>
<path d="M261.811 247C307.539 247 344.611 209.928 344.611 164.037C344.611 118.146 307.375 81.0744 261.811 81.0744C216.084 81.0744 179.012 118.146 179.012 164.037C179.012 209.928 216.084 247 261.811 247Z" fill="#DFECFF" stroke="#D6DCE8" stroke-width="2" stroke-miterlimit="10"/>
<path d="M183.42 109.491C185.946 109.491 187.993 107.443 187.993 104.918C187.993 102.393 185.946 100.345 183.42 100.345C180.895 100.345 178.848 102.393 178.848 104.918C178.848 107.443 180.895 109.491 183.42 109.491Z" fill="#DFECFF"/>
<path d="M155.492 197.679C160.182 197.679 163.985 193.877 163.985 189.187C163.985 184.497 160.182 180.695 155.492 180.695C150.802 180.695 147 184.497 147 189.187C147 193.877 150.802 197.679 155.492 197.679Z" fill="#DFECFF"/>
<path d="M340.706 120.46V216.55C340.706 219.369 338.357 221.718 335.538 221.718H189.524C186.705 221.836 184.355 219.487 184.355 216.667V120.46C184.355 117.524 186.705 115.292 189.524 115.292H335.538C338.474 115.292 340.706 117.641 340.706 120.46Z" fill="white" stroke="#D6DCE8" stroke-width="2" stroke-miterlimit="10"/>
<path d="M285.814 168.432C285.587 155.942 275.373 145.722 262.663 145.722H262.436C249.725 145.722 239.512 156.169 239.512 168.886C239.512 181.604 249.952 192.051 262.663 192.051C269.699 192.051 275.827 188.871 280.139 184.102C283.771 180.014 285.814 174.791 285.814 168.886C285.814 168.659 285.814 168.432 285.814 168.432ZM262.663 184.329C254.038 184.329 247.002 177.289 247.002 168.659C247.002 160.029 254.038 152.989 262.663 152.989H262.89C271.514 152.989 278.324 159.802 278.551 168.205C278.551 168.432 278.551 168.432 278.551 168.659C278.551 172.52 277.189 176.154 274.692 178.879C271.514 182.285 267.429 184.329 262.663 184.329Z" fill="#F1F3F9"/>
<path d="M285.812 168.432H278.321C278.095 160.029 271.285 153.216 262.661 153.216H262.434V145.722H262.661C275.371 145.722 285.585 155.714 285.812 168.432Z" fill="#247DFF"/>
<path d="M285.813 168.659C285.813 174.564 283.771 179.787 280.139 183.875L274.465 179.106C276.962 176.381 278.323 172.747 278.323 168.886C278.323 168.659 278.323 168.659 278.323 168.432H285.813V168.659Z" fill="#F1F3F9"/>
<path d="M340.706 120.46V127.861H184.355V120.46C184.355 117.524 186.705 115.292 189.524 115.292H335.538C338.474 115.292 340.706 117.641 340.706 120.46Z" fill="#F1F3F9" stroke="#D6DCE8" stroke-width="2" stroke-miterlimit="10"/>
<path d="M191.285 123.749C192.259 123.749 193.047 122.96 193.047 121.987C193.047 121.014 192.259 120.225 191.285 120.225C190.312 120.225 189.523 121.014 189.523 121.987C189.523 122.96 190.312 123.749 191.285 123.749Z" fill="#DFECFF"/>
<path d="M196.809 123.749C197.782 123.749 198.571 122.96 198.571 121.987C198.571 121.014 197.782 120.225 196.809 120.225C195.836 120.225 195.047 121.014 195.047 121.987C195.047 122.96 195.836 123.749 196.809 123.749Z" fill="#DFECFF"/>
<path d="M202.45 123.749C203.423 123.749 204.212 122.96 204.212 121.987C204.212 121.014 203.423 120.225 202.45 120.225C201.476 120.225 200.688 121.014 200.688 121.987C200.688 122.96 201.476 123.749 202.45 123.749Z" fill="#DFECFF"/>
<path d="M334.364 102.84C333.19 102.84 332.25 101.9 332.25 100.726V77.1144C332.25 75.9397 333.19 75 334.364 75C335.539 75 336.479 75.9397 336.479 77.1144V100.726C336.479 101.9 335.539 102.84 334.364 102.84Z" fill="#DFECFF"/>
<path d="M351.516 120.93C351.516 119.756 352.455 118.816 353.63 118.816H377.241C378.416 118.816 379.356 119.756 379.356 120.93C379.356 122.105 378.416 123.045 377.241 123.045H353.63C352.455 123.045 351.516 122.105 351.516 120.93Z" fill="#DFECFF"/>
<path d="M349.632 105.659C348.81 104.837 348.81 103.427 349.632 102.605L366.43 85.9246C367.253 85.1024 368.662 85.1024 369.485 85.9246C370.307 86.7469 370.307 88.1565 369.485 88.9788L352.804 105.659C351.864 106.482 350.455 106.482 349.632 105.659Z" fill="#DFECFF"/>
</svg>
