<svg width="525" height="321" viewBox="0 0 525 321" fill="none" xmlns="http://www.w3.org/2000/svg">
<rect width="525" height="321" rx="10" fill="#F4FAFF"/>
<path d="M274.4 247C319.963 247 356.901 210.061 356.901 164.336C356.901 118.61 319.8 81.6716 274.4 81.6716C228.837 81.6716 191.898 118.61 191.898 164.336C191.898 210.061 228.837 247 274.4 247Z" fill="#DFECFF" stroke="#D6DFE8" stroke-width="2" stroke-miterlimit="10"/>
<path d="M351.531 110.149C355.216 110.149 358.203 107.162 358.203 103.477C358.203 99.7922 355.216 96.8052 351.531 96.8052C347.846 96.8052 344.859 99.7922 344.859 103.477C344.859 107.162 347.846 110.149 351.531 110.149Z" fill="#DFECFF"/>
<path d="M361.287 84.1126C363.803 84.1126 365.843 82.0727 365.843 79.5563C365.843 77.0399 363.803 75 361.287 75C358.77 75 356.73 77.0399 356.73 79.5563C356.73 82.0727 358.77 84.1126 361.287 84.1126Z" fill="#DFECFF"/>
<path d="M196.287 109.986C198.803 109.986 200.843 107.946 200.843 105.43C200.843 102.913 198.803 100.873 196.287 100.873C193.77 100.873 191.73 102.913 191.73 105.43C191.73 107.946 193.77 109.986 196.287 109.986Z" fill="#DFECFF"/>
<path d="M168.462 197.857C173.135 197.857 176.923 194.069 176.923 189.395C176.923 184.722 173.135 180.934 168.462 180.934C163.788 180.934 160 184.722 160 189.395C160 194.069 163.788 197.857 168.462 197.857Z" fill="#DFECFF"/>
<path d="M330.536 123.004L331.838 227.799C331.838 231.378 328.909 234.145 325.329 234.145H223.138C219.558 234.145 216.629 231.216 216.629 227.799V93.0625C216.629 89.4825 219.558 86.7162 223.138 86.7162H297.178L330.536 123.004Z" fill="white" stroke="#D6DFE8" stroke-width="2" stroke-miterlimit="10"/>
<path d="M266.421 213.153H246.406C245.592 213.153 244.941 212.34 244.941 211.363C244.941 210.387 245.592 209.573 246.406 209.573H266.421C267.235 209.573 267.886 210.387 267.886 211.363C267.886 212.502 267.235 213.153 266.421 213.153Z" fill="#D6DCE8"/>
<path d="M255.035 213.153H233.23C232.417 213.153 231.766 212.34 231.766 211.363C231.766 210.387 232.417 209.573 233.23 209.573H255.035C255.849 209.573 256.5 210.387 256.5 211.363C256.5 212.502 255.849 213.153 255.035 213.153Z" fill="#D5DDEA"/>
<path d="M282.861 108.684H233.881C232.742 108.684 231.766 107.708 231.766 106.569C231.766 105.429 232.742 104.453 233.881 104.453H282.861C284 104.453 284.977 105.429 284.977 106.569C284.977 107.708 284 108.684 282.861 108.684Z" fill="#247DFF"/>
<path d="M252.757 120.4H233.881C232.742 120.4 231.766 119.424 231.766 118.285C231.766 117.146 232.742 116.169 233.881 116.169H252.594C253.733 116.169 254.71 117.146 254.71 118.285C254.71 119.424 253.733 120.4 252.757 120.4Z" fill="#247DFF"/>
<path d="M297.18 86.7161V115.681C297.18 119.749 300.76 123.004 304.828 123.004H330.538" fill="#D6DCE8"/>
<path d="M315.992 184.994H259.533H253.31H234.49C233.732 184.994 232.973 185.754 232.973 186.819C232.973 187.731 233.58 188.644 234.49 188.644H253.31H259.533H315.992C316.751 188.644 317.51 187.884 317.51 186.819C317.358 185.754 316.751 184.994 315.992 184.994Z" fill="#D6DCE8"/>
<path d="M315.84 171.761H294.896H287.762H234.49C233.732 171.761 232.973 172.522 232.973 173.587C232.973 174.499 233.58 175.412 234.49 175.412H287.762H294.896H315.84C316.599 175.412 317.358 174.651 317.358 173.587C317.206 172.522 316.599 171.761 315.84 171.761Z" fill="#D6DCE8"/>
<path d="M316.296 158.377H310.832H305.368H234.49C233.732 158.377 232.973 159.138 232.973 160.202C232.973 161.115 233.58 162.027 234.49 162.027H305.368H311.439H316.144C316.903 162.027 317.661 161.267 317.661 160.202C317.813 159.29 317.054 158.377 316.296 158.377Z" fill="#D6DCE8"/>
<path d="M256.801 214.5H234.49C233.732 214.5 232.973 213.74 232.973 212.675C232.973 211.762 233.58 210.85 234.49 210.85H256.801C257.56 210.85 258.319 211.61 258.319 212.675C258.319 213.892 257.56 214.5 256.801 214.5Z" fill="#E3EAF2"/>
<path d="M316.903 145.145H299.145H294.744H234.49C233.732 145.145 232.973 145.905 232.973 146.97C232.973 147.883 233.58 148.795 234.49 148.795H294.744H299.145H316.751C317.813 148.795 318.42 148.035 318.42 146.97C318.42 146.058 317.813 145.145 316.903 145.145Z" fill="#D6DCE8"/>
<path d="M250.348 221.654C249.693 224.442 248.709 227.395 247.562 229.855C244.449 235.924 239.534 240.68 233.471 243.797C227.244 246.913 219.871 248.225 212.497 246.585C195.129 242.977 183.987 225.918 187.591 208.532C191.196 191.146 208.073 179.828 225.442 183.601C231.668 184.913 237.076 188.029 241.664 192.294C249.365 200.167 252.478 211.156 250.348 221.654Z" fill="#247DFF" stroke="#AAB2C5" stroke-width="2" stroke-miterlimit="10"/>
<path d="M214.896 225C214.307 225 213.753 224.785 213.303 224.32L205.649 216.41C204.784 215.516 204.784 214.012 205.649 213.118C206.515 212.223 207.97 212.223 208.835 213.118L214.896 219.381L229.165 204.671C230.03 203.776 231.485 203.776 232.351 204.671C233.216 205.566 233.216 207.069 232.351 207.964L216.489 224.32C216.074 224.785 215.485 225 214.896 225Z" fill="white"/>
</svg>
