<svg width="18" height="18" viewBox="0 0 18 18" fill="none" xmlns="http://www.w3.org/2000/svg">
<path d="M8.784 0C13.8753 0 18 4.0293 18 9C18 13.9707 13.8744 18 8.784 18C5.9121 18 3.2562 16.7067 1.521 14.5386C1.47236 14.478 1.43638 14.4083 1.41521 14.3336C1.39404 14.2589 1.38811 14.1806 1.39776 14.1036C1.40742 14.0265 1.43246 13.9522 1.47141 13.885C1.51036 13.8178 1.56242 13.7591 1.6245 13.7124C1.75108 13.6161 1.91019 13.5729 2.06811 13.5918C2.22602 13.6108 2.37035 13.6905 2.4705 13.8141C3.9807 15.6996 6.2865 16.8228 8.7849 16.8228C13.2084 16.8228 16.7949 13.32 16.7949 9C16.7949 4.68 13.2084 1.1772 8.7849 1.1772C7.59133 1.17261 6.41161 1.43301 5.33088 1.9396C4.25014 2.4462 3.29532 3.18637 2.5353 4.1067C2.43356 4.22914 2.28812 4.30712 2.12984 4.32409C1.97155 4.34106 1.81288 4.29569 1.6875 4.1976C1.62596 4.15011 1.57461 4.09072 1.53649 4.02297C1.49837 3.95522 1.47427 3.8805 1.46563 3.80325C1.45698 3.726 1.46396 3.6478 1.48615 3.5733C1.50834 3.4988 1.54529 3.42953 1.5948 3.3696C3.3327 1.2546 5.9535 0 8.7849 0H8.784ZM9.2745 6.1758L11.7108 8.6121C11.9466 8.8479 11.9511 9.2241 11.7207 9.4545L9.342 11.835C9.28601 11.8898 9.21977 11.933 9.14707 11.9622C9.07436 11.9913 8.99662 12.0058 8.9183 12.0049C8.83997 12.004 8.76259 11.9877 8.69059 11.9568C8.61859 11.9259 8.55338 11.8812 8.4987 11.8251C8.44267 11.7704 8.39799 11.7051 8.36721 11.6331C8.33643 11.561 8.32016 11.4836 8.31932 11.4053C8.31849 11.327 8.33311 11.2493 8.36234 11.1766C8.39158 11.1039 8.43485 11.0377 8.4897 10.9818L9.882 9.5886L0.603 9.5895C0.524682 9.59045 0.446945 9.57595 0.374237 9.54683C0.301528 9.51771 0.235276 9.47453 0.179269 9.41978C0.123262 9.36503 0.0786009 9.29977 0.04784 9.22774C0.0170791 9.15571 0.000822425 9.07832 0 9C0 8.6751 0.27 8.4114 0.603 8.4114H9.8442L8.442 7.0083C8.38597 6.95356 8.34129 6.8883 8.31051 6.81627C8.27973 6.74424 8.26346 6.66684 8.26262 6.58852C8.26179 6.51019 8.27641 6.43247 8.30564 6.35979C8.33488 6.28712 8.37815 6.22093 8.433 6.165C8.54599 6.0549 8.69804 5.99411 8.8558 5.99597C9.01355 5.99783 9.16413 6.06217 9.2745 6.1749V6.1758Z" fill="#041A45"/>
</svg>
