<svg width="137" height="40" viewBox="0 0 137 40" fill="none" xmlns="http://www.w3.org/2000/svg">
<path d="M73.093 18.1254V25.154C73.093 25.9974 72.4182 26.616 71.5745 26.616C70.6749 26.616 70.0561 25.9974 70.0561 25.154V18.6877C70.0561 17.0854 69.4098 15.9887 67.5819 15.9887C65.5577 15.9887 64.771 17.0854 64.771 18.6597V25.1541C64.771 25.9975 64.0962 26.616 63.2525 26.616C62.3529 26.616 61.7341 25.9975 61.7341 25.1541V18.6877C61.7341 17.0854 61.0878 15.9887 59.26 15.9887C57.1518 15.9887 56.449 17.2258 56.449 18.8847V25.1541C56.449 25.9976 55.8022 26.6161 54.9305 26.6161C54.0589 26.6161 53.4121 25.9976 53.4121 25.1541V14.9203C53.4121 14.0769 54.0869 13.4021 54.9305 13.4021C55.7742 13.4021 56.449 14.0769 56.449 14.9203C56.9828 14.1048 58.1639 13.2334 60.0477 13.2334C62.3528 13.2334 63.5054 13.9644 64.2081 15.061C65.1078 13.852 66.3169 13.2334 68.2286 13.2334C72.0523 13.2335 73.093 15.6793 73.093 18.1254Z" fill="black"/>
<path d="M81.2734 13.2334C86.0246 13.2334 86.8963 16.8883 86.8963 18.8281C86.8963 19.8684 86.8963 21.0772 85.1809 21.0772H78.2365C78.2365 23.1015 79.6705 24.0294 81.5263 24.0294C82.7634 24.0294 83.6345 23.6078 84.3093 23.158C84.6187 22.961 84.8436 22.8486 85.2089 22.8486C85.9402 22.8486 86.5304 23.4388 86.5304 24.1701C86.5304 24.6199 86.3055 24.9853 86.0526 25.2102C85.5748 25.66 84.0843 26.7566 81.5263 26.7566C77.6182 26.7566 75.2007 24.6479 75.2007 19.9526C75.2006 15.6513 77.4498 13.2334 81.2734 13.2334ZM78.3209 18.5472H83.8879C83.8879 17.1694 83.1007 15.8199 81.2734 15.8199C79.6425 15.8199 78.4614 16.7478 78.3209 18.5472Z" fill="black"/>
<path d="M108.684 18.1254V25.154C108.684 25.9974 108.01 26.616 107.166 26.616C106.266 26.616 105.648 25.9974 105.648 25.154V18.6877C105.648 17.0854 105.001 15.9887 103.173 15.9887C101.149 15.9887 100.362 17.0854 100.362 18.6597V25.1541C100.362 25.9975 99.6875 26.616 98.8438 26.616C97.9441 26.616 97.3253 25.9975 97.3253 25.1541V18.6877C97.3253 17.0854 96.6791 15.9887 94.8512 15.9887C92.7431 15.9887 92.0403 17.2258 92.0403 18.8847V25.1541C92.0403 25.9976 91.3935 26.6161 90.5218 26.6161C89.6501 26.6161 89.0034 25.9976 89.0034 25.1541V14.9203C89.0034 14.0769 89.6781 13.4021 90.5218 13.4021C91.3655 13.4021 92.0403 14.0769 92.0403 14.9203C92.5741 14.1048 93.7552 13.2334 95.639 13.2334C97.9441 13.2334 99.0967 13.9644 99.7994 15.061C100.699 13.852 101.908 13.2334 103.82 13.2334C107.644 13.2335 108.684 15.6793 108.684 18.1254Z" fill="black"/>
<path d="M116.921 26.7566C113.125 26.7566 110.764 24.5917 110.764 20.0092C110.764 15.3983 113.125 13.2334 116.921 13.2334C120.717 13.2334 123.078 15.3984 123.078 20.0092C123.078 24.5917 120.716 26.7566 116.921 26.7566ZM116.921 15.8199C114.897 15.8199 113.828 17.2257 113.828 20.0092C113.828 22.7641 114.897 24.1701 116.921 24.1701C118.945 24.1701 120.014 22.7641 120.014 20.0092C120.014 17.2256 118.945 15.8199 116.921 15.8199Z" fill="black"/>
<path d="M124.736 19.9809C124.736 15.3983 126.957 13.2334 130.752 13.2334C134.154 13.2334 136.572 15.117 136.572 18.8563V30.5238C136.572 31.3675 135.897 32.0423 135.053 32.0423C134.21 32.0423 133.536 31.3675 133.536 30.5238V25.6321C132.973 26.1944 131.792 26.7567 130.443 26.7567C126.901 26.7566 124.736 24.5635 124.736 19.9809ZM133.536 18.8563C133.536 16.9162 132.383 15.8199 130.752 15.8199C128.812 15.8199 127.744 17.2256 127.744 19.9808C127.744 22.7641 128.84 24.17 130.752 24.17C132.439 24.17 133.536 22.7361 133.536 22.7361V18.8563Z" fill="black"/>
<path d="M26.6667 20.0001C26.6667 17.6623 26.265 15.4186 25.5279 13.3334H25.5256C24.2711 9.78536 22.0444 6.69679 19.1653 4.38824C19.1603 4.38429 19.1554 4.38029 19.1504 4.37634C18.8695 4.15156 18.5824 3.9343 18.2895 3.72466C18.2771 3.71583 18.2647 3.7071 18.2524 3.69832C18.1114 3.5979 17.9692 3.49906 17.8254 3.40226C17.8223 3.40006 17.8191 3.39787 17.8158 3.39573C17.6694 3.29717 17.5213 3.20064 17.3721 3.10592C17.3544 3.09467 17.3365 3.08358 17.3187 3.07239C17.1856 2.98842 17.0514 2.90605 16.9162 2.82516C16.8978 2.81413 16.8795 2.80294 16.861 2.79196C16.7138 2.70454 16.5654 2.61904 16.4159 2.53535C16.3949 2.52361 16.3737 2.5122 16.3526 2.50056C16.2225 2.42834 16.0915 2.35771 15.9596 2.2884C15.9306 2.27315 15.9017 2.25773 15.8726 2.24264C15.7236 2.1652 15.5736 2.08936 15.4224 2.01566C15.4018 2.00556 15.3809 1.99591 15.3602 1.98592C15.2282 1.9221 15.0954 1.85992 14.9619 1.79895C14.9255 1.78232 14.8892 1.76569 14.8527 1.74929C14.7008 1.68102 14.5481 1.61418 14.3942 1.54958C14.3794 1.54338 14.3645 1.53757 14.3496 1.53137C14.2093 1.47292 14.068 1.41629 13.926 1.36097C13.8858 1.34533 13.8456 1.32974 13.8053 1.31432C13.649 1.25462 13.4921 1.19606 13.334 1.14014H13.3339C5.56592 3.88557 0 11.2922 0 20.0002C0 22.338 0.402473 24.5815 1.13965 26.6669C3.8854 18.8993 11.2921 13.3336 20 13.3336C23.6819 13.3334 26.6667 16.3182 26.6667 20.0001Z" fill="url(#paint0_linear_394_51124)"/>
<path d="M13.3423 20.3461C13.3364 20.2314 13.3333 20.116 13.3333 20C13.3333 19.9965 13.334 19.9932 13.334 19.9897C13.3392 16.3128 16.3211 13.3335 19.999 13.3334C19.7203 13.3334 19.4428 13.3395 19.1668 13.3508H19.1667C18.6481 13.372 18.1346 13.4133 17.6269 13.4734C17.6231 13.4739 17.6192 13.4741 17.6151 13.4746C17.1212 13.5333 16.6332 13.6115 16.1509 13.7056C16.1295 13.7098 16.1077 13.7131 16.0863 13.7173C15.6178 13.8103 15.1559 13.9213 14.6999 14.0463C14.6666 14.0555 14.6327 14.0635 14.5995 14.0728C14.1545 14.1974 13.7164 14.3386 13.2844 14.4925C13.2425 14.5075 13.2001 14.5215 13.1582 14.5367C12.7348 14.6909 12.3187 14.8603 11.9092 15.0417C11.8625 15.0625 11.8153 15.0823 11.7687 15.1034C11.3662 15.2855 10.9712 15.4817 10.5832 15.6892C10.5334 15.7158 10.4835 15.7418 10.434 15.7688C10.0518 15.9774 9.67769 16.1988 9.31122 16.4311C9.26046 16.4633 9.20953 16.4953 9.15899 16.528C8.79691 16.7621 8.443 17.0079 8.09743 17.2643C8.04799 17.301 7.99865 17.3378 7.94959 17.3749C7.60721 17.6339 7.27356 17.9034 6.9489 18.1834C6.90181 18.224 6.85528 18.265 6.80847 18.3061C6.48633 18.5892 6.17287 18.8821 5.86951 19.1851C5.82681 19.2278 5.78472 19.2711 5.74241 19.3142C5.44009 19.6217 5.14688 19.9382 4.8647 20.2647C4.82765 20.3076 4.79171 20.3512 4.75494 20.3944C4.47298 20.7264 4.20057 21.0667 3.94045 21.4168C3.9096 21.4583 3.87986 21.5008 3.84935 21.5426C3.58868 21.8992 3.33805 22.2637 3.10082 22.6377C3.07716 22.675 3.05477 22.7133 3.03123 22.7509C2.79213 23.1335 2.56411 23.5237 2.3508 23.923C2.33494 23.9525 2.3204 23.9829 2.30465 24.0126C2.08816 24.4229 1.88385 24.8407 1.69551 25.2672C1.68755 25.2852 1.68058 25.3037 1.67262 25.3217C1.47978 25.7622 1.30099 26.2103 1.13965 26.6667C3.88535 34.4343 11.2921 40 20 40C22.3378 40 25.8333 40 28.3333 40C20.6688 37.2906 13.5303 28.9333 13.3423 20.3461Z" fill="url(#paint1_linear_394_51124)"/>
<path d="M26.6668 20C26.6668 23.6279 23.7682 26.577 20.1608 26.6626C20.1727 26.6653 20.1349 26.6666 20.0001 26.6666H25.8335C30.0453 26.6666 33.7985 28.6216 36.242 31.6713C38.6065 28.3866 40.0001 24.3562 40.0001 20C40.0001 19.8396 39.9978 19.6798 39.994 19.5203C39.9927 19.4663 39.9905 19.4125 39.9888 19.3585C39.9854 19.2536 39.9818 19.1487 39.9768 19.0441C39.9738 18.9792 39.97 18.9144 39.9664 18.8497C39.9611 18.757 39.9553 18.6644 39.9487 18.5721C39.9438 18.502 39.9386 18.4321 39.9329 18.3623C39.926 18.2764 39.9181 18.1907 39.9101 18.1051C39.9032 18.0316 39.8964 17.9581 39.8888 17.8848C39.8804 17.8055 39.8709 17.7266 39.8616 17.6475C39.8525 17.5694 39.8439 17.4912 39.8339 17.4135C39.8327 17.4044 39.8312 17.3954 39.83 17.3864C39.7992 17.15 39.7634 16.9151 39.7243 16.6813C39.717 16.6378 39.7103 16.5941 39.7027 16.5508C39.6846 16.4463 39.665 16.3423 39.6452 16.2383C39.6373 16.1965 39.6294 16.1545 39.6212 16.1127C39.6 16.0051 39.5778 15.8979 39.5549 15.791C39.5476 15.757 39.5402 15.7232 39.5328 15.6894C39.5075 15.5745 39.4815 15.4598 39.4543 15.3456C39.4508 15.3309 39.4472 15.3163 39.4436 15.3017C37.33 6.52315 29.4274 0 20.0001 0C17.6623 0 15.4188 0.402473 13.3335 1.13965C21.101 3.88534 26.6668 11.2921 26.6668 20Z" fill="url(#paint2_linear_394_51124)"/>
<path d="M25.8333 26.6666H20C16.4342 26.6666 13.5224 23.8671 13.3423 20.3461C13.5104 28.0199 19.2296 35.5064 25.9139 38.9465C26.0727 39.0283 26.232 39.1081 26.3918 39.1854C26.4557 39.2163 26.5199 39.246 26.5841 39.2762C26.7301 39.3449 26.8764 39.4128 27.0231 39.4776C27.1244 39.5222 27.226 39.5642 27.3276 39.6069C27.441 39.6547 27.5541 39.7036 27.6678 39.7489C27.8891 39.8369 28.111 39.9213 28.3333 39.9999H39.1666C39.1666 32.6361 33.1971 26.6666 25.8333 26.6666Z" fill="url(#paint3_linear_394_51124)"/>
<defs>
<linearGradient id="paint0_linear_394_51124" x1="18.826" y1="3.13841" x2="9.19515" y2="29.5988" gradientUnits="userSpaceOnUse">
<stop stop-color="#EF3F3F"/>
<stop offset="1" stop-color="#F47623"/>
</linearGradient>
<linearGradient id="paint1_linear_394_51124" x1="9.11591" y1="16.0079" x2="19.0748" y2="43.3698" gradientUnits="userSpaceOnUse">
<stop stop-color="#EF3F3F"/>
<stop offset="1" stop-color="#F47623"/>
</linearGradient>
<linearGradient id="paint2_linear_394_51124" x1="26.6668" y1="31.6713" x2="26.6668" y2="0" gradientUnits="userSpaceOnUse">
<stop stop-color="#EF3F3F"/>
<stop offset="1" stop-color="#F47623"/>
</linearGradient>
<linearGradient id="paint3_linear_394_51124" x1="13.3423" y1="30.173" x2="39.1666" y2="30.173" gradientUnits="userSpaceOnUse">
<stop stop-color="#EF3F3F"/>
<stop offset="1" stop-color="#F47623"/>
</linearGradient>
</defs>
</svg>
