<svg width="618" height="621" viewBox="0 0 618 621" fill="none" xmlns="http://www.w3.org/2000/svg">
<mask id="mask0_976_52076" style="mask-type:alpha" maskUnits="userSpaceOnUse" x="0" y="0" width="610" height="585">
<rect width="610" height="585" rx="10" fill="#F4FAFF"/>
</mask>
<g mask="url(#mask0_976_52076)">
<rect width="610" height="585" rx="10" fill="#F4FAFF"/>
<path opacity="0.8" d="M151.693 111.673L143.81 76.7642C142.723 71.912 137.996 68.9733 133.299 70.1377L132.019 70.3898C52.796 84.516 24.625 19.894 17.5512 -3.76502C17.4817 -3.91089 17.4817 -3.91089 17.4122 -4.05677C16.3143 -7.82976 12.9339 -10.5149 9.1002 -10.478C8.6027 -10.4199 8.03567 -10.5077 7.53817 -10.4496C7.18333 -10.4595 6.89801 -10.3235 6.68583 -10.4014L-27.1072 -3.06801C-27.3926 -2.93203 -27.7474 -2.94194 -28.0327 -2.80596C-32.1626 -1.5538 -34.6899 2.69378 -33.8115 7.10836C-33.6797 8.11959 -33.5479 9.13083 -33.3466 10.2879C-29.3969 34.0038 -36.2234 63.3923 -48.1459 91.2712C-42.6742 83.6513 -26.0279 66.0517 -19.3743 60.9117C-5.06848 50.1558 13.0023 46.198 30.6386 50.1446C58.1192 56.381 88.246 74.7819 100.469 122.838C101.699 127.622 106.283 130.629 110.98 129.465L145.128 122.141C149.752 121.191 152.78 116.525 151.693 111.673Z" fill="white"/>
</g>
<path d="M466.435 184.025L466.434 184.049V184.073V262.659C466.429 264.709 465.613 266.673 464.163 268.123C462.714 269.572 460.749 270.389 458.699 270.393H324.309C322.259 270.389 320.294 269.572 318.845 268.123C317.396 266.674 316.579 264.71 316.574 262.66L316.574 184.073L316.574 184.072C316.573 183.087 316.763 182.111 317.135 181.198L317.135 181.197C317.719 179.755 318.721 178.522 320.013 177.656C321.305 176.791 322.827 176.332 324.383 176.341V176.341H324.388L458.784 176.341L458.791 176.341C460.346 176.33 461.868 176.787 463.161 177.653C464.446 178.514 465.444 179.74 466.027 181.173C466.343 182.089 466.482 183.057 466.435 184.025Z" fill="white" stroke="#D6DCE8" stroke-width="2"/>
<path d="M324.383 176.341V176.341H324.389H458.778C460.307 176.36 461.796 176.83 463.058 177.693C464.123 178.421 464.986 179.401 465.573 180.541L394.447 239.579C394.447 239.58 394.446 239.58 394.446 239.58C393.618 240.263 392.578 240.636 391.505 240.636C390.432 240.636 389.392 240.263 388.564 239.58C388.563 239.58 388.563 239.58 388.562 239.579L317.437 180.541C318.038 179.381 318.923 178.388 320.014 177.656C321.306 176.791 322.828 176.332 324.383 176.341Z" fill="#F1F3F9" stroke="#D6DCE8" stroke-width="2"/>
<path d="M414.879 133.419H343.428V203.398L387.926 240.351C388.934 241.182 390.199 241.637 391.505 241.637C392.811 241.637 394.076 241.182 395.084 240.351L439.603 203.398V149.063L414.879 133.419Z" fill="white"/>
<path d="M391.393 241C389.804 241.001 388.265 240.445 387.05 239.43L342.89 202.989C342.751 202.873 342.639 202.728 342.562 202.564C342.485 202.401 342.444 202.223 342.443 202.043V133.228C342.443 132.902 342.574 132.59 342.806 132.36C343.038 132.129 343.353 132 343.681 132H414.589C414.818 131.997 415.043 132.06 415.238 132.181L439.875 147.543C440.053 147.654 440.198 147.809 440.298 147.992C440.397 148.175 440.447 148.381 440.443 148.59V202.123C440.442 202.304 440.402 202.482 440.324 202.645C440.247 202.808 440.136 202.953 439.997 203.069L395.735 239.43C394.52 240.445 392.982 241.001 391.393 241ZM344.899 201.539L388.633 237.557C389.408 238.196 390.385 238.545 391.393 238.545C392.4 238.545 393.377 238.196 394.152 237.557L437.886 201.539V149.194L414.122 134.537H344.899V201.539Z" fill="#D6DCE8"/>
<path d="M439.603 149.023L414.777 133.399L422.814 154.094L439.603 149.023Z" fill="#EBEBEB"/>
<path d="M422.813 155.341C422.561 155.339 422.316 155.262 422.109 155.12C421.901 154.978 421.74 154.777 421.647 154.544L413.61 133.849C413.522 133.606 413.511 133.341 413.579 133.092C413.648 132.843 413.792 132.621 413.991 132.457C414.191 132.293 414.437 132.196 414.695 132.177C414.953 132.159 415.21 132.222 415.43 132.356L440.256 147.959C440.458 148.088 440.619 148.272 440.72 148.49C440.822 148.707 440.859 148.948 440.829 149.186C440.798 149.424 440.699 149.647 440.542 149.829C440.386 150.01 440.18 150.142 439.95 150.208L423.16 155.198C423.055 155.268 422.937 155.317 422.813 155.341ZM417.291 136.466L423.549 152.56L436.616 148.613L417.291 136.466Z" fill="#CDD3DF"/>
<path d="M410.974 199.676H416.618C414.563 203.281 411.509 206.215 407.824 208.122C402.986 210.564 397.618 211.765 392.201 211.619C387.078 211.768 381.988 210.755 377.313 208.654C373.423 206.895 370.295 203.796 368.5 199.922C366.751 195.982 366.046 191.657 366.455 187.366C366.832 182.425 368.412 177.651 371.056 173.46C373.563 169.34 377.167 165.998 381.465 163.808C385.912 161.61 390.819 160.502 395.779 160.577C399.824 160.49 403.83 161.381 407.456 163.174C410.656 164.774 413.248 167.372 414.839 170.576C416.472 173.812 417.179 177.435 416.884 181.047C416.543 185.58 414.75 189.883 411.771 193.317C410.133 195.462 408.023 197.201 405.604 198.4C403.186 199.598 400.524 200.224 397.824 200.229C396.687 200.309 395.551 200.038 394.573 199.451C394.217 199.182 393.918 198.844 393.693 198.458C393.468 198.072 393.323 197.645 393.264 197.202C391.25 199.122 388.582 200.204 385.8 200.229C384.468 200.278 383.143 200.03 381.919 199.503C380.695 198.976 379.604 198.183 378.724 197.182C377.796 196.052 377.114 194.741 376.723 193.332C376.332 191.923 376.241 190.448 376.454 189.002C376.76 184.857 378.282 180.894 380.831 177.611C382.076 175.723 383.761 174.167 385.742 173.077C387.723 171.987 389.94 171.395 392.201 171.354C393.546 171.249 394.893 171.533 396.082 172.171C397.27 172.809 398.251 173.774 398.908 174.953L399.788 172.008H406.802L401.321 191.047C401.074 191.807 400.889 192.587 400.769 193.378C400.709 193.729 400.79 194.089 400.994 194.38C401.083 194.483 401.193 194.566 401.316 194.622C401.44 194.678 401.574 194.708 401.71 194.707C402.966 194.536 404.145 194.003 405.105 193.173C407.091 191.749 408.733 189.897 409.91 187.754C411.16 185.603 411.915 183.2 412.119 180.72C412.34 178.726 412.108 176.707 411.438 174.816C410.769 172.925 409.68 171.21 408.254 169.799C405.186 166.882 400.824 165.423 395.166 165.423C390.846 165.313 386.57 166.32 382.753 168.347C379.312 170.251 376.477 173.086 374.573 176.527C372.648 179.931 371.489 183.713 371.178 187.611C370.837 191.146 371.549 194.704 373.223 197.836C374.83 200.869 377.45 203.243 380.626 204.543C384.294 205.996 388.217 206.692 392.16 206.588C395.916 206.663 399.656 206.068 403.203 204.83C406.183 203.788 408.854 202.016 410.974 199.676ZM383.121 188.777C382.833 190.491 383.182 192.251 384.103 193.726C384.481 194.233 384.976 194.643 385.545 194.921C386.114 195.198 386.742 195.335 387.375 195.321C388.382 195.316 389.372 195.063 390.258 194.584C391.024 194.137 391.715 193.571 392.303 192.908C393.508 191.514 394.451 189.914 395.084 188.184C395.884 186.347 396.382 184.392 396.557 182.396C396.811 180.789 396.446 179.144 395.534 177.795C395.139 177.274 394.624 176.855 394.033 176.574C393.443 176.293 392.793 176.158 392.139 176.18C390.518 176.214 388.966 176.848 387.784 177.959C386.261 179.32 385.12 181.053 384.471 182.989C383.75 184.845 383.295 186.794 383.121 188.777Z" fill="#247DFF"/>
<path d="M365.761 374.248V374.256V444.623C365.761 446.432 365.044 448.167 363.766 449.448C362.489 450.729 360.756 451.451 358.947 451.455H238.626C236.815 451.451 235.079 450.729 233.798 449.448C232.518 448.168 231.796 446.433 231.791 444.622V374.256V374.256C231.791 373.39 231.96 372.532 232.289 371.731L232.289 371.731L232.291 371.725C232.8 370.462 233.674 369.379 234.803 368.616C235.931 367.853 237.262 367.445 238.624 367.444H358.949C360.306 367.445 361.632 367.851 362.756 368.61C363.881 369.369 364.753 370.447 365.261 371.706L365.265 371.716C365.599 372.518 365.768 373.379 365.761 374.248Z" fill="white" stroke="#D6DCE8" stroke-width="2"/>
<path d="M362.756 368.61C363.681 369.235 364.436 370.075 364.957 371.054L301.34 423.872C301.339 423.873 301.339 423.873 301.338 423.874C300.617 424.468 299.711 424.793 298.776 424.793C297.841 424.793 296.935 424.468 296.213 423.873C296.212 423.873 296.212 423.873 296.212 423.872L232.594 371.074C233.116 370.089 233.873 369.244 234.803 368.616C235.931 367.853 237.261 367.445 238.623 367.444H358.949C360.306 367.445 361.631 367.851 362.756 368.61Z" fill="#F1F3F9" stroke="#D6DCE8" stroke-width="2"/>
<path d="M319.624 328.898H255.719V391.556L295.575 424.643C296.471 425.398 297.605 425.811 298.776 425.811C299.947 425.811 301.08 425.398 301.976 424.643L341.832 391.556V342.865L319.624 328.898Z" fill="white"/>
<path d="M298.943 424C297.499 424.003 296.1 423.519 294.988 422.634L254.835 390.594C254.711 390.491 254.612 390.363 254.544 390.22C254.477 390.076 254.442 389.92 254.443 389.762V329.089C254.443 328.804 254.56 328.53 254.768 328.326C254.976 328.122 255.259 328.005 255.556 328H319.937C320.15 328.001 320.358 328.063 320.534 328.178L342.908 341.703C343.071 341.798 343.206 341.932 343.299 342.091C343.393 342.251 343.443 342.431 343.443 342.614V389.762C343.441 389.921 343.403 390.078 343.331 390.221C343.26 390.365 343.158 390.492 343.031 390.594L302.878 422.634C301.772 423.515 300.38 423.998 298.943 424ZM256.689 389.267L296.43 420.95C297.135 421.518 298.024 421.829 298.943 421.829C299.862 421.829 300.752 421.518 301.457 420.95L341.198 389.267V343.208L319.607 330.158H256.689V389.267Z" fill="#D6DCE8"/>
<path d="M341.833 342.865L319.625 328.898L326.803 347.405L341.833 342.865Z" fill="#EBEBEB"/>
<path d="M326.802 348.53C326.58 348.528 326.363 348.459 326.18 348.331C325.998 348.203 325.858 348.023 325.78 347.815L318.581 329.287C318.495 329.072 318.48 328.834 318.539 328.609C318.598 328.385 318.728 328.185 318.909 328.04C319.098 327.9 319.328 327.825 319.563 327.825C319.799 327.825 320.028 327.9 320.217 328.04L342.426 342.007C342.608 342.123 342.753 342.288 342.844 342.484C342.934 342.68 342.967 342.897 342.937 343.111C342.907 343.32 342.818 343.515 342.68 343.675C342.542 343.834 342.362 343.951 342.16 344.011L327.129 348.551C327.02 348.566 326.909 348.559 326.802 348.53ZM321.874 331.618L327.477 346.056L339.215 342.518L321.874 331.618Z" fill="#CDD3DF"/>
<path d="M316.209 388.325H321.26C319.427 391.559 316.691 394.188 313.387 395.892C309.055 398.076 304.249 399.151 299.399 399.02C294.813 399.149 290.257 398.248 286.066 396.382C282.588 394.799 279.794 392.02 278.193 388.55C276.588 385.031 275.926 381.155 276.271 377.303C276.592 372.885 277.997 368.615 280.361 364.869C282.597 361.169 285.828 358.172 289.686 356.219C293.645 354.244 298.022 353.248 302.446 353.315C306.073 353.237 309.665 354.037 312.916 355.647C315.782 357.076 318.101 359.403 319.522 362.272C320.947 365.177 321.548 368.416 321.26 371.638C320.951 375.689 319.345 379.533 316.679 382.599C315.211 384.512 313.322 386.06 311.159 387.124C308.995 388.188 306.616 388.739 304.205 388.734C303.184 388.811 302.164 388.575 301.281 388.059C300.959 387.814 300.69 387.507 300.489 387.156C300.289 386.804 300.162 386.416 300.115 386.014C298.309 387.73 295.919 388.695 293.428 388.714C292.236 388.759 291.048 388.539 289.952 388.069C288.855 387.598 287.877 386.889 287.088 385.994C286.268 384.993 285.663 383.833 285.311 382.588C284.959 381.342 284.868 380.037 285.043 378.755C285.335 375.038 286.699 371.487 288.97 368.53C290.089 366.834 291.605 365.437 293.387 364.46C295.169 363.484 297.163 362.957 299.195 362.927C300.402 362.828 301.611 363.081 302.678 363.654C303.745 364.227 304.623 365.097 305.207 366.158L306.004 363.52H312.262L307.354 380.554C307.068 381.645 306.904 382.327 306.863 382.599C306.818 382.914 306.891 383.235 307.068 383.499C307.147 383.589 307.244 383.662 307.354 383.711C307.463 383.76 307.582 383.786 307.702 383.785C308.829 383.636 309.889 383.16 310.749 382.415C312.527 381.138 314 379.483 315.064 377.569C316.196 375.643 316.894 373.494 317.109 371.27C317.303 369.484 317.091 367.677 316.489 365.985C315.887 364.292 314.911 362.757 313.632 361.495C312.077 360.097 310.256 359.026 308.278 358.348C306.3 357.67 304.205 357.398 302.119 357.548C298.245 357.447 294.411 358.357 290.994 360.186C287.901 361.9 285.361 364.461 283.673 367.569C281.956 370.616 280.924 374 280.647 377.487C280.345 380.646 280.978 383.825 282.467 386.628C283.914 389.341 286.265 391.461 289.113 392.62C292.359 393.932 295.837 394.572 299.338 394.501C302.705 394.579 306.059 394.045 309.236 392.926C311.911 392.006 314.31 390.423 316.209 388.325ZM291.26 378.571C291.006 380.11 291.326 381.69 292.16 383.008C292.494 383.462 292.932 383.829 293.437 384.078C293.943 384.327 294.501 384.451 295.064 384.44C295.973 384.439 296.867 384.207 297.661 383.765C298.38 383.386 299.024 382.88 299.563 382.272C300.655 381.032 301.502 379.595 302.058 378.039C302.764 376.393 303.213 374.648 303.387 372.865C303.588 371.433 303.253 369.976 302.446 368.775C302.093 368.312 301.634 367.94 301.107 367.691C300.581 367.442 300.002 367.323 299.42 367.344C297.97 367.377 296.581 367.937 295.514 368.918C294.16 370.142 293.139 371.69 292.549 373.417C291.896 375.036 291.462 376.735 291.26 378.468V378.571Z" fill="#247DFF"/>
<path d="M259.729 233.658V233.664L259.729 294.581C259.729 294.581 259.729 294.582 259.729 294.583C259.724 296.111 259.114 297.576 258.033 298.657C256.952 299.738 255.488 300.347 253.959 300.352C253.959 300.352 253.958 300.352 253.957 300.352L149.789 300.352C148.257 300.352 146.787 299.745 145.702 298.663C144.617 297.581 144.005 296.114 144 294.582V233.665C144.001 232.934 144.149 232.211 144.433 231.537L144.436 231.529L144.44 231.52C144.868 230.451 145.606 229.534 146.56 228.888C147.513 228.242 148.638 227.896 149.79 227.895H253.958C255.108 227.9 256.23 228.245 257.183 228.888L257.742 228.059L257.183 228.888C258.136 229.531 258.877 230.442 259.313 231.506L259.313 231.507C259.592 232.189 259.734 232.92 259.729 233.658Z" fill="white" stroke="#D6DCE8" stroke-width="2"/>
<path d="M257.183 228.888C257.936 229.396 258.557 230.071 258.999 230.857L204 276.512C204 276.512 203.999 276.512 203.999 276.512C203.398 277.007 202.644 277.278 201.865 277.278C201.087 277.278 200.332 277.008 199.732 276.513C199.731 276.512 199.731 276.512 199.73 276.512L144.747 230.874C145.185 230.081 145.805 229.4 146.56 228.888C147.514 228.242 148.639 227.896 149.79 227.895H253.959C255.108 227.9 256.23 228.245 257.183 228.888L257.742 228.059L257.183 228.888Z" fill="#F1F3F9" stroke="#D6DCE8" stroke-width="2"/>
<path d="M219.911 194.38H164.697V248.653L199.196 277.283C199.971 277.938 200.953 278.297 201.967 278.297C202.981 278.297 203.963 277.938 204.738 277.283L239.257 248.653V206.486L219.911 194.38Z" fill="white"/>
<path d="M201.943 277C200.695 277.001 199.485 276.576 198.526 275.799L163.793 247.779C163.683 247.692 163.595 247.582 163.534 247.458C163.473 247.333 163.442 247.197 163.443 247.059V193.941C163.443 193.691 163.545 193.452 163.727 193.276C163.908 193.099 164.154 193 164.411 193H220.102C220.286 193.004 220.465 193.059 220.617 193.16L239.99 204.989C240.126 205.077 240.238 205.196 240.316 205.336C240.395 205.475 240.439 205.63 240.443 205.789V247.059C240.44 247.196 240.407 247.331 240.347 247.455C240.287 247.579 240.2 247.69 240.093 247.779L205.361 275.799C204.402 276.576 203.192 277.001 201.943 277ZM165.379 246.598L199.761 274.358C200.371 274.851 201.14 275.121 201.933 275.121C202.727 275.121 203.495 274.851 204.105 274.358L238.487 246.598V206.309L219.814 194.901H165.379V246.598Z" fill="#D6DCE8"/>
<path d="M239.155 206.486L219.912 194.38L226.129 210.412L239.155 206.486Z" fill="#EBEBEB"/>
<path d="M226.129 211.394C225.935 211.392 225.746 211.33 225.589 211.216C225.431 211.103 225.313 210.943 225.25 210.76L219.115 194.727C219.046 194.54 219.038 194.335 219.091 194.142C219.145 193.949 219.257 193.778 219.412 193.652C219.567 193.526 219.758 193.451 219.958 193.439C220.157 193.426 220.356 193.477 220.526 193.582L239.769 205.668C239.924 205.771 240.047 205.916 240.123 206.086C240.2 206.256 240.226 206.445 240.198 206.629C240.176 206.811 240.1 206.982 239.98 207.121C239.86 207.259 239.701 207.359 239.524 207.406L226.518 211.353L226.129 211.394ZM221.855 196.752L226.722 209.247L236.947 206.179L221.855 196.752Z" fill="#CDD3DF"/>
<path d="M216.966 245.75H221.343C219.749 248.547 217.376 250.821 214.513 252.294C210.766 254.193 206.605 255.128 202.406 255.014C198.438 255.131 194.495 254.348 190.873 252.723C187.856 251.362 185.431 248.959 184.042 245.955C182.662 242.906 182.092 239.554 182.386 236.22C182.68 232.39 183.909 228.689 185.965 225.443C187.895 222.242 190.687 219.648 194.022 217.959C197.457 216.251 201.25 215.388 205.085 215.444C208.226 215.377 211.336 216.079 214.144 217.489C216.621 218.729 218.63 220.737 219.87 223.214C221.112 225.752 221.628 228.582 221.363 231.394C221.095 234.901 219.704 238.229 217.396 240.883C216.129 242.546 214.496 243.894 212.623 244.824C210.751 245.753 208.689 246.238 206.598 246.241C205.71 246.307 204.823 246.092 204.063 245.627C203.789 245.419 203.559 245.157 203.387 244.859C203.215 244.56 203.104 244.231 203.061 243.889C201.498 245.377 199.431 246.217 197.273 246.241C196.241 246.279 195.213 246.086 194.265 245.675C193.316 245.265 192.472 244.647 191.793 243.869C191.084 243.003 190.56 242.001 190.254 240.924C189.948 239.848 189.867 238.72 190.014 237.611C190.27 234.397 191.457 231.328 193.429 228.777C194.391 227.316 195.695 226.111 197.227 225.267C198.759 224.422 200.473 223.964 202.222 223.93C203.266 223.845 204.312 224.065 205.234 224.562C206.156 225.059 206.914 225.813 207.416 226.732L208.112 224.441H213.551L209.298 239.043C209.109 239.631 208.966 240.232 208.868 240.842C208.831 241.115 208.896 241.392 209.052 241.619C209.12 241.699 209.205 241.762 209.3 241.805C209.396 241.847 209.5 241.868 209.605 241.865C210.581 241.735 211.498 241.323 212.243 240.678C213.778 239.543 215.056 238.097 215.993 236.433C216.931 234.77 217.506 232.927 217.682 231.026C217.832 229.5 217.64 227.959 217.12 226.515C216.6 225.072 215.765 223.763 214.676 222.683C213.324 221.478 211.744 220.557 210.03 219.974C208.316 219.391 206.503 219.158 204.697 219.288C201.351 219.201 198.039 219.983 195.085 221.558C192.4 223.036 190.198 225.259 188.746 227.959C187.244 230.592 186.344 233.525 186.108 236.548C185.854 239.276 186.401 242.019 187.682 244.441C188.942 246.791 190.981 248.628 193.449 249.635C196.287 250.777 199.327 251.334 202.386 251.271C205.295 251.336 208.191 250.872 210.934 249.901C213.268 249.059 215.346 247.629 216.966 245.75ZM195.372 237.304C195.142 238.608 195.389 239.951 196.067 241.087C196.362 241.478 196.746 241.794 197.187 242.007C197.628 242.22 198.113 242.326 198.603 242.314C199.389 242.316 200.163 242.119 200.852 241.742C201.469 241.412 202.023 240.976 202.488 240.454C203.426 239.374 204.16 238.134 204.656 236.793C205.259 235.359 205.645 233.842 205.801 232.294C205.977 231.048 205.686 229.78 204.983 228.736C204.678 228.333 204.282 228.01 203.826 227.793C203.371 227.576 202.87 227.471 202.365 227.488C201.105 227.516 199.897 228.003 198.971 228.859C197.805 229.971 196.945 231.366 196.476 232.908C195.908 234.316 195.536 235.795 195.372 237.304Z" fill="#247DFF"/>
<path d="M360.626 281.537H307.498V283.663H360.626V281.537Z" fill="#9FBDFF"/>
<path d="M374.04 295.075H336.658V297.201H374.04V295.075Z" fill="#9FBDFF"/>
<path d="M192.469 451.392H158.031V453.519H192.469V451.392Z" fill="#9FBDFF"/>
<path d="M205.882 464.909H187.191V467.036H205.882V464.909Z" fill="#9FBDFF"/>
<path d="M176.722 346.342H158.031V348.468H176.722V346.342Z" fill="#9FBDFF"/>
<path d="M297.723 281.537H286.332V283.663H297.723V281.537Z" fill="#9FBDFF"/>
<path d="M446.799 373.885H397.123V324.209H446.799V373.885ZM398.645 372.363H445.278V325.73H398.645V372.363Z" fill="#407BFF" fill-opacity="0.25"/>
<g opacity="0.5">
<path opacity="0.5" d="M446.801 373.884H397.125V324.208H446.801V373.884ZM398.646 372.363H445.28V325.73H398.646V372.363Z" fill="white"/>
</g>
<path d="M421.299 333.706C421.469 333.297 422.048 333.297 422.218 333.706L425.938 342.651C426.01 342.823 426.172 342.941 426.358 342.956L436.015 343.73C436.456 343.765 436.635 344.316 436.299 344.604L428.942 350.907C428.8 351.028 428.738 351.219 428.781 351.4L431.029 360.823C431.132 361.254 430.663 361.595 430.285 361.364L422.018 356.314C421.859 356.217 421.658 356.217 421.499 356.314L413.231 361.364C412.854 361.595 412.385 361.254 412.488 360.823L414.735 351.4C414.779 351.219 414.717 351.028 414.575 350.907L407.218 344.604C406.881 344.316 407.06 343.765 407.502 343.73L417.158 342.956C417.345 342.941 417.507 342.823 417.578 342.651L421.299 333.706Z" fill="#C6DAF9"/>
<path d="M447.544 323.463H444.531V326.476H447.544V323.463Z" fill="#C7DAFF"/>
<path d="M447.544 371.618H444.531V374.63H447.544V371.618Z" fill="#C7DAFF"/>
<path d="M399.389 371.618H396.377V374.63H399.389V371.618Z" fill="#C7DAFF"/>
<path d="M399.389 323.463H396.377V326.476H399.389V323.463Z" fill="#C7DAFF"/>
<path d="M291.457 168.796H241.781V119.12H291.457V168.796ZM243.303 167.274H289.936V120.641H243.303V167.274Z" fill="#407BFF" fill-opacity="0.25"/>
<g opacity="0.5">
<path opacity="0.5" d="M291.457 168.796H241.781V119.12H291.457V168.796ZM243.303 167.274H289.936V120.641H243.303V167.274Z" fill="white"/>
</g>
<path d="M292.202 118.374H289.189V121.387H292.202V118.374Z" fill="#C7DAFF"/>
<path d="M292.202 166.529H289.189V169.541H292.202V166.529Z" fill="#C7DAFF"/>
<path d="M244.048 166.529H241.035V169.541H244.048V166.529Z" fill="#C7DAFF"/>
<path d="M244.048 118.374H241.035V121.387H244.048V118.374Z" fill="#C7DAFF"/>
<path d="M278.358 135.231C279.995 136.97 280.874 138.92 280.874 142.082C280.874 147.645 276.969 152.632 271.289 155.097L269.87 152.907C275.171 150.039 276.207 146.318 276.621 143.972C275.767 144.414 274.65 144.568 273.555 144.466C270.687 144.201 268.427 141.847 268.427 138.92C268.427 137.445 269.013 136.03 270.056 134.987C271.1 133.943 272.515 133.357 273.99 133.357C275.696 133.357 277.326 134.136 278.358 135.231ZM262.463 135.231C264.1 136.97 264.979 138.92 264.979 142.082C264.979 147.645 261.074 152.632 255.394 155.097L253.975 152.907C259.276 150.039 260.312 146.318 260.726 143.972C259.872 144.414 258.755 144.568 257.659 144.466C254.792 144.201 252.533 141.847 252.533 138.92C252.533 137.445 253.119 136.03 254.163 134.987C255.206 133.943 256.621 133.357 258.097 133.357C259.802 133.357 261.433 134.136 262.464 135.231H262.463Z" fill="#C6DAF9"/>
<path opacity="0.8" d="M489.869 498.749L514.611 493.162C518.048 492.38 521.37 494.503 522.057 497.855L522.286 498.749C537.406 553.609 587.349 551.933 604.646 549.251C604.76 549.251 604.76 549.251 604.875 549.251C607.624 548.804 610.373 550.145 611.519 552.603C611.633 552.938 611.862 553.274 611.977 553.609C612.091 553.832 612.091 554.056 612.206 554.167L617.819 577.966C617.819 578.19 617.933 578.413 617.933 578.637C618.392 581.653 616.444 584.558 613.352 585.34C612.664 585.564 611.977 585.787 611.175 586.011C594.795 590.704 578.071 604 563.867 620.089C567.074 614.279 573.26 598.301 574.52 592.491C577.04 580.089 574.062 567.352 566.158 557.296C553.787 541.654 532.825 528.022 498.346 534.838C494.909 535.508 491.587 533.497 490.9 530.145L485.173 506.123C484.371 502.883 486.433 499.531 489.869 498.749Z" fill="white"/>
</svg>
