<svg width="48" height="48" viewBox="0 0 48 48" fill="none" xmlns="http://www.w3.org/2000/svg">
<rect width="48" height="48" rx="24" fill="#247DFF" fill-opacity="0.1"/>
<path d="M19 34H16C15.4696 34 14.9609 33.7893 14.5858 33.4142C14.2107 33.0391 14 32.5304 14 32V25C14 24.4696 14.2107 23.9609 14.5858 23.5858C14.9609 23.2107 15.4696 23 16 23H19M26 21V17C26 16.2044 25.6839 15.4413 25.1213 14.8787C24.5587 14.3161 23.7956 14 23 14L19 23V34H30.28C30.7623 34.0055 31.2304 33.8364 31.5979 33.524C31.9654 33.2116 32.2077 32.7769 32.28 32.3L33.66 23.3C33.7035 23.0134 33.6842 22.7207 33.6033 22.4423C33.5225 22.1638 33.3821 21.9063 33.1919 21.6875C33.0016 21.4687 32.7661 21.2939 32.5016 21.1752C32.2371 21.0565 31.9499 20.9967 31.66 21H26Z" stroke="#247DFF" stroke-width="2" stroke-linecap="round" stroke-linejoin="round"/>
</svg>
