<svg width="19" height="15" viewBox="0 0 19 15" fill="none" xmlns="http://www.w3.org/2000/svg">
<path d="M17.2262 1.95713C18.2991 3.09671 18.8752 4.37484 18.8752 6.44671C18.8752 10.0925 16.3158 13.3603 12.5939 14.9759L11.6637 13.5405C15.1377 11.6613 15.8168 9.22276 16.0877 7.68526C15.5283 7.97484 14.796 8.07588 14.0783 8.00921C12.1991 7.83525 10.7179 6.29255 10.7179 4.37484C10.7179 3.4079 11.102 2.48057 11.7857 1.79684C12.4694 1.11312 13.3968 0.729004 14.3637 0.729004C15.4814 0.729004 16.5502 1.23942 17.2262 1.95713ZM6.80954 1.95713C7.88245 3.09671 8.4585 4.37484 8.4585 6.44671C8.4585 10.0925 5.89912 13.3603 2.17725 14.9759L1.24704 13.5405C4.721 11.6613 5.40016 9.22276 5.671 7.68526C5.11162 7.97484 4.37933 8.07588 3.66162 8.00921C1.78245 7.83525 0.302246 6.29255 0.302246 4.37484C0.302246 3.4079 0.686359 2.48057 1.37009 1.79684C2.05381 1.11312 2.98114 0.729004 3.94808 0.729004C5.06579 0.729004 6.13454 1.23942 6.81058 1.95713H6.80954Z" fill="white"/>
</svg>
