<svg width="73" height="55" viewBox="0 0 73 55" fill="none" xmlns="http://www.w3.org/2000/svg">
<path d="M65.9382 4.80858C70.0725 9.1998 72.2922 14.1249 72.2922 22.1086C72.2922 36.1573 62.43 48.7489 48.0883 54.9745L44.5039 49.4433C57.8903 42.2022 60.5074 32.8056 61.551 26.8811C59.3955 27.997 56.5737 28.3863 53.8082 28.1294C46.5671 27.4591 40.8593 21.5145 40.8593 14.1249C40.8593 10.3989 42.3394 6.82559 44.974 4.19094C47.6087 1.5563 51.182 0.0761719 54.908 0.0761719C59.2149 0.0761719 63.3332 2.04299 65.9382 4.80858ZM25.7991 4.80858C29.9334 9.1998 32.1531 14.1249 32.1531 22.1086C32.1531 36.1573 22.2909 48.7489 7.94917 54.9745L4.36474 49.4433C17.7512 42.2022 20.3682 32.8056 21.4118 26.8811C19.2564 27.997 16.4346 28.3863 13.669 28.1294C6.4279 27.4591 0.724121 21.5145 0.724121 14.1249C0.724121 10.3989 2.20425 6.82559 4.83889 4.19094C7.47353 1.5563 11.0469 0.0761719 14.7728 0.0761719C19.0798 0.0761719 23.198 2.04299 25.8031 4.80858H25.7991Z" fill="#E4F3FF"/>
</svg>
