<svg width="454" height="454" viewBox="0 0 454 454" fill="none" xmlns="http://www.w3.org/2000/svg">
<path d="M409.743 85.9878H207.641V370.528H409.743V85.9878Z" fill="#EBEBEB"/>
<path d="M383.504 54.4803C385.556 53.2418 387.763 52.2829 390.069 51.6291L391.422 45.1279L402.409 44.9281L403.989 51.384C406.32 51.9564 408.565 52.839 410.662 54.0081L416.21 50.3761L424.119 58.0033L420.678 63.6783C421.916 65.733 422.875 67.9438 423.529 70.2522L430.03 71.6051L430.221 82.5919L423.774 84.1719C423.199 86.5001 422.316 88.7413 421.15 90.8366L424.782 96.3935L417.146 104.293L411.471 100.852C409.419 102.093 407.211 103.055 404.906 103.712L403.553 110.213L392.566 110.404L390.986 103.957C388.658 103.382 386.417 102.5 384.321 101.333L378.764 104.965L370.865 97.3288L374.306 91.6538C373.059 89.6022 372.097 87.3906 371.446 85.0799L364.945 83.7269L364.754 72.7401L371.201 71.1602C371.779 68.833 372.661 66.5922 373.825 64.4955L370.193 58.9476L377.829 51.0389L383.504 54.4803ZM389.361 69.1172C387.735 70.795 386.643 72.9176 386.225 75.2161C385.806 77.5146 386.079 79.8857 387.008 82.0291C387.938 84.1725 389.483 85.9918 391.447 87.2566C393.412 88.5214 395.707 89.1748 398.043 89.1341C400.379 89.0933 402.651 88.3603 404.57 87.0278C406.489 85.6952 407.969 83.8232 408.824 81.6487C409.678 79.4741 409.868 77.095 409.369 74.8125C408.871 72.5299 407.706 70.4467 406.023 68.8267C403.77 66.6631 400.751 65.4808 397.628 65.5386C394.505 65.5965 391.532 66.8899 389.361 69.1354V69.1172Z" fill="#E0E0E0"/>
<path d="M389.364 69.1351C389.983 68.3695 390.725 67.7128 391.561 67.192C393.833 65.7133 396.549 65.0713 399.243 65.376C401.105 65.5602 402.897 66.1825 404.473 67.192C406.283 68.3751 407.744 70.021 408.704 71.959C409.783 74.1365 410.179 76.5896 409.839 78.996C409.503 81.5594 408.351 83.9464 406.551 85.8028C404.752 87.6593 402.403 88.8863 399.851 89.3018C398.651 89.5148 397.425 89.5332 396.219 89.3563C395.065 89.2293 393.937 88.923 392.877 88.4483C390.908 87.5612 389.214 86.159 387.974 84.3895C386.658 82.5153 385.91 80.3007 385.821 78.0119C385.733 75.723 386.307 73.4573 387.475 71.4869C387.954 70.6398 388.567 69.8762 389.291 69.2259C389.354 69.2804 388.583 69.9977 387.675 71.614C386.408 73.9123 385.947 76.5689 386.367 79.1595C386.65 80.9323 387.344 82.6144 388.392 84.0717C389.596 85.7353 391.219 87.0509 393.095 87.8853C395.172 88.7958 397.471 89.0768 399.706 88.6934C402.107 88.2824 404.314 87.1158 406.006 85.3634C407.697 83.6111 408.786 81.3645 409.113 78.9506C409.41 76.7044 409.047 74.4201 408.068 72.3767C407.169 70.5371 405.796 68.9701 404.091 67.8367C402.599 66.8474 400.894 66.2251 399.115 66.0207C396.513 65.6914 393.875 66.2445 391.624 67.5915C390.108 68.3997 389.418 69.1987 389.364 69.1351Z" fill="#E0E0E0"/>
<path d="M383.502 54.4801C383.375 54.4279 383.253 54.364 383.139 54.2894L382.049 53.6628L377.727 51.1477H377.863L370.281 59.1018V58.8839L373.913 64.4226L374.095 64.4681L374.04 64.577C372.889 66.6582 372.021 68.8845 371.462 71.1963V71.3235H371.335L364.888 72.9215L365.069 72.6855C365.142 76.148 365.215 79.8102 365.287 83.6723L365.015 83.5361L371.516 84.8708H371.689L371.734 85.0343C372.382 87.3158 373.335 89.4995 374.567 91.5265L374.658 91.6808L374.567 91.8352L371.135 97.5102L371.089 97.1379L378.998 104.765H378.608L384.156 101.133L384.319 101.024L384.492 101.124C386.563 102.271 388.776 103.141 391.075 103.712H391.265L391.32 103.902C391.81 105.918 392.355 108.125 392.9 110.349L392.573 110.104L403.56 109.904L403.233 110.168L404.586 103.666L404.631 103.467L404.831 103.412C407.104 102.766 409.281 101.819 411.305 100.597L411.486 100.497L411.659 100.597L417.334 104.048H416.916L424.543 96.1482V96.5659L420.911 91.0089L420.793 90.8455L420.893 90.6639C422.048 88.5979 422.921 86.3871 423.49 84.0899L423.536 83.8902H423.726L430.182 82.3193L429.937 82.6371C429.876 78.8841 429.816 75.2218 429.755 71.6503L430 71.95L423.499 70.588H423.318L423.272 70.4064C422.625 68.1246 421.678 65.9385 420.457 63.9051L420.367 63.7507L420.403 63.5601L423.853 57.8851L423.899 58.2392L416.008 50.5847H416.335L410.769 54.2167L410.651 54.2985L410.524 54.2258C408.45 53.0634 406.23 52.1839 403.923 51.6108H403.787V51.4837C403.214 49.1319 402.706 47.0254 402.225 45.0278L402.425 45.1821L391.438 45.3183L391.583 45.2003C391.02 47.7972 390.566 49.9219 390.185 51.6925V51.7561H390.121C388.387 52.2402 386.703 52.8878 385.091 53.6901L383.91 54.3075C383.786 54.3845 383.655 54.4513 383.52 54.5073C383.637 54.4194 383.758 54.3376 383.883 54.2621C384.137 54.1078 384.519 53.8717 385.045 53.5902C386.642 52.7406 388.322 52.0561 390.058 51.5472L389.985 51.6289C390.339 49.8129 390.766 47.7245 391.292 45.1186V45.0005H391.41L402.397 44.7554H402.552V44.9097C403.042 46.9073 403.569 49.0139 404.15 51.3565L403.986 51.1931C406.339 51.7638 408.605 52.6463 410.724 53.8172H410.469L416.008 50.1852L416.181 50.0763L416.335 50.2125L424.253 57.8306L424.416 57.9849L424.298 58.1756C423.181 59.9916 422.046 61.9166 420.866 63.8597V63.5601C422.121 65.6346 423.095 67.8666 423.763 70.1975L423.536 69.9796L430.037 71.3325H430.282V71.5868C430.355 75.1522 430.424 78.8114 430.491 82.5645V82.8278L430.246 82.8823L423.799 84.4713L424.035 84.2352C423.453 86.5914 422.562 88.86 421.384 90.9817V90.6366L425.016 96.1936L425.161 96.4115L424.97 96.6022L417.343 104.511L417.161 104.702L416.925 104.565L411.323 101.151H411.668C409.592 102.407 407.356 103.378 405.021 104.039L405.257 103.784L403.905 110.286L403.85 110.549H403.578L392.591 110.731H392.328L392.264 110.476C391.719 108.243 391.183 106.045 390.693 104.021L390.929 104.266C388.574 103.676 386.306 102.782 384.183 101.605H384.519L378.962 105.237L378.753 105.373L378.571 105.201C375.847 102.54 373.123 99.9527 370.672 97.5556L370.499 97.3831L370.626 97.1833L374.077 91.5083V91.817C372.831 89.7378 371.866 87.5029 371.207 85.1705L371.371 85.3521L364.87 83.9901H364.661V83.7812C364.594 79.9252 364.537 76.263 364.488 72.7944V72.6037L364.67 72.5583L371.126 70.9966L370.971 71.1509C371.565 68.8134 372.469 66.5658 373.659 64.4681V64.6678L370.027 59.1018L369.954 58.9837L370.054 58.8929L377.727 50.9843L377.79 50.9207L377.863 50.9661L382.04 53.5721L383.12 54.2531C383.251 54.322 383.379 54.3978 383.502 54.4801Z" fill="#E0E0E0"/>
<path d="M335.561 32.2614C336.795 31.5226 338.12 30.9487 339.502 30.5544L340.31 26.6682L346.884 26.5501L347.792 30.4091C349.189 30.7506 350.532 31.2789 351.787 31.98L355.111 29.8007L359.841 34.3407L357.78 37.7367C358.556 38.9679 359.157 40.3 359.569 41.6955L363.464 42.5127L363.582 49.0867L359.714 49.9947C359.373 51.391 358.844 52.7349 358.143 53.9899L360.323 57.3131L355.783 62.0438L352.305 60.019C351.08 60.7654 349.761 61.3456 348.382 61.7442L347.574 65.6395L340.991 65.7485L340.083 61.8895C338.69 61.548 337.349 61.0196 336.097 60.3186L332.774 62.4978L328.043 57.9578L330.059 54.4802C329.322 53.2493 328.748 51.9276 328.352 50.5485L324.466 49.7404L324.348 43.1574L328.207 42.2494C328.551 40.8568 329.079 39.5162 329.778 38.2633L327.598 34.94L332.138 30.2003L335.534 32.2614H335.561ZM339.075 41.0236C338.108 42.0279 337.459 43.2964 337.212 44.669C336.965 46.0415 337.13 47.4566 337.687 48.7353C338.243 50.0141 339.166 51.0992 340.34 51.8535C341.513 52.6078 342.883 52.9976 344.277 52.9735C345.672 52.9494 347.028 52.5126 348.174 51.7182C349.32 50.9238 350.206 49.8075 350.718 48.5102C351.23 47.213 351.346 45.7931 351.052 44.4299C350.757 43.0667 350.065 41.8213 349.063 40.8511C348.397 40.2045 347.61 39.6959 346.747 39.3544C345.884 39.013 344.962 38.8455 344.034 38.8615C343.105 38.8775 342.19 39.0768 341.339 39.4478C340.488 39.8189 339.719 40.3544 339.075 41.0236Z" fill="#F5F5F5"/>
<path d="M339.076 41.0238C339.445 40.5696 339.887 40.1799 340.383 39.8707C341.746 38.9864 343.373 38.6014 344.987 38.7811C346.188 38.911 347.337 39.3431 348.326 40.0369C349.315 40.7308 350.113 41.6638 350.644 42.749C350.964 43.3699 351.181 44.0383 351.289 44.7285C351.407 45.447 351.407 46.18 351.289 46.8986C351.091 48.4298 350.407 49.857 349.335 50.9689C348.264 52.0808 346.864 52.8186 345.341 53.073C344.619 53.1863 343.884 53.1863 343.162 53.073C342.176 52.9395 341.228 52.6036 340.378 52.0864C339.528 51.5692 338.794 50.8819 338.222 50.0675C337.578 49.1495 337.161 48.0913 337.006 46.9803C336.761 45.3752 337.082 43.735 337.914 42.3404C338.208 41.8328 338.582 41.3759 339.021 40.9875C339.021 40.9875 338.595 41.4506 338.05 42.4222C337.576 43.2643 337.284 44.1962 337.192 45.1579C337.1 46.1197 337.21 47.0901 337.516 48.0067C337.821 48.9234 338.314 49.766 338.965 50.4806C339.615 51.1952 340.408 51.7658 341.291 52.1559C341.896 52.4299 342.539 52.6076 343.198 52.6825C343.88 52.7852 344.574 52.7698 345.25 52.6371C346.689 52.3967 348.013 51.7005 349.027 50.651C350.04 49.6015 350.69 48.2543 350.88 46.8078C350.994 46.1285 350.994 45.435 350.88 44.7557C350.776 44.1038 350.577 43.4706 350.29 42.8762C349.748 41.7736 348.924 40.8339 347.902 40.1522C347.021 39.5588 346.013 39.1795 344.96 39.0444C343.387 38.8292 341.788 39.149 340.42 39.9524C339.521 40.588 339.103 41.0602 339.076 41.0238Z" fill="#F5F5F5"/>
<path d="M335.562 32.2614L335.344 32.1525L334.7 31.7711L332.139 30.2638H332.212L327.672 35.0218V34.8946L329.86 38.2088V38.2724V38.336C329.176 39.5864 328.657 40.9201 328.316 42.3039V42.3766H328.244L324.385 43.339L324.494 43.1938C324.494 45.264 324.575 47.4614 324.621 49.7677L324.494 49.6133L328.389 50.4214H328.489V50.5213C328.881 51.8861 329.452 53.1928 330.187 54.4076L330.241 54.4984L330.187 54.5892L328.135 57.9851V57.7672L332.875 62.3072H332.638L335.962 60.128L336.062 60.0644L336.161 60.1189C337.401 60.8058 338.726 61.3249 340.102 61.6625H340.22V61.7805C340.52 62.9882 340.847 64.3048 341.174 65.6395L340.974 65.4942L347.548 65.3762L347.357 65.5306C347.611 64.3048 347.893 62.9791 348.165 61.6443V61.5172H348.283C349.644 61.1253 350.947 60.5575 352.16 59.8283L352.269 59.7648L352.378 59.8283L355.774 61.8895H355.52C357.064 60.2914 358.589 58.7206 360.06 57.1588V57.413L357.881 54.0898L357.817 53.9808L357.872 53.8809C358.563 52.6425 359.085 51.3171 359.424 49.9402V49.8222H359.533L363.392 48.9142L363.247 49.1048C363.211 46.8651 363.174 44.6738 363.138 42.5309L363.293 42.7125L359.397 41.8953H359.288V41.7864C358.903 40.4194 358.338 39.1096 357.608 37.891L357.545 37.8002L357.608 37.7094L359.67 34.3226V34.5224C358.008 32.9152 356.437 31.3988 354.948 29.9824H355.139L351.806 32.1525L351.734 32.207H351.661C350.443 31.4797 349.133 30.9178 347.766 30.5362H347.684V30.4636C347.348 29.0562 347.039 27.7941 346.776 26.5955L346.894 26.6863L340.32 26.768L340.411 26.7045C340.075 28.2572 339.803 29.5284 339.576 30.5907C338.517 30.8885 337.489 31.2868 336.507 31.7802L335.798 32.1525C335.726 32.204 335.647 32.2438 335.562 32.2705L335.789 32.1252C335.934 32.0344 336.162 31.8892 336.479 31.7257C337.436 31.2153 338.444 30.8045 339.485 30.4999L339.439 30.5544C339.648 29.492 339.902 28.2118 340.22 26.65V26.5864H340.293L346.867 26.4412H346.958V26.541C347.257 27.7305 347.566 28.9926 347.866 30.4L347.775 30.3002C349.18 30.6406 350.533 31.169 351.797 31.871H351.652L355.03 29.6736L355.139 29.601L355.229 29.6918L359.969 34.2318L360.06 34.3226L359.996 34.4406L357.935 37.8366V37.655C358.69 38.8963 359.274 40.2341 359.67 41.632L359.533 41.5049L363.429 42.313H363.574V42.4583C363.619 44.6012 363.656 46.7894 363.701 49.0413V49.1866L363.556 49.232L359.688 50.14L359.833 49.9947C359.49 51.4064 358.959 52.7655 358.253 54.0353V53.8355L360.478 57.2042L360.559 57.3313L360.45 57.4494L355.91 62.18L355.802 62.2981L355.665 62.2164L352.26 60.1552H352.469C351.227 60.9058 349.889 61.486 348.492 61.8804L348.637 61.7351C348.356 63.0699 348.084 64.3956 347.82 65.6214V65.7848H347.657L341.083 65.8938H340.919V65.7394C340.593 64.4046 340.275 63.088 340.011 61.8713L340.157 62.0166C338.695 61.6928 337.284 61.1736 335.962 60.473H336.161L332.838 62.6522L332.711 62.7339L332.602 62.6522C330.968 61.0632 329.361 59.5196 327.881 58.1122L327.772 58.0123L327.853 57.8943L329.914 54.4984V54.68C329.169 53.4363 328.591 52.0989 328.198 50.7029L328.325 50.821L324.43 49.9402H324.303V49.8131C324.303 47.5068 324.239 45.2731 324.203 43.2392V43.1211H324.312L328.18 42.2131L328.08 42.313C328.43 40.9064 328.967 39.5534 329.678 38.2906V38.4177L327.517 35.0853L327.472 35.0127L327.526 34.9582C329.397 33.0423 330.94 31.4533 332.121 30.2548H332.166L334.672 31.8165L335.308 32.2251L335.562 32.2614Z" fill="#F5F5F5"/>
<path d="M159.409 46.7531H40.543V243.517H159.409V46.7531Z" fill="#E0E0E0"/>
<path d="M155.46 46.7531H36.5938V243.517H155.46V46.7531Z" fill="#EBEBEB"/>
<path d="M150.404 50.7391H41.6523V239.521H150.404V50.7391Z" fill="#FAFAFA"/>
<path d="M129.23 75.2734H62.3555V214.996H129.23V75.2734Z" fill="#EBEBEB"/>
<path d="M62.3531 165.547C62.1987 152.499 73.9391 139.76 86.8691 137.935C93.0344 137.027 99.5811 138.289 105.338 135.928C115.616 131.715 118.885 118.059 129.236 114.009L129.709 214.997H62.3531V165.547Z" fill="#E0E0E0"/>
<path d="M323.133 381.015C324.482 380.197 325.936 379.565 327.455 379.135L328.363 374.859L335.581 374.732L336.625 378.972C338.157 379.351 339.632 379.932 341.011 380.697L344.643 378.309L349.837 383.321L347.576 387.053C348.391 388.404 349.023 389.858 349.456 391.375L353.732 392.283L353.859 399.547L349.583 400.537C349.202 402.068 348.622 403.542 347.857 404.923L350.245 408.555L345.233 413.748L341.492 411.487C340.143 412.306 338.689 412.938 337.17 413.367L336.262 417.644L329.044 417.771L327.999 413.521C326.468 413.145 324.994 412.568 323.614 411.805L319.982 414.193L314.788 409.172L317.049 405.44C316.231 404.091 315.599 402.637 315.169 401.118L310.893 400.21L310.766 392.992L315.079 391.984C315.458 390.452 316.038 388.978 316.804 387.598L314.416 383.966L319.428 378.763L323.169 381.033L323.133 381.015ZM326.983 390.64C325.916 391.743 325.201 393.137 324.928 394.646C324.654 396.156 324.834 397.712 325.446 399.119C326.057 400.526 327.072 401.72 328.362 402.55C329.652 403.38 331.159 403.809 332.693 403.782C334.226 403.756 335.718 403.275 336.978 402.4C338.238 401.526 339.211 400.297 339.773 398.87C340.335 397.443 340.461 395.881 340.135 394.382C339.809 392.883 339.046 391.514 337.942 390.449C337.21 389.741 336.346 389.185 335.399 388.811C334.452 388.438 333.441 388.255 332.423 388.272C331.405 388.29 330.4 388.508 329.467 388.915C328.533 389.321 327.689 389.907 326.983 390.64Z" fill="#F5F5F5"/>
<path d="M427.487 423.954C427.487 423.954 427.913 423.954 428.785 423.954H432.735V424.036C412.305 424.136 329.105 424.217 229.633 424.217L82.2832 424.145L37.6369 424.036H25.4969H22.3371H21.2656H22.3371H25.4969L37.6369 423.99L82.2832 423.918L229.633 423.845C329.105 423.845 412.305 423.927 432.735 424.027V424.036H428.785C427.913 423.972 427.487 423.954 427.487 423.954Z" fill="#263238"/>
<path d="M393.518 71.1599H190.008V358.315H393.518V71.1599Z" fill="white"/>
<path d="M393.52 358.315C393.52 356.399 393.429 240.793 393.302 71.16L393.52 71.3689H190.028L190.264 71.1328C190.264 178.74 190.264 278.248 190.218 358.288L190.028 358.097L393.538 358.288L190.028 358.478H189.773V358.288C189.773 278.248 189.773 178.74 189.773 71.1328V70.9149H190.028H393.52H393.738V71.1328C393.61 240.793 393.52 356.399 393.52 358.315Z" fill="#263238"/>
<path d="M284.514 261.813H209.785C206.431 261.813 203.711 264.532 203.711 267.887V275.66C203.711 279.015 206.431 281.734 209.785 281.734H284.514C287.869 281.734 290.588 279.015 290.588 275.66V267.887C290.588 264.532 287.869 261.813 284.514 261.813Z" fill="#F5F5F5"/>
<path d="M375.167 261.813H302.364C299.009 261.813 296.289 264.532 296.289 267.887V275.66C296.289 279.015 299.009 281.734 302.364 281.734H375.167C378.522 281.734 381.242 279.015 381.242 275.66V267.887C381.242 264.532 378.522 261.813 375.167 261.813Z" fill="#F5F5F5"/>
<path d="M376.369 302.636H209.379C206.024 302.636 203.305 305.356 203.305 308.711V316.483C203.305 319.838 206.024 322.558 209.379 322.558H376.369C379.724 322.558 382.444 319.838 382.444 316.483V308.711C382.444 305.356 379.724 302.636 376.369 302.636Z" fill="#F5F5F5"/>
<path d="M243.598 253.795C243.598 253.922 235.208 254.031 224.848 254.031C214.488 254.031 206.098 253.922 206.098 253.795C206.098 253.668 214.488 253.559 224.848 253.559C235.208 253.559 243.598 253.668 243.598 253.795Z" fill="#263238"/>
<path d="M332.33 253.795C332.33 253.922 325.72 254.031 317.566 254.031C309.412 254.031 302.793 253.922 302.793 253.795C302.793 253.668 309.403 253.559 317.566 253.559C325.729 253.559 332.33 253.668 332.33 253.795Z" fill="#263238"/>
<path d="M267.406 294.419C267.406 294.546 253.786 294.655 236.988 294.655C220.19 294.655 206.57 294.546 206.57 294.419C206.57 294.292 220.19 294.183 236.988 294.183C253.786 294.183 267.406 294.292 267.406 294.419Z" fill="#263238"/>
<path d="M376.53 216.585H206.017C202.752 216.585 200.105 219.232 200.105 222.496V232.448C200.105 235.713 202.752 238.359 206.017 238.359H376.53C379.794 238.359 382.441 235.713 382.441 232.448V222.496C382.441 219.232 379.794 216.585 376.53 216.585Z" fill="#E0E0E0"/>
<path d="M330.115 227.472C330.115 227.608 313.935 227.708 293.986 227.708C274.037 227.708 257.848 227.608 257.848 227.472C257.848 227.336 274.028 227.236 293.986 227.236C313.944 227.236 330.115 227.345 330.115 227.472Z" fill="#263238"/>
<path d="M376.53 84.1988H206.017C202.752 84.1988 200.105 86.8453 200.105 90.1099V100.062C200.105 103.326 202.752 105.973 206.017 105.973H376.53C379.794 105.973 382.441 103.326 382.441 100.062V90.1099C382.441 86.8453 379.794 84.1988 376.53 84.1988Z" fill="#E0E0E0"/>
<path d="M330.115 95.0859C330.115 95.213 313.935 95.322 293.986 95.322C274.037 95.322 257.848 95.213 257.848 95.0859C257.848 94.9588 274.028 94.8498 293.986 94.8498C313.944 94.8498 330.115 94.9497 330.115 95.0859Z" fill="#263238"/>
<path d="M393.521 111.239C393.521 111.375 347.921 111.484 291.68 111.484C235.438 111.484 189.82 111.375 189.82 111.239C189.82 111.103 235.42 111.003 291.68 111.003C347.939 111.003 393.521 111.112 393.521 111.239Z" fill="#EBEBEB"/>
<path d="M393.521 207.569C393.521 207.705 347.921 207.805 291.68 207.805C235.438 207.805 189.82 207.705 189.82 207.569C189.82 207.433 235.42 207.333 291.68 207.333C347.939 207.333 393.521 207.442 393.521 207.569Z" fill="#EBEBEB"/>
<path d="M284.514 133.077H209.785C206.431 133.077 203.711 135.796 203.711 139.151V146.924C203.711 150.278 206.431 152.998 209.785 152.998H284.514C287.869 152.998 290.588 150.278 290.588 146.924V139.151C290.588 135.796 287.869 133.077 284.514 133.077Z" fill="#F5F5F5"/>
<path d="M375.167 133.077H302.364C299.009 133.077 296.289 135.796 296.289 139.151V146.924C296.289 150.278 299.009 152.998 302.364 152.998H375.167C378.522 152.998 381.242 150.278 381.242 146.924V139.151C381.242 135.796 378.522 133.077 375.167 133.077Z" fill="#F5F5F5"/>
<path d="M376.369 173.9H209.379C206.024 173.9 203.305 176.62 203.305 179.975V187.747C203.305 191.102 206.024 193.822 209.379 193.822H376.369C379.724 193.822 382.444 191.102 382.444 187.747V179.975C382.444 176.62 379.724 173.9 376.369 173.9Z" fill="#F5F5F5"/>
<path d="M243.598 125.059C243.598 125.186 235.208 125.295 224.848 125.295C214.488 125.295 206.098 125.186 206.098 125.059C206.098 124.932 214.488 124.823 224.848 124.823C235.208 124.823 243.598 124.932 243.598 125.059Z" fill="#263238"/>
<path d="M332.33 125.059C332.33 125.186 325.72 125.295 317.566 125.295C309.412 125.295 302.793 125.186 302.793 125.059C302.793 124.932 309.403 124.823 317.566 124.823C325.729 124.823 332.33 124.932 332.33 125.059Z" fill="#263238"/>
<path d="M267.406 165.683C267.406 165.81 253.786 165.919 236.988 165.919C220.19 165.919 206.57 165.81 206.57 165.683C206.57 165.556 220.19 165.447 236.988 165.447C253.786 165.447 267.406 165.556 267.406 165.683Z" fill="#263238"/>
<path d="M376.158 334.662C376.158 334.798 362.874 334.898 346.485 334.898C330.095 334.898 316.82 334.798 316.82 334.662C316.82 334.525 330.095 334.426 346.485 334.426C362.874 334.426 376.158 334.534 376.158 334.662Z" fill="#263238"/>
<path d="M277.25 145.126C276.79 145.277 276.32 145.395 275.843 145.48C272.277 146.136 268.595 145.61 265.355 143.982C264.753 143.669 264.209 143.254 263.748 142.756C263.243 142.22 262.905 141.547 262.777 140.822C262.693 140.435 262.691 140.035 262.771 139.647C262.851 139.259 263.01 138.893 263.24 138.57C263.509 138.236 263.87 137.99 264.279 137.86C264.687 137.731 265.125 137.725 265.537 137.843C265.754 137.907 265.956 138.014 266.129 138.16C266.303 138.305 266.444 138.485 266.545 138.688C266.745 139.099 266.806 139.565 266.717 140.014C266.528 140.894 266.094 141.703 265.464 142.347C264.225 143.737 262.667 144.806 260.924 145.462C259.048 146.171 257.013 146.353 255.04 145.988C253.992 145.81 253.004 145.376 252.162 144.726C251.708 144.394 251.343 143.955 251.099 143.448C250.855 142.941 250.74 142.382 250.764 141.821C250.823 141.243 251.039 140.694 251.39 140.232C251.734 139.738 252.243 139.384 252.825 139.233C253.132 139.172 253.45 139.192 253.748 139.291C254.046 139.389 254.312 139.563 254.523 139.796C254.921 140.264 255.137 140.861 255.131 141.475C255.142 142.077 254.998 142.671 254.713 143.201C254.407 143.723 253.985 144.167 253.479 144.499C252.471 145.102 251.374 145.54 250.228 145.798C248.022 146.424 245.615 147.105 243.164 146.551C241.935 146.285 240.807 145.674 239.913 144.79C239.449 144.339 239.084 143.798 238.84 143.199C238.597 142.601 238.48 141.958 238.497 141.312C238.506 140.897 238.599 140.488 238.769 140.109C238.939 139.73 239.183 139.389 239.486 139.106C239.821 138.841 240.224 138.677 240.648 138.632C241.072 138.587 241.501 138.663 241.883 138.851C242.278 139.029 242.596 139.341 242.781 139.732C242.966 140.123 243.005 140.568 242.891 140.985C242.647 141.755 242.148 142.418 241.475 142.865C239.037 144.536 236.235 145.601 233.303 145.97C231.875 146.216 230.408 146.088 229.044 145.598C228.373 145.326 227.781 144.889 227.324 144.327C226.866 143.765 226.559 143.096 226.429 142.383C226.321 141.669 226.483 140.94 226.882 140.337C227.281 139.735 227.89 139.302 228.59 139.124C228.946 139.055 229.314 139.083 229.656 139.204C229.997 139.326 230.3 139.536 230.533 139.814C230.961 140.352 231.2 141.015 231.214 141.702C231.245 142.367 231.101 143.027 230.797 143.618C230.473 144.175 230.034 144.655 229.507 145.026C228.491 145.691 227.362 146.164 226.175 146.424C223.95 147.014 221.635 147.432 219.529 146.66C218.535 146.301 217.661 145.672 217.004 144.844C216.369 144.051 216.046 143.053 216.096 142.038C216.192 141.098 216.624 140.225 217.313 139.578C217.625 139.265 218.01 139.035 218.433 138.908C218.857 138.781 219.305 138.762 219.737 138.851H219.828V138.942C219.856 140.724 219.207 142.451 218.012 143.773C217.163 144.768 216.062 145.517 214.825 145.943C214.061 146.207 213.252 146.312 212.446 146.252C211.901 146.17 211.629 146.097 211.629 146.097C212.687 146.27 213.771 146.17 214.78 145.807C215.978 145.369 217.039 144.624 217.858 143.646C218.98 142.347 219.576 140.676 219.529 138.96L219.628 139.078C219.239 139.007 218.837 139.031 218.459 139.15C218.081 139.268 217.737 139.478 217.458 139.759C216.831 140.363 216.441 141.172 216.36 142.038C216.223 143.854 217.685 145.67 219.592 146.324C221.499 146.978 223.814 146.642 226.021 146.043C227.159 145.789 228.242 145.33 229.217 144.69C229.69 144.353 230.086 143.92 230.379 143.419C230.65 142.892 230.775 142.303 230.742 141.712C230.73 141.121 230.526 140.551 230.161 140.086C229.977 139.864 229.737 139.695 229.465 139.598C229.194 139.5 228.901 139.478 228.618 139.532C228.025 139.693 227.513 140.065 227.178 140.58C226.843 141.094 226.709 141.713 226.802 142.32C226.923 142.954 227.202 143.548 227.613 144.046C228.024 144.544 228.554 144.931 229.153 145.171C230.445 145.63 231.835 145.746 233.185 145.507C236.037 145.145 238.761 144.105 241.13 142.474C241.711 142.091 242.148 141.526 242.374 140.867C242.46 140.554 242.43 140.219 242.29 139.926C242.15 139.632 241.909 139.399 241.611 139.269C241.31 139.125 240.976 139.067 240.645 139.101C240.313 139.134 239.997 139.259 239.731 139.46C239.476 139.701 239.271 139.99 239.129 140.311C238.987 140.633 238.911 140.979 238.905 141.33C238.892 141.91 239 142.485 239.22 143.021C239.44 143.557 239.769 144.042 240.185 144.445C241.015 145.264 242.061 145.831 243.2 146.079C245.488 146.606 247.84 145.97 250.037 145.344C251.133 145.096 252.184 144.679 253.152 144.109C253.601 143.82 253.977 143.432 254.25 142.974C254.496 142.513 254.621 141.997 254.614 141.475C254.623 140.968 254.449 140.475 254.123 140.086C253.967 139.91 253.768 139.778 253.545 139.703C253.322 139.628 253.083 139.613 252.852 139.659C252.384 139.82 251.972 140.113 251.667 140.503C251.363 140.893 251.178 141.364 251.136 141.857C251.128 142.35 251.242 142.837 251.467 143.275C251.691 143.714 252.021 144.091 252.425 144.372C253.223 144.983 254.158 145.392 255.149 145.561C257.048 145.912 259.007 145.739 260.815 145.062C262.512 144.445 264.031 143.419 265.237 142.075C265.823 141.484 266.232 140.742 266.418 139.932C266.524 139.57 266.49 139.182 266.321 138.845C266.153 138.508 265.863 138.248 265.51 138.116C265.162 138.011 264.791 138.014 264.445 138.122C264.098 138.231 263.793 138.44 263.566 138.724C263.362 139.01 263.219 139.335 263.145 139.679C263.072 140.022 263.07 140.377 263.14 140.722C263.287 141.37 263.582 141.976 264.001 142.492C264.419 143.009 264.951 143.422 265.555 143.7C267.489 144.709 269.602 145.326 271.775 145.516C273.15 145.627 274.533 145.578 275.897 145.371L276.959 145.171C277.055 145.15 277.152 145.135 277.25 145.126Z" fill="#247DFF"/>
<path d="M366.08 144.045C365.719 144.272 365.336 144.461 364.936 144.608C363.798 145.073 362.586 145.328 361.358 145.362C359.405 145.432 357.468 144.981 355.747 144.054C354.642 143.507 353.702 142.677 353.023 141.648C352.648 141.063 352.475 140.37 352.533 139.678C352.572 139.311 352.686 138.956 352.867 138.634C353.048 138.313 353.293 138.031 353.586 137.807C353.902 137.561 354.293 137.433 354.694 137.444C355.104 137.458 355.495 137.623 355.792 137.907C356.075 138.202 356.288 138.556 356.416 138.945C356.543 139.333 356.581 139.745 356.528 140.15C356.382 140.969 355.981 141.722 355.384 142.302C354.795 142.894 354.129 143.404 353.404 143.818C351.888 144.711 350.191 145.254 348.437 145.407C346.562 145.623 344.664 145.272 342.989 144.399C342.113 143.928 341.384 143.225 340.883 142.365C340.633 141.916 340.469 141.423 340.402 140.913C340.351 140.12 340.556 139.332 340.986 138.663C341.415 137.995 342.047 137.482 342.79 137.199C343.059 137.115 343.343 137.086 343.624 137.114C343.904 137.142 344.177 137.226 344.424 137.362C344.912 137.636 345.295 138.064 345.514 138.579C345.728 139.086 345.829 139.635 345.808 140.186C345.788 140.736 345.647 141.276 345.396 141.766C344.881 142.724 344.139 143.541 343.235 144.145C341.433 145.392 339.324 146.12 337.137 146.252C334.95 146.383 332.769 145.912 330.831 144.89C329.876 144.404 329.01 143.759 328.271 142.983C327.492 142.208 327.038 141.166 327 140.068C327.011 139.515 327.181 138.976 327.49 138.517C327.799 138.058 328.234 137.698 328.743 137.48C329.01 137.375 329.299 137.337 329.584 137.371C329.869 137.404 330.142 137.507 330.377 137.671C330.826 137.993 331.147 138.462 331.285 138.997C331.413 139.501 331.424 140.028 331.319 140.537C331.214 141.047 330.994 141.526 330.677 141.939C330.089 142.718 329.381 143.398 328.579 143.954C327.128 145.028 325.466 145.782 323.702 146.167C321.938 146.552 320.113 146.559 318.346 146.188C316.704 145.891 315.226 145.007 314.188 143.7C313.706 143.063 313.436 142.292 313.416 141.494C313.394 140.731 313.583 139.977 313.961 139.314C314.136 138.99 314.375 138.704 314.664 138.475C314.952 138.245 315.285 138.077 315.64 137.98C315.983 137.903 316.338 137.903 316.68 137.98C317.023 138.057 317.343 138.209 317.62 138.425C318.114 138.816 318.497 139.329 318.733 139.913C318.968 140.497 319.048 141.133 318.964 141.757C318.777 142.83 318.206 143.799 317.357 144.481C316.668 145.055 315.857 145.465 314.987 145.68C313.796 145.947 312.57 146.024 311.355 145.907L310.447 145.825C310.341 145.838 310.234 145.838 310.129 145.825C310.234 145.813 310.341 145.813 310.447 145.825H311.4C312.619 145.903 313.844 145.799 315.032 145.516C315.868 145.289 316.643 144.88 317.302 144.318C318.083 143.63 318.584 142.68 318.71 141.648C318.778 141.075 318.699 140.494 318.479 139.96C318.26 139.426 317.908 138.957 317.456 138.597C317.212 138.413 316.93 138.284 316.63 138.22C316.331 138.155 316.021 138.157 315.722 138.225C315.412 138.318 315.122 138.472 314.872 138.678C314.621 138.884 314.413 139.137 314.26 139.423C313.903 140.038 313.734 140.745 313.774 141.455C313.814 142.165 314.062 142.848 314.487 143.419C315.482 144.642 316.884 145.467 318.437 145.743C320.149 146.103 321.917 146.097 323.626 145.725C325.335 145.352 326.946 144.622 328.352 143.582C329.11 143.045 329.778 142.392 330.332 141.648C330.61 141.29 330.803 140.873 330.896 140.43C330.989 139.986 330.979 139.527 330.868 139.087C330.762 138.657 330.508 138.278 330.15 138.016C329.975 137.893 329.773 137.815 329.56 137.79C329.348 137.764 329.133 137.792 328.934 137.871C328.511 138.057 328.151 138.361 327.895 138.745C327.64 139.13 327.499 139.579 327.49 140.041C327.536 141.018 327.947 141.941 328.643 142.629C329.35 143.366 330.176 143.98 331.086 144.445C332.951 145.413 335.043 145.861 337.142 145.743C339.241 145.621 341.265 144.92 342.989 143.718C343.841 143.178 344.546 142.435 345.042 141.557C345.261 141.129 345.386 140.658 345.406 140.176C345.427 139.695 345.343 139.215 345.16 138.77C345.005 138.342 344.695 137.988 344.291 137.778C343.887 137.567 343.42 137.516 342.98 137.635C342.339 137.887 341.794 138.336 341.423 138.916C341.051 139.496 340.872 140.179 340.91 140.867C340.969 141.317 341.114 141.752 341.337 142.147C341.795 142.939 342.465 143.587 343.271 144.018C344.858 144.85 346.656 145.192 348.437 144.999C350.123 144.846 351.754 144.322 353.214 143.464C353.911 143.074 354.552 142.591 355.12 142.029C355.665 141.507 356.033 140.828 356.174 140.086C356.222 139.737 356.192 139.381 356.085 139.045C355.979 138.708 355.798 138.4 355.556 138.143C355.321 137.917 355.012 137.784 354.686 137.769C354.36 137.754 354.04 137.858 353.786 138.061C353.534 138.261 353.325 138.508 353.169 138.788C353.013 139.069 352.914 139.377 352.878 139.696C352.826 140.332 352.979 140.968 353.313 141.512C353.967 142.496 354.865 143.294 355.919 143.827C357.584 144.753 359.463 145.223 361.367 145.189C362.576 145.167 363.772 144.946 364.909 144.535C365.689 144.245 366.062 144.018 366.08 144.045Z" fill="#247DFF"/>
<path d="M281.664 184.151C281.556 184.221 281.44 184.279 281.319 184.324L280.275 184.796C279.367 185.205 277.996 185.804 276.207 186.476C274.031 187.316 271.773 187.925 269.47 188.292C268.027 188.503 266.569 188.591 265.111 188.555C263.466 188.587 261.827 188.341 260.263 187.829C259.386 187.531 258.593 187.026 257.951 186.358C257.31 185.689 256.838 184.877 256.576 183.988C256.442 183.505 256.405 183.001 256.467 182.503C256.53 182.006 256.69 181.526 256.939 181.092C257.19 180.629 257.549 180.234 257.986 179.94C258.422 179.646 258.923 179.462 259.445 179.403C259.997 179.393 260.54 179.548 261.004 179.847C261.467 180.146 261.832 180.576 262.051 181.082C262.547 182.089 262.629 183.249 262.278 184.315C261.898 185.375 261.243 186.315 260.381 187.039C259.517 187.771 258.558 188.382 257.53 188.855C255.408 189.958 252.957 190.245 250.638 189.663C249.438 189.293 248.36 188.607 247.517 187.677C246.674 186.748 246.096 185.608 245.844 184.378C245.735 183.744 245.735 183.097 245.844 182.463C245.931 181.797 246.201 181.168 246.624 180.647C246.826 180.363 247.086 180.127 247.387 179.953C247.687 179.779 248.022 179.672 248.368 179.639C248.736 179.632 249.096 179.741 249.398 179.952C249.7 180.162 249.927 180.463 250.048 180.81C250.221 181.464 250.251 182.147 250.135 182.813C250.019 183.479 249.76 184.113 249.376 184.669C248.705 185.811 247.845 186.83 246.833 187.684C244.843 189.388 242.298 190.306 239.678 190.266C237.058 190.225 234.543 189.23 232.605 187.466C231.673 186.6 231.038 185.462 230.789 184.215C230.665 183.586 230.705 182.935 230.907 182.326C231.128 181.729 231.493 181.196 231.969 180.774C232.441 180.342 233.034 180.066 233.667 179.984C233.992 179.937 234.323 179.962 234.637 180.058C234.951 180.154 235.24 180.318 235.483 180.538C235.909 180.982 236.208 181.532 236.35 182.13C236.492 182.729 236.472 183.354 236.291 183.943C235.937 185.047 235.287 186.033 234.412 186.794C233.605 187.545 232.719 188.205 231.77 188.764C229.953 189.838 227.935 190.524 225.84 190.78C223.883 191.038 221.892 190.861 220.011 190.262C219.116 189.962 218.298 189.47 217.614 188.819C216.952 188.189 216.499 187.371 216.315 186.476C216.119 185.622 216.201 184.728 216.552 183.924C216.719 183.537 216.982 183.198 217.315 182.94C217.648 182.681 218.042 182.511 218.458 182.444C218.85 182.385 219.249 182.408 219.631 182.513C220.012 182.618 220.368 182.802 220.674 183.053C220.962 183.294 221.18 183.609 221.303 183.964C221.426 184.319 221.45 184.701 221.373 185.069C221.222 185.739 220.855 186.342 220.329 186.785C219.865 187.19 219.349 187.533 218.794 187.802C217.837 188.276 216.836 188.659 215.807 188.946C214.389 189.352 212.923 189.569 211.449 189.59C210.936 189.609 210.423 189.587 209.914 189.527H210.305C210.568 189.527 210.949 189.527 211.449 189.527C212.907 189.461 214.353 189.217 215.753 188.8C216.765 188.496 217.75 188.104 218.694 187.629C219.228 187.364 219.722 187.028 220.165 186.63C220.628 186.213 220.946 185.66 221.073 185.05C221.138 184.728 221.115 184.393 221.004 184.083C220.894 183.773 220.701 183.498 220.447 183.289C220.169 183.07 219.849 182.911 219.507 182.82C219.165 182.73 218.808 182.71 218.458 182.762C218.092 182.825 217.747 182.979 217.457 183.211C217.166 183.443 216.939 183.744 216.797 184.088C216.48 184.827 216.41 185.648 216.597 186.431C216.818 187.271 217.257 188.038 217.869 188.655C218.481 189.272 219.245 189.716 220.084 189.945C221.911 190.52 223.843 190.681 225.741 190.417C228.858 190.026 231.773 188.66 234.067 186.512C234.888 185.804 235.497 184.884 235.828 183.852C235.985 183.341 236.004 182.799 235.882 182.279C235.761 181.759 235.504 181.28 235.138 180.892C234.712 180.567 234.179 180.413 233.645 180.46C233.111 180.507 232.614 180.752 232.251 181.146C231.844 181.517 231.532 181.981 231.343 182.499C231.168 183.035 231.134 183.607 231.243 184.161C231.488 185.314 232.088 186.362 232.959 187.157C234.817 188.842 237.225 189.791 239.733 189.826C242.241 189.861 244.675 188.98 246.579 187.348C247.555 186.531 248.382 185.551 249.022 184.451C249.353 183.931 249.59 183.356 249.721 182.753C249.867 182.175 249.848 181.568 249.666 181.001C249.583 180.74 249.419 180.512 249.2 180.349C248.98 180.187 248.714 180.097 248.44 180.093C248.162 180.126 247.894 180.218 247.653 180.362C247.412 180.506 247.204 180.699 247.042 180.928C246.702 181.407 246.465 181.951 246.348 182.527C246.23 183.102 246.235 183.696 246.361 184.27C246.598 185.415 247.137 186.477 247.923 187.344C248.708 188.211 249.712 188.851 250.829 189.2C253.04 189.755 255.377 189.484 257.402 188.437C259.382 187.484 261.28 186.104 261.942 184.133C262.261 183.17 262.189 182.12 261.743 181.21C261.562 180.772 261.254 180.398 260.86 180.136C260.465 179.874 260.001 179.735 259.527 179.739C259.067 179.792 258.627 179.956 258.243 180.215C257.859 180.474 257.543 180.821 257.321 181.228C257.093 181.619 256.946 182.052 256.888 182.501C256.83 182.95 256.863 183.407 256.985 183.843C257.227 184.68 257.667 185.447 258.268 186.079C258.868 186.711 259.611 187.19 260.435 187.475C261.962 187.988 263.564 188.24 265.175 188.219C266.616 188.266 268.059 188.19 269.488 187.992C271.777 187.658 274.026 187.089 276.198 186.294C278.014 185.65 279.358 185.078 280.293 184.705L281.355 184.27L281.664 184.151Z" fill="#247DFF"/>
<path d="M367.739 383.929C367.739 383.929 346.855 359.886 338.955 335.805C331.056 311.725 334.824 314.522 334.824 314.522C334.824 314.522 345.466 337.876 353.547 349.162C361.628 360.448 376.02 377.001 376.02 377.001L367.739 383.929Z" fill="#455A64"/>
<path d="M371.933 318.29C371.792 318.045 371.571 317.857 371.306 317.757C371.042 317.657 370.751 317.652 370.484 317.744C370.216 317.835 369.989 318.017 369.841 318.257C369.693 318.498 369.633 318.782 369.672 319.062C370.943 327.516 373.694 347.337 373.594 360.195C373.449 376.893 373.594 383.349 373.594 383.349H382.266C382.266 383.349 380.722 348.845 378.752 338.294C377.408 330.921 374.484 322.721 371.933 318.29Z" fill="#455A64"/>
<path d="M376.684 380.543C380.325 372.286 382.736 363.54 383.839 354.583C384.556 348.427 383.276 340.119 381.378 329.032C380.638 324.979 380.27 320.867 380.279 316.747C380.281 316.286 380.436 315.838 380.72 315.476C381.004 315.113 381.401 314.855 381.849 314.744C382.296 314.632 382.767 314.673 383.189 314.86C383.61 315.047 383.957 315.369 384.175 315.775C385.219 317.646 388.261 324.038 389.032 328.051C391.139 339.002 393.518 344.477 391.702 354.855C389.886 365.234 383.176 381.242 383.176 381.242L376.684 380.543Z" fill="#455A64"/>
<path d="M384.508 381.242C384.508 381.242 407.453 331.947 409.024 324.628C410.595 317.31 416.015 300.466 416.651 301.42C417.286 302.373 418.249 311.271 414.108 321.45C409.968 331.629 392.317 382.749 392.317 382.749H384.48" fill="#455A64"/>
<path d="M374.167 379.035C373.94 378.909 373.724 378.763 373.522 378.6C373.114 378.291 372.496 377.855 371.706 377.238C369.561 375.526 367.503 373.708 365.541 371.79C359.084 365.425 353.489 358.242 348.897 350.424C344.326 342.608 340.522 334.367 337.538 325.817C336.385 322.54 335.55 319.861 334.996 318C334.723 317.092 334.524 316.347 334.387 315.848C334.309 315.602 334.251 315.35 334.215 315.094C334.328 315.327 334.419 315.57 334.487 315.82L335.177 317.945C335.786 319.761 336.676 322.485 337.901 325.699C340.97 334.202 344.805 342.408 349.36 350.215C353.934 357.996 359.465 365.174 365.822 371.581C368.283 374.023 370.362 375.876 371.87 377.119C372.596 377.755 373.195 378.209 373.586 378.545C373.791 378.695 373.985 378.859 374.167 379.035Z" fill="#263238"/>
<path d="M376.672 355.391C376.57 354.912 376.503 354.427 376.472 353.938L376.045 349.989C375.682 346.656 375.137 342.053 374.302 337.004C373.466 331.956 372.586 327.397 371.886 324.12L371.051 320.233C370.919 319.765 370.834 319.284 370.797 318.799C370.976 319.25 371.122 319.715 371.233 320.188C371.496 321.096 371.832 322.413 372.222 324.047C373.012 327.316 373.975 331.856 374.792 336.922C375.609 341.989 376.118 346.611 376.39 349.952C376.526 351.632 376.617 352.985 376.663 353.929C376.709 354.415 376.712 354.905 376.672 355.391Z" fill="#263238"/>
<path d="M382.047 315.384C382.16 315.583 382.251 315.793 382.32 316.011C382.492 316.474 382.719 317.082 383.01 317.827C383.3 318.572 383.663 319.598 383.99 320.76C384.317 321.922 384.771 323.221 385.107 324.71L385.679 327.025C385.87 327.833 386.006 328.687 386.179 329.558C386.551 331.311 386.787 333.19 387.087 335.206C388.135 343.887 387.829 352.679 386.179 361.266C385.752 363.227 385.389 365.107 384.889 366.823C384.653 367.685 384.453 368.53 384.208 369.32C383.963 370.11 383.709 370.872 383.473 371.59C383.037 373.052 382.501 374.314 382.074 375.449C381.648 376.584 381.248 377.537 380.885 378.309L380.068 380.125C379.985 380.336 379.878 380.537 379.75 380.724C379.811 380.504 379.886 380.289 379.977 380.08C380.168 379.626 380.404 379.017 380.712 378.264C381.021 377.51 381.43 376.52 381.82 375.385C382.211 374.25 382.728 372.97 383.146 371.517C383.364 370.791 383.6 370.028 383.845 369.247C384.09 368.466 384.272 367.613 384.499 366.75C384.98 365.034 385.325 363.163 385.734 361.211C387.33 352.661 387.636 343.92 386.642 335.279C386.378 333.299 386.16 331.411 385.806 329.667C385.643 328.759 385.516 327.942 385.334 327.134C385.153 326.326 384.971 325.554 384.798 324.819C384.49 323.33 384.072 322.022 383.754 320.869C383.436 319.716 383.128 318.717 382.846 317.909L382.247 316.093C382.153 315.865 382.086 315.628 382.047 315.384Z" fill="#263238"/>
<path d="M416.418 302.409C416.422 302.482 416.422 302.555 416.418 302.627C416.418 302.8 416.354 303.009 416.309 303.272C416.209 303.826 416.082 304.661 415.855 305.724C415.419 307.848 414.674 310.899 413.53 314.595C412.386 318.29 410.806 322.649 408.99 327.416C407.174 332.183 404.986 337.404 402.952 342.924C400.918 348.445 399.32 353.82 397.795 358.742C396.269 363.663 394.898 368.031 393.545 371.663C392.489 374.538 391.277 377.354 389.913 380.098C389.441 381.069 389.005 381.796 388.742 382.304L388.424 382.867C388.39 382.933 388.347 382.994 388.297 383.049L388.379 382.84C388.46 382.686 388.551 382.486 388.66 382.25C388.905 381.741 389.296 380.997 389.741 380.007C390.649 378.055 391.902 375.186 393.209 371.544C394.517 367.903 395.933 363.509 397.35 358.605C398.766 353.702 400.41 348.3 402.48 342.752C404.55 337.204 406.684 332.01 408.563 327.252C410.443 322.494 412.041 318.172 413.221 314.495C414.402 310.817 415.192 307.785 415.691 305.678C415.945 304.634 416.1 303.808 416.236 303.254C416.291 303 416.345 302.791 416.381 302.618C416.382 302.547 416.395 302.477 416.418 302.409Z" fill="#263238"/>
<path d="M345.676 291.513C345.358 291.215 344.951 291.029 344.517 290.986C344.083 290.942 343.647 291.043 343.276 291.273C342.906 291.503 342.621 291.848 342.467 292.256C342.313 292.664 342.298 293.112 342.425 293.529C343.207 296.067 344.169 298.546 345.303 300.947C348.454 307.648 357.725 331.692 362.056 344.904C366.387 358.115 372.507 382.749 372.507 382.749L381.769 381.242C381.769 381.242 373.297 340.763 365.016 326.172C358.36 314.458 351.714 297.515 345.676 291.513Z" fill="#455A64"/>
<path d="M364.59 353.158C364.794 353.51 364.955 353.884 365.071 354.274C365.343 355.001 365.716 356.09 366.143 357.38C366.996 360.022 368.031 363.736 369.084 367.813C370.138 371.89 371.009 375.64 371.618 378.345C371.899 379.626 372.126 380.697 372.317 381.551C372.425 381.942 372.489 382.344 372.508 382.749C372.339 382.38 372.212 381.993 372.126 381.596C371.908 380.752 371.618 379.689 371.282 378.427C370.574 375.64 369.638 371.98 368.612 367.931C367.586 363.881 366.569 360.14 365.807 357.48L364.899 354.329C364.759 353.949 364.655 353.557 364.59 353.158Z" fill="#263238"/>
<path d="M377.154 381.996C377.125 381.917 377.106 381.834 377.099 381.75C377.099 381.56 377.045 381.315 377 381.015C376.9 380.379 376.818 379.426 376.618 378.218C376.282 375.785 375.71 372.28 374.675 368.003C373.493 362.997 372.048 358.057 370.344 353.203C368.446 347.755 366.058 341.789 363.361 335.66C357.913 323.402 352.465 312.534 348.897 304.489C347.081 300.484 345.692 297.225 344.766 294.927C344.293 293.792 343.957 292.903 343.721 292.294C343.622 292.013 343.54 291.786 343.467 291.604C343.432 291.526 343.407 291.444 343.395 291.359C343.442 291.43 343.482 291.506 343.513 291.586L343.812 292.258C344.085 292.884 344.466 293.756 344.938 294.855C345.919 297.116 347.362 300.357 349.206 304.352C352.838 312.343 358.349 323.184 363.806 335.461C366.53 341.608 368.891 347.546 370.771 353.058C372.453 357.931 373.865 362.893 375.002 367.922C375.779 371.312 376.385 374.74 376.818 378.191C376.981 379.408 377.045 380.361 377.109 381.006C377.109 381.309 377.127 381.554 377.163 381.741C377.172 381.826 377.169 381.912 377.154 381.996Z" fill="#263238"/>
<path d="M381.767 381.242C381.616 380.735 381.51 380.215 381.45 379.689C381.268 378.6 381.023 377.165 380.732 375.431C380.097 371.799 379.116 366.905 377.718 361.52C376.319 356.136 374.767 351.351 373.568 347.9L372.115 343.832C371.914 343.343 371.75 342.839 371.625 342.325C371.891 342.785 372.116 343.269 372.297 343.769C372.696 344.677 373.25 346.075 373.895 347.782C375.568 352.242 377.002 356.789 378.19 361.402C379.387 366.009 380.351 370.673 381.077 375.376C381.341 377.192 381.54 378.645 381.64 379.662C381.718 380.185 381.76 380.713 381.767 381.242Z" fill="#263238"/>
<path d="M400.772 379.916H364.625V423.954H400.772V379.916Z" fill="#247DFF"/>
<g opacity="0.3">
<path opacity="0.3" d="M400.772 379.916H364.625V423.954H400.772V379.916Z" fill="black"/>
</g>
<path d="M389.242 379.916H357.172V423.954H389.242V379.916Z" fill="#247DFF"/>
<path d="M95.4984 146.424L94.4724 229.161C94.2999 243.226 96.9149 263.929 119.17 263.193C138.438 261.096 143.55 242.863 143.686 229.733C143.759 223.504 143.831 218.311 143.877 217.675C143.877 217.675 164.96 215.95 166.74 195.12C167.603 185.06 167.648 164.185 167.548 145.298C167.469 135.517 163.709 126.123 157.018 118.987C150.327 111.852 141.194 107.497 131.437 106.79L129.421 106.636C107.647 106.327 95.217 124.641 95.4984 146.424Z" fill="#FFBE9D"/>
<path d="M143.886 217.675C143.886 217.675 130.693 217.484 117.336 207.687C117.336 207.687 122.838 223.395 143.777 223.032L143.886 217.675Z" fill="#EB996E"/>
<path d="M131.947 153.834C131.539 154.26 129.133 152.317 125.637 152.226C122.141 152.136 119.544 153.843 119.181 153.398C118.999 153.198 119.426 152.426 120.57 151.627C122.1 150.601 123.915 150.087 125.755 150.156C127.575 150.202 129.332 150.84 130.758 151.972C131.811 152.853 132.156 153.652 131.947 153.834Z" fill="#263238"/>
<path d="M131.851 161.052C131.802 161.786 131.469 162.472 130.924 162.965C130.378 163.458 129.662 163.72 128.927 163.694C128.205 163.694 127.512 163.407 127.001 162.897C126.49 162.386 126.203 161.693 126.203 160.97C126.25 160.237 126.58 159.552 127.125 159.058C127.669 158.565 128.384 158.303 129.118 158.328C129.476 158.327 129.831 158.397 130.163 158.533C130.495 158.669 130.796 158.87 131.05 159.123C131.304 159.376 131.505 159.677 131.643 160.008C131.78 160.339 131.851 160.694 131.851 161.052Z" fill="#263238"/>
<path d="M140.738 178.105C140.738 177.923 142.754 177.723 146.005 177.551C146.831 177.551 147.621 177.414 147.821 176.87C147.953 176.032 147.827 175.173 147.457 174.409L145.414 167.98C142.69 158.9 140.811 151.4 141.174 151.291C141.537 151.182 144.043 158.492 146.749 167.635C147.403 169.887 148.02 172.021 148.565 174.073C148.81 175.026 149.264 176.116 148.756 177.315C148.617 177.595 148.415 177.841 148.167 178.031C147.918 178.222 147.629 178.352 147.321 178.413C146.861 178.503 146.391 178.533 145.923 178.504C142.709 178.422 140.738 178.295 140.738 178.105Z" fill="#263238"/>
<path d="M130.466 140.74C130.13 141.521 127.334 140.931 123.992 141.104C120.651 141.276 117.89 142.012 117.509 141.276C117.337 140.913 117.854 140.205 118.989 139.515C120.486 138.661 122.17 138.187 123.892 138.134C125.604 138.044 127.311 138.381 128.859 139.115C130.039 139.678 130.611 140.35 130.466 140.74Z" fill="#263238"/>
<path d="M163.602 147.178C163.239 147.813 160.515 147.114 157.246 147.014C153.977 146.915 151.208 147.332 150.89 146.669C150.745 146.361 151.29 145.761 152.434 145.289C153.986 144.673 155.651 144.398 157.319 144.481C159.002 144.533 160.654 144.942 162.168 145.68C163.239 146.27 163.766 146.878 163.602 147.178Z" fill="#263238"/>
<path d="M96.0826 161.987C95.7375 161.806 82.063 156.703 81.4819 170.986C80.9008 185.268 95.338 182.917 95.4016 182.508C95.4651 182.1 96.0826 161.987 96.0826 161.987Z" fill="#FFBE9D"/>
<path d="M91.2617 176.915C91.1981 176.87 90.9984 177.079 90.5716 177.251C89.9881 177.481 89.3392 177.481 88.7556 177.251C87.2665 176.634 86.0952 174.191 86.1315 171.612C86.1466 170.387 86.4351 169.18 86.9759 168.08C87.1287 167.641 87.3864 167.247 87.7267 166.93C88.0669 166.614 88.4794 166.385 88.9281 166.264C89.2156 166.198 89.517 166.236 89.7795 166.371C90.0419 166.505 90.2484 166.728 90.3628 167C90.5444 167.408 90.4354 167.69 90.5171 167.717C90.5989 167.744 90.8349 167.49 90.7351 166.9C90.6719 166.547 90.4892 166.226 90.2175 165.992C89.8359 165.679 89.3476 165.526 88.8555 165.565C88.2582 165.655 87.6939 165.896 87.2169 166.267C86.7399 166.637 86.3661 167.124 86.1315 167.681C85.4786 168.893 85.1267 170.245 85.1055 171.621C85.1055 174.509 86.4493 177.26 88.4832 177.977C88.8633 178.102 89.2662 178.141 89.6632 178.093C90.0603 178.044 90.4417 177.909 90.7805 177.696C91.2163 177.26 91.3071 176.942 91.2617 176.915Z" fill="#EB996E"/>
<path d="M137.324 188.002C137.478 187.638 134.681 186.803 132.711 184.17C131.892 183.021 131.226 181.769 130.732 180.447C130.314 179.403 129.996 178.758 129.824 178.804C129.651 178.849 129.706 179.548 129.942 180.683C130.238 182.19 130.858 183.615 131.758 184.86C132.691 186.104 133.947 187.068 135.39 187.648C136.543 188.092 137.278 188.12 137.324 188.002Z" fill="#263238"/>
<path d="M163.767 155.15C163.349 155.568 160.943 153.634 157.411 153.543C153.879 153.452 151.318 155.159 150.946 154.714C150.764 154.515 151.2 153.743 152.335 152.944C153.865 151.918 155.68 151.403 157.52 151.473C159.343 151.519 161.102 152.157 162.532 153.289C163.622 154.17 163.967 154.96 163.767 155.15Z" fill="#263238"/>
<path d="M163.195 162.069C163.146 162.803 162.813 163.489 162.267 163.982C161.722 164.475 161.006 164.737 160.271 164.712C159.548 164.712 158.856 164.425 158.345 163.914C157.834 163.403 157.547 162.71 157.547 161.988C157.596 161.254 157.928 160.568 158.474 160.075C159.02 159.582 159.736 159.32 160.471 159.345C161.193 159.345 161.886 159.632 162.397 160.143C162.908 160.654 163.195 161.347 163.195 162.069Z" fill="#263238"/>
<path d="M182.091 117.641C180.672 115.336 178.472 113.618 175.891 112.801C173.311 111.984 170.522 112.123 168.035 113.192C168.674 109.886 168.214 106.462 166.726 103.441C165.238 100.421 162.803 97.9703 159.792 96.4624C156.782 94.9546 153.361 94.4725 150.051 95.0895C146.741 95.7066 143.723 97.389 141.458 99.8803C141.278 98.9969 140.91 98.1626 140.379 97.434C139.848 96.7055 139.166 96.0998 138.38 95.6581C136.805 94.7801 135.057 94.2564 133.259 94.1236C128.997 93.6507 124.685 94.3041 120.755 96.0185C116.824 97.7329 113.412 100.448 110.859 103.894C106.706 103.401 102.495 103.891 98.5658 105.325C94.6369 106.758 91.1 109.095 88.2404 112.147C81.5303 119.584 80.2591 136.809 87.6139 151.691L89.3391 161.016C91.6454 161.016 93.752 161.179 95.1775 162.451C97.1116 164.185 97.9742 167.454 101.179 166.219C102.814 165.583 104.303 162.16 104.811 160.498C108.437 149.412 109.639 137.676 108.334 126.085C110.624 123.646 113.361 121.67 116.397 120.265L116.152 120.492C121.973 118.467 128.556 116.479 134.076 119.212C138.362 121.327 140.886 125.776 144.064 129.318C147.021 132.593 150.611 135.236 154.617 137.086C158.623 138.937 162.962 139.958 167.373 140.087C167.681 145.952 167.191 154.242 167.5 160.063L172.521 150.728C172.911 150.057 173.265 149.366 173.583 148.658L173.692 148.44C174.6 147.705 175.272 146.361 176.798 144.617C178.255 142.904 179.214 140.824 179.571 138.604C179.928 136.383 179.669 134.107 178.822 132.023C181.005 130.419 182.537 128.083 183.137 125.441C183.737 122.8 183.366 120.031 182.091 117.641Z" fill="#263238"/>
<path d="M173.547 117.859C173.547 117.859 173.601 117.958 173.655 118.167C173.729 118.465 173.772 118.769 173.783 119.075C173.829 120.245 173.542 121.404 172.956 122.417C172.541 123.116 171.999 123.732 171.358 124.233C170.597 124.816 169.7 125.197 168.752 125.34C167.65 125.514 166.522 125.398 165.478 125.005C164.434 124.612 163.51 123.955 162.796 123.098L163.15 122.798C163.494 123.175 163.76 123.616 163.933 124.096C164.106 124.576 164.183 125.085 164.158 125.595C164.147 126.276 164 126.948 163.726 127.572C163.451 128.196 163.055 128.758 162.56 129.227C161.62 130.062 160.435 130.568 159.182 130.67C157.099 130.822 155.027 130.251 153.316 129.054C152.176 128.28 151.123 127.385 150.175 126.385C149.811 126.038 149.477 125.661 149.176 125.259C149.575 125.563 149.952 125.897 150.302 126.258C151.289 127.191 152.359 128.032 153.498 128.773C155.158 129.883 157.146 130.398 159.137 130.235C160.291 130.129 161.382 129.659 162.251 128.891C163.139 128.031 163.655 126.857 163.686 125.622C163.719 124.711 163.393 123.824 162.778 123.152L163.132 122.843C163.794 123.64 164.648 124.254 165.615 124.626C166.582 124.998 167.627 125.116 168.652 124.968C169.48 124.843 170.269 124.533 170.961 124.062C171.652 123.59 172.229 122.969 172.648 122.244C173.227 121.281 173.54 120.181 173.556 119.057C173.628 118.294 173.51 117.868 173.547 117.859Z" fill="#455A64"/>
<path d="M155.677 102.205C155.677 102.205 155.786 102.205 155.986 102.341C156.262 102.501 156.526 102.68 156.776 102.877C157.724 103.608 158.469 104.571 158.937 105.673C159.284 106.506 159.42 107.411 159.335 108.309C159.249 109.207 158.944 110.07 158.447 110.822C157.846 111.741 156.912 112.392 155.841 112.638C155.271 112.761 154.681 112.768 154.109 112.657C153.536 112.546 152.992 112.32 152.509 111.993C152.21 111.767 151.944 111.502 151.719 111.203L152.127 110.967C152.333 111.481 152.43 112.032 152.411 112.586C152.393 113.139 152.259 113.683 152.018 114.181C151.6 115.111 150.867 115.864 149.948 116.306C149.186 116.66 148.355 116.844 147.515 116.844C146.674 116.844 145.843 116.66 145.081 116.306C144.077 115.842 143.182 115.171 142.457 114.336C142.174 114.047 141.938 113.716 141.758 113.355C141.758 113.355 142.048 113.673 142.584 114.209C143.334 114.977 144.225 115.594 145.208 116.025C145.928 116.333 146.704 116.485 147.487 116.471C148.27 116.457 149.04 116.277 149.748 115.943C150.556 115.523 151.196 114.841 151.564 114.009C151.772 113.568 151.887 113.089 151.903 112.602C151.919 112.115 151.834 111.629 151.655 111.176L150.892 109.424L152.064 110.949C152.256 111.206 152.485 111.432 152.745 111.621C153.173 111.913 153.656 112.115 154.165 112.215C154.674 112.315 155.198 112.31 155.705 112.202C156.657 111.995 157.493 111.429 158.038 110.622C158.507 109.929 158.801 109.132 158.894 108.3C158.987 107.468 158.878 106.626 158.574 105.846C158.151 104.777 157.479 103.824 156.613 103.067C156.05 102.468 155.65 102.241 155.677 102.205Z" fill="#455A64"/>
<path d="M276.939 206.352L243.933 231.54C243.471 231.895 243.086 232.341 242.802 232.85C242.519 233.36 242.342 233.921 242.283 234.501C242.225 235.081 242.285 235.667 242.461 236.223C242.637 236.778 242.925 237.292 243.307 237.733C244.021 238.558 245.025 239.078 246.112 239.184C247.198 239.291 248.284 238.976 249.145 238.305L281.833 212.881L286.255 204.155L276.939 206.352Z" fill="#247DFF"/>
<path opacity="0.5" d="M282.022 205.145L284.355 207.869L281.831 212.881C281.528 212.913 281.221 212.876 280.934 212.771C280.647 212.667 280.388 212.498 280.176 212.278C279.964 212.059 279.805 211.793 279.711 211.503C279.617 211.212 279.591 210.904 279.634 210.602C279.335 210.643 279.031 210.61 278.749 210.504C278.467 210.399 278.215 210.224 278.017 209.997C277.819 209.77 277.68 209.498 277.614 209.204C277.547 208.91 277.555 208.604 277.636 208.314C277.636 208.314 275.92 208.159 276.892 206.353L282.022 205.145Z" fill="white"/>
<path d="M243.934 231.513L249.345 238.123L251.161 236.716L245.977 229.96L243.934 231.513Z" fill="#263238"/>
<path d="M241.525 294.61L240.336 294.392L264.616 251.952L260.766 239.712C260.766 239.712 256.317 222.288 260.021 217.839C260.021 217.839 268.13 208.286 270.763 208.423C273.396 208.559 275.494 209.076 276.02 211.056C276.02 211.056 280.497 210.529 281.677 211.964C282.467 212.956 283.171 214.013 283.784 215.124C283.784 215.124 288.651 214.724 289.967 218.937C289.967 218.937 294.571 221.307 294.97 224.721C295.37 228.135 294.062 244.062 292.6 248.139C291.139 252.215 285.754 260.769 284.183 273.399C282.612 286.029 277.037 294.229 272.089 312.679L258.659 317.991L241.525 294.61Z" fill="#FFBE9D"/>
<path d="M275.794 210.783C275.894 210.919 274.223 212.027 272.961 214.07C271.699 216.113 271.399 218.074 271.227 218.047C271.243 216.536 271.676 215.059 272.476 213.778C273.277 212.496 274.416 211.46 275.767 210.783H275.794Z" fill="#EB996E"/>
<path d="M283.52 215.124C283.611 215.269 282.013 216.231 280.751 218.065C279.489 219.9 279.089 221.697 278.935 221.697C278.781 221.697 278.935 219.709 280.306 217.775C281.049 216.555 282.182 215.621 283.52 215.124Z" fill="#EB996E"/>
<path d="M289.714 218.828C289.814 218.955 288.606 220.018 287.498 221.616C286.39 223.214 285.791 224.712 285.637 224.658C285.775 223.429 286.263 222.266 287.044 221.307C287.673 220.238 288.601 219.376 289.714 218.828Z" fill="#EB996E"/>
<path d="M266.952 220.208C266.071 219.922 265.153 219.765 264.228 219.745C263.319 219.887 262.437 220.165 261.613 220.572C261.567 220.572 261.74 220.226 262.185 219.9C262.776 219.49 263.467 219.248 264.185 219.2C264.903 219.152 265.621 219.3 266.261 219.627C266.734 219.891 266.952 220.154 266.952 220.208Z" fill="#EB996E"/>
<path d="M276.591 226.265C276.041 225.374 275.365 224.566 274.584 223.868C273.213 222.796 271.724 222.733 271.742 222.569C271.761 222.406 272.115 222.415 272.723 222.488C273.522 222.61 274.277 222.932 274.919 223.422C275.562 223.912 276.071 224.555 276.4 225.293C276.636 225.865 276.655 226.247 276.591 226.265Z" fill="#EB996E"/>
<path d="M286.206 228.317C286.088 228.435 285.026 227.236 283.219 226.764C282.112 226.551 280.981 226.496 279.859 226.601C279.859 226.537 280.177 226.319 280.822 226.165C281.663 225.987 282.535 226.012 283.365 226.236C284.195 226.46 284.96 226.878 285.598 227.454C286.07 227.908 286.252 228.28 286.206 228.317Z" fill="#EB996E"/>
<path d="M41.2302 274.616C41.2302 274.616 26.3299 359.132 27.0654 367.041C27.8009 374.95 31.7416 387.517 40.6854 389.669C46.366 390.938 52.2568 390.938 57.9374 389.669L47.2139 285.857L41.2302 274.616Z" fill="#247DFF"/>
<path d="M84.8048 231.013C84.8048 231.013 66.9898 243.725 63.0128 247.403C46.5417 262.975 43.1003 269.349 41.2208 274.643C39.3412 279.937 52.6616 402.244 52.6616 402.244L55.3856 423.628L180.39 423.945V314.722L161.622 237.842L150.063 234.555L147.729 225.393C147.729 225.393 133.374 214.788 109.693 214.497C102.429 214.397 92.096 217.266 86.3393 221.761L84.8048 231.013Z" fill="#247DFF"/>
<path d="M147.603 238.159C147.603 238.159 160.452 237.587 161.587 237.842C165.546 238.75 176.414 248.738 188.827 261.014C200.631 272.727 223.894 297.107 223.894 297.107C223.894 297.107 228.07 292.894 232.837 298.523L251.188 271.828C251.188 271.828 278.755 275.206 283.041 296.008C283.041 296.008 274.596 312.134 267.677 323.657C267.677 323.657 242.081 366.142 221.86 358.442C203.391 351.396 180.228 332.619 176.968 328.605L149.728 309.201C149.728 309.201 131.096 273.68 139.332 255.92L147.603 238.159Z" fill="#247DFF"/>
<path d="M150.028 234.555C149.805 234.535 149.586 234.489 149.374 234.419L147.558 233.928C145.951 233.52 143.608 232.957 140.684 232.403C133.058 230.993 125.353 230.044 117.612 229.561C109.876 229.011 102.109 229.036 94.3765 229.633C91.4073 229.888 89.0284 230.26 87.394 230.541L85.5144 230.914C85.299 230.976 85.0757 231.007 84.8516 231.004C85.0557 230.916 85.2688 230.849 85.4872 230.805L87.3486 230.333C89.6564 229.834 91.9907 229.468 94.3402 229.234C102.09 228.524 109.886 228.448 117.649 229.007C125.405 229.486 133.12 230.493 140.739 232.021C143.663 232.63 145.996 233.247 147.603 233.729L149.419 234.319C149.631 234.374 149.835 234.453 150.028 234.555Z" fill="#263238"/>
<path d="M101.34 228.199C101.185 228.199 100.777 226.128 100.432 223.522C100.087 220.916 99.8959 218.801 100.05 218.774C100.527 220.294 100.831 221.862 100.958 223.45C101.321 226.092 101.494 228.181 101.34 228.199Z" fill="#263238"/>
<path d="M106.005 227.799C104.764 224.801 104.535 221.479 105.352 218.338C105.515 218.338 105.27 220.481 105.451 223.087C105.633 225.693 106.16 227.754 106.005 227.799Z" fill="#263238"/>
<g opacity="0.3">
<path opacity="0.3" d="M85.2148 230.914C104.773 234.373 124.604 230.914 145.306 233.393C125.33 229.252 104.501 227.291 85.2148 230.914Z" fill="black"/>
</g>
<g opacity="0.3">
<path opacity="0.3" d="M50.849 389.832C39.844 364.054 41.1515 334.925 42.677 306.95L50.849 389.832Z" fill="black"/>
</g>
<path d="M41.2324 293.039C41.2622 293.146 41.2804 293.255 41.2869 293.366C41.2869 293.611 41.3595 293.929 41.4049 294.319C41.4957 295.227 41.6319 296.435 41.7953 298.015C42.1131 301.256 42.5762 305.887 43.1392 311.635C44.256 323.094 45.7815 338.938 47.6066 356.417C49.4316 373.896 51.2386 389.705 52.7095 401.127C53.4268 406.839 54.0443 411.46 54.5255 414.647C54.7343 416.218 54.8978 417.453 55.0068 418.325C55.0612 418.724 55.0975 419.042 55.1248 419.287C55.1346 419.396 55.1346 419.505 55.1248 419.614C55.0879 419.512 55.0636 419.405 55.0522 419.296L54.8796 418.343C54.7434 417.435 54.5437 416.246 54.2985 414.711C53.7991 411.524 53.1181 406.911 52.3463 401.209C50.7936 389.795 48.905 373.969 47.0799 356.499C45.2548 339.029 43.793 323.166 42.776 311.698C42.2857 305.987 41.868 301.347 41.6047 298.078C41.4866 296.498 41.3867 295.264 41.3232 294.383C41.3232 293.983 41.3232 293.665 41.2596 293.411C41.2353 293.289 41.2261 293.164 41.2324 293.039Z" fill="#263238"/>
<path d="M125.855 279.21C125.591 279.251 125.323 279.266 125.056 279.256H122.741C120.743 279.256 117.837 279.256 114.26 279.356C107.096 279.519 97.2076 280.046 86.357 281.326C75.5064 282.606 65.7636 284.459 58.7629 286.02C55.258 286.774 52.4069 287.428 50.491 287.909L48.2392 288.436C47.9804 288.506 47.7162 288.555 47.4492 288.581C47.6953 288.473 47.9506 288.388 48.2119 288.327L50.4365 287.7C52.3706 287.155 55.1854 286.447 58.6812 285.639C76.9138 281.448 95.5439 279.229 114.251 279.02C117.883 279.02 120.743 279.02 122.75 279.092L125.056 279.183C125.323 279.171 125.59 279.18 125.855 279.21Z" fill="#263238"/>
<path d="M77.8579 306.577C77.7035 306.577 77.9941 294.873 78.4935 280.445C78.9929 266.017 79.5377 254.313 79.6921 254.322C79.8464 254.331 79.5559 266.026 79.0474 280.463C78.5389 294.9 78.0032 306.586 77.8579 306.577Z" fill="#263238"/>
<path d="M141.735 305.134C141.565 304.899 141.41 304.653 141.272 304.398C140.951 303.86 140.533 303.142 140.019 302.246L135.406 294.32C133.072 290.415 131.135 286.288 129.622 281.998C128.784 279.435 128.206 276.795 127.897 274.117C127.633 271.235 127.633 268.336 127.897 265.454C128.28 259.87 129.677 254.403 132.019 249.319C133.095 247.118 134.467 245.074 136.096 243.245C137.529 241.667 139.173 240.295 140.981 239.168C143.585 237.493 146.566 236.495 149.653 236.262C150.776 236.168 151.907 236.232 153.012 236.453C151.899 236.393 150.784 236.393 149.671 236.453C146.642 236.758 143.732 237.792 141.19 239.467C139.427 240.598 137.826 241.963 136.432 243.526C134.851 245.336 133.522 247.352 132.482 249.519C130.19 254.554 128.821 259.961 128.442 265.481C128.187 268.324 128.187 271.183 128.442 274.026C128.742 276.668 129.302 279.274 130.112 281.807C131.596 286.075 133.485 290.192 135.751 294.102L140.209 302.11L141.381 304.317C141.523 304.578 141.642 304.851 141.735 305.134Z" fill="#263238"/>
<g opacity="0.3">
<path opacity="0.3" d="M49.4762 288.481C57.3757 288.072 65.2304 287.037 72.9661 285.385C72.0117 288.803 71.568 292.343 71.6495 295.89C74.1025 293.127 75.8887 289.837 76.8705 286.275C77.1517 288.213 77.8218 290.075 78.8408 291.747C79.8597 293.42 81.2064 294.869 82.7998 296.008C83.5781 292.495 83.7561 288.876 83.3264 285.303C95.0154 283.899 106.626 281.977 118.157 279.537C94.817 278.972 71.5217 281.87 49.0312 288.136" fill="black"/>
</g>
<path d="M199.757 346.738C199.566 346.655 199.386 346.548 199.222 346.42L197.723 345.422C196.434 344.514 194.582 343.27 192.275 341.662C187.735 338.466 181.461 333.972 174.642 328.887C167.823 323.802 161.73 319.08 157.39 315.621C155.211 313.896 153.449 312.479 152.242 311.49L150.862 310.345C150.692 310.22 150.537 310.077 150.398 309.919C150.584 310.021 150.76 310.14 150.925 310.273L152.36 311.344L157.599 315.358C162.021 318.754 168.141 323.421 174.96 328.505C181.779 333.59 187.953 338.121 192.493 341.408L197.832 345.294L199.276 346.357C199.447 346.471 199.607 346.598 199.757 346.738Z" fill="#263238"/>
<path d="M230.258 318.881C230.176 318.881 230.258 317.501 230.067 315.312C229.655 309.576 227.928 304.011 225.018 299.05C223.902 297.152 223.084 296.054 223.148 295.999C223.394 296.212 223.611 296.456 223.793 296.726C224.332 297.416 224.835 298.135 225.3 298.878C228.412 303.807 230.172 309.469 230.403 315.294C230.452 316.168 230.452 317.044 230.403 317.918C230.397 318.244 230.348 318.568 230.258 318.881Z" fill="#263238"/>
<path d="M235.889 316.82C235.915 315.884 235.99 314.95 236.116 314.023C236.285 311.784 236.242 309.534 235.989 307.304C235.731 305.072 235.259 302.871 234.581 300.73C234.064 299.077 233.673 298.088 233.728 298.051C233.884 298.252 234.01 298.476 234.1 298.714C234.4 299.335 234.667 299.971 234.899 300.621C236.46 304.917 236.988 309.521 236.443 314.059C236.334 314.922 236.216 315.621 236.107 316.093C236.068 316.344 235.995 316.589 235.889 316.82Z" fill="#263238"/>
<path d="M278.528 305.134C278.528 305.134 278.528 304.961 278.319 304.788C278.163 304.69 278.034 304.552 277.947 304.389C277.847 304.198 277.774 303.971 277.647 303.753C277.402 303.29 276.794 302.945 276.358 302.273C275.886 301.528 275.52 300.722 275.268 299.876C274.648 297.719 273.584 295.715 272.145 293.992C271.281 292.991 270.343 292.056 269.339 291.196C268.273 290.254 267.141 289.389 265.952 288.608C264.801 287.768 263.586 287.018 262.32 286.365L258.688 284.604C257.544 284.059 256.473 283.496 255.428 283.051L252.523 281.807C252.091 281.642 251.669 281.451 251.261 281.235C250.87 281.008 250.552 280.754 250.226 280.572L249.318 280.073C249.027 279.918 248.782 279.71 248.564 279.573C248.119 279.292 247.729 279.137 247.474 279.001C247.22 278.865 247.093 278.792 247.102 278.774C247.244 278.806 247.381 278.855 247.511 278.92C247.907 279.058 248.292 279.225 248.664 279.419C249.215 279.766 249.791 280.069 250.389 280.327C250.743 280.499 251.079 280.754 251.442 280.953C251.805 281.153 252.259 281.299 252.695 281.489L255.619 282.67C256.663 283.096 257.753 283.659 258.915 284.195L262.547 285.929C263.83 286.588 265.06 287.347 266.224 288.199C267.435 288.987 268.582 289.868 269.657 290.833C270.675 291.71 271.622 292.666 272.49 293.693C273.947 295.465 275.007 297.531 275.595 299.749C275.823 300.575 276.155 301.368 276.585 302.11C276.966 302.745 277.556 303.118 277.811 303.644C277.947 303.899 278.001 304.135 278.083 304.307C278.156 304.461 278.262 304.597 278.392 304.707C278.619 304.943 278.537 305.152 278.528 305.134Z" fill="#263238"/>
<path d="M162.041 421.839C161.914 421.839 161.805 398.866 161.805 370.528C161.805 342.189 161.914 319.217 162.041 319.217C162.168 319.217 162.277 342.189 162.277 370.528C162.277 398.866 162.177 421.839 162.041 421.839Z" fill="#263238"/>
</svg>
