<svg width="129" height="104" viewBox="0 0 129 104" fill="none" xmlns="http://www.w3.org/2000/svg">
<path d="M0.425953 96.0428L1.94448 72.2714C2.14982 68.9682 4.92459 66.5277 8.10517 66.7842L8.96539 66.8113C62.0407 67.5182 73.6971 22.045 75.8539 5.74697C75.8841 5.64368 75.8841 5.64368 75.9142 5.54039C76.2385 2.94456 78.1625 0.816067 80.6639 0.425739C80.994 0.410073 81.3543 0.291116 81.6845 0.27545C81.9146 0.230576 82.1146 0.288993 82.2447 0.21491L105.02 1.37504C105.22 1.43346 105.45 1.38859 105.65 1.447C108.47 1.82247 110.557 4.33785 110.442 7.33118C110.461 8.00934 110.48 8.68751 110.469 9.46897C110.353 25.4664 117.846 44.0228 128.502 61.037C124.147 56.626 111.479 46.8714 106.612 44.2163C96.1774 38.7018 83.9947 38.0576 72.9141 42.5559C55.6574 49.6222 37.9373 64.9611 34.9538 97.8336C34.6485 101.108 31.9737 103.577 28.7931 103.321L5.78776 102.206C2.677 102.082 0.2206 99.346 0.425953 96.0428Z" fill="white" fill-opacity="0.05"/>
</svg>
