<svg width="142" height="114" viewBox="0 0 142 114" fill="none" xmlns="http://www.w3.org/2000/svg">
<path d="M141.808 9.17265L139.82 35.3892C139.549 39.0323 136.455 41.6897 132.949 41.3651L132 41.324C73.4423 39.8525 59.981 89.8892 57.3864 107.849C57.3518 107.963 57.3518 107.963 57.3171 108.076C56.9251 110.937 54.774 113.261 52.0086 113.659C51.6441 113.672 51.245 113.799 50.8805 113.812C50.626 113.859 50.4061 113.791 50.2615 113.872L25.1449 112.294C24.925 112.227 24.6704 112.274 24.4506 112.207C21.3434 111.756 19.074 108.952 19.2401 105.65C19.2282 104.901 19.2162 104.153 19.2389 103.29C19.5772 85.6355 11.5536 65.0574 0.0189311 46.1402C4.7657 51.0653 18.6164 61.9963 23.9524 64.9901C35.3939 71.2124 48.8287 72.0821 61.1152 67.2616C80.2505 59.6873 100.006 42.9887 103.731 6.74647C104.111 3.13696 107.095 0.446011 110.602 0.770545L135.973 2.30108C139.404 2.47846 142.078 5.52961 141.808 9.17265Z" fill="white" fill-opacity="0.05"/>
</svg>
