<svg width="16" height="16" viewBox="0 0 16 16" fill="none" xmlns="http://www.w3.org/2000/svg">
<g clip-path="url(#clip0_362_75933)">
<path d="M13.4998 0.999948C13.102 0.999948 12.7204 1.15798 12.4391 1.43929C12.1578 1.72059 11.9998 2.10212 11.9998 2.49995C11.9998 2.89777 12.1578 3.2793 12.4391 3.56061C12.7204 3.84191 13.102 3.99995 13.4998 3.99995C13.8976 3.99995 14.2791 3.84191 14.5604 3.56061C14.8417 3.2793 14.9998 2.89777 14.9998 2.49995C14.9998 2.10212 14.8417 1.72059 14.5604 1.43929C14.2791 1.15798 13.8976 0.999948 13.4998 0.999948ZM10.9998 2.49995C10.9997 1.91338 11.2059 1.34546 11.5822 0.895559C11.9586 0.445654 12.4812 0.142411 13.0585 0.0388849C13.6359 -0.0646415 14.2313 0.0381412 14.7405 0.32925C15.2497 0.620359 15.6404 1.08126 15.8441 1.63131C16.0479 2.18135 16.0517 2.78553 15.855 3.33812C15.6582 3.89071 15.2735 4.35654 14.768 4.65409C14.2625 4.95165 13.6685 5.06198 13.0898 4.9658C12.5112 4.86962 11.9848 4.57304 11.6028 4.12795L4.88478 7.24795C5.03922 7.73739 5.03922 8.26251 4.88478 8.75195L11.6028 11.8719C12.0066 11.4023 12.5704 11.0993 13.185 11.0216C13.7995 10.9439 14.421 11.0972 14.929 11.4516C15.4369 11.8061 15.7952 12.3365 15.9344 12.9401C16.0736 13.5436 15.9838 14.1774 15.6824 14.7185C15.3809 15.2596 14.8893 15.6696 14.3029 15.8689C13.7164 16.0682 13.0768 16.0427 12.5081 15.7974C11.9393 15.552 11.4819 15.1042 11.2245 14.5408C10.9671 13.9774 10.928 13.3385 11.1148 12.7479L4.39678 9.62795C4.06421 10.0155 3.62093 10.2919 3.12656 10.42C2.63218 10.5481 2.11044 10.5217 1.63152 10.3444C1.15259 10.1671 0.739453 9.84738 0.447684 9.42824C0.155916 9.00909 -0.000488281 8.51064 -0.000488281 7.99995C-0.000488281 7.48925 0.155916 6.99081 0.447684 6.57166C0.739453 6.15252 1.15259 5.83278 1.63152 5.65547C2.11044 5.47816 2.63218 5.45177 3.12656 5.57986C3.62093 5.70795 4.06421 5.98438 4.39678 6.37195L11.1148 3.25195C11.0383 3.00862 10.9995 2.75501 10.9998 2.49995ZM2.49978 6.49995C2.10195 6.49995 1.72042 6.65798 1.43912 6.93929C1.15781 7.22059 0.999777 7.60212 0.999777 7.99995C0.999777 8.39777 1.15781 8.7793 1.43912 9.06061C1.72042 9.34191 2.10195 9.49995 2.49978 9.49995C2.8976 9.49995 3.27913 9.34191 3.56044 9.06061C3.84174 8.7793 3.99978 8.39777 3.99978 7.99995C3.99978 7.60212 3.84174 7.22059 3.56044 6.93929C3.27913 6.65798 2.8976 6.49995 2.49978 6.49995ZM13.4998 11.9999C13.102 11.9999 12.7204 12.158 12.4391 12.4393C12.1578 12.7206 11.9998 13.1021 11.9998 13.4999C11.9998 13.8978 12.1578 14.2793 12.4391 14.5606C12.7204 14.8419 13.102 14.9999 13.4998 14.9999C13.8976 14.9999 14.2791 14.8419 14.5604 14.5606C14.8417 14.2793 14.9998 13.8978 14.9998 13.4999C14.9998 13.1021 14.8417 12.7206 14.5604 12.4393C14.2791 12.158 13.8976 11.9999 13.4998 11.9999Z" fill="white"/>
</g>
<defs>
<clipPath id="clip0_362_75933">
<rect width="16" height="16" fill="white"/>
</clipPath>
</defs>
</svg>
