<svg width="21" height="21" viewBox="0 0 21 21" fill="none" xmlns="http://www.w3.org/2000/svg">
<path fill-rule="evenodd" clip-rule="evenodd" d="M10.0078 15.319C10.8299 15.2129 11.6233 14.9638 12.3425 14.5635C14.1188 13.5751 15.145 11.8762 15.2318 9.77923L15.2394 9.59774H17.6978C17.5429 8.3543 17.0716 7.20803 16.3682 6.24072L13.853 7.85494C14.6182 9.05433 14.7169 10.3838 14.1359 11.7117C13.4477 13.2846 11.8255 14.663 10.0078 15.319Z" fill="#EE3524"/>
<path fill-rule="evenodd" clip-rule="evenodd" d="M17.7346 9.9762H15.5997C15.4559 12.0978 14.343 13.8832 12.5262 14.8941C11.4893 15.471 10.3091 15.7581 9.10399 15.7581C8.17019 15.7581 7.22142 15.5851 6.3125 15.2419C7.40502 15.9236 8.63266 16.2965 9.90435 16.3003H9.92375C12.2203 16.3003 14.2818 15.0855 15.4414 13.0478L15.5396 12.8754L16.9681 13.7809C17.4704 12.7949 17.7554 11.6804 17.7554 10.5C17.7554 10.3236 17.747 10.1495 17.7346 9.9762Z" fill="#EE3524"/>
<path fill-rule="evenodd" clip-rule="evenodd" d="M9.92582 16.6789H9.90538C7.61725 16.6721 5.46741 15.5393 3.9375 13.5893C5.1 16.0494 7.60482 17.7562 10.5015 17.7562C13.1869 17.7562 15.5345 16.2887 16.7891 14.1144L15.6722 13.4064C14.4277 15.4603 12.2951 16.6789 9.92582 16.6789Z" fill="#EE3524"/>
<path fill-rule="evenodd" clip-rule="evenodd" d="M10.5001 0C4.70103 0 0 4.701 0 10.5C0 16.299 4.70103 21 10.5001 21C16.2991 21 21.0001 16.299 21.0001 10.5C21.0001 4.701 16.2991 0 10.5001 0ZM10.5001 18.1348C6.28343 18.1348 2.86526 14.7166 2.86526 10.5C2.86526 6.2836 6.28343 2.86546 10.5001 2.86546C14.7167 2.86546 18.1349 6.2836 18.1349 10.5C18.1349 14.7166 14.7167 18.1348 10.5001 18.1348Z" fill="#EE3524"/>
</svg>
