<svg width="22" height="23" viewBox="0 0 22 23" fill="none" xmlns="http://www.w3.org/2000/svg">
<g clip-path="url(#clip0_600_50968)">
<path d="M10.4922 2.18483C10.6801 1.73312 11.3199 1.73312 11.5078 2.18483L13.7805 7.64905C13.8597 7.83948 14.0388 7.9696 14.2444 7.98608L20.1435 8.45901C20.6311 8.4981 20.8289 9.10668 20.4573 9.42495L15.9629 13.275C15.8062 13.4091 15.7378 13.6197 15.7857 13.8203L17.1588 19.5768C17.2723 20.0527 16.7546 20.4288 16.3371 20.1738L11.2867 17.089C11.1107 16.9815 10.8893 16.9815 10.7133 17.089L5.66287 20.1738C5.24536 20.4288 4.72767 20.0527 4.84119 19.5768L6.21432 13.8203C6.26218 13.6197 6.19377 13.4091 6.03714 13.275L1.54265 9.42495C1.17111 9.10668 1.36885 8.4981 1.85651 8.45901L7.7556 7.98608C7.96118 7.9696 8.14027 7.83948 8.21947 7.64906L10.4922 2.18483Z" fill="#FFCC00"/>
</g>
<defs>
<clipPath id="clip0_600_50968">
<rect width="22" height="22" fill="white" transform="translate(0 0.413818)"/>
</clipPath>
</defs>
</svg>
