<svg width="22" height="23" viewBox="0 0 22 23" fill="none" xmlns="http://www.w3.org/2000/svg">
<g clip-path="url(#clip0_976_52055)">
<path d="M10.4922 2.18483C10.6801 1.73312 11.3199 1.73312 11.5078 2.18483L13.7805 7.64905C13.8597 7.83948 14.0388 7.9696 14.2444 7.98608L20.1435 8.45901C20.6311 8.4981 20.8289 9.10668 20.4573 9.42495L15.9629 13.275C15.8062 13.4091 15.7378 13.6197 15.7857 13.8203L17.1588 19.5768C17.2723 20.0527 16.7546 20.4288 16.3371 20.1738L11.2867 17.089C11.1107 16.9815 10.8893 16.9815 10.7133 17.089L5.66287 20.1738C5.24536 20.4288 4.72767 20.0527 4.84119 19.5768L6.21432 13.8203C6.26218 13.6197 6.19377 13.4091 6.03714 13.275L1.54265 9.42495C1.17111 9.10668 1.36885 8.4981 1.85651 8.45901L7.7556 7.98608C7.96118 7.9696 8.14027 7.83948 8.21947 7.64906L10.4922 2.18483Z" fill="white"/>
<g clip-path="url(#clip1_976_52055)">
<path d="M10.9538 2.37684C10.9608 2.36012 10.9675 2.35551 10.9708 2.35341C10.9765 2.34984 10.9865 2.34605 11 2.34605C11.0135 2.34605 11.0235 2.34984 11.0292 2.35341C11.0325 2.35551 11.0392 2.36012 11.0462 2.37684L13.3189 7.84107C13.4701 8.20462 13.812 8.45301 14.2044 8.48448L20.1035 8.95741C20.1216 8.95885 20.128 8.96381 20.1311 8.96632C20.1362 8.9706 20.1429 8.97899 20.1471 8.9918C20.1513 9.0046 20.1508 9.01534 20.1491 9.02182C20.1481 9.02563 20.1458 9.03344 20.1321 9.04522L15.6376 12.8952C15.3386 13.1514 15.208 13.5533 15.2993 13.9363L16.6725 19.6928C16.6767 19.7104 16.6739 19.7181 16.6725 19.7217C16.67 19.728 16.6641 19.7369 16.6532 19.7449C16.6423 19.7528 16.632 19.7556 16.6253 19.756C16.6214 19.7563 16.6132 19.7565 16.5978 19.7471L11.5473 16.6623C11.2113 16.457 10.7887 16.457 10.4527 16.6623L5.40224 19.7471C5.38678 19.7565 5.37864 19.7563 5.37472 19.756C5.36805 19.7556 5.35768 19.7528 5.34679 19.7448C5.33589 19.7369 5.32998 19.728 5.32751 19.7217C5.32606 19.7181 5.32334 19.7104 5.32754 19.6928L6.70068 13.9363C6.79204 13.5533 6.66145 13.1514 6.36242 12.8952L1.86793 9.04522C1.85418 9.03344 1.85187 9.02563 1.8509 9.02182C1.84925 9.01534 1.84875 9.0046 1.85291 8.9918C1.85707 8.97899 1.86379 8.97059 1.86893 8.96632C1.87195 8.96381 1.87841 8.95885 1.89646 8.95741L7.79556 8.48448C8.18803 8.45301 8.52993 8.20462 8.68113 7.84107L10.9538 2.37684Z" fill="white" stroke="#F8A21F"/>
</g>
</g>
<defs>
<clipPath id="clip0_976_52055">
<rect width="22" height="22" fill="white" transform="translate(0 0.413818)"/>
</clipPath>
<clipPath id="clip1_976_52055">
<rect width="22" height="22" fill="white" transform="translate(0 0.413818)"/>
</clipPath>
</defs>
</svg>
