<svg width="40" height="40" viewBox="0 0 40 40" fill="none" xmlns="http://www.w3.org/2000/svg">
<path d="M5.62973e-06 19.9754C0.00820907 8.92537 8.97457 -0.0163843 20.0246 2.25422e-05C31.0746 0.0164294 40.0164 8.98279 40 20.0246C39.9836 31.0665 31.0336 40 20 40C8.94996 39.9918 -0.00819781 31.0336 5.62973e-06 19.9754ZM19.5898 26.8253C18.0394 26.8745 16.4889 26.735 14.9713 26.4151C13.8474 26.1854 12.9122 25.4307 12.4446 24.3806C11.9934 23.3388 11.7719 21.7309 11.7883 19.557C11.7966 18.425 11.8704 17.2847 12.0016 16.1608C12.1329 15.0615 12.2641 14.1592 12.3954 13.4455L12.5349 12.74C12.5349 12.7154 12.5349 12.6989 12.5349 12.6743C12.5349 12.4775 12.3954 12.3052 12.1985 12.2724L9.61444 11.8704H9.55701C9.36833 11.8704 9.20426 12.0017 9.16325 12.1821C9.12223 12.3462 9.08942 12.4693 9.01559 12.863C8.86792 13.6259 8.72847 14.3642 8.5808 15.4471C8.42494 16.6202 8.3265 17.8015 8.29368 18.9828C8.23626 19.8113 8.23626 20.6317 8.29368 21.4602C8.35111 23.6505 8.72847 25.3979 9.41755 26.7022C10.1066 28.0148 11.2797 28.95 12.9286 29.5242C14.5775 30.0984 16.8745 30.3774 19.8195 30.3692H20.1887C23.1337 30.3774 25.4307 30.0984 27.0796 29.5242C28.7285 28.95 29.8933 28.0066 30.5906 26.7022C31.2797 25.3897 31.6571 23.6423 31.7227 21.4602C31.7801 20.6317 31.7801 19.8113 31.7227 18.9828C31.6899 17.8015 31.5915 16.6202 31.4356 15.4471C31.2879 14.3807 31.1485 13.6423 31.0008 12.863C30.9188 12.4693 30.8942 12.3462 30.8531 12.1821C30.8121 12.0017 30.6481 11.8704 30.4594 11.8704H30.3938L27.8097 12.2724C27.6128 12.3052 27.4733 12.4775 27.4733 12.6743C27.4733 12.6989 27.4733 12.7154 27.4733 12.74L27.6128 13.4455C27.744 14.1592 27.8753 15.0615 28.0066 16.1608C28.1378 17.2929 28.2116 18.425 28.2198 19.557C28.2445 21.7309 28.023 23.3306 27.5636 24.3806C27.1042 25.4225 26.169 26.1854 25.0533 26.4151C23.5357 26.735 21.9852 26.8745 20.4348 26.8335L19.5898 26.8253Z" fill="#3544B1"/>
</svg>
