<svg width="129" height="40" viewBox="0 0 129 40" fill="none" xmlns="http://www.w3.org/2000/svg">
<path d="M5.62973e-06 19.9754C0.00820907 8.92537 8.97457 -0.0163843 20.0246 2.25422e-05C31.0746 0.0164294 40.0164 8.98279 40 20.0246C39.9836 31.0665 31.0336 40 20 40C8.94996 39.9918 -0.00819781 31.0336 5.62973e-06 19.9754ZM19.5898 26.8253C18.0394 26.8745 16.4889 26.735 14.9713 26.4151C13.8474 26.1854 12.9122 25.4307 12.4446 24.3806C11.9934 23.3388 11.7719 21.7309 11.7883 19.557C11.7966 18.4249 11.8704 17.2847 12.0016 16.1608C12.1329 15.0615 12.2641 14.1592 12.3954 13.4455L12.5349 12.74C12.5349 12.7154 12.5349 12.6989 12.5349 12.6743C12.5349 12.4775 12.3954 12.3052 12.1985 12.2724L9.61444 11.8704H9.55701C9.36833 11.8704 9.20426 12.0017 9.16325 12.1821C9.12223 12.3462 9.08942 12.4693 9.01559 12.863C8.86792 13.6259 8.72847 14.3642 8.5808 15.4471C8.42494 16.6202 8.3265 17.8015 8.29368 18.9828C8.23626 19.8113 8.23626 20.6317 8.29368 21.4602C8.35111 23.6505 8.72847 25.3979 9.41755 26.7022C10.1066 28.0148 11.2797 28.95 12.9286 29.5242C14.5775 30.0984 16.8745 30.3774 19.8195 30.3692H20.1887C23.1337 30.3774 25.4307 30.0984 27.0796 29.5242C28.7285 28.95 29.8933 28.0066 30.5906 26.7022C31.2797 25.3897 31.6571 23.6423 31.7227 21.4602C31.7801 20.6317 31.7801 19.8113 31.7227 18.9828C31.6899 17.8015 31.5915 16.6202 31.4356 15.4471C31.2879 14.3807 31.1485 13.6423 31.0008 12.863C30.9188 12.4693 30.8942 12.3462 30.8531 12.1821C30.8121 12.0017 30.6481 11.8704 30.4594 11.8704H30.3938L27.8097 12.2724C27.6128 12.3052 27.4733 12.4775 27.4733 12.6743C27.4733 12.6989 27.4733 12.7154 27.4733 12.74L27.6128 13.4455C27.744 14.1592 27.8753 15.0615 28.0066 16.1608C28.1378 17.2929 28.2116 18.4249 28.2198 19.557C28.2445 21.7309 28.023 23.3306 27.5636 24.3806C27.1042 25.4225 26.169 26.1854 25.0533 26.4151C23.5357 26.735 21.9852 26.8745 20.4348 26.8335L19.5898 26.8253Z" fill="#3544B1"/>
<path d="M119.557 21.7772C119.557 18.5434 120.476 16.2753 124.216 16.2753C127.955 16.2753 128.875 18.5434 128.875 21.7772C128.875 25.0109 127.955 27.2791 124.216 27.2791C120.476 27.2791 119.557 25.0109 119.557 21.7772ZM126.499 21.7772C126.499 19.5243 126.208 18.2523 124.216 18.2523C122.223 18.2523 121.932 19.5396 121.932 21.7772C121.932 24.0147 122.223 25.3021 124.216 25.3021C126.208 25.3021 126.499 24.0147 126.499 21.7772Z" fill="#041A45"/>
<path d="M55.0204 26.8653C55.0817 26.9572 55.1736 27.0185 55.2962 27.0185H56.1698C56.3384 27.0185 56.4763 26.8806 56.4763 26.712V16.8423C56.4763 16.6737 56.3384 16.5358 56.1698 16.5358H54.4227C54.2541 16.5358 54.1162 16.6737 54.1162 16.8423V24.6737C53.3805 25.0875 52.5376 25.3021 51.6794 25.2867C50.5759 25.2867 50.0242 24.7963 50.0242 23.7388V16.8423C50.0242 16.6737 49.8863 16.5358 49.7177 16.5358H47.9706C47.802 16.5358 47.6641 16.6737 47.6641 16.8423V23.9381C47.6641 25.9458 48.6143 27.2791 51.2656 27.2791C52.4763 27.2638 53.6717 26.8806 54.6679 26.191L54.9744 26.8806L55.0204 26.8653Z" fill="#041A45"/>
<path d="M74.5911 19.6162C74.5911 17.6239 73.6102 16.2753 71.1122 16.2753C69.9168 16.2753 68.752 16.6431 67.7558 17.3174C67.3114 16.6737 66.4685 16.2753 65.0738 16.2753C63.9244 16.2906 62.821 16.6737 61.9167 17.3634L61.6102 16.6737C61.5489 16.5818 61.457 16.5205 61.3344 16.5205H60.4608C60.2922 16.5205 60.1543 16.6584 60.1543 16.827V26.6967C60.1543 26.8653 60.2922 27.0032 60.4608 27.0032H62.1926C62.3612 27.0032 62.4991 26.8653 62.4991 26.6967V18.8806C63.1581 18.4822 63.9244 18.2676 64.706 18.2676C65.6562 18.2676 66.1926 18.6201 66.1926 19.6162V26.712C66.1926 26.8806 66.3305 27.0185 66.4991 27.0185H68.2309C68.3995 27.0185 68.5374 26.8806 68.5374 26.712V18.8806C69.1964 18.4668 69.9627 18.2523 70.7443 18.2676C71.6639 18.2676 72.2309 18.6201 72.2309 19.6162V26.712C72.2309 26.8806 72.3689 27.0185 72.5374 27.0185H74.2692C74.4378 27.0185 74.5758 26.8806 74.5758 26.712L74.5911 19.6162Z" fill="#041A45"/>
<path d="M79.9555 26.191C80.9364 26.9266 82.1318 27.3097 83.3578 27.2791C86.4229 27.2791 87.557 25.2254 87.557 21.7772C87.557 18.3289 86.4229 16.2753 83.3578 16.2753C82.3616 16.2753 81.3808 16.5664 80.5379 17.0875V13.9151C80.5379 13.7465 80.4153 13.6086 80.2467 13.5933C80.2467 13.5933 80.2467 13.5933 80.2314 13.5933H78.4842C78.3157 13.5933 78.1777 13.7312 78.1777 13.8998V26.712C78.1777 26.8806 78.3157 27.0185 78.4842 27.0185H79.3578C79.4651 27.0185 79.5724 26.9572 79.6337 26.8653L79.9555 26.191ZM82.8061 25.2867C82.0092 25.2867 81.2275 25.0722 80.5379 24.6737V18.8806C81.2275 18.4822 82.0092 18.2676 82.8061 18.2676C84.8597 18.2676 85.1816 19.8461 85.1816 21.7772C85.1816 23.7082 84.8751 25.2867 82.8061 25.2867Z" fill="#041A45"/>
<path d="M96.2473 18.3442C95.9714 18.3136 95.7109 18.2829 95.435 18.2982C94.5002 18.2523 93.5653 18.4822 92.753 18.9266V26.712C92.753 26.8806 92.6151 27.0186 92.4465 27.0186H90.7147C90.5461 27.0186 90.4082 26.8806 90.4082 26.712V16.8423C90.4082 16.6737 90.5461 16.5358 90.7147 16.5358H91.5883C91.6956 16.5358 91.8028 16.5971 91.8641 16.6891L92.1707 17.3787C93.1208 16.6584 94.2856 16.2753 95.481 16.2906C95.7569 16.2906 96.0327 16.3212 96.3086 16.3672C96.4618 16.3672 96.5998 16.6278 96.5998 16.7963V18.053C96.5998 18.2216 96.4618 18.3596 96.2933 18.3596L96.2473 18.3442Z" fill="#041A45"/>
<path d="M102.254 22.1756C101.212 22.2982 100.599 22.6967 100.599 23.7848C100.599 24.5818 100.952 25.3327 102.208 25.3327C103.005 25.3327 103.802 25.1028 104.461 24.6431V21.9304L102.254 22.1756ZM105.043 26.191C104.139 26.8959 103.02 27.2791 101.871 27.2791C99.1584 27.2791 98.2695 25.6086 98.2695 23.9228C98.2695 21.6546 99.7408 20.689 102.116 20.5051L104.461 20.3212V19.8002C104.461 18.7274 103.955 18.3136 102.407 18.3136C101.427 18.3136 100.461 18.4821 99.5416 18.7887C99.5109 18.7887 99.4803 18.7887 99.4496 18.7887C99.281 18.7887 99.1431 18.6507 99.1431 18.4821V17.0875C99.1431 16.9496 99.2197 16.8423 99.3423 16.7963C100.384 16.4438 101.488 16.2753 102.576 16.2753C106.024 16.2753 106.806 17.7772 106.806 20.0147V26.712C106.806 26.8806 106.668 27.0185 106.499 27.0185H105.626C105.519 27.0185 105.411 26.9572 105.35 26.8653L105.043 26.191Z" fill="#041A45"/>
<path d="M116.997 24.8576C117.028 24.8576 117.059 24.8576 117.089 24.8576C117.258 24.8576 117.396 24.9955 117.396 25.1641V26.5587C117.396 26.6814 117.319 26.804 117.212 26.8499C116.338 27.1565 115.434 27.3097 114.514 27.2944C110.806 27.2944 109.656 25.0722 109.656 21.7925C109.656 18.5128 110.79 16.2905 114.514 16.2905C115.434 16.2599 116.338 16.4132 117.196 16.7197C117.319 16.7656 117.396 16.8882 117.396 17.0109V18.4055C117.396 18.5741 117.258 18.712 117.089 18.712C117.059 18.712 117.028 18.712 116.982 18.712C116.231 18.4668 115.434 18.3595 114.637 18.3748C112.599 18.3748 112.016 19.7695 112.016 21.7925C112.016 23.8155 112.599 25.2101 114.637 25.2101C115.434 25.2254 116.216 25.1028 116.982 24.8576" fill="#041A45"/>
</svg>
