<svg width="220" height="210" viewBox="0 0 220 210" fill="none" xmlns="http://www.w3.org/2000/svg">
<path d="M8.05426 9.49928L48.9814 0.268128C54.6657 -1.02423 60.1605 2.48361 61.2974 8.02229L61.6763 9.49928C86.6873 100.149 169.299 97.3799 197.911 92.949C198.1 92.949 198.1 92.949 198.289 92.949C202.837 92.2105 207.384 94.4259 209.279 98.4877C209.469 99.0415 209.848 99.5954 210.037 100.149C210.227 100.519 210.227 100.888 210.416 101.072L219.7 140.397C219.7 140.766 219.89 141.136 219.89 141.505C220.648 146.49 217.427 151.29 212.311 152.582C211.174 152.951 210.037 153.321 208.711 153.69C181.615 161.444 153.952 183.414 130.457 210C135.762 200.4 145.994 173.998 148.078 164.398C152.246 143.905 147.32 122.858 134.246 106.242C113.783 80.3946 79.1082 57.8705 22.0756 69.1326C16.3913 70.2403 10.8964 66.9171 9.75955 61.3784L0.285692 21.6844C-1.04065 16.3303 2.36995 10.7917 8.05426 9.49928Z" fill="white" fill-opacity="0.15"/>
</svg>
