<svg width="93" height="93" viewBox="0 0 93 93" fill="none" xmlns="http://www.w3.org/2000/svg">
<g opacity="0.05">
<path d="M25.3992 25.0647L36.3338 23.1341C37.8526 22.8632 39.2588 23.8691 39.4869 25.3598L39.5678 25.7583C44.9938 50.2392 66.8586 50.5698 74.4764 49.7591C74.5264 49.7615 74.5264 49.7615 74.5765 49.764C75.7877 49.626 76.9604 50.2752 77.4081 51.3821C77.4509 51.5322 77.5438 51.6847 77.5866 51.8347C77.6319 51.9356 77.6271 52.034 77.6747 52.0856L79.6149 62.6854C79.6101 62.7838 79.6554 62.8846 79.6505 62.983C79.7858 64.3213 78.872 65.5588 77.5034 65.837C77.1982 65.9207 76.893 66.0044 76.5377 66.0857C69.2771 67.8016 61.6809 73.2986 55.1259 80.0795C56.653 77.5897 59.701 70.6864 60.377 68.155C61.7458 62.7477 60.7186 57.0751 57.4809 52.478C52.411 45.3252 43.5428 38.8743 28.3261 41.1377C26.8096 41.3594 25.4011 40.4027 25.1729 38.912L23.1875 28.2114C22.9069 26.7674 23.8803 25.3355 25.3992 25.0647Z" fill="white"/>
</g>
</svg>
