<svg width="119" height="126" viewBox="0 0 119 126" fill="none" xmlns="http://www.w3.org/2000/svg">
<path d="M113.68 119.904L88.9133 125.401C85.4735 126.17 82.1484 124.082 81.4604 120.784L81.2311 119.904C66.096 65.9309 16.1045 67.5798 -1.20913 70.218C-1.32379 70.218 -1.32379 70.218 -1.43845 70.218C-4.19028 70.6577 -6.94211 69.3386 -8.08871 66.9202C-8.20337 66.5905 -8.43269 66.2607 -8.54735 65.9309C-8.662 65.711 -8.662 65.4912 -8.77666 65.3813L-14.395 41.9671C-14.395 41.7473 -14.5096 41.5274 -14.5096 41.3076C-14.9683 38.3396 -13.0191 35.4815 -9.92326 34.712C-9.2353 34.4922 -8.54734 34.2723 -7.74473 34.0525C8.65159 29.4356 25.3919 16.3544 39.6097 0.525146C36.3992 6.24128 30.2076 21.9606 28.9463 27.6768C26.4238 39.8785 29.405 52.41 37.3165 62.3034C49.6997 77.6929 70.6824 91.1039 105.195 84.3984C108.635 83.7389 111.96 85.7175 112.648 89.0153L118.381 112.649C119.183 115.837 117.12 119.135 113.68 119.904Z" fill="white" fill-opacity="0.1"/>
</svg>
