<svg width="233" height="176" viewBox="0 0 233 176" fill="none" xmlns="http://www.w3.org/2000/svg">
<path d="M223.262 164.51L173.777 175.676C166.904 177.239 160.26 172.996 158.886 166.297L158.428 164.51C128.187 54.8671 28.3016 58.2167 -6.29178 63.576C-6.52087 63.576 -6.52087 63.576 -6.74997 63.576C-12.2483 64.4693 -17.7465 61.7896 -20.0375 56.8769C-20.2666 56.2069 -20.7248 55.537 -20.9539 54.8671C-21.183 54.4205 -21.183 53.9739 -21.4121 53.7506L-32.6377 6.18639C-32.6377 5.73978 -32.8668 5.29317 -32.8668 4.84655C-33.7832 -1.18271 -29.8886 -6.98867 -23.703 -8.55181C-22.3284 -8.99842 -20.9539 -9.44505 -19.3502 -9.89166C13.4104 -19.2705 46.8583 -45.8439 75.2661 -78C68.8515 -66.3881 56.4803 -34.4553 53.9603 -22.8434C48.9202 1.94357 54.8767 27.4005 70.6842 47.498C95.4265 78.7608 137.351 106.004 206.309 92.3825C213.181 91.0427 219.825 95.0622 221.2 101.761L232.655 149.772C234.258 156.248 230.135 162.947 223.262 164.51Z" fill="white" fill-opacity="0.15"/>
</svg>
