<svg width="48" height="48" viewBox="0 0 48 48" fill="none" xmlns="http://www.w3.org/2000/svg">
<rect width="48" height="48" rx="24" fill="#FF244A" fill-opacity="0.1"/>
<path d="M34 25C34 30.5228 29.5228 35 24 35M34 25C34 19.4772 29.5228 15 24 15M34 25H14M24 35C18.4772 35 14 30.5228 14 25M24 35C26.5013 32.2616 27.9228 28.708 28 25C27.9228 21.292 26.5013 17.7384 24 15M24 35C21.4987 32.2616 20.0772 28.708 20 25C20.0772 21.292 21.4987 17.7384 24 15M14 25C14 19.4772 18.4772 15 24 15" stroke="#FF244A" stroke-width="2" stroke-linecap="round" stroke-linejoin="round"/>
</svg>
