<svg width="20" height="20" viewBox="0 0 20 20" fill="none" xmlns="http://www.w3.org/2000/svg">
<path d="M4.16602 12.5H3.33268C2.89065 12.5 2.46673 12.3244 2.15417 12.0119C1.84161 11.6993 1.66602 11.2754 1.66602 10.8334V3.33335C1.66602 2.89133 1.84161 2.4674 2.15417 2.15484C2.46673 1.84228 2.89065 1.66669 3.33268 1.66669H10.8327C11.2747 1.66669 11.6986 1.84228 12.0112 2.15484C12.3238 2.4674 12.4993 2.89133 12.4993 3.33335V4.16669M9.16602 7.50002H16.666C17.5865 7.50002 18.3327 8.24621 18.3327 9.16669V16.6667C18.3327 17.5872 17.5865 18.3334 16.666 18.3334H9.16602C8.24554 18.3334 7.49935 17.5872 7.49935 16.6667V9.16669C7.49935 8.24621 8.24554 7.50002 9.16602 7.50002Z" stroke="#FF244A" stroke-width="1.67" stroke-linecap="round" stroke-linejoin="round"/>
</svg>
