<svg width="48" height="48" viewBox="0 0 48 48" fill="none" xmlns="http://www.w3.org/2000/svg">
<circle cx="24" cy="24" r="23.25" fill="white" stroke="#041A45" stroke-width="1.5"/>
<path d="M12.75 26.85C12.9489 26.85 13.1397 26.929 13.2803 27.0697C13.421 27.2103 13.5 27.4011 13.5 27.6V31.35C13.5 31.7478 13.658 32.1294 13.9393 32.4107C14.2206 32.692 14.6022 32.85 15 32.85H33C33.3978 32.85 33.7794 32.692 34.0607 32.4107C34.342 32.1294 34.5 31.7478 34.5 31.35V27.6C34.5 27.4011 34.579 27.2103 34.7197 27.0697C34.8603 26.929 35.0511 26.85 35.25 26.85C35.4489 26.85 35.6397 26.929 35.7803 27.0697C35.921 27.2103 36 27.4011 36 27.6V31.35C36 32.1456 35.6839 32.9087 35.1213 33.4713C34.5587 34.0339 33.7956 34.35 33 34.35H15C14.2044 34.35 13.4413 34.0339 12.8787 33.4713C12.3161 32.9087 12 32.1456 12 31.35V27.6C12 27.4011 12.079 27.2103 12.2197 27.0697C12.3603 26.929 12.5511 26.85 12.75 26.85Z" fill="#041A45"/>
<path d="M23.4699 13.7203C23.5396 13.6505 23.6224 13.5951 23.7135 13.5573C23.8046 13.5195 23.9023 13.5 24.0009 13.5C24.0996 13.5 24.1973 13.5195 24.2884 13.5573C24.3795 13.5951 24.4623 13.6505 24.5319 13.7203L29.0319 18.2203C29.1728 18.3612 29.2519 18.5522 29.2519 18.7513C29.2519 18.9505 29.1728 19.1415 29.0319 19.2823C28.8911 19.4232 28.7001 19.5023 28.5009 19.5023C28.3018 19.5023 28.1108 19.4232 27.9699 19.2823L24.7509 16.0618V29.2513C24.7509 29.4503 24.6719 29.641 24.5313 29.7817C24.3906 29.9223 24.1999 30.0013 24.0009 30.0013C23.802 30.0013 23.6113 29.9223 23.4706 29.7817C23.33 29.641 23.2509 29.4503 23.2509 29.2513V16.0618L20.0319 19.2823C19.8911 19.4232 19.7001 19.5023 19.5009 19.5023C19.3018 19.5023 19.1108 19.4232 18.9699 19.2823C18.8291 19.1415 18.75 18.9505 18.75 18.7513C18.75 18.5522 18.8291 18.3612 18.9699 18.2203L23.4699 13.7203Z" fill="#041A45"/>
</svg>
