<svg width="525" height="321" viewBox="0 0 525 321" fill="none" xmlns="http://www.w3.org/2000/svg">
<rect width="525" height="321" rx="10" fill="#F4FAFF"/>
<path d="M343.671 168.022C343.671 197.115 327.526 223.011 304.827 235.959C304.827 235.959 304.667 236.119 304.507 236.119C301.63 237.877 297.953 239.476 296.355 240.275H296.195C294.916 240.754 287.243 243.951 285.965 243.951C285.805 243.951 285.645 243.951 285.645 244.111C285.485 244.111 285.325 244.111 285.165 244.271C281.808 245.23 277.013 246.029 276.054 246.189C276.054 246.669 261.347 248.108 248.879 245.39C247.281 245.39 237.05 242.673 228.098 238.197C202.842 225.089 185.418 198.554 185.418 168.022C185.418 124.382 220.905 89.0552 264.545 89.0552C308.344 89.0552 343.671 124.382 343.671 168.022Z" fill="#DFECFF" stroke="#D6DCE8" stroke-width="2" stroke-miterlimit="10"/>
<path d="M288.523 200.312V243.312C288.364 243.312 286.286 244.111 286.126 244.111C285.966 244.111 285.806 244.111 285.806 244.271C285.646 244.271 285.486 244.271 285.326 244.431C281.97 245.39 277.174 246.189 276.215 246.349V200.312H288.523Z" fill="#4988FD"/>
<path d="M288.523 200.312V243.312C288.364 243.312 286.286 244.111 286.126 244.111C285.966 244.111 285.806 244.111 285.806 244.271C285.646 244.271 285.486 244.271 285.326 244.431C281.97 245.39 277.174 246.189 276.215 246.349V200.312H288.523Z" fill="white" stroke="#D6DCE8" stroke-width="2" stroke-miterlimit="10"/>
<path d="M299.715 200.312V238.836C298.916 239.316 297.477 239.795 296.358 240.435H296.198C294.12 241.394 291.723 242.353 287.566 243.632V200.472H299.715V200.312Z" fill="#2767F4"/>
<path d="M299.715 200.312V238.836C298.916 239.316 297.477 239.795 296.358 240.435H296.198C294.12 241.394 291.723 242.353 287.566 243.632V200.472H299.715V200.312Z" fill="white" stroke="#D6DCE8" stroke-width="2" stroke-miterlimit="10"/>
<path d="M349.746 152.037V200.951H311.542V201.111H234.973V113.193H307.705C308.664 113.033 309.623 113.033 310.742 113.033C312.021 113.033 313.14 113.033 314.419 113.193C316.017 113.353 317.456 113.513 318.895 113.832C326.408 115.431 333.122 119.267 338.237 124.382C345.43 131.576 349.746 141.327 349.746 152.037Z" fill="white" stroke="#D6DCE8" stroke-width="2" stroke-miterlimit="10"/>
<path d="M336.479 164.346C341.434 164.346 345.59 160.509 345.59 155.554C345.59 150.598 341.594 146.762 336.479 146.762C331.523 146.762 327.367 150.598 327.367 155.554C327.367 160.509 331.363 164.346 336.479 164.346Z" fill="#D5DAE8"/>
<path d="M336.96 164.346C341.755 164.346 345.752 160.509 345.752 155.554C345.752 150.598 341.755 146.762 336.96 146.762C332.164 146.762 328.168 150.598 328.168 155.554C328.168 160.509 332.004 164.346 336.96 164.346Z" fill="white" stroke="#D6DCE8" stroke-width="2" stroke-miterlimit="10"/>
<path d="M336.958 158.91C338.877 158.91 340.315 157.472 340.315 155.553C340.315 153.635 338.877 152.197 336.958 152.197C335.04 152.197 333.602 153.635 333.602 155.553C333.602 157.472 335.04 158.91 336.958 158.91Z" fill="#D6DCE8"/>
<path d="M273.015 148.2V201.111H195.008V148.2C195.008 131.576 206.837 117.509 222.342 113.992C224.9 113.353 227.458 113.193 230.175 113.193H238.168C255.751 113.193 270.138 125.981 272.856 142.766C272.856 144.364 273.015 146.282 273.015 148.2Z" fill="#AFB6C7" stroke="#D6DCE8" stroke-width="2" stroke-miterlimit="10"/>
<path d="M254.794 231.004C252.556 234.36 249.838 239.795 248.24 244.271C248.08 244.591 247.92 245.07 247.92 245.39C246.801 245.23 245.682 244.911 244.563 244.591C243.604 242.353 242.965 239.955 242.965 239.955C243.604 239.156 244.084 238.517 244.723 237.877C247.76 234.201 250.957 231.643 254.794 231.004Z" fill="#A1BFEB"/>
<path d="M248.883 245.55C248.563 245.55 248.243 245.39 247.924 245.39C246.805 245.23 245.686 244.911 244.567 244.591C243.767 244.431 243.128 244.111 242.329 243.951C242.009 243.792 241.689 243.792 241.37 243.632C241.05 243.472 240.73 243.472 240.251 243.312C236.094 242.033 232.098 240.275 228.262 238.357C224.265 231.643 222.028 223.49 218.191 212.141C218.191 211.981 218.191 211.981 218.031 211.821C218.031 211.821 218.351 211.821 219.15 212.141C219.63 212.461 220.429 212.78 221.388 213.42C223.306 214.699 226.344 216.937 230.819 220.613C236.414 225.249 241.21 232.122 244.567 237.717C246.005 240.275 247.284 242.513 248.243 244.271C248.563 244.591 248.723 245.07 248.883 245.55Z" fill="#C0D8FA"/>
<path d="M242.329 243.792C242.009 243.632 241.69 243.632 241.37 243.472C241.05 243.312 240.73 243.312 240.251 243.152C232.898 228.446 224.585 219.015 219.79 213.58C219.31 212.94 218.831 212.461 218.351 211.981C218.351 211.821 218.351 211.821 218.191 211.661C218.191 211.661 218.511 211.661 219.31 211.981C219.79 212.301 220.589 212.621 221.548 213.26C226.504 219.015 234.976 228.766 242.329 243.792Z" fill="#EAEEF9"/>
<path d="M316.98 209.423C316.98 209.423 316.82 209.743 316.5 210.383C314.582 213.899 308.188 225.568 305.151 235.799C304.991 235.799 304.991 235.959 304.831 235.959C304.831 235.959 304.671 236.119 304.512 236.119C301.634 237.877 297.958 239.476 296.359 240.275H296.199C291.404 242.513 286.288 243.951 285.969 243.951C288.367 236.119 291.883 229.085 296.839 223.171C297.798 222.052 298.757 220.933 299.716 219.974C299.876 219.814 300.036 219.654 300.196 219.494C304.352 215.338 308.668 212.62 312.824 210.862C313.303 210.702 313.783 210.383 314.262 210.223C314.742 209.903 315.541 209.743 316.341 209.423C316.66 209.583 316.82 209.423 316.98 209.423Z" fill="#C0D8FA"/>
<path d="M316.818 209.104C316.818 209.104 316.658 209.264 316.498 209.743C316.498 209.903 316.338 209.903 316.338 210.063C308.026 217.416 301.472 229.725 297.316 239.955C296.996 240.115 296.677 240.275 296.357 240.435H296.197C295.877 240.595 295.398 240.755 295.078 240.914C295.238 240.595 295.398 240.435 295.398 240.435C297.476 235.32 303.071 220.773 312.822 211.022C313.141 210.702 313.461 210.383 313.781 210.063C314.9 209.743 315.859 209.424 316.818 209.104Z" fill="#EAEEF9"/>
<path d="M273.498 195.517V201.111H166.877C165.279 201.111 164 199.833 164 198.394C164 196.795 165.279 195.517 166.877 195.517H273.498Z" fill="#F1F3F9" stroke="#D6DCE8" stroke-width="2" stroke-miterlimit="10"/>
<path d="M339.25 113.6L339.25 155.641C339.25 156.92 338.291 157.879 337.012 157.879C335.733 157.879 334.774 156.92 334.774 155.641L334.774 113.6L339.25 113.6Z" fill="white" stroke="#D6DCE8" stroke-width="2" stroke-miterlimit="10"/>
<path d="M360.671 112.161C361.311 112.641 360.991 113.76 360.032 113.76L339.411 113.76L334.615 113.76L334.615 96.496L360.032 96.496C360.831 96.496 361.311 97.4551 360.671 98.0945L353.957 103.689C352.998 104.489 352.998 105.927 353.957 106.726L360.671 112.161Z" fill="white" stroke="#D6DCE8" stroke-width="2" stroke-miterlimit="10"/>
<path d="M333 228C335.761 228 338 225.761 338 223C338 220.239 335.761 218 333 218C330.239 218 328 220.239 328 223C328 225.761 330.239 228 333 228Z" fill="#DFECFF"/>
<path d="M176.567 225.812C180.508 225.812 183.704 222.616 183.704 218.675C183.704 214.733 180.508 211.538 176.567 211.538C172.625 211.538 169.43 214.733 169.43 218.675C169.43 222.616 172.625 225.812 176.567 225.812Z" fill="#DFECFF"/>
<rect x="192.508" y="148.146" width="70.0294" height="47.5974" rx="3" fill="white" stroke="#D6DCE8" stroke-width="2"/>
<path d="M222.386 169.887L194.045 148.9C194.681 148.426 195.468 148.146 196.321 148.146H258.722C259.575 148.146 260.362 148.426 260.998 148.9L232.657 169.887C229.606 172.146 225.437 172.146 222.386 169.887L221.791 170.691L222.386 169.887Z" fill="#F4FAFF" stroke="#D6DCE8" stroke-width="2"/>
<path d="M330.934 90.6666L325 75" stroke="#247DFF" stroke-width="2.5"/>
<path d="M327.132 96.5212L315.145 92.3672" stroke="#247DFF" stroke-width="2.5"/>
<path d="M337.945 88.2928L339.251 76.0681" stroke="#247DFF" stroke-width="2.5"/>
</svg>
