<svg width="525" height="321" viewBox="0 0 525 321" fill="none" xmlns="http://www.w3.org/2000/svg">
<rect width="525" height="321" rx="10" fill="#F4FAFF"/>
<path d="M268.665 247C316.475 247 355.248 208.519 355.248 161C355.248 113.481 316.475 75 268.665 75C220.855 75 182.082 113.481 182.082 161C182.082 208.519 220.855 247 268.665 247Z" fill="#DFECFF" stroke="#D6DCE8" stroke-width="2" stroke-miterlimit="10"/>
<path d="M353.031 119.895C356.332 119.895 359.007 117.219 359.007 113.919C359.007 110.618 356.332 107.942 353.031 107.942C349.73 107.942 347.055 110.618 347.055 113.919C347.055 117.219 349.73 119.895 353.031 119.895Z" fill="#DFECFF"/>
<path d="M347.062 100.509C349.316 100.509 351.143 98.6813 351.143 96.4272C351.143 94.1731 349.316 92.3458 347.062 92.3458C344.808 92.3458 342.98 94.1731 342.98 96.4272C342.98 98.6813 344.808 100.509 347.062 100.509Z" fill="#DFECFF"/>
<path d="M181.761 113.919C184.015 113.919 185.842 112.091 185.842 109.837C185.842 107.583 184.015 105.756 181.761 105.756C179.507 105.756 177.68 107.583 177.68 109.837C177.68 112.091 179.507 113.919 181.761 113.919Z" fill="#DFECFF"/>
<path d="M172.58 203.709C176.766 203.709 180.159 200.315 180.159 196.129C180.159 191.943 176.766 188.549 172.58 188.549C168.394 188.549 165 191.943 165 196.129C165 200.315 168.394 203.709 172.58 203.709Z" fill="#DFECFF"/>
<path d="M348.435 138.251V217.168C348.435 217.493 348.435 217.656 348.435 217.981C348.272 222.537 346.157 226.443 342.903 229.209C340.136 231.649 336.394 233.277 332.326 233.277H204.92C202.154 233.277 199.55 232.626 197.272 231.324C196.296 230.836 195.32 230.185 194.506 229.371C192.716 227.907 191.089 225.792 190.276 223.514C189.625 221.887 189.137 220.097 189.137 218.307V138.251C189.137 138.251 195.808 132.556 205.408 124.746C215.334 116.447 228.351 105.708 239.741 96.2704C246.25 90.738 245.599 91.3889 255.687 82.9277C263.335 76.4191 274.562 76.4191 282.21 82.9277C284.162 84.5549 286.278 86.5075 288.23 88.1346C292.461 91.5516 297.017 95.4568 301.898 99.5247C312.149 107.986 323.377 117.423 332.163 124.746C341.113 132.068 347.621 137.6 348.435 138.251Z" fill="#F1F3F9" stroke="#D6DCE8" stroke-width="2" stroke-miterlimit="10"/>
<path opacity="0.14" d="M332.167 126.04V154.353L304.342 171.112L296.044 176.157L278.47 186.733L270.172 191.777L266.592 193.893L263.175 191.777L255.365 186.733L238.605 176.157L230.795 171.112L205.086 155.004V126.203C215.012 117.905 228.029 107.165 239.419 97.7279L301.739 100.819C312.153 109.443 323.38 118.718 332.167 126.04Z" fill="#989FB0"/>
<path d="M326.634 103.586V153.377L301.251 168.509L293.766 173.065L277.657 182.503L270.172 187.059L266.918 188.848L263.826 187.059L256.667 182.503L241.372 173.065L234.212 168.509L210.781 153.865V103.586C210.781 98.3788 215.012 94.1482 220.381 94.1482H317.034C322.241 93.9855 326.634 98.3788 326.634 103.586Z" fill="white" stroke="#D6DCE8" stroke-width="2" stroke-miterlimit="10"/>
<path d="M288.149 106H233.191C231.981 106 231 106.981 231 108.191C231 109.402 231.981 110.383 233.191 110.383H288.149C289.359 110.383 290.34 109.402 290.34 108.191C290.34 106.981 289.359 106 288.149 106Z" fill="#247DFF"/>
<path d="M256.011 122.271H233.191C231.981 122.271 231 123.252 231 124.463V124.463C231 125.673 231.981 126.654 233.191 126.654H256.011C257.221 126.654 258.202 125.673 258.202 124.463C258.202 123.252 257.221 122.271 256.011 122.271Z" fill="#247DFF"/>
<path d="M304 138.542H233.191C231.981 138.542 231 139.524 231 140.734V140.734C231 141.944 231.981 142.925 233.191 142.925H304C305.21 142.925 306.191 141.944 306.191 140.734C306.191 139.524 305.21 138.542 304 138.542Z" fill="#247DFF"/>
<path d="M304 154.814H233.191C231.981 154.814 231 155.795 231 157.005C231 158.215 231.981 159.197 233.191 159.197H304C305.21 159.197 306.191 158.215 306.191 157.005C306.191 155.795 305.21 154.814 304 154.814Z" fill="#247DFF"/>
<path d="M304.176 171.085H233.191C231.981 171.085 231 172.066 231 173.276C231 174.487 231.981 175.468 233.191 175.468H304.176C305.387 175.468 306.368 174.487 306.368 173.276C306.368 172.066 305.387 171.085 304.176 171.085Z" fill="#247DFF"/>
<path d="M348.435 139.708V219.439C348.272 223.995 346.157 227.9 342.903 230.666C340.136 233.107 336.394 234.734 332.326 234.734H204.92C202.154 234.734 199.55 234.083 197.272 232.782C196.296 232.293 195.32 231.643 194.506 230.829C192.716 229.365 191.089 227.249 190.276 224.971C189.625 223.344 189.137 221.554 189.137 219.764V219.602V139.708L260.406 184.292L266.589 188.198L268.704 186.896L270.657 185.757L348.435 139.708Z" fill="#738DFF"/>
<path d="M343.065 230.666C340.299 233.107 336.557 234.734 332.489 234.734H204.92C202.154 234.734 199.55 234.083 197.272 232.782C196.296 232.293 195.32 231.643 194.506 230.829C192.716 229.365 191.089 227.249 190.276 224.971C189.625 223.344 189.137 221.554 189.137 219.764V219.602V139.708L197.435 144.753L268.704 186.896L270.657 188.035L270.82 188.198L334.767 225.948L343.065 230.666Z" fill="white" stroke="#D6DCE8" stroke-width="2" stroke-miterlimit="10"/>
<path d="M348.436 139.708V219.439C348.274 223.995 346.158 227.9 342.904 230.666C340.138 233.107 336.395 234.734 332.328 234.734H204.922C202.155 234.734 199.552 234.083 197.274 232.782C196.298 232.293 195.321 231.643 194.508 230.829L202.644 225.948L266.591 188.198L268.706 186.896L270.659 185.757L339.975 144.59L348.436 139.708Z" fill="white" stroke="#D6DCE8" stroke-width="2" stroke-miterlimit="10"/>
<path d="M329.236 195.52H286.93C285.954 195.52 285.141 194.706 285.141 193.73C285.141 192.754 285.954 191.94 286.93 191.94H329.236C330.213 191.94 331.026 192.754 331.026 193.73C331.189 194.706 330.375 195.52 329.236 195.52Z" fill="#D6DCE8"/>
<path d="M329.236 207.723H286.93C285.954 207.723 285.141 206.91 285.141 205.934C285.141 204.957 285.954 204.144 286.93 204.144H329.236C330.213 204.144 331.026 204.957 331.026 205.934C331.189 206.91 330.375 207.723 329.236 207.723Z" fill="#D6DCE8"/>
<path d="M338.02 233.107L343.226 230.504C343.064 230.666 343.064 230.666 342.901 230.829C342.901 230.829 342.901 230.829 342.738 230.829L338.02 233.107Z" fill="#526DFF"/>
</svg>
