<svg width="423" height="317" viewBox="0 0 423 317" fill="none" xmlns="http://www.w3.org/2000/svg">
<g clip-path="url(#clip0_593_50731)">
<path d="M423 277.726H0V277.937H423V277.726Z" fill="#EBEBEB"/>
<path d="M72.4004 285.801H44.3809V286.013H72.4004V285.801Z" fill="#EBEBEB"/>
<path d="M152.136 283.502H129.811V283.714H152.136V283.502Z" fill="#EBEBEB"/>
<path d="M114.963 290.806H76.1143V291.018H114.963V290.806Z" fill="#EBEBEB"/>
<path d="M380.615 292.257H362.342V292.469H380.615V292.257Z" fill="#EBEBEB"/>
<path d="M358.23 292.257H331.184V292.469H358.23V292.257Z" fill="#EBEBEB"/>
<path d="M281.151 288.677H234.52V288.889H281.151V288.677Z" fill="#EBEBEB"/>
<path d="M59.533 139.838L288.427 139.838V12.062L59.533 12.062L59.533 139.838Z" fill="#0F2E5C"/>
<path d="M46.9701 139.838L287.276 139.838V12.062L46.9701 12.062L46.9701 139.838Z" fill="#0F2E5C"/>
<path d="M283.343 135.893V15.998L50.8874 15.998V135.893H283.343Z" fill="#17386A"/>
<path d="M189.224 135.902L145.334 15.998H217.769L261.659 135.902H189.224Z" fill="#0F2E5C"/>
<path d="M119.506 135.902L75.6152 15.998H130.258L174.14 135.902H119.506Z" fill="#0F2E5C"/>
<path d="M365.895 273.765H378.924V185.858H365.895V273.765Z" fill="#0F2E5C"/>
<path d="M233.344 277.726H376.411V273.764H233.344V277.726Z" fill="#0F2E5C"/>
<path d="M365.895 185.849H230.848V273.755H365.895V185.849Z" fill="#17386A"/>
<path d="M367.248 185.849H380.564V182.388H367.248V185.849Z" fill="#0F2E5C"/>
<path d="M367.24 182.396H229.207V185.857H367.24V182.396Z" fill="#0F2E5C"/>
<path d="M361.301 227.516H235.434V193.017H361.301V227.516ZM236.5 226.49H360.235V194.085H236.5V226.49Z" fill="#15325D"/>
<path d="M361.301 266.597H235.434V232.572H361.301V266.597ZM236.5 265.511H360.235V233.641H236.5V265.511Z" fill="#15325E"/>
<path d="M260.399 199.897H336.336C336.708 199.897 337.065 199.748 337.329 199.484C337.592 199.22 337.74 198.862 337.74 198.489C337.738 198.117 337.589 197.761 337.326 197.498C337.063 197.236 336.707 197.089 336.336 197.089H260.399C260.029 197.089 259.674 197.236 259.412 197.499C259.15 197.761 259.003 198.117 259.003 198.489C259.002 198.673 259.037 198.856 259.107 199.027C259.176 199.198 259.279 199.353 259.409 199.484C259.539 199.615 259.693 199.718 259.863 199.789C260.033 199.86 260.215 199.897 260.399 199.897Z" fill="#15325D"/>
<path d="M260.399 239.46H336.336C336.708 239.458 337.063 239.309 337.326 239.045C337.589 238.781 337.738 238.424 337.74 238.052C337.738 237.679 337.589 237.322 337.326 237.058C337.063 236.795 336.708 236.646 336.336 236.644H260.399C260.028 236.646 259.673 236.795 259.411 237.059C259.15 237.323 259.003 237.68 259.003 238.052C259.003 238.424 259.15 238.781 259.411 239.044C259.673 239.308 260.028 239.458 260.399 239.46Z" fill="#15325E"/>
<path d="M119.802 172.302H97.9328C94.0806 172.355 90.3552 173.69 87.3428 176.098C84.3303 178.506 82.2017 181.849 81.292 185.603L75.5138 209.787L63.6698 209.745C60.9193 209.741 58.2532 210.697 56.1291 212.45C54.005 214.202 52.5553 216.64 52.0288 219.347L50.4553 227.635C49.2592 227.814 48.1433 228.346 47.2499 229.164C46.3564 229.981 45.7259 231.046 45.4385 232.224H104.058C107.905 232.17 111.626 230.836 114.635 228.432C117.644 226.027 119.771 222.689 120.682 218.94L128.973 184.212C129.349 182.805 129.396 181.331 129.111 179.903C128.826 178.475 128.216 177.132 127.328 175.98C126.441 174.827 125.3 173.896 123.994 173.258C122.689 172.62 121.254 172.293 119.802 172.302ZM62.3669 227.567H53.5939L55.066 219.933C55.4472 217.94 56.5085 216.142 58.0676 214.848C59.6268 213.554 61.5866 212.844 63.6106 212.841H74.7439L73.3396 218.728C72.7457 221.212 71.3459 223.428 69.3599 225.028C67.3738 226.628 64.9141 227.521 62.3669 227.567Z" fill="#17386A"/>
<path d="M102.62 232.225H105.124L114.98 277.726H112.476L102.62 232.225Z" fill="#17386A"/>
<path d="M93.2207 232.225H95.7249L105.581 277.726H103.077L93.2207 232.225Z" fill="#17386A"/>
<path d="M56.3269 232.225H53.8227L43.9668 277.726H46.471L56.3269 232.225Z" fill="#17386A"/>
<path d="M65.7253 232.225H63.2211L53.3652 277.726H55.8694L65.7253 232.225Z" fill="#17386A"/>
<path d="M200.993 172.302H179.132C175.28 172.355 171.554 173.69 168.542 176.098C165.53 178.506 163.401 181.85 162.491 185.603L156.713 209.788L144.869 209.745C142.126 209.745 139.469 210.704 137.355 212.457C135.241 214.21 133.803 216.646 133.287 219.348L131.705 227.635C130.51 227.818 129.396 228.351 128.503 229.168C127.61 229.984 126.979 231.048 126.688 232.224H185.274C189.122 232.171 192.844 230.837 195.855 228.433C198.865 226.028 200.994 222.69 201.906 218.94L210.197 184.212C210.574 182.803 210.621 181.325 210.334 179.895C210.047 178.464 209.434 177.12 208.543 175.967C207.652 174.813 206.506 173.882 205.196 173.247C203.887 172.611 202.448 172.288 200.993 172.302ZM143.558 227.567H134.785L136.257 219.933C136.64 217.939 137.703 216.141 139.263 214.847C140.824 213.553 142.785 212.844 144.81 212.841H155.952L154.539 218.728C153.947 221.215 152.547 223.434 150.559 225.034C148.57 226.635 146.107 227.526 143.558 227.567Z" fill="#17386A"/>
<path d="M183.811 232.225H186.323L196.179 277.726H193.675L183.811 232.225Z" fill="#17386A"/>
<path d="M174.411 232.225H176.915L186.78 277.726H184.275L174.411 232.225Z" fill="#17386A"/>
<path d="M137.526 232.225H135.022L125.166 277.726H127.67L137.526 232.225Z" fill="#17386A"/>
<path d="M146.925 232.225H144.42L134.564 277.726H137.069L146.925 232.225Z" fill="#17386A"/>
<path d="M304.687 182.363H345.548L348.865 145.836H308.003L304.687 182.363Z" fill="#0F2E5C"/>
<path d="M303.3 182.363H344.162L347.469 145.836H306.616L303.3 182.363Z" fill="#0F2E5C"/>
<path d="M340.489 178.317L343.069 149.874H310.279L307.698 178.317H340.489Z" fill="#17386A"/>
<path d="M295.228 155.684L292.809 182.362H312.385L314.813 155.684H295.228Z" fill="#E6E6E6"/>
<path d="M294.213 155.684L291.794 182.362H311.379L313.798 155.684H294.213Z" fill="#F0F0F0"/>
<path d="M296.895 158.636L295.009 179.402H308.697L310.584 158.636H296.895Z" fill="white"/>
<path d="M211.5 316.034C302.091 316.034 375.531 311.735 375.531 306.432C375.531 301.128 302.091 296.829 211.5 296.829C120.908 296.829 47.4688 301.128 47.4688 306.432C47.4688 311.735 120.908 316.034 211.5 316.034Z" fill="#F5F5F5" fill-opacity="0.1"/>
<path d="M319.969 234.952H66.3766C64.8847 234.963 63.4065 234.666 62.034 234.079C60.6615 233.493 59.4239 232.63 58.3982 231.543C57.3726 230.457 56.5807 229.171 56.072 227.765C55.5632 226.358 55.3484 224.862 55.4408 223.369L64.9037 29.3548C65.079 26.2502 66.4226 23.328 68.6632 21.1781C70.9038 19.0282 73.8745 17.8109 76.9754 17.7718H330.568C332.06 17.7596 333.539 18.0557 334.912 18.6415C336.285 19.2274 337.523 20.0906 338.549 21.1772C339.575 22.2639 340.367 23.5508 340.875 24.9577C341.383 26.3646 341.597 27.8614 341.503 29.3548L332.04 223.369C331.863 226.473 330.519 229.394 328.279 231.543C326.038 233.693 323.069 234.911 319.969 234.952Z" fill="#407BFF"/>
<path opacity="0.7" d="M319.969 234.952H66.3766C64.8847 234.963 63.4065 234.666 62.034 234.079C60.6615 233.493 59.4239 232.63 58.3982 231.543C57.3726 230.457 56.5807 229.171 56.072 227.765C55.5632 226.358 55.3484 224.862 55.4408 223.369L64.9037 29.3548C65.079 26.2502 66.4226 23.328 68.6632 21.1781C70.9038 19.0282 73.8745 17.8109 76.9754 17.7718H330.568C332.06 17.7596 333.539 18.0557 334.912 18.6415C336.285 19.2274 337.523 20.0906 338.549 21.1772C339.575 22.2639 340.367 23.5508 340.875 24.9577C341.383 26.3646 341.597 27.8614 341.503 29.3548L332.04 223.369C331.863 226.473 330.519 229.394 328.279 231.543C326.038 233.693 323.069 234.911 319.969 234.952Z" fill="white"/>
<path d="M340.387 19.8667C339.037 18.3665 337.351 17.2087 335.468 16.4884L335.814 15.5811C337.832 16.3659 339.64 17.608 341.099 19.2104L340.387 19.8667Z" fill="#407BFF"/>
<path d="M330.693 14.6445H310.419V15.6089H330.693V14.6445Z" fill="#407BFF"/>
<path d="M330.567 17.8296H76.975C73.8741 17.8687 70.9034 19.086 68.6628 21.2359C66.4222 23.3858 65.0786 26.308 64.9033 29.4126H341.522C341.616 27.9176 341.402 26.4191 340.892 25.0109C340.383 23.6027 339.59 22.3149 338.561 21.2279C337.533 20.141 336.293 19.2782 334.917 18.6935C333.542 18.1088 332.061 17.8147 330.567 17.8296Z" fill="#407BFF"/>
<path d="M63.1809 221.863L71.9795 42.4528C72.0624 41.0065 72.6901 39.6457 73.7356 38.6458C74.7811 37.6459 76.1663 37.0815 77.6111 37.0667H328.046C328.741 37.0588 329.431 37.1947 330.072 37.466C330.713 37.7373 331.292 38.1382 331.771 38.6436C332.251 39.149 332.622 39.748 332.86 40.4034C333.099 41.0588 333.2 41.7565 333.157 42.4528L324.407 221.873C324.324 223.321 323.695 224.685 322.648 225.686C321.601 226.688 320.213 227.254 318.766 227.268H68.2926C67.5955 227.275 66.9046 227.138 66.2628 226.865C65.6211 226.592 65.0424 226.189 64.5627 225.682C64.0831 225.175 63.7129 224.574 63.4751 223.917C63.2373 223.26 63.1372 222.56 63.1809 221.863Z" fill="white"/>
<path opacity="0.3" d="M98.722 98.5728H87.1702C86.92 98.5758 86.672 98.5273 86.4413 98.4303C86.2106 98.3334 86.0022 98.19 85.8289 98.009C85.6557 97.8281 85.5213 97.6135 85.4341 97.3784C85.3469 97.1433 85.3087 96.8928 85.3219 96.6423L86.2845 76.3722C86.3186 75.8514 86.5479 75.3629 86.9265 75.0047C87.3051 74.6466 87.8049 74.4454 88.3254 74.4417H99.8772C100.128 74.4374 100.377 74.4849 100.609 74.5812C100.841 74.6776 101.051 74.8208 101.225 75.0019C101.399 75.1829 101.534 75.398 101.622 75.6338C101.71 75.8695 101.748 76.1209 101.735 76.3722L100.773 96.6423C100.738 97.1647 100.508 97.6547 100.127 98.013C99.7463 98.3714 99.2442 98.5715 98.722 98.5728Z" fill="#407BFF"/>
<path opacity="0.3" d="M121.845 98.5725H110.293C110.043 98.574 109.795 98.5246 109.565 98.4273C109.334 98.3299 109.126 98.1867 108.952 98.0062C108.778 97.8257 108.643 97.6117 108.554 97.3772C108.465 97.1428 108.425 96.8926 108.435 96.642L109.6 72.704C109.639 72.1832 109.871 71.6958 110.25 71.3384C110.63 70.9809 111.13 70.7793 111.65 70.7735H123.202C123.452 70.7719 123.7 70.8214 123.931 70.9187C124.161 71.0161 124.37 71.1593 124.544 71.3398C124.717 71.5203 124.853 71.7343 124.941 71.9687C125.03 72.2032 125.071 72.4534 125.06 72.704L123.895 96.642C123.857 97.1628 123.625 97.6502 123.245 98.0076C122.865 98.3651 122.366 98.5667 121.845 98.5725Z" fill="#407BFF"/>
<path opacity="0.3" d="M144.968 98.5725H133.416C133.166 98.574 132.918 98.5246 132.688 98.4273C132.457 98.3299 132.249 98.1867 132.075 98.0062C131.901 97.8257 131.766 97.6117 131.677 97.3772C131.588 97.1428 131.548 96.8926 131.558 96.642L132.848 70.204C132.887 69.6832 133.119 69.1958 133.499 68.8384C133.878 68.4809 134.378 68.2793 134.899 68.2735H146.451C146.701 68.2719 146.949 68.3213 147.179 68.4187C147.41 68.516 147.618 68.6593 147.792 68.8398C147.965 69.0203 148.101 69.2343 148.19 69.4687C148.278 69.7032 148.319 69.9534 148.308 70.204L147.067 96.6131C147.035 97.1473 146.799 97.6488 146.408 98.0135C146.017 98.3783 145.502 98.5784 144.968 98.5725Z" fill="#407BFF"/>
<path opacity="0.3" d="M168.1 98.5723H156.549C156.299 98.5739 156.051 98.5244 155.821 98.427C155.591 98.3295 155.383 98.1861 155.211 98.0055C155.038 97.8248 154.903 97.6107 154.815 97.3763C154.728 97.1418 154.689 96.8919 154.7 96.6418L156.096 67.9354C156.135 67.4146 156.367 66.9273 156.746 66.5698C157.126 66.2123 157.626 66.0107 158.147 66.0049H169.698C169.949 66.0034 170.196 66.0528 170.427 66.1502C170.658 66.2475 170.866 66.3907 171.04 66.5712C171.213 66.7517 171.349 66.9657 171.438 67.2002C171.526 67.4347 171.567 67.6848 171.556 67.9354L170.17 96.6128C170.143 97.1437 169.913 97.6437 169.527 98.0086C169.142 98.3736 168.631 98.5755 168.1 98.5723Z" fill="#407BFF"/>
<path d="M191.223 98.5732H179.671C179.421 98.5747 179.173 98.5253 178.943 98.4279C178.712 98.3306 178.504 98.1873 178.33 98.0068C178.156 97.8264 178.021 97.6124 177.932 97.3779C177.843 97.1434 177.803 96.8933 177.813 96.6427L179.642 59.1815C179.679 58.6599 179.91 58.1713 180.29 57.8134C180.67 57.4554 181.171 57.2546 181.693 57.251H193.245C193.495 57.2495 193.743 57.2989 193.973 57.3962C194.204 57.4936 194.412 57.6368 194.586 57.8173C194.759 57.9978 194.895 58.2118 194.984 58.4463C195.072 58.6808 195.113 58.9309 195.102 59.1815L193.273 96.6137C193.242 97.1397 193.013 97.6341 192.632 97.9977C192.252 98.3612 191.748 98.5668 191.223 98.5732Z" fill="#407BFF"/>
<path d="M188.21 53.2253L189.308 51.4686C189.368 51.3736 189.402 51.264 189.406 51.1513C189.409 51.0387 189.383 50.9271 189.329 50.8284C189.274 50.7296 189.195 50.6473 189.098 50.5901C189.001 50.5329 188.891 50.5029 188.778 50.5033H186.747C186.633 50.4993 186.52 50.5267 186.42 50.5825C186.321 50.6382 186.238 50.7202 186.182 50.8196C186.125 50.919 186.097 51.032 186.1 51.1464C186.103 51.2608 186.137 51.3722 186.198 51.4686L187.161 53.2253C187.216 53.3151 187.293 53.3893 187.385 53.4407C187.477 53.4922 187.58 53.5192 187.686 53.5192C187.791 53.5192 187.894 53.4922 187.986 53.4407C188.078 53.3893 188.155 53.3151 188.21 53.2253Z" fill="#263238"/>
<path opacity="0.3" d="M214.346 98.5731H202.794C202.544 98.5746 202.296 98.5252 202.066 98.4278C201.835 98.3305 201.627 98.1872 201.453 98.0067C201.279 97.8263 201.144 97.6123 201.055 97.3778C200.966 97.1433 200.926 96.8932 200.936 96.6426L202.476 65.0887C202.515 64.5679 202.747 64.0806 203.127 63.7231C203.506 63.3656 204.006 63.1641 204.527 63.1582H216.079C216.329 63.1567 216.577 63.2061 216.807 63.3035C217.038 63.4008 217.246 63.5441 217.42 63.7246C217.594 63.9051 217.729 64.119 217.818 64.3535C217.907 64.588 217.947 64.8381 217.937 65.0887L216.377 96.6136C216.348 97.1371 216.122 97.6301 215.746 97.9936C215.369 98.3571 214.869 98.5641 214.346 98.5731Z" fill="#407BFF"/>
<path opacity="0.1" d="M215.357 104.865H85.5814C85.4988 104.866 85.4169 104.851 85.3407 104.819C85.2645 104.787 85.1957 104.74 85.1388 104.68C85.0818 104.62 85.0378 104.549 85.0095 104.471C84.9813 104.394 84.9695 104.311 84.9749 104.228C84.987 104.057 85.063 103.896 85.1878 103.778C85.3126 103.66 85.4772 103.594 85.6487 103.592H215.415C215.497 103.59 215.579 103.606 215.655 103.638C215.731 103.67 215.8 103.717 215.857 103.777C215.914 103.837 215.958 103.908 215.986 103.985C216.015 104.063 216.026 104.146 216.021 104.228C216.014 104.4 215.94 104.562 215.817 104.68C215.693 104.799 215.528 104.865 215.357 104.865Z" fill="#263238"/>
<path opacity="0.1" d="M224.598 217.723L232.954 46.5848C232.962 46.4209 233.032 46.2662 233.15 46.1529C233.269 46.0396 233.426 45.9765 233.59 45.9767H233.647C233.726 45.9751 233.804 45.9901 233.877 46.0205C233.95 46.0509 234.015 46.0961 234.07 46.1533C234.124 46.2105 234.166 46.2784 234.192 46.3527C234.219 46.4269 234.23 46.506 234.225 46.5848L225.879 217.723C225.869 217.887 225.799 218.041 225.681 218.156C225.563 218.27 225.407 218.336 225.243 218.34H225.176C225.097 218.339 225.019 218.322 224.947 218.29C224.875 218.258 224.81 218.212 224.756 218.154C224.703 218.097 224.661 218.029 224.634 217.955C224.606 217.88 224.594 217.802 224.598 217.723Z" fill="#263238"/>
<path d="M267.446 78.4571C266.567 83.0935 267.388 87.8923 269.757 91.9705L264.039 95.5419C260.904 90.1226 259.814 83.755 260.968 77.598C262.155 71.2947 265.418 65.5733 270.233 61.3503C275.049 57.1272 281.139 54.6469 287.527 54.3066V60.8896C282.698 61.1279 278.089 62.9912 274.446 66.1786C270.802 69.3661 268.337 73.6916 267.446 78.4571Z" fill="#FFCC00"/>
<path opacity="0.3" d="M312.643 70.8897L306.444 73.3993C305.255 70.1203 303.189 67.2327 300.472 65.0533C297.756 62.8739 294.492 61.4868 291.041 61.0442C289.88 60.8841 288.708 60.8292 287.537 60.8801V54.2971C292.934 54.0459 298.271 55.5166 302.782 58.4979C307.293 61.4792 310.746 65.8176 312.643 70.8897Z" fill="#407BFF"/>
<path d="M313.74 84.673C311.083 99.2868 296.99 109.702 282.511 107.762C278.707 107.271 275.065 105.914 271.864 103.796C268.662 101.679 265.985 98.8551 264.038 95.5417L269.756 92.0089C271.221 94.5133 273.24 96.6474 275.656 98.2472C278.073 99.8469 280.823 100.87 283.695 101.237C289.088 101.873 294.52 100.433 298.895 97.2081C303.269 93.983 306.259 89.213 307.261 83.8622C307.913 80.3803 307.62 76.7868 306.414 73.4569L312.614 70.9473C314.195 75.3418 314.583 80.0785 313.74 84.673Z" fill="#263238"/>
<path d="M267.283 58.5923C267.217 58.5935 267.151 58.5812 267.09 58.5563C267.029 58.5315 266.973 58.4945 266.927 58.4476L262.662 53.9399H248.011C247.883 53.9399 247.761 53.889 247.67 53.7985C247.58 53.708 247.529 53.5852 247.529 53.4572C247.529 53.3292 247.58 53.2065 247.67 53.116C247.761 53.0255 247.883 52.9746 248.011 52.9746H262.864C262.93 52.9743 262.994 52.9879 263.054 53.0145C263.114 53.0412 263.167 53.0802 263.211 53.129L267.63 57.7815C267.698 57.8483 267.744 57.9341 267.762 58.0276C267.781 58.1212 267.771 58.2183 267.733 58.306C267.696 58.3937 267.633 58.468 267.552 58.5191C267.472 58.5702 267.378 58.5957 267.283 58.5923Z" fill="#263238"/>
<path opacity="0.3" d="M295.151 134.885C291.129 132.389 286.339 131.445 281.674 132.23L280.962 125.715C287.129 124.71 293.452 125.957 298.781 129.228C309.553 135.927 313.625 149.769 308.407 161.883L302.391 159.527C306.309 150.56 303.449 140.039 295.151 134.885Z" fill="#407BFF"/>
<path d="M282.098 179.104L282.54 172.511C286.148 172.546 289.705 171.665 292.88 169.948C296.055 168.231 298.744 165.736 300.696 162.694C301.353 161.69 301.923 160.631 302.4 159.528L308.417 161.884C307.787 163.348 307.033 164.756 306.164 166.092C303.57 170.118 300.004 173.421 295.797 175.695C291.589 177.97 286.877 179.142 282.098 179.104Z" fill="#263238"/>
<path d="M268.949 175.271C256.723 167.674 253.411 151.024 261.604 138.398C263.772 135.041 266.619 132.178 269.96 129.993C273.302 127.808 277.063 126.351 281.001 125.715L281.713 132.23C278.74 132.706 275.9 133.804 273.378 135.451C270.855 137.099 268.707 139.261 267.071 141.796C260.853 151.39 263.336 163.852 272.616 169.624C275.6 171.478 279.032 172.479 282.541 172.52L282.098 179.112C277.449 179.049 272.904 177.721 268.949 175.271Z" fill="#247DFF"/>
<path d="M263.807 129.721C263.676 129.717 263.552 129.662 263.461 129.567L259.187 125.059H244.535C244.407 125.059 244.285 125.008 244.195 124.918C244.104 124.827 244.054 124.704 244.054 124.576C244.054 124.448 244.104 124.326 244.195 124.235C244.285 124.145 244.407 124.094 244.535 124.094H259.398C259.53 124.098 259.654 124.153 259.745 124.248L264.154 128.901C264.199 128.946 264.235 128.999 264.259 129.058C264.284 129.117 264.296 129.18 264.296 129.243C264.296 129.307 264.284 129.37 264.259 129.429C264.235 129.488 264.199 129.541 264.154 129.586C264.059 129.672 263.936 129.72 263.807 129.721Z" fill="#263238"/>
<path d="M251.091 203.079H246.22C245.561 203.09 244.931 203.349 244.455 203.806C243.978 204.262 243.691 204.881 243.65 205.541L243.409 210.434C243.391 210.753 243.438 211.071 243.547 211.371C243.657 211.67 243.826 211.944 244.046 212.174C244.265 212.405 244.529 212.588 244.822 212.712C245.115 212.837 245.43 212.899 245.748 212.896H250.619C251.28 212.887 251.913 212.629 252.391 212.173C252.869 211.716 253.158 211.095 253.199 210.434L253.44 205.541C253.457 205.222 253.409 204.903 253.298 204.604C253.188 204.304 253.017 204.031 252.797 203.8C252.577 203.569 252.312 203.386 252.018 203.262C251.725 203.138 251.409 203.076 251.091 203.079Z" fill="#FF244A"/>
<path d="M278.411 203.079H273.539C272.873 203.088 272.235 203.352 271.755 203.817C271.276 204.281 270.991 204.912 270.96 205.579L270.729 210.473C270.71 210.791 270.757 211.108 270.866 211.407C270.975 211.706 271.143 211.979 271.362 212.21C271.58 212.44 271.843 212.624 272.135 212.748C272.427 212.873 272.741 212.936 273.058 212.934H277.987C278.646 212.924 279.276 212.664 279.752 212.208C280.229 211.752 280.516 211.132 280.557 210.473L280.798 205.579C280.822 205.254 280.778 204.927 280.668 204.619C280.559 204.312 280.385 204.031 280.16 203.796C279.935 203.56 279.663 203.374 279.361 203.251C279.06 203.127 278.736 203.069 278.411 203.079Z" fill="#247DFF"/>
<path d="M305.74 203.079H300.86C300.201 203.09 299.571 203.349 299.094 203.806C298.618 204.262 298.331 204.881 298.29 205.541L298.049 210.434C298.03 210.752 298.077 211.07 298.186 211.368C298.295 211.667 298.464 211.94 298.682 212.171C298.9 212.402 299.164 212.585 299.455 212.71C299.747 212.834 300.061 212.898 300.378 212.896H305.259C305.923 212.887 306.559 212.624 307.036 212.161C307.514 211.698 307.798 211.071 307.829 210.405L308.07 205.512C308.084 205.196 308.035 204.882 307.924 204.586C307.813 204.291 307.644 204.022 307.426 203.794C307.208 203.567 306.946 203.386 306.656 203.263C306.367 203.14 306.055 203.077 305.74 203.079Z" fill="#11BE30"/>
<path d="M119.836 139.119C119.868 138.493 120.052 137.961 120.389 137.522C120.726 137.084 121.194 136.865 121.792 136.865C122.343 136.865 122.788 137.062 123.128 137.457C123.471 137.847 123.624 138.423 123.586 139.184C123.549 139.926 123.337 140.498 122.95 140.9C122.567 141.299 122.108 141.498 121.573 141.498C121.043 141.498 120.609 141.301 120.274 140.906C119.943 140.511 119.797 139.916 119.836 139.119ZM121.785 137.606C121.518 137.606 121.289 137.722 121.098 137.953C120.911 138.184 120.802 138.608 120.771 139.226C120.743 139.788 120.813 140.185 120.981 140.416C121.149 140.643 121.365 140.757 121.628 140.757C121.9 140.757 122.129 140.641 122.316 140.41C122.507 140.179 122.618 139.756 122.648 139.142C122.677 138.577 122.607 138.18 122.438 137.953C122.27 137.722 122.053 137.606 121.785 137.606ZM121.368 146.101L126.629 136.865H127.503L122.26 146.101H121.368ZM125.281 143.722C125.313 143.092 125.497 142.56 125.834 142.126C126.171 141.687 126.641 141.468 127.243 141.468C127.794 141.468 128.239 141.665 128.579 142.06C128.922 142.45 129.075 143.026 129.037 143.788C129 144.529 128.788 145.101 128.401 145.503C128.018 145.902 127.557 146.101 127.018 146.101C126.487 146.101 126.054 145.904 125.719 145.509C125.388 145.111 125.242 144.515 125.281 143.722ZM127.236 142.209C126.965 142.209 126.734 142.325 126.543 142.556C126.355 142.787 126.247 143.212 126.216 143.829C126.188 144.387 126.258 144.782 126.426 145.013C126.594 145.244 126.81 145.36 127.073 145.36C127.348 145.36 127.58 145.244 127.767 145.013C127.958 144.782 128.069 144.359 128.099 143.746C128.128 143.18 128.058 142.783 127.889 142.556C127.721 142.325 127.504 142.209 127.236 142.209Z" fill="#263238"/>
<path d="M135.273 160.01H135.158C135.096 159.997 135.038 159.971 134.986 159.934C134.934 159.898 134.891 159.851 134.857 159.797C134.824 159.743 134.802 159.682 134.792 159.62C134.783 159.557 134.786 159.493 134.802 159.431C138.056 145.715 144.958 131.661 153.092 131.208C158.531 130.899 161.631 135.455 165.222 140.715C167.821 144.509 170.757 148.804 175.06 152.047C178.025 154.277 181.048 154.856 184.051 153.775C190.742 151.352 197.143 140.435 200.763 125.291C200.778 125.227 200.806 125.168 200.844 125.115C200.882 125.062 200.93 125.017 200.986 124.983C201.041 124.949 201.103 124.926 201.167 124.916C201.231 124.906 201.297 124.909 201.36 124.924C201.423 124.939 201.483 124.967 201.535 125.005C201.588 125.043 201.632 125.092 201.666 125.147C201.7 125.203 201.723 125.264 201.733 125.329C201.743 125.393 201.741 125.459 201.726 125.522C197.981 141.208 191.502 152.115 184.398 154.682C181.067 155.879 177.736 155.252 174.502 152.819C170.073 149.489 167.089 145.097 164.452 141.236C160.87 136.005 158.06 131.883 153.169 132.144C145.574 132.569 138.98 146.256 135.841 159.624C135.83 159.687 135.806 159.747 135.771 159.801C135.736 159.855 135.691 159.901 135.638 159.937C135.585 159.973 135.526 159.998 135.463 160.01C135.401 160.023 135.336 160.023 135.273 160.01Z" fill="#407BFF"/>
<path opacity="0.1" d="M205.789 166.69H89.1631C88.1666 166.697 87.1793 166.499 86.262 166.109C85.3447 165.718 84.517 165.144 83.8297 164.42C83.1424 163.697 82.6102 162.84 82.2659 161.902C81.9215 160.964 81.7724 159.966 81.8276 158.968L83.5315 124.915C83.6462 122.844 84.5412 120.895 86.0354 119.461C87.5296 118.027 89.5113 117.216 91.5793 117.193H208.157C209.153 117.186 210.141 117.384 211.058 117.774C211.975 118.165 212.803 118.739 213.49 119.463C214.177 120.186 214.71 121.043 215.054 121.981C215.398 122.918 215.547 123.917 215.492 124.915L213.836 158.959C213.724 161.031 212.83 162.983 211.336 164.419C209.841 165.854 207.858 166.666 205.789 166.69ZM91.5312 118.187C89.7175 118.208 87.9789 118.916 86.6647 120.169C85.3504 121.423 84.5578 123.128 84.446 124.943L82.7903 158.988C82.7333 159.859 82.8562 160.732 83.1515 161.554C83.4467 162.375 83.9079 163.126 84.5062 163.76C85.1044 164.395 85.8268 164.898 86.6281 165.24C87.4294 165.581 88.2925 165.753 89.1631 165.744H205.789C207.602 165.723 209.341 165.015 210.655 163.762C211.969 162.508 212.762 160.803 212.874 158.988L214.539 124.943C214.593 124.072 214.468 123.199 214.171 122.378C213.874 121.558 213.412 120.807 212.813 120.173C212.215 119.54 211.492 119.036 210.691 118.694C209.89 118.353 209.027 118.18 208.157 118.187H91.5312Z" fill="#263238"/>
<path opacity="0.1" d="M114.394 126.874H95.545C95.2581 126.874 94.9742 126.816 94.7106 126.703C94.447 126.589 94.2092 126.423 94.0119 126.214C93.8145 126.006 93.6617 125.759 93.5628 125.489C93.4639 125.219 93.421 124.931 93.4368 124.644C93.4685 124.057 93.7219 123.504 94.1457 123.097C94.5694 122.69 95.1316 122.46 95.7183 122.453H114.557C114.845 122.451 115.13 122.509 115.395 122.622C115.66 122.734 115.898 122.9 116.097 123.109C116.295 123.318 116.449 123.565 116.548 123.836C116.648 124.107 116.691 124.395 116.675 124.683C116.641 125.27 116.387 125.822 115.964 126.228C115.541 126.634 114.98 126.865 114.394 126.874ZM95.7183 123.418C95.3804 123.425 95.0572 123.559 94.813 123.793C94.5687 124.027 94.4211 124.345 94.3994 124.683C94.3875 124.841 94.4088 125 94.4619 125.15C94.5149 125.299 94.5986 125.436 94.7075 125.552C94.8167 125.664 94.9469 125.753 95.0906 125.814C95.2344 125.875 95.3888 125.908 95.545 125.909H114.394C114.731 125.9 115.053 125.766 115.297 125.532C115.541 125.298 115.689 124.982 115.713 124.644C115.723 124.485 115.7 124.326 115.645 124.176C115.59 124.027 115.505 123.89 115.395 123.776C115.288 123.66 115.158 123.569 115.014 123.508C114.87 123.446 114.714 123.416 114.557 123.418H95.7183Z" fill="#263238"/>
<path d="M97.297 155.58H92.4067L92.166 160.484H97.0563L97.297 155.58Z" fill="#407BFF"/>
<path opacity="0.3" d="M102.66 218.292H92.6864C92.2551 218.295 91.8278 218.21 91.4307 218.041C91.0336 217.872 90.6751 217.624 90.3775 217.311C90.0798 216.998 89.8493 216.627 89.7 216.221C89.5507 215.816 89.486 215.384 89.5096 214.952L90.0006 204.942C90.054 204.045 90.4438 203.201 91.0919 202.58C91.7401 201.958 92.5985 201.606 93.495 201.593H103.478C103.909 201.589 104.337 201.675 104.735 201.844C105.132 202.014 105.49 202.263 105.787 202.577C106.084 202.892 106.314 203.264 106.461 203.67C106.609 204.077 106.671 204.51 106.645 204.942L106.164 214.952C106.106 215.848 105.713 216.69 105.063 217.309C104.414 217.928 103.555 218.279 102.66 218.292Z" fill="#407BFF"/>
<path opacity="0.1" d="M140.925 212.829H115.193C114.819 212.832 114.448 212.758 114.104 212.612C113.76 212.466 113.449 212.25 113.191 211.979C112.933 211.708 112.733 211.386 112.604 211.034C112.475 210.682 112.419 210.307 112.44 209.933C112.477 209.158 112.807 208.427 113.364 207.889C113.92 207.351 114.661 207.046 115.434 207.037H141.156C141.53 207.035 141.9 207.11 142.245 207.257C142.589 207.403 142.9 207.618 143.158 207.889C143.417 208.16 143.618 208.481 143.748 208.833C143.879 209.184 143.937 209.558 143.919 209.933C143.882 210.707 143.552 211.438 142.995 211.977C142.439 212.515 141.698 212.82 140.925 212.829ZM115.434 208.002C114.915 208.011 114.417 208.213 114.04 208.57C113.662 208.928 113.431 209.414 113.393 209.933C113.382 210.178 113.419 210.423 113.503 210.653C113.588 210.884 113.717 211.095 113.884 211.275C114.054 211.45 114.257 211.59 114.482 211.685C114.707 211.779 114.949 211.827 115.193 211.825H140.925C141.444 211.821 141.943 211.619 142.32 211.261C142.697 210.903 142.924 210.414 142.956 209.894C142.973 209.649 142.938 209.402 142.854 209.171C142.769 208.94 142.637 208.729 142.465 208.553C142.297 208.374 142.094 208.232 141.869 208.136C141.643 208.039 141.401 207.991 141.156 207.993L115.434 208.002Z" fill="#263238"/>
<path d="M97.9713 212.829C97.908 212.826 97.8459 212.811 97.7885 212.785C97.731 212.758 97.6793 212.721 97.6364 212.674C97.5935 212.627 97.5602 212.573 97.5383 212.513C97.5165 212.454 97.5066 212.39 97.5092 212.327L97.721 208.051C97.7206 207.987 97.7337 207.924 97.7594 207.865C97.7851 207.807 97.8228 207.755 97.87 207.712C97.9173 207.669 97.973 207.637 98.0336 207.617C98.0942 207.597 98.1582 207.591 98.2216 207.597C98.2848 207.6 98.3469 207.615 98.4044 207.641C98.4618 207.668 98.5135 207.706 98.5564 207.752C98.5993 207.799 98.6326 207.853 98.6545 207.913C98.6763 207.973 98.6862 208.036 98.6836 208.099L98.4719 212.375C98.4644 212.502 98.4077 212.62 98.3141 212.705C98.2205 212.79 98.0974 212.834 97.9713 212.829Z" fill="#407BFF"/>
<path d="M96.1325 210C96.0012 209.996 95.8768 209.941 95.7859 209.846C95.7408 209.801 95.705 209.747 95.6806 209.689C95.6561 209.63 95.6436 209.567 95.6436 209.503C95.6436 209.439 95.6561 209.376 95.6806 209.317C95.705 209.259 95.7408 209.205 95.7859 209.16L97.846 207.23C97.9394 207.141 98.0638 207.093 98.1925 207.095C98.32 207.103 98.4399 207.158 98.5295 207.249L100.397 209.18C100.485 209.273 100.533 209.398 100.529 209.526C100.525 209.655 100.471 209.777 100.378 209.865C100.285 209.953 100.16 210.001 100.032 209.997C99.9039 209.994 99.7824 209.939 99.6943 209.846L98.1637 208.224L96.4502 209.865C96.3627 209.945 96.2506 209.993 96.1325 210Z" fill="#407BFF"/>
<path d="M93.6539 188.492L93.7075 187.416C93.1722 187.348 92.7392 187.228 92.4086 187.057C92.0821 186.882 91.8048 186.601 91.5767 186.214C91.3526 185.828 91.2344 185.355 91.2224 184.797L92.3159 184.594C92.3709 185.172 92.4974 185.596 92.6954 185.867C92.9796 186.25 93.3321 186.463 93.7529 186.507L93.9237 183.082C93.4849 182.998 93.0405 182.826 92.5906 182.567C92.2569 182.376 92.0048 182.111 91.8341 181.772C91.6674 181.434 91.5948 181.049 91.6163 180.619C91.6545 179.853 91.9567 179.234 92.5231 178.759C92.9021 178.44 93.4506 178.245 94.1684 178.173L94.1941 177.659H94.8285L94.8029 178.173C95.4264 178.233 95.9141 178.417 96.2659 178.723C96.7173 179.114 96.9739 179.65 97.0357 180.332L95.914 180.499C95.8712 180.076 95.7537 179.754 95.5613 179.53C95.3731 179.303 95.1052 179.154 94.7576 179.082L94.6029 182.185C95.1388 182.32 95.4927 182.426 95.6645 182.502C95.9924 182.649 96.2568 182.828 96.4577 183.04C96.6587 183.251 96.8078 183.502 96.905 183.793C97.0062 184.084 97.0484 184.399 97.0315 184.738C96.9943 185.483 96.7259 186.105 96.2262 186.603C95.7265 187.101 95.0986 187.368 94.3426 187.404L94.2884 188.492H93.6539ZM94.1237 179.07C93.7015 179.134 93.362 179.301 93.105 179.572C92.8521 179.843 92.7164 180.164 92.6979 180.535C92.6796 180.901 92.7661 181.208 92.9573 181.455C93.1524 181.703 93.4918 181.9 93.9752 182.047L94.1237 179.07ZM94.3873 186.507C94.8089 186.455 95.1631 186.274 95.45 185.963C95.7408 185.652 95.8977 185.268 95.9205 184.809C95.94 184.419 95.8579 184.106 95.6741 183.871C95.4944 183.632 95.12 183.418 94.5507 183.231L94.3873 186.507ZM98.1179 184.917L99.2025 184.773C99.2958 185.383 99.4833 185.824 99.7651 186.095C100.051 186.362 100.408 186.495 100.835 186.495C101.341 186.495 101.777 186.32 102.142 185.969C102.51 185.618 102.708 185.184 102.733 184.666C102.758 184.172 102.617 183.765 102.309 183.446C102.002 183.123 101.599 182.962 101.101 182.962C100.897 182.962 100.642 183.002 100.334 183.082L100.501 182.137C100.573 182.145 100.63 182.149 100.674 182.149C101.133 182.149 101.552 182.029 101.931 181.79C102.31 181.551 102.512 181.182 102.537 180.684C102.557 180.29 102.439 179.963 102.185 179.704C101.93 179.445 101.592 179.315 101.169 179.315C100.75 179.315 100.394 179.447 100.101 179.71C99.809 179.973 99.6098 180.367 99.5037 180.894L98.4358 180.702C98.6035 179.981 98.9306 179.423 99.4172 179.028C99.9039 178.63 100.494 178.43 101.189 178.43C101.668 178.43 102.103 178.534 102.496 178.741C102.889 178.945 103.182 179.224 103.376 179.578C103.574 179.933 103.663 180.31 103.643 180.708C103.624 181.087 103.505 181.432 103.286 181.742C103.067 182.053 102.754 182.3 102.345 182.484C102.858 182.603 103.249 182.852 103.517 183.231C103.786 183.606 103.906 184.076 103.878 184.642C103.84 185.407 103.528 186.057 102.943 186.591C102.358 187.121 101.638 187.386 100.784 187.386C100.014 187.386 99.3849 187.157 98.897 186.698C98.4131 186.24 98.1534 185.646 98.1179 184.917ZM110.534 186.196L110.483 187.23H104.683C104.688 186.971 104.742 186.722 104.846 186.483C105.013 186.089 105.268 185.7 105.61 185.317C105.956 184.935 106.449 184.492 107.089 183.99C108.082 183.209 108.757 182.591 109.115 182.137C109.473 181.679 109.662 181.246 109.682 180.84C109.703 180.413 109.568 180.055 109.275 179.764C108.986 179.469 108.597 179.321 108.106 179.321C107.587 179.321 107.164 179.477 106.838 179.788C106.511 180.098 106.332 180.529 106.3 181.079L105.199 180.965C105.316 180.14 105.632 179.513 106.148 179.082C106.665 178.648 107.34 178.43 108.174 178.43C109.016 178.43 109.671 178.664 110.138 179.13C110.606 179.596 110.823 180.174 110.788 180.864C110.771 181.214 110.682 181.559 110.521 181.898C110.361 182.237 110.103 182.593 109.75 182.968C109.4 183.343 108.821 183.857 108.015 184.51C107.341 185.052 106.908 185.421 106.714 185.616C106.521 185.808 106.36 186.001 106.231 186.196H110.534ZM111.765 184.917L112.85 184.773C112.943 185.383 113.131 185.824 113.413 186.095C113.699 186.362 114.055 186.495 114.482 186.495C114.989 186.495 115.424 186.32 115.789 185.969C116.158 185.618 116.355 185.184 116.381 184.666C116.406 184.172 116.264 183.765 115.957 183.446C115.65 183.123 115.247 182.962 114.748 182.962C114.544 182.962 114.289 183.002 113.982 183.082L114.149 182.137C114.22 182.145 114.278 182.149 114.322 182.149C114.781 182.149 115.199 182.029 115.579 181.79C115.958 181.551 116.16 181.182 116.184 180.684C116.204 180.29 116.087 179.963 115.832 179.704C115.578 179.445 115.239 179.315 114.816 179.315C114.397 179.315 114.041 179.447 113.749 179.71C113.456 179.973 113.257 180.367 113.151 180.894L112.083 180.702C112.251 179.981 112.578 179.423 113.065 179.028C113.551 178.63 114.142 178.43 114.836 178.43C115.315 178.43 115.751 178.534 116.144 178.741C116.536 178.945 116.83 179.224 117.024 179.578C117.221 179.933 117.31 180.31 117.291 180.708C117.272 181.087 117.153 181.432 116.934 181.742C116.715 182.053 116.401 182.3 115.993 182.484C116.506 182.603 116.896 182.852 117.165 183.231C117.433 183.606 117.554 184.076 117.525 184.642C117.487 185.407 117.175 186.057 116.59 186.591C116.005 187.121 115.286 187.386 114.432 187.386C113.661 187.386 113.032 187.157 112.544 186.698C112.061 186.24 111.801 185.646 111.765 184.917ZM119.048 187.23L119.109 186.005H120.337L120.275 187.23C120.253 187.681 120.155 188.044 119.982 188.319C119.808 188.598 119.544 188.813 119.189 188.964L118.913 188.504C119.145 188.404 119.32 188.257 119.438 188.061C119.555 187.87 119.629 187.593 119.659 187.23H119.048ZM122.095 182.908C122.147 181.872 122.294 181.039 122.537 180.409C122.784 179.776 123.126 179.287 123.562 178.945C124.002 178.602 124.541 178.43 125.18 178.43C125.65 178.43 126.059 178.526 126.404 178.717C126.75 178.905 127.03 179.178 127.243 179.536C127.457 179.891 127.617 180.326 127.723 180.84C127.829 181.35 127.861 182.039 127.817 182.908C127.766 183.936 127.619 184.767 127.376 185.401C127.133 186.031 126.791 186.519 126.351 186.866C125.915 187.209 125.376 187.38 124.733 187.38C123.887 187.38 123.238 187.077 122.785 186.471C122.243 185.742 122.013 184.554 122.095 182.908ZM123.202 182.908C123.131 184.347 123.251 185.305 123.562 185.784C123.877 186.258 124.283 186.495 124.777 186.495C125.272 186.495 125.699 186.256 126.058 185.778C126.421 185.3 126.639 184.343 126.71 182.908C126.782 181.465 126.66 180.507 126.345 180.033C126.033 179.558 125.626 179.321 125.123 179.321C124.628 179.321 124.223 179.53 123.907 179.949C123.509 180.483 123.274 181.469 123.202 182.908ZM129.155 179.614L129.206 178.58H134.887L134.845 179.417C134.257 180.011 133.663 180.8 133.063 181.784C132.467 182.769 131.994 183.781 131.643 184.821C131.391 185.555 131.213 186.358 131.11 187.23H130.002C130.049 186.541 130.226 185.708 130.534 184.732C130.842 183.755 131.26 182.815 131.788 181.91C132.32 181.001 132.875 180.236 133.453 179.614H129.155ZM137.422 182.478C136.983 182.314 136.664 182.081 136.463 181.778C136.263 181.475 136.173 181.113 136.194 180.69C136.226 180.053 136.482 179.517 136.963 179.082C137.443 178.648 138.065 178.43 138.827 178.43C139.593 178.43 140.199 178.654 140.643 179.1C141.088 179.542 141.295 180.082 141.263 180.72C141.242 181.127 141.117 181.481 140.886 181.784C140.66 182.083 140.325 182.314 139.882 182.478C140.412 182.653 140.807 182.936 141.067 183.327C141.331 183.717 141.449 184.184 141.422 184.726C141.385 185.475 141.088 186.105 140.532 186.615C139.976 187.125 139.265 187.38 138.399 187.38C137.533 187.38 136.847 187.125 136.342 186.615C135.837 186.101 135.603 185.461 135.641 184.696C135.67 184.126 135.837 183.649 136.144 183.267C136.454 182.88 136.88 182.617 137.422 182.478ZM137.297 180.654C137.277 181.069 137.394 181.408 137.648 181.671C137.902 181.934 138.243 182.065 138.67 182.065C139.085 182.065 139.43 181.936 139.707 181.677C139.987 181.414 140.137 181.093 140.156 180.714C140.175 180.32 140.054 179.989 139.792 179.722C139.534 179.451 139.202 179.315 138.795 179.315C138.384 179.315 138.036 179.447 137.752 179.71C137.467 179.973 137.316 180.288 137.297 180.654ZM136.748 184.702C136.733 185.009 136.79 185.305 136.92 185.592C137.053 185.879 137.259 186.103 137.539 186.262C137.818 186.417 138.124 186.495 138.455 186.495C138.97 186.495 139.403 186.33 139.754 185.999C140.106 185.668 140.295 185.248 140.32 184.738C140.346 184.219 140.194 183.791 139.864 183.452C139.537 183.113 139.115 182.944 138.596 182.944C138.089 182.944 137.66 183.111 137.308 183.446C136.96 183.781 136.774 184.199 136.748 184.702ZM142.955 187.23L143.016 186.005H144.243L144.182 187.23H142.955ZM145.978 182.908C146.03 181.872 146.177 181.039 146.42 180.409C146.667 179.776 147.009 179.287 147.445 178.945C147.885 178.602 148.424 178.43 149.063 178.43C149.533 178.43 149.942 178.526 150.287 178.717C150.633 178.905 150.913 179.178 151.126 179.536C151.34 179.891 151.5 180.326 151.606 180.84C151.712 181.35 151.744 182.039 151.7 182.908C151.649 183.936 151.502 184.767 151.259 185.401C151.016 186.031 150.674 186.519 150.234 186.866C149.798 187.209 149.259 187.38 148.616 187.38C147.77 187.38 147.121 187.077 146.668 186.471C146.126 185.742 145.896 184.554 145.978 182.908ZM147.085 182.908C147.014 184.347 147.134 185.305 147.445 185.784C147.76 186.258 148.166 186.495 148.66 186.495C149.155 186.495 149.582 186.256 149.941 185.778C150.304 185.3 150.522 184.343 150.593 182.908C150.665 181.465 150.543 180.507 150.228 180.033C149.916 179.558 149.509 179.321 149.006 179.321C148.511 179.321 148.106 179.53 147.79 179.949C147.392 180.483 147.157 181.469 147.085 182.908ZM152.802 182.908C152.853 181.872 153.001 181.039 153.244 180.409C153.491 179.776 153.832 179.287 154.268 178.945C154.709 178.602 155.248 178.43 155.886 178.43C156.357 178.43 156.765 178.526 157.111 178.717C157.457 178.905 157.737 179.178 157.95 179.536C158.164 179.891 158.324 180.326 158.43 180.84C158.536 181.35 158.567 182.039 158.524 182.908C158.473 183.936 158.326 184.767 158.083 185.401C157.84 186.031 157.498 186.519 157.058 186.866C156.622 187.209 156.082 187.38 155.44 187.38C154.594 187.38 153.945 187.077 153.492 186.471C152.95 185.742 152.72 184.554 152.802 182.908ZM153.909 182.908C153.837 184.347 153.957 185.305 154.269 185.784C154.584 186.258 154.989 186.495 155.484 186.495C155.979 186.495 156.406 186.256 156.765 185.778C157.128 185.3 157.345 184.343 157.417 182.908C157.489 181.465 157.367 180.507 157.051 180.033C156.74 179.558 156.333 179.321 155.83 179.321C155.335 179.321 154.93 179.53 154.613 179.949C154.216 180.483 153.981 181.469 153.909 182.908Z" fill="#263238"/>
<path opacity="0.4" d="M168.466 201.593H158.493C157.595 201.606 156.736 201.958 156.086 202.579C155.436 203.2 155.044 204.044 154.989 204.942L154.507 214.952C154.482 215.383 154.546 215.815 154.694 216.221C154.842 216.626 155.072 216.997 155.369 217.31C155.666 217.623 156.023 217.872 156.42 218.041C156.817 218.21 157.244 218.295 157.674 218.292H167.657C168.552 218.279 169.409 217.928 170.057 217.308C170.705 216.689 171.096 215.848 171.152 214.952L171.643 204.942C171.668 204.51 171.604 204.077 171.455 203.67C171.307 203.263 171.076 202.891 170.778 202.577C170.481 202.263 170.122 202.014 169.724 201.844C169.326 201.675 168.898 201.589 168.466 201.593Z" fill="#263238"/>
<path opacity="0.1" d="M205.913 212.829H180.191C179.817 212.83 179.447 212.756 179.102 212.609C178.758 212.463 178.447 212.247 178.189 211.976C177.93 211.705 177.729 211.384 177.599 211.033C177.468 210.682 177.41 210.307 177.428 209.933C177.465 209.158 177.795 208.427 178.352 207.889C178.908 207.351 179.649 207.046 180.422 207.037H206.154C206.527 207.037 206.897 207.112 207.241 207.259C207.584 207.406 207.895 207.622 208.153 207.892C208.411 208.163 208.612 208.483 208.743 208.834C208.875 209.185 208.933 209.559 208.917 209.933C208.877 210.708 208.545 211.439 207.987 211.977C207.429 212.515 206.687 212.82 205.913 212.829ZM180.422 208.002C179.904 208.011 179.408 208.214 179.032 208.571C178.656 208.929 178.427 209.415 178.391 209.933C178.379 210.178 178.417 210.423 178.501 210.653C178.586 210.884 178.715 211.095 178.882 211.275C179.051 211.451 179.254 211.591 179.48 211.685C179.705 211.78 179.947 211.827 180.191 211.825H205.913C206.434 211.821 206.933 211.62 207.312 211.262C207.691 210.904 207.92 210.415 207.954 209.894C207.973 209.647 207.94 209.398 207.858 209.163C207.775 208.929 207.646 208.714 207.476 208.533C207.307 208.351 207.102 208.207 206.875 208.109C206.647 208.011 206.401 207.962 206.154 207.964L180.422 208.002Z" fill="#263238"/>
<path d="M162.979 212.337C162.916 212.334 162.854 212.319 162.796 212.293C162.739 212.266 162.687 212.228 162.644 212.182C162.601 212.135 162.568 212.08 162.546 212.021C162.524 211.961 162.514 211.898 162.517 211.835L162.729 207.559C162.729 207.494 162.742 207.431 162.767 207.372C162.793 207.313 162.83 207.26 162.877 207.217C162.925 207.173 162.98 207.14 163.041 207.119C163.101 207.098 163.166 207.09 163.229 207.095C163.358 207.103 163.478 207.161 163.565 207.256C163.651 207.352 163.697 207.478 163.691 207.607L163.48 211.873C163.477 211.937 163.462 211.999 163.436 212.057C163.409 212.114 163.372 212.166 163.325 212.209C163.279 212.252 163.224 212.285 163.165 212.307C163.105 212.329 163.042 212.339 162.979 212.337Z" fill="white"/>
<path d="M162.96 212.829C162.834 212.824 162.714 212.773 162.623 212.684L160.756 210.754C160.711 210.709 160.675 210.655 160.65 210.597C160.626 210.538 160.613 210.475 160.613 210.411C160.613 210.347 160.626 210.284 160.65 210.225C160.675 210.167 160.711 210.113 160.756 210.068C160.8 210.023 160.854 209.987 160.912 209.963C160.971 209.938 161.034 209.926 161.097 209.926C161.161 209.926 161.224 209.938 161.283 209.963C161.341 209.987 161.394 210.023 161.439 210.068L162.97 211.69L164.683 210.049C164.728 210.004 164.781 209.968 164.84 209.943C164.899 209.919 164.961 209.906 165.025 209.906C165.089 209.906 165.151 209.919 165.21 209.943C165.269 209.968 165.322 210.004 165.367 210.049C165.412 210.093 165.447 210.146 165.471 210.204C165.496 210.262 165.508 210.324 165.508 210.387C165.508 210.45 165.496 210.512 165.471 210.57C165.447 210.628 165.412 210.681 165.367 210.725L163.307 212.703C163.211 212.787 163.087 212.832 162.96 212.829Z" fill="white"/>
<path d="M326.29 216.824C322.806 194.922 332.352 166.198 344.453 168.311C354.479 170.064 328.366 210.133 326.29 216.824Z" fill="#407BFF"/>
<path d="M322.479 227.994C333.859 211.776 326.848 178.441 314.834 177.686C302.82 176.93 321.496 219.836 322.479 227.994Z" fill="#263238"/>
<path d="M323.047 237.488C321.748 202.445 343.033 184.825 352.535 189.008C362.31 193.323 330.485 218.094 323.047 237.488Z" fill="#407BFF"/>
<path d="M320.185 259.313C331.565 234.641 321.813 196.083 303.716 200.255C288.71 203.715 317.499 248.931 320.185 259.313Z" fill="#407BFF"/>
<path d="M320.961 266.694C319.705 243.04 312.552 212.881 297.851 215.674C283.828 218.302 316.593 246.008 320.961 266.694Z" fill="#263238"/>
<path d="M317.357 278.269C320.962 243.368 350.755 223.886 350.45 237.126C350.133 251.264 327.372 260.473 317.357 278.269Z" fill="#407BFF"/>
<path d="M320.251 270.877C324.434 258.393 314.605 241.441 304.284 245.066C295.733 248.077 317.565 266.322 320.251 270.877Z" fill="#407BFF"/>
<path d="M320.525 266.213C316.025 239.449 339.026 193.389 359.777 203.289C379.938 212.915 330.354 235.462 320.525 266.213Z" fill="#263238"/>
<path d="M330.79 306.61H310.913C309.178 306.613 307.488 306.058 306.091 305.024C304.695 303.991 303.667 302.535 303.159 300.872C300.561 292.909 299.371 284.551 299.642 276.177C299.781 273.537 300.147 270.914 300.735 268.337C300.848 267.822 301.132 267.36 301.541 267.028C301.95 266.696 302.458 266.513 302.984 266.508H338.774C339.299 266.511 339.807 266.694 340.215 267.027C340.622 267.36 340.903 267.822 341.013 268.337C341.601 270.914 341.966 273.537 342.105 276.177C342.375 284.551 341.189 292.907 338.599 300.872C338.085 302.542 337.048 304.003 335.642 305.036C334.235 306.07 332.534 306.622 330.79 306.61Z" fill="#041A45"/>
<path opacity="0.5" d="M342.04 276.177H299.643C299.782 273.537 300.147 270.914 300.735 268.337C300.848 267.822 301.133 267.36 301.541 267.028C301.95 266.696 302.459 266.513 302.985 266.508H338.774C339.299 266.511 339.808 266.694 340.215 267.027C340.622 267.36 340.904 267.822 341.013 268.337C341.579 270.916 341.922 273.539 342.04 276.177Z" fill="#0B2559"/>
</g>
<defs>
<clipPath id="clip0_593_50731">
<rect width="423" height="316.407" fill="white"/>
</clipPath>
</defs>
</svg>
