<svg width="160" height="57" viewBox="0 0 160 57" fill="none" xmlns="http://www.w3.org/2000/svg">
<g clip-path="url(#clip0_808_49163)">
<path d="M17.4042 4.00812C17.1962 2.98047 17.8202 1.98708 18.8256 1.7473L26.2796 0.0345587C27.3197 -0.205225 28.3251 0.411362 28.5678 1.43901L30.3013 8.80379C30.5439 9.83144 29.8852 10.8248 28.8798 11.0646L28.6025 11.1331C22.7086 12.7088 20.8365 12.7088 17.8549 15.7233C19.519 12.0237 18.6523 10.037 17.4042 4.00812Z" fill="#257DFF"/>
<path d="M38.7607 55.2535L31.2721 56.9662C30.232 57.206 29.2266 56.5551 29.0185 55.5275L28.9492 55.2535C24.3728 38.4344 9.2569 38.9482 4.0218 39.7703C3.98713 39.7703 3.98713 39.7703 3.95246 39.7703C3.12039 39.9073 2.28832 39.4962 1.94163 38.7426C1.90696 38.6399 1.83762 38.5371 1.80295 38.4343C1.76828 38.3658 1.76828 38.2973 1.73361 38.2631L0.0348036 30.9668C0.0348036 30.8983 0.000134058 30.8298 0.000134058 30.7613C-0.138544 29.8364 0.450838 28.9458 1.38692 28.706C1.59493 28.6375 1.80295 28.569 2.04564 28.5005C7.00338 27.0617 12.0651 22.9854 16.3642 18.0527C15.3934 19.834 13.5213 24.7324 13.1399 26.5137C12.3772 30.316 13.2786 34.221 15.6708 37.3039C19.4151 42.0996 25.7596 46.2787 36.1951 44.1892C37.2352 43.9836 38.2407 44.6002 38.4487 45.6279L40.1821 52.9926C40.4248 53.986 39.8008 55.0137 38.7607 55.2535Z" fill="#257DFF"/>
<path d="M139.094 19.5596H136.286C135.731 19.5596 135.523 19.7309 135.523 20.279V22.7796L134.622 21.7862C132.992 20.005 130.843 19.0801 128.243 19.0801C126.509 19.0801 124.88 19.5254 123.493 20.3818C122.071 21.2381 120.962 22.4713 120.199 23.9785C119.402 25.4857 119.021 27.1985 119.021 29.0482C119.021 30.898 119.437 32.6107 120.199 34.1179C120.997 35.6252 122.106 36.8241 123.493 37.7147C124.914 38.5711 126.509 39.0164 128.243 39.0164C130.808 39.0164 132.958 38.0915 134.622 36.3103L135.523 35.3169V38.1943C135.523 39.9755 134.934 41.4142 133.824 42.4419C132.715 43.4695 131.19 43.9833 129.352 43.9833C127.168 43.9833 125.192 43.3325 123.458 42.0651C123.25 41.8938 123.042 41.8253 122.903 41.8253C122.73 41.8253 122.557 41.8938 122.383 42.1336L121.447 43.2297C121.101 43.6408 121.101 43.9491 121.447 44.2916C123.77 46.4497 126.509 47.5458 129.56 47.5458C132.784 47.5458 135.35 46.6552 137.118 44.9082C138.886 43.1612 139.788 40.7976 139.788 37.9202V20.279C139.822 19.7652 139.649 19.5596 139.094 19.5596ZM133.79 33.5014C132.611 34.7345 131.155 35.3169 129.456 35.3169C127.757 35.3169 126.301 34.7003 125.157 33.5014C123.978 32.3024 123.389 30.7952 123.389 29.0482C123.389 27.3012 123.978 25.794 125.157 24.5951C126.301 23.3619 127.757 22.7796 129.456 22.7796C131.155 22.7796 132.611 23.3962 133.79 24.5951C134.968 25.794 135.558 27.3012 135.558 29.0482C135.523 30.8295 134.934 32.3024 133.79 33.5014Z" fill="white"/>
<path d="M52.2819 21.5122V37.4065C52.2819 37.9545 52.1086 38.1258 51.5539 38.1258H48.6763C48.1216 38.1258 47.9482 37.9545 47.9482 37.4065V21.5122C47.9482 20.9984 48.1563 20.8271 48.6763 20.8271H51.5539C52.0739 20.8271 52.2819 20.9984 52.2819 21.5122Z" fill="white"/>
<path d="M72.0432 34.4264H61.677V12.8459C61.677 12.2978 61.5036 12.0923 60.9836 12.0923H57.898C57.3779 12.0923 57.1699 12.2978 57.1699 12.8459V37.4066C57.1699 37.9547 57.3433 38.1259 57.898 38.1259H72.0432C72.5979 38.1259 72.7366 37.9547 72.7366 37.4066V35.1458C72.7366 34.632 72.5632 34.4264 72.0432 34.4264Z" fill="white"/>
<path d="M159.237 34.4264H148.906V12.8459C148.906 12.2978 148.733 12.0923 148.143 12.0923H145.127C144.572 12.0923 144.399 12.2636 144.399 12.8459V37.4066C144.399 37.9547 144.538 38.1259 145.127 38.1259H159.237C159.792 38.1259 160 37.9547 160 37.4066V35.1458C160 34.632 159.792 34.4264 159.237 34.4264Z" fill="white"/>
<path d="M53.01 14.9701C53.01 15.1756 52.9407 15.3469 52.802 15.4839L50.6178 17.642C50.3405 17.916 49.8551 17.916 49.5777 17.642L47.3936 15.4839C47.2549 15.3469 47.1855 15.1756 47.1855 14.9701C47.1855 14.7988 47.2549 14.5933 47.3936 14.4563L49.5777 12.3325C49.7164 12.1955 49.8898 12.127 50.0978 12.127C50.3058 12.127 50.4792 12.1955 50.6178 12.3325L52.802 14.4905C52.9407 14.6276 53.01 14.7988 53.01 14.9701Z" fill="white"/>
<path d="M93.6425 19.1488H90.2796C90.0022 19.1488 89.7942 19.3543 89.7942 19.6284V20.5533L88.9968 20.0737C87.402 19.0803 85.4952 18.5322 83.5884 18.5322C77.9372 18.5322 73.3262 23.0539 73.3262 28.6374C73.3262 34.2209 77.9026 38.7768 83.5884 38.7768C85.5299 38.7768 87.402 38.2287 88.9968 37.2354L89.7942 36.7558V37.6807C89.7942 37.9547 90.0022 38.1602 90.2796 38.1602H93.6425C93.9199 38.1602 94.1279 37.9547 94.1279 37.6807V19.6284C94.0932 19.3543 93.8852 19.1488 93.6425 19.1488ZM83.5537 34.495C80.2948 34.495 77.6599 31.8573 77.6599 28.6717C77.6599 25.486 80.2948 22.8483 83.5537 22.8483C86.8126 22.8483 89.4475 25.4517 89.4475 28.6717C89.4475 31.8573 86.8126 34.495 83.5537 34.495Z" fill="white"/>
<path d="M116.629 27.8156V37.681C116.629 37.955 116.421 38.1605 116.143 38.1605H112.78C112.503 38.1605 112.295 37.955 112.295 37.681V27.8156C112.295 25.2122 110.18 23.1227 107.545 23.1227C104.91 23.1227 102.796 25.2122 102.796 27.8156V37.681C102.796 37.955 102.588 38.1605 102.31 38.1605H98.9473C98.6699 38.1605 98.4619 37.955 98.4619 37.681V28.2266C98.4619 23.705 101.513 19.8342 105.743 19.0463C108.447 18.4983 111.22 19.1834 113.335 20.8961C115.45 22.6088 116.629 25.1437 116.629 27.8156Z" fill="white"/>
</g>
<defs>
<clipPath id="clip0_808_49163">
<rect width="160" height="57" fill="white"/>
</clipPath>
</defs>
</svg>
