<svg width="111" height="39" viewBox="0 0 111 39" fill="none" xmlns="http://www.w3.org/2000/svg">
<g clip-path="url(#clip0_802_32289)">
<path d="M12.0746 2.74225C11.9303 2.03912 12.3632 1.35944 13.0607 1.19537L18.2319 0.0234977C18.9535 -0.140565 19.651 0.28131 19.8193 0.984435L21.0219 6.0235C21.1903 6.72662 20.7333 7.40631 20.0358 7.57037L19.8434 7.61725C15.7545 8.69537 14.4557 8.69537 12.3873 10.7579C13.5417 8.22662 12.9404 6.86725 12.0746 2.74225Z" fill="#257DFF"/>
<path d="M26.8905 37.8048L21.6952 38.9766C20.9737 39.1407 20.2761 38.6954 20.1318 37.9923L20.0837 37.8048C16.9089 26.2969 6.42219 26.6485 2.79034 27.211C2.76629 27.211 2.76629 27.211 2.74224 27.211C2.16499 27.3047 1.58774 27.0235 1.34722 26.5079C1.32317 26.4376 1.27507 26.3672 1.25101 26.2969C1.22696 26.2501 1.22696 26.2032 1.20291 26.1797L0.0243617 21.1876C0.0243617 21.1407 0.00030968 21.0938 0.00030968 21.0469C-0.0958983 20.4141 0.312986 19.8047 0.96239 19.6407C1.1067 19.5938 1.25101 19.5469 1.41938 19.5001C4.85881 18.5157 8.37041 15.7266 11.3529 12.3516C10.6794 13.5704 9.38059 16.9219 9.11602 18.1407C8.58688 20.7422 9.21223 23.4141 10.8718 25.5235C13.4694 28.8047 17.8709 31.6641 25.1106 30.2344C25.8322 30.0938 26.5297 30.5157 26.674 31.2188L27.8766 36.2579C28.0449 36.9376 27.612 37.6407 26.8905 37.8048Z" fill="#257DFF"/>
<path d="M96.4974 13.3828H94.5492C94.1644 13.3828 94.02 13.4999 94.02 13.8749V15.5859L93.3947 14.9062C92.2642 13.6874 90.773 13.0546 88.9691 13.0546C87.7665 13.0546 86.6361 13.3593 85.674 13.9453C84.6879 14.5312 83.9182 15.3749 83.3891 16.4062C82.8359 17.4374 82.5713 18.6093 82.5713 19.8749C82.5713 21.1406 82.8599 22.3124 83.3891 23.3437C83.9423 24.3749 84.7119 25.1953 85.674 25.8046C86.6601 26.3906 87.7665 26.6953 88.9691 26.6953C90.749 26.6953 92.2402 26.0624 93.3947 24.8437L94.02 24.164V26.1328C94.02 27.3515 93.6112 28.3359 92.8415 29.039C92.0718 29.7421 91.0135 30.0937 89.7388 30.0937C88.2235 30.0937 86.8525 29.6484 85.6499 28.7812C85.5056 28.664 85.3613 28.6171 85.2651 28.6171C85.1449 28.6171 85.0246 28.664 84.9043 28.8281L84.2549 29.5781C84.0144 29.8593 84.0144 30.0703 84.2549 30.3046C85.8664 31.7812 87.7665 32.5312 89.8831 32.5312C92.1199 32.5312 93.8998 31.9218 95.1264 30.7265C96.3531 29.5312 96.9784 27.914 96.9784 25.9453V13.8749C97.0025 13.5234 96.8822 13.3828 96.4974 13.3828ZM92.8174 22.9218C91.9997 23.7656 90.9895 24.164 89.8109 24.164C88.6324 24.164 87.6222 23.7421 86.8285 22.9218C86.0107 22.1015 85.6018 21.0703 85.6018 19.8749C85.6018 18.6796 86.0107 17.6484 86.8285 16.8281C87.6222 15.9843 88.6324 15.5859 89.8109 15.5859C90.9895 15.5859 91.9997 16.0078 92.8174 16.8281C93.6352 17.6484 94.0441 18.6796 94.0441 19.8749C94.02 21.0937 93.6112 22.1015 92.8174 22.9218Z" fill="#041A45"/>
<path d="M36.2711 14.7188V25.5937C36.2711 25.9687 36.1509 26.0859 35.7661 26.0859H33.7697C33.3849 26.0859 33.2646 25.9687 33.2646 25.5937V14.7188C33.2646 14.3672 33.409 14.25 33.7697 14.25H35.7661C36.1268 14.25 36.2711 14.3672 36.2711 14.7188Z" fill="#041A45"/>
<path d="M49.9804 23.5547H42.7889V8.78912C42.7889 8.41412 42.6686 8.2735 42.3078 8.2735H40.1672C39.8064 8.2735 39.6621 8.41412 39.6621 8.78912V25.5938C39.6621 25.9688 39.7824 26.086 40.1672 26.086H49.9804C50.3653 26.086 50.4615 25.9688 50.4615 25.5938V24.0469C50.4615 23.6954 50.3412 23.5547 49.9804 23.5547Z" fill="#041A45"/>
<path d="M110.471 23.5547H103.304V8.78912C103.304 8.41412 103.183 8.2735 102.774 8.2735H100.682C100.297 8.2735 100.177 8.39069 100.177 8.78912V25.5938C100.177 25.9688 100.273 26.086 100.682 26.086H110.471C110.856 26.086 111 25.9688 111 25.5938V24.0469C111 23.6954 110.856 23.5547 110.471 23.5547Z" fill="#041A45"/>
<path d="M36.7761 10.2426C36.7761 10.3832 36.728 10.5004 36.6318 10.5941L35.1165 12.0707C34.9241 12.2582 34.5874 12.2582 34.3949 12.0707L32.8797 10.5941C32.7835 10.5004 32.7354 10.3832 32.7354 10.2426C32.7354 10.1254 32.7835 9.98474 32.8797 9.89099L34.3949 8.43787C34.4911 8.34412 34.6114 8.29724 34.7557 8.29724C34.9 8.29724 35.0203 8.34412 35.1165 8.43787L36.6318 9.91443C36.728 10.0082 36.7761 10.1254 36.7761 10.2426Z" fill="#041A45"/>
<path d="M64.9656 13.1016H62.6325C62.4401 13.1016 62.2958 13.2422 62.2958 13.4297V14.0626L61.7426 13.7344C60.6362 13.0547 59.3134 12.6797 57.9905 12.6797C54.07 12.6797 50.8711 15.7735 50.8711 19.5938C50.8711 23.4141 54.046 26.5313 57.9905 26.5313C59.3374 26.5313 60.6362 26.1563 61.7426 25.4766L62.2958 25.1485V25.7813C62.2958 25.9688 62.4401 26.1094 62.6325 26.1094H64.9656C65.158 26.1094 65.3023 25.9688 65.3023 25.7813V13.4297C65.2783 13.2422 65.1339 13.1016 64.9656 13.1016ZM57.9664 23.6016C55.7055 23.6016 53.8776 21.7969 53.8776 19.6172C53.8776 17.4376 55.7055 15.6329 57.9664 15.6329C60.2273 15.6329 62.0553 17.4141 62.0553 19.6172C62.0553 21.7969 60.2273 23.6016 57.9664 23.6016Z" fill="#041A45"/>
<path d="M80.9118 19.0314V25.7814C80.9118 25.9689 80.7675 26.1096 80.5751 26.1096H78.2421C78.0497 26.1096 77.9053 25.9689 77.9053 25.7814V19.0314C77.9053 17.2502 76.4382 15.8205 74.6102 15.8205C72.7823 15.8205 71.3151 17.2502 71.3151 19.0314V25.7814C71.3151 25.9689 71.1708 26.1096 70.9784 26.1096H68.6453C68.4529 26.1096 68.3086 25.9689 68.3086 25.7814V19.3127C68.3086 16.2189 70.4252 13.5705 73.3595 13.0314C75.2356 12.6564 77.1597 13.1252 78.6269 14.2971C80.0941 15.4689 80.9118 17.2033 80.9118 19.0314Z" fill="#041A45"/>
</g>
<defs>
<clipPath id="clip0_802_32289">
<rect width="111" height="39" fill="white"/>
</clipPath>
</defs>
</svg>
