<svg width="225" height="33" viewBox="0 0 225 33" fill="none" xmlns="http://www.w3.org/2000/svg">
<path d="M50.4784 0.647823H43.3594V32.3812H47.8262V9.94116L51.6416 32.3812H56.4807L60.0169 9.62382V32.3812H64.856V0.647823H57.737L54.2473 23.1785L50.4784 0.647823ZM74.8266 5.18116H83.6671V0.647823H69.7083V32.3812H83.6671V27.8478H74.8266V18.5545H81.8525V14.0212H74.8266V5.18116ZM95.0336 0.647823H87.9146V32.3812H92.3814V9.94116L96.1969 32.3812H101.036L104.572 9.62382V32.3812H109.411V0.647823H102.292L98.8025 23.1785L95.0336 0.647823ZM113.612 8.26382C113.612 17.3305 123.616 18.5545 123.616 25.0825C123.616 27.3492 122.592 28.1652 120.964 28.1652C119.335 28.1652 118.312 27.3492 118.312 25.0825V22.8158H113.473V24.7652C113.473 29.8425 116.078 32.7438 121.103 32.7438C126.129 32.7438 128.734 29.8425 128.734 24.7652C128.734 15.6985 118.73 14.4745 118.73 7.94649C118.73 5.67982 119.661 4.81849 121.29 4.81849C122.918 4.81849 123.849 5.67982 123.849 7.94649V9.26116H128.688V8.26382C128.688 3.18649 126.129 0.285156 121.15 0.285156C116.171 0.285156 113.612 3.18649 113.612 8.26382ZM137.495 7.94649V25.0825C137.495 27.3492 138.519 28.2105 140.147 28.2105C141.776 28.2105 142.799 27.3492 142.799 25.0825V7.94649C142.799 5.67982 141.776 4.81849 140.147 4.81849C138.519 4.81849 137.495 5.67982 137.495 7.94649ZM132.377 24.7652V8.26382C132.377 3.18649 135.122 0.285156 140.147 0.285156C145.172 0.285156 147.918 3.18649 147.918 8.26382V24.7652C147.918 29.8425 145.172 32.7438 140.147 32.7438C135.122 32.7438 132.377 29.8425 132.377 24.7652ZM152.119 0.647823V24.8105C152.119 29.8878 154.724 32.7892 159.749 32.7892C164.775 32.7892 167.38 29.8878 167.38 24.8105V0.647823H162.541V25.1278C162.541 27.3945 161.518 28.2105 159.889 28.2105C158.26 28.2105 157.237 27.3945 157.237 25.1278V0.647823H152.119ZM187.913 32.3812H182.702C182.423 31.5652 182.236 31.0665 182.236 28.4825V23.4958C182.236 20.5492 181.213 19.4612 178.886 19.4612H177.118V32.3812H172V0.647823H179.724C185.028 0.647823 187.308 3.05049 187.308 7.94649V10.4398C187.308 13.7038 186.238 15.8345 183.958 16.8772C186.517 17.9198 187.355 20.3225 187.355 23.6318V28.5278C187.355 30.0692 187.401 31.2025 187.913 32.3812ZM179.584 5.18116H177.118V14.9278H179.119C181.027 14.9278 182.19 14.1118 182.19 11.5732V8.44516C182.19 6.17849 181.399 5.18116 179.584 5.18116ZM201.839 20.5492V25.0825C201.839 27.3492 200.815 28.1652 199.186 28.1652C197.558 28.1652 196.534 27.3492 196.534 25.0825V7.94649C196.534 5.67982 197.558 4.81849 199.186 4.81849C200.815 4.81849 201.839 5.67982 201.839 7.94649V11.3465H206.678V8.26382C206.678 3.18649 204.072 0.285156 199.047 0.285156C194.022 0.285156 191.416 3.18649 191.416 8.26382V24.7652C191.416 29.8425 194.022 32.7438 199.047 32.7438C204.072 32.7438 206.678 29.8425 206.678 24.7652V20.5492H201.839ZM216.043 5.18116H224.884V0.647823H210.925V32.3812H224.884V27.8478H216.043V18.5545H223.069V14.0212H216.043V5.18116Z" fill="black"/>
<path d="M33.2353 0H0V32.381H33.2353V0Z" fill="white"/>
<path d="M29.7592 0H33.2353V32.381H0V0H14.4311L9.69496 9.05948C10.6597 10.7191 12.5321 12.4005 14.9771 13.614C17.4222 14.8275 19.92 15.3142 21.8659 15.0987L29.7592 0ZM7.90874 14.5181L8.52012 25.8517L18.2916 19.6701C16.6312 19.8531 14.5008 19.4376 12.4149 18.4029C10.3291 17.3672 8.73311 15.9353 7.90874 14.5181Z" fill="#17B7FF"/>
</svg>
