<svg width="21" height="21" viewBox="0 0 21 21" fill="none" xmlns="http://www.w3.org/2000/svg">
<path d="M6.99219 11.5252V14.0522C8.8567 14.05 10.6442 13.3065 11.9627 11.9849C13.2811 10.6634 14.0227 8.87162 14.025 7.00269H11.504C11.5025 8.20165 11.0267 9.35115 10.1809 10.1989C9.33508 11.0468 8.18834 11.5237 6.99219 11.5252Z" fill="#3BE081"/>
<path d="M6.99288 18.4859C5.80533 18.4859 4.66644 18.013 3.82673 17.1713C2.98702 16.3296 2.51527 15.188 2.51527 13.9977C2.51527 12.8073 2.98702 11.6657 3.82673 10.8239C4.66644 9.98224 5.80533 9.50935 6.99288 9.50935V7.00098C6.07585 6.99969 5.16758 7.17942 4.31988 7.52998C3.47218 7.88049 2.70165 8.39501 2.0523 9.04402C1.40296 9.69303 0.887499 10.464 0.535366 11.3127C0.183232 12.1614 0.00131714 13.0713 7.12605e-06 13.9905C-0.00130288 14.9097 0.178018 15.8201 0.527731 16.6699C0.877447 17.5196 1.3907 18.2919 2.0382 18.9428C2.68569 19.5937 3.45475 20.1104 4.30145 20.4634C5.14815 20.8163 6.0559 20.9987 6.97293 21H6.99288V18.4859Z" fill="#0037FF"/>
<path d="M6.99219 18.4861V20.9945C8.84417 20.9945 10.6203 20.2571 11.9299 18.9444C13.2394 17.6317 13.9751 15.8514 13.9751 13.995H11.4698C11.4691 15.1853 10.9972 16.3268 10.1577 17.1688C9.31824 18.0108 8.17979 18.4846 6.99219 18.4861Z" fill="#00CCFF"/>
<path d="M6.99219 4.49112V6.99949C8.84417 6.99949 10.6203 6.26208 11.9299 4.9494C13.2394 3.63674 13.9751 1.85638 13.9751 0H11.4698C11.4691 1.19039 10.9972 2.33185 10.1577 3.17385C9.31824 4.01586 8.17979 4.4896 6.99219 4.49112Z" fill="#861DFF"/>
<path d="M14.0156 4.49112V6.99949C15.8676 6.99949 17.6437 6.26208 18.9532 4.9494C20.2628 3.63674 20.9985 1.85638 20.9985 0H18.4946C18.4939 1.19064 18.0218 2.33232 17.182 3.17436C16.3422 4.0164 15.2034 4.48998 14.0156 4.49112Z" fill="#FF8110"/>
</svg>
