<svg width="173" height="40" viewBox="0 0 173 40" fill="none" xmlns="http://www.w3.org/2000/svg">
<path d="M13.686 21.5323V26.2533C17.3347 26.2491 20.8328 24.8601 23.4128 22.3911C25.9929 19.922 27.4442 16.5746 27.4487 13.0829H22.5153C22.5124 15.3229 21.5812 17.4705 19.9261 19.0544C18.2709 20.6384 16.0268 21.5294 13.686 21.5323Z" fill="#3BE081"/>
<path d="M13.6845 34.5368C11.3606 34.5368 9.13185 33.6533 7.4886 32.0808C5.84535 30.5083 4.92218 28.3754 4.92218 26.1515C4.92218 23.9275 5.84535 21.7948 7.4886 20.2222C9.13185 18.6496 11.3606 17.7662 13.6845 17.7662V13.0798C11.8899 13.0774 10.1125 13.4132 8.45365 14.0682C6.79476 14.723 5.2869 15.6843 4.01619 16.8968C2.74547 18.1093 1.73676 19.5496 1.04767 21.1352C0.35857 22.7209 0.00257753 24.4209 1.39451e-05 26.1382C-0.00254964 27.8554 0.348366 29.5564 1.03273 31.144C1.71709 32.7314 2.72149 34.1744 3.98858 35.3905C5.25568 36.6065 6.76065 37.5718 8.41758 38.2312C10.0745 38.8907 11.8509 39.2314 13.6455 39.2338H13.6845V34.5368Z" fill="#0037FF"/>
<path d="M13.686 34.5369V39.2232C17.3102 39.2232 20.786 37.8455 23.3486 35.3931C25.9113 32.9407 27.351 29.6145 27.351 26.1462H22.4484C22.4469 28.3701 21.5235 30.5028 19.8807 32.0758C18.2379 33.6489 16.0101 34.534 13.686 34.5369Z" fill="#00CCFF"/>
<path d="M13.686 8.39063V13.0769C17.3102 13.0769 20.786 11.6993 23.3486 9.24683C25.9113 6.79442 27.351 3.46823 27.351 0H22.4484C22.4469 2.22398 21.5235 4.35654 19.8807 5.92962C18.2379 7.50272 16.0101 8.3878 13.686 8.39063Z" fill="#861DFF"/>
<path d="M27.4302 8.39063V13.0769C31.0544 13.0769 34.53 11.6993 37.0927 9.24683C39.6554 6.79442 41.095 3.46823 41.095 0H36.1952C36.1937 2.22443 35.2699 4.3574 33.6265 5.93057C31.9831 7.50373 29.7546 8.3885 27.4302 8.39063Z" fill="#FF8110"/>
<path d="M63.915 19.5806H66.4389L67.0329 20.8563C67.3483 20.5801 67.6976 20.3418 68.0731 20.1464C68.4644 19.9547 68.8709 19.7933 69.289 19.6634C69.8076 19.5068 70.3488 19.4302 70.8926 19.4365C71.7327 19.4319 72.5639 19.6003 73.33 19.9302C74.0984 20.2583 74.7898 20.7311 75.3629 21.3206C75.9588 21.9387 76.4314 22.656 76.7573 23.437C77.4474 25.1549 77.4474 27.0566 76.7573 28.7745C76.4321 29.5559 75.9595 30.2733 75.3629 30.8909C74.7897 31.4809 74.0983 31.9547 73.33 32.284C72.5645 32.6131 71.7345 32.7824 70.8954 32.7804C70.3875 32.7896 69.8814 32.7229 69.395 32.5829C69.0129 32.4664 68.6401 32.3237 68.2795 32.1559C67.9367 31.9745 67.6175 31.755 67.3285 31.5021V37.1839H63.915V19.5806ZM70.4464 29.6659C70.9 29.6761 71.3511 29.5955 71.7703 29.429C72.1895 29.2627 72.5678 29.0143 72.881 28.6998C73.5372 28.0558 73.8645 27.1938 73.8625 26.1138C73.8862 25.642 73.8117 25.1704 73.6431 24.7264C73.4746 24.2824 73.2156 23.875 72.881 23.5278C72.5616 23.2221 72.1825 22.9796 71.7653 22.8142C71.348 22.6487 70.9008 22.5636 70.4491 22.5636C69.9975 22.5636 69.5502 22.6487 69.133 22.8142C68.7158 22.9796 68.3366 23.2221 68.0173 23.5278C67.3648 24.1736 67.0384 25.0356 67.0384 26.1138C67.0384 27.192 67.3648 28.054 68.0173 28.6998C68.3304 29.0143 68.7088 29.2627 69.128 29.429C69.5472 29.5955 69.9981 29.6761 70.4519 29.6659H70.4464Z" fill="black"/>
<path d="M85.4407 32.792C84.8054 32.7993 84.1746 32.6887 83.5833 32.4664C83.0308 32.2551 82.5338 31.9297 82.1276 31.5137C81.7142 31.0843 81.3922 30.5822 81.1794 30.0352C80.9418 29.4167 80.8254 28.7617 80.8364 28.103V22.5625H78.7588V19.8644H79.6484C80.7379 19.8644 81.2826 19.3432 81.2826 18.3005V16.4618H84.2527V19.5896H87.2199V22.5706H84.2527V27.9695C84.2339 28.1941 84.2616 28.4201 84.3343 28.6345C84.4069 28.849 84.5229 29.0476 84.6757 29.2191C84.8285 29.3905 85.015 29.5316 85.2248 29.634C85.4345 29.7365 85.6633 29.7984 85.898 29.8163C85.9908 29.824 86.0841 29.824 86.1769 29.8163C86.3051 29.8226 86.4335 29.8226 86.5618 29.8163C86.6557 29.8092 86.749 29.7949 86.8406 29.7736C86.9225 29.7532 87.0019 29.7245 87.0776 29.6882V32.5304C86.9247 32.592 86.766 32.6394 86.6036 32.6719C86.2238 32.7641 85.8323 32.8046 85.4407 32.792Z" fill="black"/>
<path d="M91.823 18.0168C91.3637 18.028 90.9146 17.8856 90.5531 17.6143C90.1915 17.3429 89.94 16.9596 89.8417 16.53C89.7434 16.1005 89.8045 15.6516 90.0145 15.2605C90.2244 14.8694 90.5702 14.5605 90.9925 14.3868C91.4146 14.2133 91.8868 14.1858 92.3278 14.3092C92.7689 14.4325 93.1512 14.6989 93.4092 15.0628C93.6673 15.4267 93.7848 15.8652 93.7416 16.3029C93.6985 16.7407 93.4973 17.1505 93.1728 17.4618C92.9994 17.6377 92.7902 17.7777 92.558 17.8732C92.3259 17.9686 92.0757 18.0175 91.823 18.0168ZM90.0411 19.5807H93.4545V32.6578H90.0411V19.5807Z" fill="black"/>
<path d="M96.7178 19.5808H99.2416L99.8356 20.8565C100.115 20.5895 100.424 20.3516 100.756 20.1465C101.078 19.9562 101.418 19.7945 101.771 19.6636C102.197 19.5081 102.651 19.4312 103.107 19.4367C103.713 19.422 104.317 19.5124 104.889 19.7036C105.316 19.8525 105.725 20.0486 106.105 20.288C106.445 20.5174 106.738 20.8062 106.966 21.1394C107.293 20.8112 107.662 20.5249 108.066 20.288C108.472 20.0564 108.899 19.8608 109.343 19.7036C109.865 19.5207 110.418 19.4302 110.974 19.4367C112.461 19.4367 113.645 19.893 114.538 20.8004C115.43 21.7078 115.874 23.0556 115.874 24.8356V32.6498H112.455V25.1212C112.493 24.4392 112.253 23.7697 111.786 23.253C111.609 23.0568 111.393 22.896 111.151 22.7797C110.91 22.6633 110.647 22.5937 110.376 22.5748C110.106 22.556 109.836 22.5883 109.579 22.6699C109.322 22.7515 109.084 22.8806 108.879 23.0502C108.805 23.1138 108.734 23.1815 108.668 23.253C108.201 23.7694 107.961 24.4393 108.002 25.1212V32.6498H104.585V25.1212C104.625 24.4393 104.385 23.7694 103.918 23.253C103.741 23.0568 103.526 22.8959 103.284 22.7795C103.042 22.663 102.778 22.5935 102.508 22.5746C102.238 22.5558 101.966 22.5881 101.709 22.6697C101.452 22.7513 101.215 22.8806 101.01 23.0502C100.935 23.113 100.865 23.1808 100.801 23.253C100.334 23.7697 100.094 24.4392 100.131 25.1212V32.6498H96.7178V19.5808Z" fill="black"/>
<path d="M120.769 18.0163C120.308 18.0279 119.857 17.8856 119.495 17.6136C119.131 17.3417 118.878 16.9572 118.78 16.5263C118.681 16.0955 118.742 15.6451 118.953 15.2526C119.163 14.8602 119.511 14.5503 119.934 14.3761C120.357 14.2019 120.831 14.1744 121.273 14.2983C121.716 14.4222 122.099 14.6897 122.357 15.0548C122.617 15.42 122.734 15.86 122.69 16.2991C122.646 16.7383 122.445 17.1492 122.119 17.4611C121.945 17.637 121.736 17.777 121.503 17.8725C121.272 17.968 121.021 18.0169 120.769 18.0163ZM118.987 19.5802H122.409V32.6571H118.987V19.5802Z" fill="black"/>
<path d="M124.918 29.9487L130.856 22.7056H124.918V19.5806H135.161V22.2787L129.23 29.5377H135.463V32.6629H124.918V29.9487Z" fill="black"/>
<path d="M144.08 32.7913C143.174 32.7945 142.279 32.6125 141.452 32.2576C140.641 31.9157 139.905 31.4283 139.286 30.8217C138.658 30.2102 138.153 29.4926 137.799 28.7054C137.437 27.8825 137.251 26.9987 137.251 26.106C137.251 25.2133 137.437 24.3295 137.799 23.5066C138.153 22.7194 138.658 22.0018 139.286 21.3903C139.906 20.7845 140.641 20.2973 141.452 19.9545C142.264 19.6156 143.138 19.437 144.023 19.4297C144.908 19.4224 145.785 19.5863 146.603 19.9118C147.384 20.229 148.091 20.6927 148.68 21.2756C149.29 21.8869 149.769 22.6057 150.092 23.3919C150.446 24.2562 150.622 25.1778 150.61 26.106C150.611 26.2533 150.602 26.4003 150.582 26.5463C150.56 26.6878 150.541 26.8266 150.522 26.96C150.501 27.0935 150.482 27.2536 150.463 27.3843H140.962C141.109 28.0134 141.463 28.5807 141.971 29.0043C142.564 29.4661 143.316 29.6993 144.08 29.6581C144.465 29.6659 144.851 29.6182 145.223 29.5167C145.499 29.4342 145.763 29.3195 146.009 29.175C146.233 29.0341 146.434 28.8613 146.603 28.6627H150.168C149.969 29.1899 149.694 29.6877 149.35 30.1411C148.977 30.6468 148.526 31.0965 148.014 31.4756C147.471 31.8729 146.871 32.1938 146.232 32.4283C145.544 32.675 144.814 32.7981 144.08 32.7913ZM147.345 25.1213C147.204 24.3914 146.799 23.7319 146.202 23.2573C145.606 22.7826 144.855 22.5227 144.08 22.5227C143.303 22.5227 142.553 22.7826 141.956 23.2573C141.36 23.7319 140.955 24.3914 140.814 25.1213H147.345Z" fill="black"/>
<path d="M153.132 14.7498H156.546V32.6492H153.132V14.7498Z" fill="black"/>
<path d="M161.73 37.3386C161.574 37.3386 161.42 37.3332 161.27 37.3226C161.145 37.3162 161.021 37.3019 160.899 37.2798C160.778 37.2659 160.659 37.2372 160.545 37.1945V34.4964C161.164 34.5354 161.778 34.3644 162.28 34.0133C162.692 33.6854 163.013 33.2656 163.217 32.791L163.512 32.0811L158.316 19.5806H161.881L165.295 28.1019L168.423 19.5806H171.987C171.017 21.9665 170.135 24.1254 169.343 26.0576C169.006 26.8903 168.675 27.707 168.348 28.4996C168.022 29.2921 167.732 30.0208 167.472 30.6747C167.213 31.3285 166.999 31.8729 166.819 32.3079C166.641 32.7429 166.541 32.9991 166.493 33.0766C166.206 33.7539 165.875 34.4128 165.497 35.0488C165.216 35.5358 164.861 35.9809 164.444 36.3698C164.096 36.6945 163.683 36.9462 163.227 37.109C162.747 37.2691 162.24 37.3468 161.73 37.3386Z" fill="black"/>
<path d="M51.2708 13.0798C49.2344 13.0798 47.2437 13.6577 45.5505 14.7404C43.8574 15.823 42.5377 17.3618 41.7584 19.1623C40.9791 20.9627 40.7752 22.9438 41.1724 24.8552C41.5697 26.7665 42.5504 28.5221 43.9903 29.9001C45.4303 31.2781 47.2648 32.2166 49.262 32.5967C51.2594 32.9769 53.3295 32.7818 55.2109 32.036C57.0922 31.2903 58.7003 30.0274 59.8317 28.407C60.963 26.7867 61.5668 24.8817 61.5668 22.9329C61.5673 21.6389 61.3011 20.3575 60.7839 19.1619C60.2666 17.9663 59.5082 16.8799 58.552 15.965C57.5959 15.0499 56.4607 14.3241 55.2113 13.8291C53.962 13.334 52.623 13.0794 51.2708 13.0798ZM51.2708 29.3593C49.9395 29.3746 48.6336 29.0115 47.5181 28.316C46.4028 27.6206 45.528 26.6239 45.0048 25.4525C44.4816 24.2809 44.3334 22.9872 44.5791 21.7351C44.8248 20.4829 45.4531 19.3287 46.3846 18.4185C47.3162 17.5084 48.5091 16.8832 49.8121 16.6221C51.1151 16.3612 52.4699 16.476 53.7046 16.9523C54.9394 17.4286 55.9987 18.2447 56.7485 19.2975C57.4982 20.3503 57.9047 21.5923 57.9164 22.8663V22.9409C57.9223 24.6355 57.2263 26.2633 55.9807 27.4678C54.7351 28.6724 53.0415 29.3553 51.2708 29.3673V29.3593Z" fill="black"/>
</svg>
