<svg width="577" height="585" viewBox="0 0 577 585" fill="none" xmlns="http://www.w3.org/2000/svg">
<mask id="mask0_606_50887" style="mask-type:alpha" maskUnits="userSpaceOnUse" x="0" y="0" width="577" height="585">
<rect width="577" height="585" rx="10" fill="#F4FAFF"/>
</mask>
<g mask="url(#mask0_606_50887)">
<rect width="577" height="585" rx="10" fill="#F4FAFF"/>
<path opacity="0.8" d="M151.693 111.673L143.81 76.7645C142.723 71.9123 137.996 68.9737 133.299 70.138L132.019 70.3902C52.796 84.5164 24.625 19.8944 17.5512 -3.76465C17.4817 -3.91053 17.4817 -3.91053 17.4122 -4.0564C16.3143 -7.82939 12.9339 -10.5146 9.1002 -10.4776C8.6027 -10.4195 8.03567 -10.5073 7.53817 -10.4492C7.18333 -10.4591 6.89801 -10.3232 6.68583 -10.401L-27.1072 -3.06764C-27.3926 -2.93167 -27.7474 -2.94157 -28.0327 -2.80559C-32.1626 -1.55344 -34.6899 2.69414 -33.8115 7.10872C-33.6797 8.11996 -33.5479 9.1312 -33.3466 10.2883C-29.3969 34.0041 -36.2234 63.3926 -48.1459 91.2715C-42.6742 83.6516 -26.0279 66.0521 -19.3743 60.9121C-5.06848 50.1562 13.0023 46.1984 30.6386 50.145C58.1192 56.3814 88.246 74.7823 100.469 122.838C101.699 127.623 106.283 130.629 110.98 129.465L145.128 122.141C149.752 121.191 152.78 116.525 151.693 111.673Z" fill="white"/>
</g>
<path d="M450.99 184.073L449.992 184.025C450.038 183.057 449.9 182.089 449.584 181.173C449.001 179.74 448.003 178.514 446.717 177.653C445.425 176.787 443.903 176.33 442.347 176.341L442.34 176.341L307.945 176.341H307.939V176.341C306.384 176.332 304.862 176.791 303.57 177.656C302.278 178.522 301.275 179.755 300.692 181.197L300.691 181.198C300.32 182.111 300.13 183.087 300.131 184.072L300.131 184.073L300.131 262.66C300.136 264.71 300.952 266.674 302.401 268.123C303.851 269.572 305.815 270.389 307.865 270.393H442.256C444.306 270.389 446.27 269.572 447.72 268.123C449.169 266.674 449.985 264.71 449.99 262.661M450.99 184.073L449.99 262.661M450.99 184.073H449.99L449.99 262.659M450.99 184.073L449.99 262.659M449.99 262.661C449.99 262.661 449.99 262.66 449.99 262.659M449.99 262.661L449.99 262.659" fill="white" stroke="#D6DCE8" stroke-width="2"/>
<path d="M300.994 180.541C301.594 179.381 302.479 178.388 303.571 177.656C304.863 176.791 306.385 176.332 307.94 176.341V176.341H307.946H442.335C443.864 176.36 445.353 176.83 446.615 177.693C447.679 178.421 448.542 179.401 449.13 180.541L378.004 239.579C378.004 239.579 378.004 239.579 378.004 239.579C377.175 240.263 376.135 240.636 375.061 240.636C373.988 240.636 372.948 240.263 372.119 239.579C372.119 239.579 372.119 239.579 372.119 239.579L300.994 180.541Z" fill="#F1F3F9" stroke="#D6DCE8" stroke-width="2"/>
<path d="M398.436 133.42H326.984V203.399L371.483 240.351C372.49 241.183 373.756 241.637 375.062 241.637C376.368 241.637 377.633 241.183 378.64 240.351L423.159 203.399V149.064L398.436 133.42Z" fill="white"/>
<path d="M374.949 241C373.36 241.001 371.822 240.445 370.606 239.43L326.446 202.989C326.308 202.873 326.196 202.728 326.119 202.564C326.042 202.401 326.001 202.223 326 202.043V133.228C326 132.902 326.13 132.59 326.363 132.36C326.595 132.129 326.91 132 327.238 132H398.145C398.375 131.997 398.6 132.06 398.795 132.181L423.432 147.543C423.609 147.654 423.755 147.809 423.854 147.992C423.954 148.175 424.004 148.381 424 148.59V202.123C423.999 202.304 423.958 202.482 423.881 202.645C423.804 202.808 423.692 202.953 423.553 203.069L379.292 239.43C378.076 240.445 376.538 241.001 374.949 241ZM328.456 201.539L372.189 237.557C372.965 238.196 373.941 238.545 374.949 238.545C375.957 238.545 376.933 238.196 377.709 237.557L421.443 201.539V149.194L397.678 134.537H328.456V201.539Z" fill="#D6DCE8"/>
<path d="M423.16 149.023L398.334 133.399L406.371 154.095L423.16 149.023Z" fill="#EBEBEB"/>
<path d="M406.369 155.341C406.118 155.338 405.873 155.261 405.665 155.119C405.458 154.977 405.297 154.777 405.204 154.543L397.167 133.848C397.079 133.605 397.068 133.341 397.136 133.092C397.204 132.843 397.348 132.621 397.548 132.457C397.748 132.293 397.994 132.195 398.251 132.177C398.509 132.159 398.766 132.221 398.987 132.355L423.813 147.958C424.015 148.088 424.176 148.272 424.277 148.489C424.378 148.706 424.416 148.948 424.386 149.185C424.355 149.423 424.255 149.647 424.099 149.828C423.943 150.01 423.737 150.142 423.506 150.208L406.717 155.198C406.612 155.268 406.494 155.316 406.369 155.341V155.341ZM400.848 136.466L407.106 152.56L420.173 148.613L400.848 136.466Z" fill="#CDD3DF"/>
<path d="M394.53 199.677H400.174C398.12 203.282 395.066 206.215 391.381 208.123C386.543 210.564 381.174 211.766 375.757 211.62C370.635 211.769 365.545 210.755 360.87 208.654C356.979 206.896 353.851 203.796 352.056 199.922C350.307 195.982 349.603 191.658 350.011 187.366C350.389 182.425 351.969 177.652 354.612 173.46C357.12 169.34 360.724 165.998 365.021 163.808C369.469 161.61 374.376 160.502 379.336 160.577C383.381 160.49 387.386 161.381 391.013 163.174C394.213 164.774 396.804 167.373 398.395 170.577C400.028 173.812 400.736 177.435 400.44 181.047C400.099 185.58 398.307 189.883 395.328 193.317C393.689 195.462 391.579 197.201 389.161 198.4C386.742 199.599 384.08 200.224 381.381 200.229C380.243 200.31 379.108 200.038 378.13 199.452C377.773 199.182 377.474 198.845 377.25 198.458C377.025 198.072 376.879 197.645 376.821 197.203C374.807 199.122 372.139 200.204 369.357 200.229C368.025 200.278 366.699 200.03 365.475 199.503C364.252 198.976 363.16 198.183 362.281 197.182C361.353 196.053 360.671 194.741 360.28 193.332C359.889 191.924 359.797 190.449 360.011 189.002C360.316 184.857 361.839 180.895 364.387 177.612C365.632 175.724 367.318 174.168 369.299 173.077C371.28 171.987 373.497 171.396 375.757 171.354C377.103 171.25 378.449 171.534 379.638 172.171C380.827 172.809 381.808 173.775 382.465 174.953L383.344 172.008H390.359L384.878 191.047C384.63 191.808 384.446 192.588 384.326 193.378C384.266 193.729 384.347 194.089 384.551 194.38C384.639 194.483 384.749 194.566 384.873 194.622C384.996 194.679 385.131 194.708 385.267 194.708C386.523 194.536 387.702 194.003 388.661 193.174C390.648 191.749 392.29 189.897 393.467 187.755C394.717 185.603 395.472 183.2 395.675 180.72C395.897 178.726 395.664 176.708 394.995 174.817C394.326 172.926 393.237 171.21 391.81 169.8C388.743 166.882 384.38 165.424 378.723 165.424C374.402 165.313 370.126 166.32 366.31 168.348C362.868 170.252 360.033 173.087 358.13 176.528C356.205 179.931 355.046 183.714 354.735 187.612C354.394 191.147 355.105 194.704 356.78 197.836C358.386 200.87 361.006 203.244 364.183 204.544C367.85 205.996 371.773 206.692 375.716 206.589C379.473 206.664 383.212 206.068 386.759 204.83C389.739 203.789 392.411 202.017 394.53 199.677V199.677ZM366.678 188.777C366.39 190.491 366.739 192.252 367.659 193.726C368.038 194.234 368.532 194.643 369.102 194.921C369.671 195.198 370.298 195.336 370.931 195.321C371.938 195.316 372.929 195.063 373.815 194.585C374.581 194.138 375.271 193.572 375.86 192.908C377.065 191.515 378.007 189.914 378.641 188.184C379.441 186.347 379.938 184.393 380.113 182.397C380.368 180.789 380.002 179.144 379.091 177.796C378.695 177.275 378.181 176.856 377.59 176.575C376.999 176.294 376.35 176.158 375.696 176.18C374.074 176.215 372.522 176.848 371.34 177.959C369.818 179.32 368.676 181.054 368.027 182.99C367.306 184.846 366.852 186.794 366.678 188.777V188.777Z" fill="#247DFF"/>
<path d="M349.318 374.248L350.318 374.255H349.318V444.623C349.318 446.432 348.6 448.167 347.323 449.447C346.046 450.728 344.312 451.45 342.503 451.455H222.182C220.371 451.45 218.635 450.729 217.355 449.448C216.074 448.167 215.353 446.432 215.348 444.621V374.255V374.255C215.348 373.389 215.517 372.532 215.845 371.731L215.845 371.731L215.848 371.725C216.356 370.461 217.231 369.378 218.36 368.615C219.488 367.853 220.818 367.445 222.18 367.443H342.506C343.863 367.444 345.188 367.85 346.313 368.61C347.438 369.369 348.31 370.447 348.818 371.705L348.822 371.715C349.156 372.517 349.324 373.379 349.318 374.248Z" fill="white" stroke="#D6DCE8" stroke-width="2"/>
<path d="M348.514 371.053L284.897 423.872C284.896 423.872 284.895 423.873 284.895 423.873C284.173 424.468 283.267 424.793 282.332 424.793C281.397 424.793 280.49 424.467 279.769 423.872C279.768 423.872 279.768 423.872 279.768 423.872L216.151 371.073C216.673 370.089 217.43 369.244 218.359 368.615C219.488 367.853 220.818 367.445 222.18 367.443H342.506C343.863 367.444 345.188 367.85 346.313 368.61C347.238 369.234 347.992 370.074 348.514 371.053Z" fill="#F1F3F9" stroke="#D6DCE8" stroke-width="2"/>
<path d="M303.181 328.898H239.275V391.556L279.132 424.644C280.028 425.398 281.161 425.812 282.332 425.812C283.503 425.812 284.637 425.398 285.533 424.644L325.389 391.556V342.866L303.181 328.898Z" fill="white"/>
<path d="M282.5 424C281.056 424.003 279.656 423.519 278.544 422.634L238.391 390.594C238.268 390.491 238.168 390.363 238.101 390.22C238.033 390.076 237.999 389.92 238 389.762V329.089C238 328.804 238.117 328.53 238.325 328.326C238.533 328.122 238.816 328.005 239.113 328H303.493C303.706 328.001 303.914 328.063 304.091 328.178L326.464 341.703C326.627 341.798 326.762 341.932 326.856 342.091C326.95 342.251 326.999 342.431 327 342.614V389.762C326.997 389.921 326.959 390.078 326.888 390.221C326.817 390.365 326.715 390.492 326.588 390.594L286.435 422.634C285.328 423.515 283.937 423.998 282.5 424V424ZM240.246 389.267L279.987 420.95C280.691 421.518 281.581 421.829 282.5 421.829C283.419 421.829 284.309 421.518 285.013 420.95L324.754 389.267V343.208L303.164 330.158H240.246V389.267Z" fill="#D6DCE8"/>
<path d="M325.39 342.866L303.182 328.898L310.359 347.405L325.39 342.866Z" fill="#EBEBEB"/>
<path d="M310.359 348.531C310.136 348.528 309.919 348.459 309.737 348.331C309.554 348.203 309.415 348.023 309.336 347.815L302.138 329.287C302.052 329.072 302.037 328.834 302.096 328.61C302.155 328.385 302.284 328.185 302.465 328.04C302.655 327.9 302.884 327.825 303.12 327.825C303.355 327.825 303.584 327.9 303.774 328.04L325.983 342.007C326.165 342.123 326.31 342.288 326.4 342.484C326.491 342.68 326.523 342.898 326.494 343.111C326.464 343.32 326.374 343.515 326.237 343.675C326.099 343.834 325.919 343.951 325.717 344.011L310.686 348.551C310.577 348.566 310.466 348.559 310.359 348.531V348.531ZM305.431 331.619L311.034 346.056L322.772 342.518L305.431 331.619Z" fill="#CDD3DF"/>
<path d="M299.766 388.326H304.817C302.983 391.56 300.248 394.189 296.943 395.892C292.612 398.077 287.805 399.152 282.956 399.021C278.37 399.15 273.814 398.248 269.623 396.383C266.145 394.8 263.351 392.02 261.749 388.551C260.145 385.032 259.482 381.156 259.827 377.303C260.149 372.886 261.554 368.616 263.917 364.87C266.153 361.17 269.385 358.172 273.242 356.22C277.202 354.244 281.578 353.249 286.003 353.316C289.63 353.237 293.222 354.037 296.473 355.647C299.338 357.076 301.658 359.403 303.078 362.273C304.503 365.177 305.105 368.417 304.817 371.639C304.508 375.69 302.901 379.534 300.236 382.6C298.768 384.512 296.879 386.061 294.715 387.125C292.552 388.189 290.172 388.74 287.762 388.735C286.741 388.811 285.721 388.576 284.837 388.06C284.515 387.815 284.246 387.508 284.046 387.156C283.846 386.805 283.718 386.417 283.672 386.015C281.866 387.731 279.475 388.696 276.985 388.714C275.792 388.76 274.605 388.54 273.508 388.069C272.412 387.599 271.434 386.89 270.645 385.994C269.825 384.993 269.219 383.834 268.868 382.588C268.516 381.343 268.425 380.038 268.6 378.755C268.892 375.039 270.256 371.487 272.526 368.53C273.646 366.834 275.162 365.437 276.944 364.461C278.726 363.484 280.72 362.958 282.751 362.927C283.958 362.828 285.168 363.081 286.235 363.654C287.302 364.228 288.18 365.097 288.764 366.158L289.561 363.52H295.819L290.911 380.555C290.624 381.645 290.461 382.327 290.42 382.6C290.375 382.915 290.448 383.235 290.624 383.5C290.704 383.59 290.801 383.662 290.91 383.712C291.02 383.761 291.138 383.786 291.258 383.786C292.386 383.636 293.445 383.16 294.305 382.416C296.084 381.138 297.557 379.483 298.62 377.569C299.753 375.644 300.451 373.494 300.665 371.271C300.86 369.485 300.648 367.678 300.046 365.985C299.444 364.293 298.467 362.758 297.189 361.496C295.634 360.097 293.813 359.027 291.835 358.348C289.856 357.67 287.762 357.398 285.676 357.549C281.801 357.448 277.967 358.357 274.551 360.187C271.457 361.9 268.918 364.462 267.23 367.569C265.513 370.616 264.48 374.001 264.203 377.487C263.901 380.647 264.534 383.826 266.023 386.628C267.47 389.341 269.822 391.461 272.67 392.62C275.916 393.932 279.394 394.572 282.894 394.502C286.262 394.579 289.615 394.046 292.792 392.927C295.468 392.006 297.866 390.423 299.766 388.326V388.326ZM274.817 378.571C274.562 380.111 274.882 381.69 275.717 383.009C276.051 383.463 276.489 383.829 276.994 384.079C277.499 384.328 278.057 384.452 278.621 384.44C279.529 384.439 280.423 384.207 281.218 383.765C281.936 383.386 282.581 382.881 283.119 382.273C284.212 381.032 285.058 379.596 285.614 378.04C286.321 376.394 286.769 374.648 286.944 372.866C287.145 371.433 286.81 369.977 286.003 368.776C285.65 368.312 285.191 367.941 284.664 367.691C284.137 367.442 283.558 367.323 282.976 367.344C281.526 367.377 280.138 367.937 279.07 368.919C277.716 370.143 276.696 371.691 276.105 373.418C275.452 375.037 275.019 376.735 274.817 378.469V378.571Z" fill="#247DFF"/>
<path d="M127.989 231.538L127.993 231.529L127.996 231.521C128.424 230.451 129.163 229.535 130.116 228.888C131.07 228.242 132.195 227.897 133.346 227.896H237.515C238.664 227.9 239.786 228.246 240.739 228.888C241.693 229.531 242.434 230.442 242.869 231.507L242.869 231.507C243.149 232.19 243.29 232.921 243.286 233.658L244.286 233.664H243.286V294.581C243.281 296.11 242.671 297.576 241.59 298.657C240.509 299.739 239.043 300.348 237.514 300.353H133.346C131.814 300.353 130.344 299.745 129.258 298.663C128.174 297.582 127.562 296.114 127.557 294.582V233.665C127.558 232.934 127.705 232.211 127.989 231.538Z" fill="white" stroke="#D6DCE8" stroke-width="2"/>
<path d="M185.422 277.279C184.643 277.279 183.889 277.008 183.288 276.513C183.287 276.513 183.287 276.512 183.287 276.512L128.303 230.874C128.741 230.082 129.361 229.4 130.117 228.888C131.07 228.242 132.195 227.897 133.347 227.896H237.515C238.665 227.9 239.787 228.246 240.74 228.888C241.493 229.396 242.114 230.072 242.556 230.858L187.556 276.512C187.556 276.512 187.556 276.512 187.556 276.513C186.955 277.008 186.2 277.279 185.422 277.279Z" fill="#F1F3F9" stroke="#D6DCE8" stroke-width="2"/>
<path d="M203.468 194.38H148.254V248.653L182.753 277.283C183.528 277.938 184.509 278.297 185.524 278.297C186.538 278.297 187.519 277.938 188.294 277.283L222.814 248.653V206.486L203.468 194.38Z" fill="white"/>
<path d="M185.5 277C184.251 277.001 183.042 276.576 182.082 275.799L147.35 247.779C147.24 247.692 147.151 247.582 147.091 247.458C147.03 247.333 146.999 247.197 147 247.059V193.941C147 193.691 147.102 193.452 147.283 193.276C147.465 193.099 147.711 193 147.968 193H203.659C203.843 193.004 204.022 193.059 204.174 193.16L223.547 204.989C223.683 205.077 223.794 205.196 223.873 205.336C223.952 205.475 223.995 205.63 224 205.789V247.059C223.997 247.196 223.964 247.331 223.904 247.455C223.843 247.579 223.757 247.69 223.65 247.779L188.918 275.799C187.958 276.576 186.749 277.001 185.5 277V277ZM148.935 246.598L183.318 274.358C183.928 274.851 184.696 275.121 185.49 275.121C186.283 275.121 187.052 274.851 187.662 274.358L222.044 246.598V206.309L203.371 194.901H148.935V246.598Z" fill="#D6DCE8"/>
<path d="M222.712 206.486L203.469 194.38L209.685 210.412L222.712 206.486Z" fill="#EBEBEB"/>
<path d="M209.686 211.394C209.492 211.392 209.303 211.33 209.146 211.217C208.988 211.103 208.87 210.944 208.806 210.761L202.671 194.728C202.603 194.54 202.595 194.335 202.648 194.143C202.701 193.95 202.813 193.778 202.969 193.652C203.124 193.526 203.315 193.452 203.514 193.439C203.714 193.427 203.913 193.477 204.082 193.583L223.326 205.669C223.481 205.771 223.604 205.916 223.68 206.087C223.756 206.257 223.782 206.445 223.755 206.63C223.733 206.812 223.657 206.983 223.536 207.121C223.416 207.26 223.257 207.359 223.08 207.407L210.074 211.354L209.686 211.394ZM205.412 196.752L210.279 209.247L220.504 206.18L205.412 196.752Z" fill="#CDD3DF"/>
<path d="M200.523 245.75H204.899C203.305 248.548 200.932 250.821 198.069 252.294C194.323 254.193 190.162 255.128 185.963 255.014C181.995 255.131 178.052 254.348 174.429 252.724C171.413 251.362 168.988 248.959 167.599 245.955C166.219 242.907 165.648 239.554 165.943 236.221C166.236 232.39 167.465 228.689 169.521 225.444C171.451 222.242 174.244 219.648 177.579 217.959C181.013 216.251 184.806 215.389 188.642 215.444C191.783 215.377 194.893 216.079 197.701 217.489C200.178 218.729 202.187 220.738 203.427 223.215C204.668 225.752 205.185 228.582 204.92 231.395C204.652 234.902 203.261 238.229 200.953 240.883C199.686 242.546 198.053 243.895 196.18 244.824C194.307 245.753 192.246 246.238 190.155 246.241C189.266 246.307 188.379 246.093 187.619 245.628C187.345 245.419 187.116 245.158 186.944 244.859C186.772 244.561 186.661 244.231 186.617 243.889C185.055 245.377 182.987 246.217 180.83 246.241C179.797 246.279 178.769 246.086 177.821 245.675C176.873 245.265 176.029 244.648 175.35 243.869C174.641 243.003 174.117 242.001 173.811 240.925C173.505 239.848 173.423 238.721 173.57 237.611C173.827 234.397 175.014 231.328 176.985 228.777C177.948 227.316 179.251 226.111 180.783 225.267C182.315 224.423 184.03 223.964 185.779 223.93C186.823 223.845 187.869 224.065 188.791 224.562C189.713 225.059 190.471 225.813 190.973 226.732L191.668 224.442H197.108L192.854 239.043C192.666 239.631 192.522 240.232 192.425 240.842C192.387 241.115 192.453 241.392 192.609 241.619C192.677 241.699 192.761 241.763 192.857 241.805C192.953 241.848 193.057 241.868 193.161 241.865C194.137 241.735 195.054 241.323 195.799 240.679C197.334 239.544 198.613 238.097 199.55 236.434C200.487 234.77 201.063 232.928 201.239 231.026C201.389 229.5 201.197 227.959 200.677 226.516C200.157 225.072 199.322 223.763 198.233 222.683C196.881 221.479 195.301 220.558 193.587 219.974C191.873 219.391 190.059 219.158 188.253 219.288C184.907 219.202 181.596 219.984 178.642 221.558C175.956 223.037 173.755 225.259 172.303 227.959C170.801 230.593 169.9 233.526 169.664 236.548C169.411 239.276 169.958 242.019 171.239 244.441C172.498 246.791 174.538 248.628 177.006 249.636C179.844 250.778 182.884 251.334 185.942 251.272C188.851 251.336 191.748 250.872 194.49 249.902C196.825 249.059 198.902 247.629 200.523 245.75V245.75ZM178.928 237.305C178.699 238.608 178.946 239.951 179.624 241.088C179.919 241.479 180.302 241.794 180.743 242.007C181.184 242.221 181.67 242.326 182.159 242.315C182.945 242.317 183.719 242.12 184.409 241.742C185.026 241.413 185.58 240.976 186.045 240.454C186.982 239.374 187.717 238.134 188.212 236.793C188.815 235.359 189.201 233.843 189.358 232.294C189.534 231.048 189.243 229.78 188.54 228.736C188.235 228.334 187.838 228.01 187.383 227.793C186.927 227.576 186.426 227.472 185.922 227.489C184.661 227.516 183.454 228.004 182.527 228.859C181.361 229.971 180.502 231.366 180.032 232.908C179.464 234.316 179.093 235.795 178.928 237.305V237.305Z" fill="#247DFF"/>
<path d="M344.183 281.537H291.055V283.664H344.183V281.537Z" fill="#9FBDFF"/>
<path d="M357.597 295.074H320.215V297.201H357.597V295.074Z" fill="#9FBDFF"/>
<path d="M176.025 451.393H141.588V453.519H176.025V451.393Z" fill="#9FBDFF"/>
<path d="M189.439 464.909H170.748V467.036H189.439V464.909Z" fill="#9FBDFF"/>
<path d="M160.279 346.342H141.588V348.469H160.279V346.342Z" fill="#9FBDFF"/>
<path d="M281.279 281.536H269.889V283.663H281.279V281.536Z" fill="#9FBDFF"/>
<path d="M430.356 373.884H380.68V324.208H430.356V373.884ZM382.201 372.362H428.834V325.729H382.201V372.362Z" fill="#407BFF" fill-opacity="0.25"/>
<g opacity="0.5">
<path opacity="0.5" d="M430.358 373.884H380.682V324.208H430.358V373.884ZM382.203 372.362H428.836V325.729H382.203V372.362Z" fill="white"/>
</g>
<path d="M404.855 333.706C405.025 333.297 405.605 333.297 405.775 333.706L409.495 342.651C409.567 342.823 409.729 342.941 409.915 342.956L419.571 343.73C420.013 343.765 420.192 344.316 419.856 344.604L412.498 350.906C412.356 351.028 412.295 351.218 412.338 351.4L414.586 360.823C414.688 361.254 414.22 361.594 413.842 361.364L405.574 356.314C405.415 356.217 405.215 356.217 405.055 356.314L396.788 361.364C396.41 361.594 395.942 361.254 396.044 360.823L398.292 351.4C398.335 351.218 398.274 351.028 398.132 350.906L390.774 344.604C390.438 344.316 390.617 343.765 391.058 343.73L400.715 342.956C400.901 342.941 401.063 342.823 401.135 342.651L404.855 333.706Z" fill="#C6DAF9"/>
<path d="M431.1 323.463H428.088V326.475H431.1V323.463Z" fill="#C7DAFF"/>
<path d="M431.1 371.617H428.088V374.63H431.1V371.617Z" fill="#C7DAFF"/>
<path d="M382.946 371.617H379.934V374.63H382.946V371.617Z" fill="#C7DAFF"/>
<path d="M382.946 323.463H379.934V326.475H382.946V323.463Z" fill="#C7DAFF"/>
<path d="M275.014 168.795H225.338V119.119H275.014V168.795ZM226.859 167.274H273.492V120.641H226.859V167.274Z" fill="#407BFF" fill-opacity="0.25"/>
<g opacity="0.5">
<path opacity="0.5" d="M275.014 168.795H225.338V119.119H275.014V168.795ZM226.859 167.274H273.492V120.641H226.859V167.274Z" fill="white"/>
</g>
<path d="M275.759 118.374H272.746V121.387H275.759V118.374Z" fill="#C7DAFF"/>
<path d="M275.759 166.528H272.746V169.541H275.759V166.528Z" fill="#C7DAFF"/>
<path d="M227.604 166.528H224.592V169.541H227.604V166.528Z" fill="#C7DAFF"/>
<path d="M227.604 118.374H224.592V121.387H227.604V118.374Z" fill="#C7DAFF"/>
<path d="M261.915 135.231C263.552 136.97 264.431 138.921 264.431 142.082C264.431 147.646 260.525 152.632 254.846 155.097L253.427 152.907C258.728 150.039 259.764 146.318 260.177 143.972C259.324 144.414 258.206 144.568 257.111 144.467C254.244 144.201 251.983 141.847 251.983 138.921C251.983 137.445 252.57 136.03 253.613 134.987C254.656 133.944 256.071 133.357 257.547 133.357C259.252 133.357 260.883 134.136 261.915 135.231ZM246.02 135.231C247.657 136.97 248.536 138.921 248.536 142.082C248.536 147.646 244.63 152.632 238.951 155.097L237.532 152.907C242.833 150.039 243.869 146.318 244.282 143.972C243.429 144.414 242.311 144.568 241.216 144.467C238.349 144.201 236.09 141.847 236.09 138.921C236.09 137.445 236.676 136.03 237.719 134.987C238.763 133.944 240.178 133.357 241.653 133.357C243.359 133.357 244.99 134.136 246.021 135.231H246.02Z" fill="#C6DAF9"/>
<path opacity="0.8" d="M428.869 451.749L453.611 446.162C457.048 445.38 460.37 447.503 461.057 450.855L461.286 451.749C476.406 506.609 526.349 504.933 543.646 502.251C543.76 502.251 543.76 502.251 543.875 502.251C546.624 501.804 549.373 503.145 550.519 505.603C550.633 505.938 550.862 506.274 550.977 506.609C551.091 506.832 551.091 507.056 551.206 507.167L556.819 530.966C556.819 531.19 556.933 531.413 556.933 531.637C557.392 534.653 555.444 537.558 552.352 538.34C551.664 538.564 550.977 538.787 550.175 539.011C533.795 543.704 517.071 557 502.867 573.089C506.074 567.279 512.26 551.301 513.52 545.491C516.04 533.089 513.062 520.352 505.158 510.296C492.787 494.654 471.825 481.022 437.346 487.838C433.909 488.508 430.587 486.497 429.9 483.145L424.173 459.123C423.371 455.883 425.433 452.531 428.869 451.749Z" fill="white"/>
</svg>
