<svg width="181" height="40" viewBox="0 0 181 40" fill="none" xmlns="http://www.w3.org/2000/svg">
<path fill-rule="evenodd" clip-rule="evenodd" d="M62.2762 12.3499C61.5653 11.6831 60.7373 11.1791 59.7924 10.8379C58.8475 10.4967 57.9213 10.3259 57.0142 10.3259C56.2576 10.3259 55.5092 10.4231 54.7686 10.6167C54.0273 10.8107 53.3623 11.1167 52.7727 11.5355C52.1826 11.9543 51.7065 12.4895 51.3434 13.1407C50.9807 13.7923 50.7994 14.5755 50.7994 15.4907C50.7994 16.2351 50.916 16.8671 51.1508 17.3867C51.3851 17.9063 51.6952 18.3483 52.0809 18.7127C52.4662 19.0775 52.9049 19.3759 53.3963 19.6083C53.8877 19.8411 54.3903 20.0427 54.9047 20.2131C55.4336 20.3843 55.9062 20.5431 56.3223 20.6903C56.738 20.8379 57.0855 21.0007 57.3655 21.1787C57.6451 21.3571 57.8608 21.5551 58.0121 21.7719C58.163 21.9895 58.2387 22.2531 58.2387 22.5631C58.2387 22.8887 58.1783 23.1679 58.0574 23.4003C57.9361 23.6331 57.7738 23.8191 57.5699 23.9587C57.3655 24.0983 57.1272 24.1995 56.8554 24.2611C56.5832 24.3235 56.3032 24.3543 56.0162 24.3543C55.3809 24.3543 54.7421 24.1879 54.0994 23.8543C53.4563 23.5207 52.9388 23.1059 52.5457 22.6095L50.0054 25.2615C50.7159 26.0219 51.6078 26.6075 52.6818 27.0183C53.7555 27.4287 54.8665 27.6347 56.0162 27.6347C56.802 27.6347 57.566 27.5259 58.307 27.3091C59.0475 27.0919 59.7054 26.7587 60.2803 26.3087C60.8547 25.8587 61.3122 25.2891 61.6526 24.5987C61.9927 23.9087 62.1627 23.0903 62.1627 22.1443C62.1627 21.3223 62.004 20.6359 61.6865 20.0855C61.3691 19.5351 60.9682 19.0735 60.4842 18.7011C60.0003 18.3287 59.4636 18.0303 58.874 17.8055C58.2843 17.5807 57.7173 17.3751 57.1729 17.1887C56.7946 17.0651 56.4545 16.9447 56.1523 16.8283C55.8493 16.7119 55.5888 16.5839 55.3696 16.4443C55.15 16.3047 54.9839 16.1419 54.8704 15.9559C54.7573 15.7699 54.7004 15.5371 54.7004 15.2579C54.7004 14.9323 54.7721 14.6647 54.916 14.4555C55.0596 14.2459 55.237 14.0755 55.4492 13.9435C55.6605 13.8119 55.8988 13.7223 56.1636 13.6759C56.428 13.6295 56.6885 13.6063 56.9459 13.6063C57.4451 13.6063 57.9626 13.7343 58.4996 13.9899C59.0362 14.2459 59.4711 14.5911 59.8037 15.0255L62.2762 12.3499ZM66.9934 27.2159H70.8948V10.7447H66.9934V27.2159ZM88.1103 14.1411V10.7447H75.1589V14.1411H79.6956V27.2159H83.574V14.1411H88.1103ZM103.579 27.2159V23.8191H96.117V20.3995H102.785V17.2123H96.117V14.0947H103.171V10.7447H92.3744V27.2159H103.579ZM122.088 24.9359L119.389 22.3303C119.04 22.8267 118.579 23.2299 118.005 23.5399C117.43 23.8507 116.757 24.0055 115.986 24.0055C115.321 24.0055 114.708 23.8815 114.149 23.6331C113.589 23.3851 113.109 23.0399 112.708 22.5979C112.308 22.1559 111.994 21.6247 111.767 21.0043C111.54 20.3843 111.427 19.7015 111.427 18.9571C111.427 18.2283 111.54 17.5575 111.767 16.9447C111.994 16.3323 112.311 15.8011 112.72 15.3511C113.128 14.9015 113.616 14.5483 114.183 14.2923C114.75 14.0367 115.374 13.9087 116.054 13.9087C116.674 13.9087 117.279 14.0331 117.869 14.2807C118.458 14.5291 118.935 14.9091 119.297 15.4207L121.928 12.7223C121.248 11.9311 120.36 11.3303 119.263 10.9191C118.167 10.5083 117.052 10.3027 115.918 10.3027C114.693 10.3027 113.551 10.5043 112.493 10.9075C111.434 11.3111 110.512 11.8887 109.726 12.6407C108.939 13.3931 108.323 14.3043 107.877 15.3743C107.431 16.4443 107.208 17.6391 107.208 18.9571C107.208 20.2447 107.427 21.4231 107.866 22.4931C108.304 23.5635 108.909 24.4823 109.681 25.2499C110.452 26.0179 111.363 26.6111 112.414 27.0299C113.465 27.4483 114.61 27.6579 115.85 27.6579C117.211 27.6579 118.413 27.4135 119.456 26.9251C120.499 26.4363 121.376 25.7735 122.088 24.9359ZM141.254 15.3395C140.815 14.2771 140.207 13.3735 139.428 12.6291C138.649 11.8847 137.722 11.3111 136.649 10.9075C135.576 10.5043 134.411 10.3027 133.156 10.3027C131.901 10.3027 130.741 10.5043 129.675 10.9075C128.608 11.3111 127.686 11.8847 126.907 12.6291C126.129 13.3735 125.519 14.2771 125.081 15.3395C124.642 16.4019 124.424 17.5923 124.424 18.9103C124.424 20.2131 124.642 21.4039 125.081 22.4815C125.519 23.5599 126.129 24.4823 126.907 25.2499C127.686 26.0179 128.608 26.6111 129.675 27.0299C130.741 27.4483 131.901 27.6579 133.156 27.6579C134.411 27.6579 135.576 27.4483 136.649 27.0299C137.722 26.6111 138.649 26.0179 139.428 25.2499C140.207 24.4823 140.815 23.5599 141.254 22.4815C141.692 21.4039 141.912 20.2131 141.912 18.9103C141.912 17.5923 141.692 16.4019 141.254 15.3395ZM137.421 20.9695C137.194 21.5975 136.876 22.1367 136.468 22.5863C136.06 23.0363 135.576 23.3887 135.016 23.6447C134.456 23.9007 133.837 24.0287 133.156 24.0287C132.476 24.0287 131.856 23.9007 131.296 23.6447C130.737 23.3887 130.257 23.0363 129.856 22.5863C129.455 22.1367 129.142 21.5975 128.915 20.9695C128.687 20.3411 128.574 19.6551 128.574 18.9103C128.574 18.1971 128.684 17.5303 128.903 16.9099C129.123 16.2895 129.436 15.7583 129.845 15.3163C130.253 14.8739 130.737 14.5251 131.296 14.2691C131.856 14.0135 132.476 13.8855 133.156 13.8855C133.837 13.8855 134.461 14.0135 135.028 14.2691C135.594 14.5251 136.078 14.8739 136.479 15.3163C136.879 15.7583 137.194 16.2895 137.421 16.9099C137.648 17.5303 137.761 18.1971 137.761 18.9103C137.761 19.6551 137.648 20.3411 137.421 20.9695ZM159.308 27.2159L155.112 20.1667C156.156 19.8411 156.972 19.2983 157.562 18.5383C158.152 17.7787 158.447 16.8399 158.447 15.7231C158.447 14.7775 158.273 13.9863 157.925 13.3503C157.577 12.7143 157.112 12.2027 156.53 11.8147C155.948 11.4275 155.29 11.1519 154.556 10.9891C153.823 10.8259 153.071 10.7447 152.299 10.7447H146.176V27.2159H149.964V20.6787H151.286L154.772 27.2159H159.308ZM154.351 16.8167C154.176 17.0807 153.952 17.2819 153.679 17.4215C153.405 17.5611 153.101 17.6583 152.767 17.7123C152.433 17.7667 152.105 17.7939 151.787 17.7939H149.941V13.9551H152.015C152.304 13.9551 152.603 13.9783 152.915 14.0251C153.227 14.0715 153.508 14.1607 153.759 14.2923C154.009 14.4243 154.214 14.6107 154.374 14.8507C154.533 15.0915 154.613 15.4055 154.613 15.7931C154.613 16.2119 154.525 16.5531 154.351 16.8167ZM174.573 27.2159V23.8191H167.111V20.3995H173.779V17.2123H167.111V14.0947H174.165V10.7447H163.369V27.2159H174.573Z" fill="black"/>
<path fill-rule="evenodd" clip-rule="evenodd" d="M18.5156 29.0697C20.0366 28.8685 21.5045 28.3957 22.8351 27.6361C26.1215 25.7605 28.0199 22.5365 28.1806 18.5573L28.1946 18.2129H32.743C32.4564 15.8533 31.5844 13.6781 30.283 11.8425L25.6297 14.9057C27.0453 17.1817 27.2279 19.7045 26.1531 22.2245C24.8798 25.2093 21.8785 27.8249 18.5156 29.0697Z" fill="#EE3524"/>
<path fill-rule="evenodd" clip-rule="evenodd" d="M32.8117 18.9314H28.862C28.596 22.9574 26.5369 26.3454 23.1756 28.2638C21.2573 29.3586 19.0738 29.9034 16.8442 29.9034C15.1166 29.9034 13.3613 29.575 11.6797 28.9238C13.701 30.2174 15.9722 30.925 18.325 30.9322H18.3609C22.6098 30.9322 26.4238 28.627 28.5691 24.7602L28.7508 24.433L31.3937 26.1514C32.3231 24.2802 32.8503 22.1654 32.8503 19.9254C32.8503 19.5906 32.8347 19.2602 32.8117 18.9314Z" fill="#EE3524"/>
<path fill-rule="evenodd" clip-rule="evenodd" d="M18.3613 31.6506H18.3234C14.0902 31.6378 10.1127 29.4882 7.28223 25.7878C9.43299 30.4562 14.0672 33.695 19.4263 33.695C24.3947 33.695 28.7379 30.9102 31.0591 26.7842L28.9926 25.4406C26.6901 29.3382 22.7447 31.6506 18.3613 31.6506Z" fill="#EE3524"/>
<path fill-rule="evenodd" clip-rule="evenodd" d="M19.4263 0C8.69741 0 0 8.9208 0 19.9252C0 30.9296 8.69741 39.8504 19.4263 39.8504C30.1551 39.8504 38.8525 30.9296 38.8525 19.9252C38.8525 8.9208 30.1551 0 19.4263 0ZM19.4263 34.4132C11.625 34.4132 5.30105 27.9268 5.30105 19.9252C5.30105 11.924 11.625 5.4376 19.4263 5.4376C27.2275 5.4376 33.5515 11.924 33.5515 19.9252C33.5515 27.9268 27.2275 34.4132 19.4263 34.4132Z" fill="#EE3524"/>
<path fill-rule="evenodd" clip-rule="evenodd" d="M177.576 13.0467C177.661 13.2423 177.774 13.4131 177.918 13.5587C178.063 13.7043 178.232 13.8187 178.425 13.9023C178.618 13.9859 178.824 14.0275 179.043 14.0275C179.261 14.0275 179.467 13.9859 179.66 13.9023C179.853 13.8187 180.022 13.7043 180.167 13.5587C180.311 13.4131 180.425 13.2423 180.509 13.0467C180.592 12.8511 180.634 12.6411 180.634 12.4167C180.634 12.1923 180.592 11.9811 180.509 11.7831C180.425 11.5851 180.311 11.4131 180.167 11.2675C180.022 11.1219 179.853 11.0063 179.66 10.9203C179.467 10.8343 179.261 10.7915 179.043 10.7915C178.824 10.7915 178.618 10.8343 178.425 10.9203C178.232 11.0063 178.063 11.1219 177.918 11.2675C177.774 11.4131 177.661 11.5851 177.576 11.7831C177.493 11.9811 177.451 12.1923 177.451 12.4167C177.451 12.6411 177.493 12.8511 177.576 13.0467ZM177.807 11.8795C177.877 11.7127 177.972 11.5671 178.093 11.4431C178.214 11.3187 178.356 11.2211 178.519 11.1495C178.682 11.0779 178.856 11.0419 179.043 11.0419C179.228 11.0419 179.403 11.0779 179.566 11.1495C179.729 11.2211 179.871 11.3187 179.992 11.4431C180.113 11.5671 180.208 11.7127 180.278 11.8795C180.348 12.0467 180.382 12.2259 180.382 12.4167C180.382 12.6027 180.348 12.7795 180.278 12.9463C180.208 13.1135 180.113 13.2603 179.992 13.3867C179.871 13.5135 179.729 13.6123 179.566 13.6839C179.403 13.7555 179.228 13.7915 179.043 13.7915C178.856 13.7915 178.682 13.7555 178.519 13.6839C178.356 13.6123 178.214 13.5135 178.093 13.3867C177.972 13.2603 177.877 13.1135 177.807 12.9463C177.737 12.7795 177.702 12.6027 177.702 12.4167C177.702 12.2259 177.737 12.0467 177.807 11.8795ZM178.421 13.3259H178.742V12.5599H178.973L179.391 13.3259H179.782L179.301 12.5239C179.426 12.4955 179.526 12.4395 179.601 12.3559C179.676 12.2723 179.713 12.1639 179.713 12.0299C179.713 11.9299 179.694 11.8463 179.657 11.7795C179.619 11.7127 179.569 11.6579 179.506 11.6147C179.444 11.5719 179.373 11.5407 179.293 11.5215C179.214 11.5027 179.133 11.4931 179.049 11.4931H178.421V13.3259ZM178.742 12.2951V11.7723H179.035C179.119 11.7723 179.199 11.7891 179.276 11.8223C179.353 11.8559 179.391 11.9227 179.391 12.0227C179.391 12.1327 179.35 12.2055 179.266 12.2411C179.182 12.2771 179.094 12.2951 179 12.2951H178.742Z" fill="#231F20"/>
</svg>
