<svg width="20" height="20" viewBox="0 0 20 20" fill="none" xmlns="http://www.w3.org/2000/svg">
<path d="M9.95383 1.37684C9.96079 1.36012 9.9675 1.35551 9.97082 1.35341C9.97647 1.34984 9.98654 1.34605 10 1.34605C10.0135 1.34605 10.0235 1.34984 10.0292 1.35341C10.0325 1.35551 10.0392 1.36012 10.0462 1.37684L12.3189 6.84107C12.4701 7.20462 12.812 7.45301 13.2044 7.48448L19.1035 7.95741C19.1216 7.95885 19.128 7.96381 19.1311 7.96632C19.1362 7.9706 19.1429 7.97899 19.1471 7.9918C19.1513 8.0046 19.1508 8.01534 19.1491 8.02182C19.1481 8.02563 19.1458 8.03344 19.1321 8.04522L14.6376 11.8952C14.3386 12.1514 14.208 12.5533 14.2993 12.9363L15.6725 18.6928C15.6767 18.7104 15.6739 18.7181 15.6725 18.7217C15.67 18.728 15.6641 18.7369 15.6532 18.7449C15.6423 18.7528 15.632 18.7556 15.6253 18.756C15.6214 18.7563 15.6132 18.7565 15.5978 18.7471L10.5473 15.6623C10.2113 15.457 9.7887 15.457 9.45268 15.6623L4.40224 18.7471C4.38678 18.7565 4.37864 18.7563 4.37472 18.756C4.36805 18.7556 4.35768 18.7528 4.34679 18.7448C4.33589 18.7369 4.32998 18.728 4.32751 18.7217C4.32606 18.7181 4.32334 18.7104 4.32754 18.6928L5.70068 12.9363C5.79204 12.5533 5.66145 12.1514 5.36242 11.8952L0.867933 8.04522C0.854178 8.03344 0.851868 8.02563 0.850898 8.02182C0.849248 8.01534 0.848748 8.0046 0.852908 7.9918C0.857068 7.97899 0.863787 7.97059 0.86893 7.96632C0.871953 7.96381 0.878411 7.95885 0.896465 7.95741L6.79556 7.48448C7.18803 7.45301 7.52993 7.20462 7.68113 6.84107L9.95383 1.37684Z" fill="white" stroke="#F8A21F"/>
</svg>
