<svg width="20" height="20" viewBox="0 0 20 20" fill="none" xmlns="http://www.w3.org/2000/svg">
<path d="M9.49217 1.18483C9.68005 0.733118 10.3199 0.733117 10.5078 1.18483L12.7805 6.64905C12.8597 6.83948 13.0388 6.9696 13.2444 6.98608L19.1435 7.45901C19.6311 7.4981 19.8289 8.10668 19.4573 8.42495L14.9629 12.275C14.8062 12.4091 14.7378 12.6197 14.7857 12.8203L16.1588 18.5768C16.2723 19.0527 15.7546 19.4288 15.3371 19.1738L10.2867 16.089C10.1107 15.9815 9.88932 15.9815 9.71331 16.089L4.66287 19.1738C4.24536 19.4288 3.72767 19.0527 3.84119 18.5768L5.21432 12.8203C5.26218 12.6197 5.19377 12.4091 5.03714 12.275L0.542655 8.42495C0.17111 8.10668 0.368848 7.4981 0.856508 7.45901L6.7556 6.98608C6.96118 6.9696 7.14027 6.83948 7.21947 6.64906L9.49217 1.18483Z" fill="#FFCC00"/>
</svg>
