<svg width="243" height="263" viewBox="0 0 243 263" fill="none" xmlns="http://www.w3.org/2000/svg">
<path opacity="0.5" d="M232.896 251.103L181.551 262.664C174.419 264.283 167.526 259.89 166.1 252.953L165.624 251.103C134.247 137.575 30.6062 141.043 -5.28771 146.592C-5.52542 146.592 -5.52542 146.592 -5.76313 146.592C-11.4681 147.517 -17.1731 144.743 -19.5502 139.656C-19.7879 138.962 -20.2633 138.269 -20.501 137.575C-20.7387 137.113 -20.7387 136.65 -20.9764 136.419L-32.6241 87.1694C-32.6241 86.7069 -32.8618 86.2445 -32.8618 85.7821C-33.8127 79.5392 -29.7716 73.5275 -23.3535 71.9089C-21.9273 71.4465 -20.501 70.9841 -18.8371 70.5216C15.1552 60.8104 49.8605 33.2955 79.3363 0C72.6805 12.0234 59.8443 45.0876 57.2295 57.111C51.9999 82.7762 58.1803 109.135 74.5821 129.945C100.255 162.315 143.755 190.524 215.305 176.42C222.436 175.032 229.33 179.194 230.756 186.131L242.642 235.843C244.306 242.548 240.027 249.485 232.896 251.103Z" fill="white" fill-opacity="0.07"/>
</svg>
