<svg width="143" height="136" viewBox="0 0 143 136" fill="none" xmlns="http://www.w3.org/2000/svg">
<path opacity="0.8" d="M5.23527 6.15192L31.8379 0.173651C35.5327 -0.663294 39.1043 1.60844 39.8433 5.1954L40.0896 6.15192C56.3468 64.8586 110.045 63.0651 128.642 60.1955C128.765 60.1955 128.765 60.1955 128.888 60.1955C131.844 59.7173 134.8 61.152 136.031 63.7825C136.155 64.1412 136.401 64.4999 136.524 64.8586C136.647 65.0977 136.647 65.3368 136.77 65.4564L142.805 90.9238C142.805 91.163 142.928 91.4021 142.928 91.6412C143.421 94.8695 141.327 97.9782 138.002 98.8152C137.263 99.0543 136.524 99.2934 135.662 99.5326C118.05 104.554 100.069 118.783 84.7968 136C88.2453 129.783 94.8959 112.685 96.2507 106.467C98.9602 93.1956 95.758 79.5651 87.26 68.8042C73.9587 52.0651 51.4204 37.4781 14.3491 44.7716C10.6543 45.489 7.08266 43.3368 6.34371 39.7498L0.185695 14.0433C-0.676426 10.5759 1.54046 6.98888 5.23527 6.15192Z" fill="white" fill-opacity="0.07"/>
</svg>
